<?xml version="1.0" encoding="utf-8"?>
<svg version="1.1" id="Otomanopee - Open Source Japanese Font" xmlns="http://www.w3.org/2000/svg" xmlns:xlink="http://www.w3.org/1999/xlink" width="900" height="600" viewBox="0 0 900 600">
<style type="text/css">
	.st0{fill:#EDE7DF;}
	.st1{fill:#993333;}
	.st2{fill:#663333;}
	.st3{fill:#996666;}
</style>
<rect y="0" class="st0" width="900" height="600"/>
<g>
	<path class="st1" d="M22,60.408C22,45.757,32.031,35,45.758,35c13.727,0,23.758,10.757,23.758,25.408
		c0,14.65-10.031,25.408-23.758,25.408C32.031,85.816,22,75.059,22,60.408z M57.769,62.718c0-12.473-5.874-22.174-13.397-22.174
		c-6.401,0-10.625,6.995-10.625,17.554c0,12.473,5.874,22.174,13.397,22.174C53.545,80.272,57.769,73.277,57.769,62.718z"/>
	<path class="st1" d="M98.953,48.133l-0.396,6.071h-7.193c0,13.793-0.132,27.388-0.264,31.149c-2.97,0.198-6.666,0.264-10.691,0.264
		c-0.132-3.695-0.264-17.291-0.264-31.413h-7.193l-0.396-6.071h7.523V35.528c3.234,0,8.184,0.132,11.351,0.264v12.341H98.953z"/>
	<path class="st1" d="M99.352,67.536c0-10.691,8.843-19.336,19.666-19.336c10.427,0,18.61,8.051,18.61,18.28
		c0,10.691-8.843,19.336-19.666,19.336C107.535,85.816,99.352,77.765,99.352,67.536z M127.333,69.119
		c0-8.909-4.355-15.575-10.229-15.575c-4.686,0-7.458,4.224-7.458,11.351c0,8.909,4.355,15.575,10.229,15.575
		C124.562,80.47,127.333,76.247,127.333,69.119z"/>
	<path class="st1" d="M197.422,78.094c0,2.376-0.066,4.488-0.198,7.127c-2.508,0.33-6.929,0.528-11.351,0.528
		c0.264-3.696,0.396-8.051,0.396-12.209c0-13.661-1.584-20.062-4.95-20.062c-2.31,0-5.345,3.102-6.929,7.127
		c0.66,4.158,0.99,9.503,0.99,16.235c0,3.036-0.066,5.741-0.198,8.513c-2.64,0.132-7.985,0.264-11.351,0.264
		c0.264-4.686,0.396-10.295,0.396-15.179c0-12.539-0.99-16.96-3.828-16.96c-2.376,0-5.412,3.168-7.193,7.326
		c0.066,6.797,0.132,15.508,0.132,24.813c-2.97,0-8.513-0.132-10.691-0.264c0-16.499,0.132-31.149,0.33-36.627
		c2.772,0,6.996,0.132,10.031,0.264c0.066,0.924,0.066,2.178,0.132,3.761c3.629-3.102,7.193-4.553,10.823-4.553
		c3.762,0,6.401,1.518,8.25,5.016c3.366-3.234,7.325-5.016,11.351-5.016C193.001,48.199,197.422,57.768,197.422,78.094z"/>
	<path class="st1" d="M228.708,85.618c0-1.452,0-2.837-0.066-4.158c-4.554,2.904-9.042,4.356-13.529,4.356
		c-7.523,0-12.671-4.026-12.671-9.899c0-7.985,9.503-14.783,23.032-16.63c-1.584-3.894-3.762-5.808-6.533-5.808
		c-3.366,0-9.107,2.772-14.519,6.93l-1.979-6.6c6.467-3.696,12.803-5.609,18.61-5.609c13.661,0,19.006,10.427,19.006,37.155
		C238.343,85.486,233.658,85.618,228.708,85.618z M228.444,75.785c-0.264-4.686-0.792-8.579-1.518-11.813
		c-6.797,1.32-13.595,6.863-13.595,11.483c0,2.706,2.31,4.422,5.94,4.422C222.438,79.876,225.408,78.557,228.444,75.785z"/>
	<path class="st1" d="M283.42,85.618c-3.102,0-8.381-0.132-11.351-0.264c0-23.362-1.848-31.875-6.929-31.875
		c-2.838,0-5.939,2.574-8.051,6.468c-0.066,11.219-0.198,21.25-0.33,25.408c-2.772,0.132-6.996,0.264-10.691,0.264
		c-0.198-5.609-0.33-20.722-0.33-36.891c2.904,0,8.513,0.132,11.351,0.264v3.366c3.695-2.772,7.523-4.158,11.417-4.158
		C279.197,48.199,283.42,58.824,283.42,85.618z"/>
	<path class="st1" d="M287.12,67.536c0-10.691,8.843-19.336,19.666-19.336c10.427,0,18.61,8.051,18.61,18.28
		c0,10.691-8.843,19.336-19.666,19.336C295.303,85.816,287.12,77.765,287.12,67.536z M315.101,69.119
		c0-8.909-4.355-15.575-10.229-15.575c-4.686,0-7.458,4.224-7.458,11.351c0,8.909,4.355,15.575,10.229,15.575
		C312.33,80.47,315.101,76.247,315.101,69.119z"/>
	<path class="st1" d="M364.733,66.479c0,10.757-6.666,19.336-15.047,19.336c-2.508,0-5.346-0.792-8.117-2.244
		c0,4.356-0.066,7.788-0.133,9.635c-3.299,0-7.919-0.132-10.69-0.264c-0.198-6.138-0.33-30.094-0.33-43.952
		c2.838-0.132,8.249-0.264,11.351-0.264v2.178c2.64-1.782,5.412-2.706,8.315-2.706C358.463,48.199,364.733,55.986,364.733,66.479z
		 M354.767,68.591c0-8.579-3.3-14.98-7.721-14.98c-1.849,0-3.762,1.188-5.28,3.233c0,6.072-0.065,12.869-0.132,19.006
		c1.518,2.904,3.894,4.686,6.533,4.686C352.326,80.536,354.767,76.115,354.767,68.591z"/>
	<path class="st1" d="M400.042,72.749l4.686,3.959c-4.289,5.808-10.625,9.107-17.488,9.107c-10.757,0-18.809-8.051-18.809-18.875
		c0-10.757,7.92-18.742,18.545-18.742c10.031,0,17.422,7.061,18.412,17.687l-26.199,4.883c1.716,5.742,5.543,9.635,10.03,9.635
		C393.31,80.404,397.798,77.236,400.042,72.749z M378.33,64.302v0.66l15.377-2.112c-0.594-5.609-3.894-9.371-8.184-9.371
		C381.036,53.479,378.33,57.504,378.33,64.302z"/>
	<path class="st1" d="M440.698,72.749l4.686,3.959c-4.289,5.808-10.625,9.107-17.488,9.107c-10.757,0-18.809-8.051-18.809-18.875
		c0-10.757,7.92-18.742,18.545-18.742c10.031,0,17.422,7.061,18.412,17.687l-26.199,4.883c1.716,5.742,5.543,9.635,10.03,9.635
		C433.966,80.404,438.455,77.236,440.698,72.749z M418.986,64.302v0.66l15.377-2.112c-0.594-5.609-3.894-9.371-8.184-9.371
		C421.692,53.479,418.986,57.504,418.986,64.302z"/>
	<path class="st2" d="M460.693,60.239v-2.52h9.8v2.52H460.693z"/>
	<path class="st2" d="M482.253,58.979c0-6.216,4.256-10.78,10.08-10.78c5.823,0,10.079,4.564,10.079,10.78
		c0,6.216-4.256,10.78-10.079,10.78C486.509,69.759,482.253,65.195,482.253,58.979z M497.429,59.959
		c0-5.292-2.491-9.408-5.685-9.408c-2.715,0-4.508,2.968-4.508,7.448c0,5.292,2.492,9.408,5.685,9.408
		C495.637,67.407,497.429,64.439,497.429,59.959z"/>
	<path class="st2" d="M518.232,61.555c0,4.564-2.828,8.204-6.384,8.204c-1.064,0-2.269-0.336-3.444-0.952
		c0,1.848-0.027,3.304-0.056,4.088c-1.4,0-3.36-0.056-4.536-0.112c-0.084-2.604-0.141-12.768-0.141-18.648
		c1.205-0.056,3.5-0.112,4.816-0.112v0.924c1.12-0.756,2.296-1.148,3.528-1.148C515.572,53.799,518.232,57.103,518.232,61.555z
		 M514.004,62.451c0-3.64-1.399-6.356-3.275-6.356c-0.784,0-1.596,0.504-2.24,1.372c0,2.576-0.027,5.46-0.056,8.064
		c0.644,1.232,1.651,1.988,2.772,1.988C512.969,67.519,514.004,65.643,514.004,62.451z"/>
	<path class="st2" d="M532.624,64.215l1.988,1.68c-1.82,2.464-4.508,3.864-7.421,3.864c-4.563,0-7.979-3.416-7.979-8.008
		c0-4.564,3.36-7.952,7.868-7.952c4.256,0,7.392,2.996,7.812,7.504l-11.116,2.072c0.729,2.436,2.353,4.088,4.257,4.088
		C529.768,67.463,531.672,66.119,532.624,64.215z M523.412,60.631v0.28l6.523-0.896c-0.252-2.38-1.651-3.976-3.472-3.976
		C524.561,56.039,523.412,57.747,523.412,60.631z"/>
	<path class="st2" d="M551.86,69.675c-1.316,0-3.557-0.056-4.816-0.112c0-9.912-0.784-13.524-2.939-13.524
		c-1.204,0-2.521,1.092-3.416,2.744c-0.028,4.76-0.084,9.016-0.141,10.78c-1.176,0.056-2.968,0.112-4.535,0.112
		c-0.085-2.38-0.141-8.792-0.141-15.652c1.232,0,3.612,0.056,4.816,0.112v1.428c1.567-1.176,3.191-1.764,4.844-1.764
		C550.068,53.799,551.86,58.307,551.86,69.675z"/>
	<path class="st2" d="M562.92,66.483c0.868-1.232,1.904-2.492,3.164-3.724c2.184,2.352,5.264,4.396,7.504,4.396
		c1.344,0,2.604-0.728,2.604-2.128c0-1.96-2.576-3.192-5.32-4.48c-3.192-1.512-6.636-3.164-6.636-6.216
		c0-3.052,3.388-6.132,8.176-6.132c2.716,0,5.684,0.98,7.756,2.716c-0.672,1.26-1.96,2.576-3.024,3.444
		c-2.296-2.156-4.563-3.836-6.552-3.836c-1.456,0-2.184,0.896-2.184,1.708c0,1.344,2.044,2.296,4.452,3.416
		c3.359,1.568,7.42,3.472,7.42,7.224c0,3.724-3.948,6.888-8.597,6.888C568.604,69.759,564.936,68.387,562.92,66.483z"/>
	<path class="st2" d="M580.84,62.003c0-4.536,3.752-8.204,8.344-8.204c4.425,0,7.896,3.416,7.896,7.756
		c0,4.536-3.752,8.204-8.344,8.204C584.312,69.759,580.84,66.343,580.84,62.003z M592.712,62.675c0-3.78-1.848-6.608-4.34-6.608
		c-1.988,0-3.164,1.792-3.164,4.816c0,3.78,1.848,6.608,4.34,6.608C591.536,67.491,592.712,65.699,592.712,62.675z"/>
	<path class="st2" d="M614.02,54.135c0,6.02-0.056,12.964-0.14,15.428c-1.456,0.084-3.08,0.112-4.536,0.112
		c-0.028-0.448-0.028-1.036-0.056-1.736c-1.597,1.204-3.276,1.82-4.984,1.82c-4.172,0-6.244-3.752-6.244-11.396
		c0-1.26,0.056-2.632,0.168-4.088c0.896-0.084,2.38-0.112,4.816-0.112c-0.112,1.876-0.168,3.528-0.168,4.984
		c0,5.768,0.896,8.372,2.8,8.372c1.26,0,2.66-1.148,3.584-2.856c-0.028-2.968-0.056-6.776-0.056-10.64
		C610.716,54.023,612.815,54.079,614.02,54.135z"/>
	<path class="st2" d="M630.819,59.623c-1.484,0.476-3.024,0.868-4.368,1.092c0-2.52-1.092-4.676-2.352-4.676
		c-1.009,0-2.408,1.4-3.164,3.192c-0.028,4.76-0.084,8.708-0.141,10.444c-1.315,0-3.107-0.056-4.535-0.112
		c-0.084-2.24-0.141-8.764-0.141-15.428c1.232-0.056,3.612-0.112,4.816-0.112v1.624c1.428-1.148,3.052-1.848,4.508-1.848
		C628.271,53.799,630.596,56.319,630.819,59.623z"/>
	<path class="st2" d="M630.959,61.835c0-4.368,3.836-8.036,8.456-8.036c2.408,0,4.732,1.008,6.944,3.024l-2.66,2.912
		c-1.204-2.212-3.22-3.696-5.012-3.696c-1.96,0-3.221,1.764-3.221,4.536c0,3.752,2.212,6.888,4.872,6.888
		c1.54,0,3.164-1.036,4.172-2.688l1.708,1.68c-2.155,2.156-4.62,3.304-7.111,3.304C634.684,69.759,630.959,66.119,630.959,61.835z"
		/>
	<path class="st2" d="M660.19,64.215l1.988,1.68c-1.82,2.464-4.508,3.864-7.42,3.864c-4.564,0-7.98-3.416-7.98-8.008
		c0-4.564,3.36-7.952,7.868-7.952c4.256,0,7.392,2.996,7.812,7.504l-11.115,2.072c0.728,2.436,2.352,4.088,4.256,4.088
		C657.334,67.463,659.238,66.119,660.19,64.215z M650.979,60.631v0.28l6.523-0.896c-0.252-2.38-1.651-3.976-3.472-3.976
		C652.126,56.039,650.979,57.747,650.979,60.631z"/>
	<path class="st3" d="M673.379,68.107l0.588-2.184c3.191,1.12,4.536,1.484,5.488,1.484c2.323,0,3.107-2.128,3.107-11.172
		c0-2.408-0.056-5.068-0.14-7.672c1.876-0.112,3.752-0.168,5.628-0.168c0.027,0.784,0.056,3.164,0.056,4.928
		c0,13.328-1.624,16.436-7.476,16.436C678.083,69.759,675.507,69.171,673.379,68.107z"/>
	<path class="st3" d="M700.791,69.675c0-0.616,0-1.204-0.028-1.764c-1.932,1.232-3.836,1.848-5.74,1.848
		c-3.191,0-5.376-1.708-5.376-4.2c0-3.388,4.032-6.272,9.772-7.056c-0.672-1.652-1.597-2.464-2.772-2.464
		c-1.428,0-3.864,1.176-6.16,2.94l-0.84-2.8c2.744-1.568,5.432-2.38,7.896-2.38c5.796,0,8.063,4.424,8.063,15.764
		C704.879,69.619,702.891,69.675,700.791,69.675z M700.679,65.503c-0.112-1.988-0.336-3.64-0.645-5.012
		c-2.884,0.56-5.768,2.912-5.768,4.872c0,1.148,0.98,1.876,2.52,1.876C698.131,67.239,699.391,66.679,700.679,65.503z"/>
	<path class="st3" d="M721.706,61.555c0,4.564-2.828,8.204-6.384,8.204c-1.064,0-2.269-0.336-3.444-0.952
		c0,1.848-0.028,3.304-0.056,4.088c-1.4,0-3.36-0.056-4.536-0.112c-0.084-2.604-0.14-12.768-0.14-18.648
		c1.203-0.056,3.5-0.112,4.815-0.112v0.924c1.12-0.756,2.296-1.148,3.528-1.148C719.046,53.799,721.706,57.103,721.706,61.555z
		 M717.479,62.451c0-3.64-1.4-6.356-3.276-6.356c-0.784,0-1.596,0.504-2.24,1.372c0,2.576-0.028,5.46-0.056,8.064
		c0.644,1.232,1.651,1.988,2.771,1.988C716.442,67.519,717.479,65.643,717.479,62.451z"/>
	<path class="st3" d="M733.83,69.675c0-0.616,0-1.204-0.028-1.764c-1.932,1.232-3.836,1.848-5.74,1.848
		c-3.191,0-5.376-1.708-5.376-4.2c0-3.388,4.032-6.272,9.772-7.056c-0.672-1.652-1.597-2.464-2.772-2.464
		c-1.428,0-3.864,1.176-6.16,2.94l-0.84-2.8c2.744-1.568,5.432-2.38,7.896-2.38c5.796,0,8.063,4.424,8.063,15.764
		C737.918,69.619,735.93,69.675,733.83,69.675z M733.718,65.503c-0.112-1.988-0.336-3.64-0.645-5.012
		c-2.884,0.56-5.768,2.912-5.768,4.872c0,1.148,0.98,1.876,2.52,1.876C731.17,67.239,732.43,66.679,733.718,65.503z"/>
	<path class="st3" d="M756.454,69.675c-1.316,0-3.557-0.056-4.816-0.112c0-9.912-0.784-13.524-2.939-13.524
		c-1.204,0-2.521,1.092-3.416,2.744c-0.028,4.76-0.084,9.016-0.141,10.78c-1.176,0.056-2.968,0.112-4.535,0.112
		c-0.085-2.38-0.141-8.792-0.141-15.652c1.232,0,3.612,0.056,4.816,0.112v1.428c1.567-1.176,3.191-1.764,4.844-1.764
		C754.662,53.799,756.454,58.307,756.454,69.675z"/>
	<path class="st3" d="M770.846,64.215l1.988,1.68c-1.82,2.464-4.508,3.864-7.42,3.864c-4.564,0-7.98-3.416-7.98-8.008
		c0-4.564,3.36-7.952,7.868-7.952c4.256,0,7.392,2.996,7.812,7.504l-11.115,2.072c0.728,2.436,2.352,4.088,4.256,4.088
		C767.989,67.463,769.894,66.119,770.846,64.215z M761.634,60.631v0.28l6.523-0.896c-0.252-2.38-1.651-3.976-3.472-3.976
		C762.781,56.039,761.634,57.747,761.634,60.631z"/>
	<path class="st3" d="M774.094,68.471l1.232-3.388c2.1,1.26,5.264,2.38,7.084,2.38c1.596,0,2.323-0.868,2.323-1.708
		c0-1.428-2.071-2.1-4.367-2.8c-2.772-0.84-5.853-1.792-5.853-4.396c0-2.492,2.828-4.76,7.364-4.76c2.464,0,5.096,0.672,7.196,1.82
		l-1.568,2.66c-2.072-1.288-4.004-2.24-5.712-2.24c-1.652,0-2.521,0.868-2.521,1.624c0,1.064,1.708,1.512,3.696,1.988
		c2.94,0.7,6.524,1.624,6.524,4.9c0,3.024-3.108,5.208-7.393,5.208C779.806,69.759,776.278,69.143,774.094,68.471z"/>
	<path class="st3" d="M803.885,64.215l1.988,1.68c-1.82,2.464-4.508,3.864-7.42,3.864c-4.564,0-7.98-3.416-7.98-8.008
		c0-4.564,3.36-7.952,7.868-7.952c4.256,0,7.392,2.996,7.812,7.504l-11.115,2.072c0.728,2.436,2.352,4.088,4.256,4.088
		C801.028,67.463,802.933,66.119,803.885,64.215z M794.673,60.631v0.28l6.523-0.896c-0.252-2.38-1.651-3.976-3.472-3.976
		C795.82,56.039,794.673,57.747,794.673,60.631z"/>
	<path class="st2" d="M832.921,51.083l-9.464-0.392l0.168,5.936l8.988-0.28l-0.196,3.024l-8.736-0.504
		c0.084,3.78,0.112,7.42,0.112,10.892l-5.6-0.196c0-4.48,0.168-18.34,0.252-20.944c5.096,0,11.899-0.14,14.588-0.28L832.921,51.083z
		"/>
	<path class="st2" d="M833.172,62.003c0-4.536,3.752-8.204,8.344-8.204c4.425,0,7.896,3.416,7.896,7.756
		c0,4.536-3.752,8.204-8.344,8.204C836.644,69.759,833.172,66.343,833.172,62.003z M845.044,62.675c0-3.78-1.848-6.608-4.34-6.608
		c-1.988,0-3.164,1.792-3.164,4.816c0,3.78,1.848,6.608,4.34,6.608C843.868,67.491,845.044,65.699,845.044,62.675z"/>
	<path class="st2" d="M866.94,69.675c-1.316,0-3.557-0.056-4.816-0.112c0-9.912-0.784-13.524-2.939-13.524
		c-1.204,0-2.521,1.092-3.416,2.744c-0.028,4.76-0.084,9.016-0.141,10.78c-1.176,0.056-2.968,0.112-4.535,0.112
		c-0.085-2.38-0.141-8.792-0.141-15.652c1.232,0,3.612,0.056,4.816,0.112v1.428c1.567-1.176,3.191-1.764,4.844-1.764
		C865.148,53.799,866.94,58.307,866.94,69.675z"/>
	<path class="st2" d="M878,53.771l-0.168,2.576h-3.052c0,5.852-0.057,11.62-0.112,13.216c-1.26,0.084-2.828,0.112-4.536,0.112
		c-0.056-1.568-0.112-7.336-0.112-13.328h-3.052l-0.168-2.576h3.192v-5.348c1.372,0,3.472,0.056,4.815,0.112v5.236H878z"/>
</g>
<g>
	<path class="st3" d="M57.309,167.465c-1.911,0-3.783-0.039-4.875-0.117c0-6.669-0.039-10.803-0.195-15.562
		c-2.223,5.733-5.538,10.726-9.984,14.977c-2.496-1.482-4.953-3.159-7.254-4.992c5.07-3.939,8.97-8.541,11.779-13.884
		c1.989,0.663,3.822,1.326,5.421,1.95l-0.195-4.446c-4.836,0.195-9.438,0.273-13.768,0.273H35.78l0.273-3.978
		c4.758,0.351,10.491,0.585,13.962,0.585c0.741,0,1.365,0,1.872-0.039c-0.078-1.911-0.273-5.577-0.351-6.669
		c0.78-0.078,3.939-0.156,5.772-0.156c0.819,0,1.482,0.039,1.833,0.078c0.156,2.106,0.273,5.07,0.312,6.279
		c2.262-0.234,4.017-0.468,5.577-0.78l0.429,3.939c-2.418,0.156-4.68,0.234-5.89,0.273c0.117,2.73,0.156,5.694,0.156,8.659
		c0,5.031-0.156,9.984-0.39,13.611H57.309z"/>
	<path class="st3" d="M92.682,154.205c-2.223-0.351-6.513-0.507-13.572-0.507c-6.357,0-10.18,0.117-14.431,0.468l-0.39-4.407
		c7.527-0.975,13.065-1.404,18.253-1.404c3.12,0,6.474,0.156,10.335,0.468L92.682,154.205z"/>
	<path class="st3" d="M96.425,163.058c8.268-6.747,13.065-12.987,15.64-20.359c-6.708,0-14.938,0.663-20.866,1.716l-0.273-4.914
		c4.446-0.195,8.659-0.312,12.714-0.312c5.772,0,11.194,0.234,16.459,0.663c-0.819,4.173-1.053,5.265-1.326,6.24
		c-3.315,0-5.421,2.652-5.421,5.655c0,1.326,0.39,2.73,1.287,4.017c-2.808,4.915-5.85,9.01-9.204,12.364
		C102.47,166.802,99.428,165.086,96.425,163.058z M114.522,151.747c0-2.73,1.911-4.641,4.602-4.641c2.73,0,4.758,2.028,4.758,4.758
		c0,2.574-1.794,4.329-4.603,4.329C116.433,156.193,114.522,154.399,114.522,151.747z M120.567,150.811
		c0-1.209-0.546-2.223-1.131-2.223c-0.78,0-1.521,1.833-1.521,3.822c0,1.092,0.585,2.106,1.248,2.106
		C119.982,154.516,120.567,152.957,120.567,150.811z"/>
	<path class="st3" d="M122.555,138.604c4.33,0.234,9.868,0.819,13.456,1.482l-0.78,4.914c-2.028-0.078-4.173-0.117-6.396-0.117
		c-2.184,0-4.368,0.039-6.513,0.117L122.555,138.604z M124.077,160.679c9.477-5.616,17.122-11.662,22.815-17.98l3.939,3.042
		c-5.928,9.516-12.792,16.81-20.71,21.997C127.898,165.437,125.91,163.097,124.077,160.679z"/>
	<path class="st3" d="M155.861,152.644c-2.184-4.134-3.744-8.385-4.641-12.597c2.184-0.663,4.719-1.209,7.839-1.716
		c0.663,3.979,1.599,8.112,2.73,12.48L155.861,152.644z M158.045,164.774c8.893-10.999,11.35-15.913,13.729-27.496
		c2.964,0.819,5.928,1.677,8.854,2.574c-2.301,10.881-8.151,21.255-15.834,28.042L158.045,164.774z"/>
	<path class="st3" d="M209.019,154.205c-2.223-0.351-6.513-0.507-13.572-0.507c-6.357,0-10.18,0.117-14.431,0.468l-0.39-4.407
		c7.527-0.975,13.065-1.404,18.253-1.404c3.12,0,6.474,0.156,10.335,0.468L209.019,154.205z"/>
	<path class="st3" d="M233.55,168.752c-1.521-3.822-3.783-7.996-6.748-12.559c-3.51,4.29-7.488,8.346-11.856,12.129
		c-2.73-2.418-4.836-4.563-6.513-6.552c9.945-7.8,16.42-14.469,19.15-19.696c-5.5,0.117-12.91,0.78-16.693,1.482l-0.312-4.68
		c2.691-0.156,5.382-0.234,8.112-0.234c6.124,0,12.091,0.39,17.239,1.131c-1.989,5.109-4.134,9.282-6.552,12.597
		c3.744,3.744,7.137,8.035,10.257,12.949L233.55,168.752z"/>
	<path class="st2" d="M252.894,167.192c1.755-5.694,3.315-13.729,3.315-17.083c0-3.159-1.365-4.485-4.719-4.485
		c-1.014,6.981-1.872,14.158-2.418,20.203c-3.12-0.429-5.421-0.585-7.371-0.663c0.624-4.251,2.613-15.25,3.315-18.331
		c-1.95,0.702-4.017,1.521-6.084,2.418l-0.858-3.237c2.262-0.819,5.733-1.872,7.723-2.34c0.429-2.145,1.014-4.797,1.95-8.97
		c1.872,0.195,4.329,0.351,5.5,0.351c-0.546,1.989-1.053,4.836-1.365,7.605c0.507-0.078,0.975-0.117,1.599-0.117
		c6.318,0,9.711,3.861,9.711,11.038c0,3.588-0.819,8.151-2.613,14.274C256.13,167.426,255.078,167.348,252.894,167.192z
		 M264.672,143.128c2.184-0.429,3.744-0.78,5.577-1.248c1.677,5.811,2.496,10.881,2.886,18.019
		c-2.106,0.156-3.978,0.351-6.396,0.663C265.998,151.162,265.53,147.223,264.672,143.128z"/>
	<path class="st2" d="M274.304,163.292c2.028-7.293,4.134-13.455,6.279-18.331c-0.936,0.039-2.613,0.234-4.29,0.507l-0.234-3.471
		c1.56-0.234,3.783-0.507,6.084-0.741c1.326-2.808,2.535-5.148,3.744-7.333c2.262,0.273,4.212,0.78,6.045,1.561
		c-1.131,2.574-1.677,3.939-2.106,5.265c1.833-0.117,7.566-0.234,11.7-0.234l0.273,3.744c-1.482-0.078-4.485-0.156-6.552-0.156
		c-2.067,0-4.368,0.078-6.786,0.195c-2.457,6.357-5.109,14.899-6.825,21.841C276.644,164.345,275.708,163.955,274.304,163.292z
		 M285.029,162.59c0-4.251,3.51-6.942,8.97-7.06c-0.117-3.198-0.39-6.591-0.663-8.19c5.304,0,11.077,0.117,13.456,0.273
		l-0.117,3.471c-2.652-0.429-4.758-0.741-7.021-1.053c0.117,1.287,0.234,3.51,0.351,6.591c2.418,0.741,4.914,2.223,7.488,4.407
		l-1.716,3.939c-2.262-2.145-4.095-3.627-5.655-4.524c0,1.989-0.156,4.602-0.507,7.683c-1.989,0.351-3.705,0.507-5.421,0.507
		C288.071,168.635,285.029,166.607,285.029,162.59z M294.078,158.884c-2.067,0-3.276,1.365-3.276,3.706
		c0,2.262,1.131,3.822,3.003,4.095L294.078,158.884z"/>
	<path class="st2" d="M339.317,144.22c-1.209,3.159-3.471,6.903-6.201,10.569c3.237,2.652,7.021,5.538,11.35,8.58l-7.293,6.279
		c-2.964-2.301-6.201-5.304-9.36-8.58c-3.588,3.783-7.41,6.942-10.491,8.346l-6.981-4.758c4.407-1.872,9.087-4.875,13.222-8.307
		c-3.744-4.33-7.021-8.775-9.205-12.559l-4.446-0.078l0.156-2.925l13.962-0.234l-0.39-6.825l7.488,0.234l-0.351,6.475l13.923-0.234
		l0.156,4.095L339.317,144.22z M322.079,143.908c1.794,2.301,4.095,4.719,6.903,7.293c2.223-2.379,4.056-4.797,5.304-7.098
		L322.079,143.908z"/>
	<path class="st2" d="M354.293,141.763l0.429,7.723l-6.903,0.078l0.429-10.374l13.534,0.039l-0.195-5.694l8.035,0.117l-0.195,5.578
		l13.534,0.039l0.429,10.57l-6.708-0.273l0.273-7.449L354.293,141.763z M369.113,156.232l13.651,0.195l-0.273,2.691l-13.221,0.195
		c0.078,3.237,0.156,6.903,0.156,10.53l-14.665-1.521l0.234-2.496l6.436-0.078c0.156-2.067,0.234-4.212,0.351-6.318l-13.065,0.195
		l-0.234-3.666l13.377,0.195c0.039-1.482,0.078-2.847,0.078-4.056l1.56-0.078c1.287-1.404,2.886-3.393,3.667-4.641l-11.311,0.819
		l0.156-3.393h19.462l0.117,1.794c-0.936,1.56-3.588,4.563-6.591,7.371L369.113,156.232z"/>
	<path class="st3" d="M391.07,163.097c8.854-7.41,13.378-13.222,15.874-20.359c-6.084,0-14.743,0.702-21.178,1.716l-0.273-4.915
		c5.188-0.234,9.595-0.351,13.689-0.351c5.616,0,10.569,0.234,15.952,0.702c-1.716,10.726-6.747,20.242-14.898,28.276
		C397.232,166.88,394.151,165.164,391.07,163.097z"/>
	<path class="st3" d="M431.436,170c-1.521,0-3.042-0.039-3.9-0.117c0-5.343-0.039-8.814-0.156-12.441
		c-1.794,4.602-4.446,8.581-7.995,11.974c-1.989-1.17-3.979-2.535-5.812-3.978c4.056-3.159,7.176-6.826,9.438-11.116
		c1.482,0.507,3.042,1.053,4.329,1.56l-0.156-3.549c-3.861,0.156-7.566,0.234-11.038,0.234h-1.95l0.234-3.198
		c3.783,0.273,8.385,0.468,11.154,0.468c0.585,0,1.092,0,1.521-0.039c-0.078-1.521-0.234-4.407-0.312-5.266
		c0.624-0.078,3.159-0.156,4.641-0.156c0.663,0,1.17,0.039,1.443,0.078c0.156,1.677,0.273,4.017,0.273,4.992
		c1.794-0.195,3.198-0.39,4.446-0.624l0.351,3.159c-1.95,0.117-3.744,0.195-4.719,0.195c0.117,2.184,0.117,4.563,0.117,6.942
		c0,4.017-0.117,7.956-0.312,10.881H431.436z"/>
	<path class="st3" d="M436.232,138.604c4.329,0.234,9.867,0.819,13.455,1.482l-0.78,4.914c-2.028-0.078-4.173-0.117-6.396-0.117
		c-2.184,0-4.368,0.039-6.513,0.117L436.232,138.604z M437.753,160.679c9.477-5.616,17.122-11.662,22.816-17.98l3.938,3.042
		c-5.928,9.516-12.792,16.81-20.709,21.997C441.575,165.437,439.586,163.097,437.753,160.679z"/>
	<path class="st3" d="M465.676,136.108c3.276-0.195,6.63-0.312,9.165-0.312c0.234,3.394,0.468,10.258,0.468,13.183l2.457-2.769
		c3.979,2.106,7.294,4.368,9.712,6.63l-4.018,4.524c-1.988-1.872-5.616-4.602-8.151-6.084c0,4.68-0.039,14.469-0.116,16.888
		c-2.38,0-6.631-0.078-8.073-0.156C467.12,155.569,466.651,144.922,465.676,136.108z"/>
	<path class="st1" d="M558.326,169.398c-4.214,0-8.342-0.086-10.75-0.258c0-14.706-0.086-23.822-0.43-34.313
		c-4.902,12.642-12.212,23.649-22.016,33.023c-5.504-3.268-10.922-6.966-15.996-11.008c11.18-8.686,19.779-18.834,25.972-30.616
		c4.386,1.462,8.428,2.924,11.953,4.3l-0.43-9.804c-10.664,0.43-20.812,0.602-30.357,0.602h-5.418l0.603-8.772
		c10.491,0.774,23.133,1.29,30.787,1.29c1.634,0,3.01,0,4.128-0.086c-0.172-4.214-0.603-12.298-0.774-14.706
		c1.721-0.172,8.687-0.344,12.729-0.344c1.806,0,3.268,0.086,4.042,0.172c0.344,4.644,0.602,11.18,0.688,13.846
		c4.988-0.516,8.858-1.032,12.298-1.72l0.946,8.686c-5.332,0.344-10.32,0.516-12.986,0.602c0.258,6.02,0.345,12.556,0.345,19.091
		c0,11.094-0.345,22.016-0.86,30.014H558.326z"/>
	<path class="st1" d="M581.976,151.768c0-5.848,2.15-10.75,7.912-18.662l-8.686,0.946c-1.462-9.632-2.322-20.898-2.322-31.992
		c4.644-0.86,10.234-1.376,17.286-1.634c-0.774,5.762-1.462,18.06-1.462,26.573c7.224-6.364,16.598-13.072,27.863-19.952
		c4.042,4.042,7.653,8.6,10.664,13.33c-26.746,13.846-38.27,24.08-38.27,33.883c0,5.59,3.698,8.6,10.577,8.6
		c6.192,0,17.63-2.322,26.316-5.418l1.978,8.342c-9.116,2.666-19.35,4.214-27.262,4.214C590.748,170,581.976,163.55,581.976,151.768
		z"/>
	<path class="st1" d="M692.914,148.586c-4.301-1.118-10.492-3.268-14.448-4.816c4.558,6.106,8.771,12.47,11.18,17.2l-19.35,8.772
		c-4.386-10.492-11.868-23.306-18.575-32.078l13.588-9.374c3.268,3.096,7.396,7.998,11.438,13.158
		c7.739-8.17,14.189-16.512,17.802-23.047c-5.074-0.602-9.976-0.86-14.706-0.86c-12.813,0-25.628,1.892-42.569,6.192l-1.72-9.546
		c20.468-2.322,35.432-3.354,48.933-3.354c9.805,0,18.834,0.516,28.552,1.72C709.941,123.131,702.201,136.891,692.914,148.586z"/>
	<path class="st1" d="M764.294,167.506c0.688-6.622,1.032-12.642,1.032-17.974c0-23.735-6.708-35.001-20.812-35.001
		c-13.33,0-22.102,10.062-22.102,25.37c0,10.234,3.784,17.716,9.029,17.716c4.473,0,7.311-5.418,7.311-13.76
		c0-5.676-1.29-13.072-4.042-22.532c3.439-0.774,7.31-1.204,11.008-1.204c1.634,0,3.268,0.086,4.815,0.258
		c0.946,5.332,1.462,10.234,1.462,14.62c0,18.49-8.771,29.755-23.133,29.755c-12.643,0-20.124-8.858-20.124-23.821
		c0-20.382,13.846-32.594,36.979-32.594c24.337,0,36.033,13.502,36.033,41.624c0,5.418-0.43,11.524-1.376,18.49
		C773.84,168.452,767.477,168.108,764.294,167.506z"/>
	<path class="st1" d="M813.057,129.581c-5.16,6.106-11.523,12.384-22.359,22.102l-7.224-9.632
		c6.88-4.558,26.144-20.295,32.851-26.832c11.524,8.772,27.004,18.834,48.676,31.733c-3.698,5.934-7.568,11.352-11.61,16.168
		C838.082,151.424,824.322,139.986,813.057,129.581z M835.761,118.143c0-5.934,3.956-9.545,10.233-9.545
		c6.622,0,11.008,4.042,11.008,10.234c0,5.848-4.042,9.545-10.406,9.545C839.975,128.376,835.761,124.335,835.761,118.143z
		 M849.521,119.261c0-4.128-1.462-7.396-3.354-7.396c-1.72,0-3.01,2.58-3.01,6.192c0,3.956,1.548,6.966,3.612,6.966
		C848.488,125.022,849.521,122.787,849.521,119.261z"/>
</g>
<g>
	<path class="st2" d="M95.754,249.271c10.208-5.965,14.324-9.704,14.324-12.938c0-2.604-2.646-4.285-6.679-4.285
		c-3.991,0-11.006,1.638-19.954,4.705l-0.966-4.789c7.057-1.848,16.047-3.234,21.13-3.234c8.653,0,14.576,3.991,14.576,9.872
		c0,5.965-6.217,13.106-15.249,17.433C100.584,254.312,98.19,252.043,95.754,249.271z"/>
	<path class="st2" d="M135.822,255.278c1.89-6.133,3.57-14.787,3.57-18.399c0-3.403-1.47-4.831-5.083-4.831
		c-1.092,7.52-2.017,15.249-2.604,21.76c-3.361-0.462-5.839-0.63-7.939-0.714c0.672-4.579,2.814-16.425,3.571-19.744
		c-2.101,0.756-4.327,1.638-6.553,2.604l-0.924-3.486c2.437-0.882,6.175-2.017,8.317-2.521c0.462-2.311,1.092-5.167,2.101-9.662
		c2.016,0.21,4.663,0.378,5.923,0.378c-0.588,2.142-1.134,5.209-1.47,8.191c0.546-0.084,1.05-0.126,1.722-0.126
		c6.805,0,10.46,4.159,10.46,11.888c0,3.864-0.882,8.779-2.814,15.375C139.309,255.53,138.175,255.446,135.822,255.278z
		 M148.508,229.359c2.353-0.462,4.033-0.84,6.007-1.344c1.806,6.259,2.688,11.72,3.108,19.408c-2.269,0.168-4.285,0.378-6.889,0.714
		C149.937,238.013,149.433,233.77,148.508,229.359z"/>
	<path class="st2" d="M177.066,248.304c0-1.008,0.084-2.142,0.252-3.36c-3.234,0-4.747,1.974-9.032,11.93
		c-2.268-0.672-4.537-1.512-8.569-3.109c6.217-10.417,10.586-15.71,16.425-19.785c-5.167,0.336-10.208,1.05-15.039,2.142
		l-0.462-4.327c6.217-0.336,18.021-0.588,25.834-0.588l0.42,3.907c-3.15,0.588-6.553,2.898-10.25,6.973
		c1.932,0,4.957,0.126,6.721,0.42c0,5.335,1.512,7.562,5.167,7.562c0.84,0,2.311-0.084,3.571-0.21c0,2.059-0.168,5.251-0.336,6.932
		c-1.807,0.252-3.445,0.378-4.873,0.378C180.175,257.168,177.066,254.354,177.066,248.304z M172.109,219.319
		c1.26-0.168,4.579-0.294,7.646-0.294c0.504,3.15,0.924,7.057,0.924,9.998c-0.798,0-4.495,0.084-6.385,0.168
		C173.916,226.544,173.244,223.478,172.109,219.319z"/>
	<path class="st2" d="M197.182,250.867c0-3.865,3.613-6.931,8.107-6.931c3.234,0,5.671,1.554,6.679,4.201
		c0.798-1.092,1.176-2.31,1.176-3.444c0-3.445-3.193-6.637-7.646-6.637c-3.276,0-5.671,1.722-8.233,5.881l-6.847-4.201
		c5.419-6.343,11.3-11.972,15.207-14.577c-3.108,0.42-6.091,0.924-9.788,1.638l-0.21-4.747c4.789-0.378,10.208-0.63,14.156-0.63
		c1.555,0,2.898,0.042,3.865,0.126l0.168,3.277c-3.36,1.974-7.309,5.797-10.166,9.914c1.47-0.378,2.898-0.546,4.285-0.546
		c6.679,0,11.888,4.243,11.888,10.46c0,6.721-6.049,11.636-14.367,11.636C200.165,256.286,197.182,254.312,197.182,250.867z
		 M207.348,249.901c0-1.765-0.84-3.109-2.017-3.109c-1.218,0-2.143,1.428-2.143,3.487c0,1.722,0.966,3.108,2.185,3.108
		C206.55,253.387,207.348,252.001,207.348,249.901z"/>
	<path class="st1" d="M254.937,230.535c-1.302,3.403-3.739,7.436-6.679,11.384c3.487,2.856,7.562,5.965,12.224,9.241l-7.855,6.763
		c-3.192-2.478-6.679-5.713-10.082-9.241c-3.865,4.075-7.981,7.477-11.3,8.989l-7.52-5.125c4.747-2.016,9.788-5.25,14.241-8.947
		c-4.033-4.663-7.562-9.452-9.914-13.526l-4.789-0.084l0.168-3.151l15.039-0.252l-0.42-7.351l8.065,0.252l-0.378,6.973l14.997-0.252
		l0.168,4.411L254.937,230.535z M236.369,230.199c1.933,2.479,4.411,5.083,7.436,7.855c2.395-2.562,4.369-5.167,5.713-7.646
		L236.369,230.199z"/>
	<path class="st1" d="M271.9,227.889l0.462,8.317l-7.436,0.084l0.462-11.174l14.577,0.042l-0.21-6.133l8.654,0.126l-0.21,6.007
		l14.577,0.042l0.462,11.384l-7.225-0.294l0.294-8.023L271.9,227.889z M287.863,243.474l14.703,0.21l-0.294,2.898l-14.24,0.21
		c0.084,3.487,0.168,7.436,0.168,11.342l-15.795-1.639l0.252-2.688l6.931-0.084c0.168-2.226,0.252-4.537,0.378-6.805l-14.073,0.21
		l-0.252-3.948l14.409,0.21c0.042-1.597,0.084-3.067,0.084-4.369l1.68-0.084c1.386-1.512,3.108-3.654,3.949-4.999l-12.182,0.882
		l0.168-3.654h20.962l0.126,1.932c-1.008,1.68-3.865,4.915-7.1,7.939L287.863,243.474z"/>
	<path class="st2" d="M307.179,254.731c0.252-2.604,0.42-5.755,0.504-8.317c2.646,0,5.545,0.252,7.688,0.63
		c-0.336,3.235-0.672,5.755-1.092,8.107C311.926,254.941,309.573,254.815,307.179,254.731z M307.263,222.806
		c2.1-0.336,5.419-0.588,7.771-0.588c0.21,4.327,0.252,6.427,0.252,8.233c-2.185,0.126-4.327,0.294-7.268,0.63L307.263,222.806z"/>
	<path class="st2" d="M90.671,307.826c0.588-1.597,0.924-3.192,1.092-4.831c-1.512,1.05-2.772,2.185-3.781,3.402l-2.562-4.284
		c1.47-0.252,3.108-0.715,4.915-1.429c-1.765-0.798-3.361-1.302-4.873-1.596l2.604-4.285c0.924,1.176,2.143,2.353,3.697,3.57
		c-0.168-1.764-0.546-3.444-1.092-4.999h4.999c-0.588,1.555-0.966,3.235-1.218,4.915c1.512-1.092,2.814-2.269,3.781-3.486
		l2.604,4.242c-1.681,0.295-3.361,0.841-5.041,1.639c1.806,0.714,3.444,1.177,5.041,1.429l-2.562,4.284
		c-1.008-1.176-2.269-2.311-3.823-3.402c0.252,1.639,0.63,3.234,1.218,4.831H90.671z"/>
	<path class="st3" d="M143.718,316.983c-0.588-2.395-1.26-4.915-1.974-7.436c-2.479,0.295-4.999,0.463-7.771,0.463
		c-1.428,0-3.024-0.042-4.621-0.126c-0.588,2.184-1.218,4.452-1.849,6.847l-5.041-0.336c3.109-10.586,7.058-21.55,11.426-31.758
		c2.059-0.21,4.705-0.42,7.393-0.42c3.403,8.317,7.352,19.365,11.426,31.926C149.432,316.731,146.659,316.983,143.718,316.983z
		 M140.778,306.062c-1.848-6.721-3.823-13.148-5.167-16.929c-1.176,3.192-2.982,8.989-5.125,16.593
		c2.227,0.252,4.579,0.378,7.31,0.378C138.804,306.104,139.854,306.104,140.778,306.062z"/>
	<path class="st3" d="M150.393,293.712c3.361-0.505,6.217-0.799,8.233-0.925c1.597,6.049,3.781,12.645,6.259,18.987
		c2.521-6.175,4.705-12.771,6.259-18.819l4.453,0.588c-2.898,8.107-6.091,16.047-9.284,23.062c-2.142,0.21-4.579,0.336-6.637,0.336
		C156.484,309.548,153.124,301.146,150.393,293.712z"/>
	<path class="st3" d="M193.992,316.647c0-0.924,0-1.807-0.042-2.646c-2.898,1.849-5.755,2.772-8.611,2.772
		c-4.789,0-8.065-2.562-8.065-6.301c0-5.083,6.049-9.41,14.661-10.586c-1.008-2.479-2.395-3.697-4.159-3.697
		c-2.143,0-5.797,1.765-9.242,4.411l-1.26-4.201c4.117-2.352,8.149-3.57,11.846-3.57c8.695,0,12.098,6.638,12.098,23.65
		C200.125,316.563,197.143,316.647,193.992,316.647z M193.824,310.389c-0.168-2.982-0.504-5.461-0.966-7.52
		c-4.327,0.84-8.654,4.369-8.654,7.31c0,1.722,1.47,2.814,3.781,2.814C190.001,312.993,191.892,312.152,193.824,310.389z"/>
	<path class="st3" d="M204.573,293.585c2.52,0,5.629,0.084,7.225,0.169c0,8.191-0.084,18.819-0.21,22.726
		c-2.562,0.126-4.999,0.168-6.805,0.168C204.657,312.951,204.573,303.457,204.573,293.585z M204.615,290.309v-5.671h7.141v5.671
		H204.615z"/>
	<path class="st3" d="M223.473,293.754c0,13.315,1.092,18.861,3.865,20.289l-2.94,3.36c-6.007-0.714-7.981-6.091-7.981-21.466
		c0-3.192,0.084-7.099,0.21-11.006c1.638-0.126,3.781-0.168,7.015-0.168C223.515,287.957,223.473,291.149,223.473,293.754z"/>
	<path class="st3" d="M245.734,316.647c0-0.924,0-1.807-0.042-2.646c-2.898,1.849-5.755,2.772-8.611,2.772
		c-4.789,0-8.065-2.562-8.065-6.301c0-5.083,6.049-9.41,14.661-10.586c-1.008-2.479-2.395-3.697-4.159-3.697
		c-2.143,0-5.797,1.765-9.242,4.411l-1.26-4.201c4.117-2.352,8.149-3.57,11.846-3.57c8.695,0,12.098,6.638,12.098,23.65
		C251.868,316.563,248.885,316.647,245.734,316.647z M245.566,310.389c-0.168-2.982-0.504-5.461-0.966-7.52
		c-4.327,0.84-8.654,4.369-8.654,7.31c0,1.722,1.47,2.814,3.781,2.814C241.744,312.993,243.634,312.152,245.566,310.389z"/>
	<path class="st3" d="M278.159,304.466c0,6.847-4.243,12.308-9.578,12.308c-1.639,0-3.445-0.504-5.209-1.47
		c0,0.546-0.042,1.008-0.042,1.344c-2.437,0-5.167-0.084-6.805-0.168c-0.126-3.906-0.21-23.23-0.21-31.716
		c1.89,0,5.335,0.084,7.225,0.168v9.662c1.638-1.177,3.445-1.765,5.293-1.765C274.168,292.829,278.159,297.786,278.159,304.466z
		 M271.816,305.81c0-5.461-2.1-9.536-4.915-9.536c-1.218,0-2.394,0.757-3.402,2.101c0,4.243-0.042,8.527-0.084,11.973
		c0.966,1.89,2.479,3.066,4.201,3.066C270.262,313.413,271.816,310.599,271.816,305.81z"/>
	<path class="st3" d="M288.572,293.754c0,13.315,1.092,18.861,3.865,20.289l-2.941,3.36c-6.007-0.714-7.981-6.091-7.981-21.466
		c0-3.192,0.084-7.099,0.21-11.006c1.638-0.126,3.781-0.168,7.015-0.168C288.614,287.957,288.572,291.149,288.572,293.754z"/>
	<path class="st3" d="M314.236,308.456l2.982,2.521c-2.73,3.696-6.763,5.797-11.132,5.797c-6.847,0-11.972-5.125-11.972-12.014
		c0-6.848,5.041-11.931,11.804-11.931c6.385,0,11.09,4.495,11.72,11.258l-16.677,3.109c1.092,3.654,3.529,6.133,6.385,6.133
		C309.951,313.329,312.808,311.312,314.236,308.456z M300.416,303.079v0.42l9.788-1.344c-0.378-3.571-2.479-5.966-5.209-5.966
		C302.138,296.189,300.416,298.752,300.416,303.079z"/>
	<path class="st1" d="M357.58,316.983c-0.588-2.395-1.26-4.915-1.974-7.436c-2.479,0.295-4.999,0.463-7.771,0.463
		c-1.428,0-3.024-0.042-4.621-0.126c-0.588,2.184-1.218,4.452-1.849,6.847l-5.041-0.336c3.109-10.586,7.058-21.55,11.426-31.758
		c2.059-0.21,4.705-0.42,7.393-0.42c3.403,8.317,7.352,19.365,11.426,31.926C363.293,316.731,360.52,316.983,357.58,316.983z
		 M354.639,306.062c-1.848-6.721-3.823-13.148-5.167-16.929c-1.176,3.192-2.982,8.989-5.125,16.593
		c2.227,0.252,4.579,0.378,7.31,0.378C352.665,306.104,353.715,306.104,354.639,306.062z"/>
	<path class="st1" d="M388.618,284.932c0,8.527-0.126,29.111-0.21,31.716c-2.437,0-5.167-0.084-6.805-0.168
		c0-0.378-0.042-0.924-0.042-1.555c-1.722,1.219-3.571,1.849-5.461,1.849c-5.335,0-9.326-4.957-9.326-11.636
		c0-6.848,4.243-12.309,9.578-12.309c1.596,0,3.361,0.504,5.041,1.387v-9.452C383.283,284.764,386.728,284.848,388.618,284.932z
		 M381.519,311.103c-0.042-3.318-0.084-7.646-0.084-11.972c-0.966-1.849-2.437-2.941-4.117-2.941c-2.646,0-4.201,2.814-4.201,7.604
		c0,5.461,2.1,9.536,4.915,9.536C379.292,313.329,380.51,312.53,381.519,311.103z"/>
	<path class="st1" d="M391.974,305.138c0-6.806,5.629-12.309,12.518-12.309c6.637,0,11.846,5.125,11.846,11.637
		c0,6.805-5.629,12.308-12.518,12.308C397.183,316.773,391.974,311.648,391.974,305.138z M409.785,306.146
		c0-5.671-2.772-9.914-6.511-9.914c-2.982,0-4.747,2.688-4.747,7.226c0,5.671,2.772,9.914,6.511,9.914
		C408.021,313.371,409.785,310.683,409.785,306.146z"/>
	<path class="st1" d="M441.538,304.466c0,6.847-4.243,12.308-9.578,12.308c-1.639,0-3.445-0.504-5.209-1.47
		c0,0.546-0.042,1.008-0.042,1.344c-2.437,0-5.167-0.084-6.805-0.168c-0.126-3.906-0.21-23.23-0.21-31.716
		c1.89,0,5.335,0.084,7.225,0.168v9.662c1.638-1.177,3.445-1.765,5.293-1.765C437.547,292.829,441.538,297.786,441.538,304.466z
		 M435.195,305.81c0-5.461-2.1-9.536-4.915-9.536c-1.218,0-2.394,0.757-3.402,2.101c0,4.243-0.042,8.527-0.084,11.973
		c0.966,1.89,2.479,3.066,4.201,3.066C433.641,313.413,435.195,310.599,435.195,305.81z"/>
	<path class="st1" d="M464.175,308.456l2.982,2.521c-2.73,3.696-6.763,5.797-11.132,5.797c-6.847,0-11.972-5.125-11.972-12.014
		c0-6.848,5.041-11.931,11.804-11.931c6.385,0,11.09,4.495,11.72,11.258l-16.677,3.109c1.092,3.654,3.529,6.133,6.385,6.133
		C459.891,313.329,462.746,311.312,464.175,308.456z M450.354,303.079v0.42l9.788-1.344c-0.379-3.571-2.479-5.966-5.209-5.966
		C452.076,296.189,450.354,298.752,450.354,303.079z"/>
	<path class="st1" d="M522.81,284.722c-1.555,10.838-3.865,22.517-6.302,31.926l-6.133,0.252c-1.764-6.553-3.486-13.4-4.915-19.407
		c-1.512,6.007-3.36,12.477-5.545,19.407l-7.351-0.252c-2.604-9.494-4.789-20.584-6.302-31.589c3.024-0.546,6.049-0.84,8.864-0.84
		c0.882,9.451,2.184,19.701,3.192,25.33c2.479-10.922,4.074-19.827,4.452-24.49c2.353-0.252,4.705-0.42,6.638-0.42
		c0.63,4.327,2.101,10.964,5.461,24.91c1.765-9.031,3.192-19.869,3.402-25.162L522.81,284.722z"/>
	<path class="st1" d="M543.555,308.456l2.982,2.521c-2.73,3.696-6.763,5.797-11.132,5.797c-6.848,0-11.973-5.125-11.973-12.014
		c0-6.848,5.041-11.931,11.805-11.931c6.385,0,11.09,4.495,11.72,11.258l-16.677,3.109c1.092,3.654,3.528,6.133,6.385,6.133
		C539.27,313.329,542.126,311.312,543.555,308.456z M529.734,303.079v0.42l9.787-1.344c-0.378-3.571-2.478-5.966-5.208-5.966
		C531.456,296.189,529.734,298.752,529.734,303.079z"/>
	<path class="st1" d="M549.472,314.841l1.849-5.083c3.15,1.891,7.897,3.571,10.628,3.571c2.395,0,3.486-1.303,3.486-2.562
		c0-2.143-3.108-3.15-6.553-4.201c-4.159-1.26-8.779-2.688-8.779-6.595c0-3.739,4.242-7.142,11.048-7.142
		c3.696,0,7.646,1.009,10.796,2.73l-2.353,3.991c-3.108-1.933-6.007-3.361-8.569-3.361c-2.479,0-3.781,1.303-3.781,2.437
		c0,1.597,2.562,2.269,5.545,2.982c4.411,1.051,9.788,2.437,9.788,7.352c0,4.537-4.663,7.813-11.09,7.813
		C558.042,316.773,552.749,315.85,549.472,314.841z"/>
	<path class="st1" d="M590.635,292.787l-0.252,3.865h-4.579c0,8.779-0.084,17.433-0.168,19.827
		c-1.891,0.126-4.243,0.168-6.806,0.168c-0.084-2.353-0.168-11.006-0.168-19.995h-4.578l-0.253-3.865h4.789v-8.023
		c2.059,0,5.209,0.084,7.226,0.168v7.855H590.635z"/>
	<path class="st1" d="M611.174,308.456l2.982,2.521c-2.73,3.696-6.763,5.797-11.132,5.797c-6.848,0-11.973-5.125-11.973-12.014
		c0-6.848,5.041-11.931,11.805-11.931c6.385,0,11.09,4.495,11.72,11.258l-16.677,3.109c1.092,3.654,3.528,6.133,6.385,6.133
		C606.889,313.329,609.745,311.312,611.174,308.456z M597.354,303.079v0.42l9.787-1.344c-0.378-3.571-2.478-5.966-5.208-5.966
		C599.075,296.189,597.354,298.752,597.354,303.079z"/>
	<path class="st1" d="M639.146,301.566c-2.227,0.715-4.537,1.303-6.554,1.639c0-3.78-1.638-7.016-3.528-7.016
		c-1.513,0-3.612,2.101-4.747,4.789c-0.042,7.142-0.126,13.064-0.21,15.669c-1.975,0-4.663-0.084-6.805-0.168
		c-0.127-3.36-0.211-13.148-0.211-23.146c1.849-0.084,5.419-0.168,7.226-0.168v2.437c2.143-1.722,4.579-2.772,6.764-2.772
		C635.323,292.829,638.811,296.61,639.146,301.566z"/>
	<path class="st1" d="M665.647,316.647c-1.974,0-5.335-0.084-7.225-0.168c0-14.871-1.177-20.29-4.411-20.29
		c-1.807,0-3.78,1.639-5.125,4.117c-0.042,7.142-0.126,13.526-0.21,16.173c-1.765,0.084-4.453,0.168-6.805,0.168
		c-0.126-3.57-0.211-13.19-0.211-23.482c1.849,0,5.419,0.084,7.226,0.168v2.143c2.353-1.764,4.789-2.646,7.268-2.646
		C662.959,292.829,665.647,299.593,665.647,316.647z"/>
	<path class="st1" d="M707.857,316.983l-22.432-0.798l-0.547-3.402c8.612-6.596,14.997-15.333,14.997-20.5
		c0-2.604-1.597-4.495-3.78-4.495c-2.479,0-5.251,2.352-7.813,6.637l-4.159-4.579c2.646-3.36,7.184-5.419,11.931-5.419
		c6.679,0,11.594,4.075,11.594,9.62c0,5.209-4.327,10.964-14.03,18.651l14.45-0.967L707.857,316.983z"/>
	<path class="st2" d="M90.671,369.826c0.588-1.597,0.924-3.192,1.092-4.831c-1.512,1.05-2.772,2.185-3.781,3.402l-2.562-4.284
		c1.47-0.252,3.108-0.715,4.915-1.429c-1.765-0.798-3.361-1.302-4.873-1.596l2.604-4.285c0.924,1.176,2.143,2.353,3.697,3.57
		c-0.168-1.764-0.546-3.444-1.092-4.999h4.999c-0.588,1.555-0.966,3.235-1.218,4.915c1.512-1.092,2.814-2.269,3.781-3.486
		l2.604,4.242c-1.681,0.295-3.361,0.841-5.041,1.639c1.806,0.714,3.444,1.177,5.041,1.429l-2.562,4.284
		c-1.008-1.176-2.269-2.311-3.823-3.402c0.252,1.639,0.63,3.234,1.218,4.831H90.671z"/>
	<path class="st1" d="M131.116,378.354c2.772-7.52,4.075-15.165,4.075-22.895c2.562-0.168,6.511-0.21,7.562-0.21v7.058
		c2.016-2.73,3.991-5.965,5.755-9.704c-1.891-0.168-3.907-0.252-6.049-0.252c-6.217,0-13.106,0.715-19.365,2.017v-5.125
		c6.217-0.462,11.888-0.714,17.013-0.714c6.847,0,12.896,0.42,17.769,1.26c-1.428,5.629-3.823,11.469-7.057,17.392
		c-3.319-1.135-6.049-2.269-8.107-3.36c-0.336,5.587-1.008,11.048-1.975,16.131C138.089,379.781,134.897,379.235,131.116,378.354z"
		/>
	<path class="st1" d="M155.769,375.161c3.823-6.974,5.713-14.325,6.469-25.163l7.645,0.337c-0.378,10.754-1.638,19.911-3.78,27.221
		C163.162,377.262,159.717,376.463,155.769,375.161z M174.42,366.928c0-7.268-0.252-12.435-0.714-16.215l8.864-0.925
		c0.294,3.697,0.462,7.268,0.462,10.67c0,3.361-0.168,6.932-0.462,10.67c3.486-0.756,7.267-1.932,10.46-3.318l1.428,5.125
		c-6.763,1.807-12.812,2.772-20.206,3.234C174.378,373.606,174.42,369.868,174.42,366.928z"/>
	<path class="st1" d="M197.097,374.867c9.536-7.981,14.409-14.241,17.097-21.929c-6.553,0-15.879,0.757-22.81,1.849l-0.294-5.293
		c5.587-0.252,10.334-0.378,14.745-0.378c6.049,0,11.384,0.252,17.181,0.756c-1.849,11.553-7.268,21.802-16.047,30.456
		C203.734,378.941,200.416,377.093,197.097,374.867z"/>
	<path class="st1" d="M230.277,381.336c2.184-6.007,3.234-12.14,3.234-18.315c2.059-0.126,5.209-0.168,6.049-0.168v5.629
		c1.638-2.185,3.192-4.747,4.621-7.729c-1.512-0.168-3.15-0.21-4.831-0.21c-4.999,0-10.501,0.547-15.5,1.597v-4.075
		c4.957-0.378,9.494-0.588,13.61-0.588c5.461,0,10.292,0.336,14.199,1.009c-1.134,4.494-3.067,9.157-5.629,13.904
		c-2.646-0.925-4.831-1.807-6.511-2.688c-0.252,4.452-0.798,8.821-1.555,12.896C235.822,382.47,233.302,382.008,230.277,381.336z"/>
	<path class="st1" d="M266.524,360.038c-2.646,3.108-6.007,6.385-10.922,10.796l-3.529-4.705
		c3.361-2.226,12.771-9.913,16.047-13.106c6.385,4.747,14.409,9.956,23.776,15.501c-1.638,2.73-3.529,5.377-5.671,7.897
		C278.748,370.708,272.027,365.121,266.524,360.038z M278.706,358.568l-0.882-8.57l4.831-0.294c0.294,2.94,0.63,5.839,1.008,8.611
		L278.706,358.568z M284.881,358.273c-0.21-2.268-0.504-4.83-1.092-8.779l4.705-0.42c0.462,3.318,0.756,6.217,0.966,8.779
		L284.881,358.273z"/>
	<path class="st1" d="M291.469,358.484c1.722-0.463,3.907-0.925,5.965-1.303c0.462,3.486,1.176,6.974,2.101,10.418
		c-1.638,0.378-3.445,0.882-5.125,1.47C293.275,365.919,292.31,362.517,291.469,358.484z M299.367,379.95
		c6.679-6.932,10.964-14.073,13.148-21.929c2.688,0.925,4.957,1.807,7.099,2.688c-4.285,11.048-9.242,18.273-15.711,22.895
		L299.367,379.95z M300.921,355.796c1.848-0.169,4.075-0.253,6.175-0.253c0,1.555,0.084,9.41,0.126,10.292
		c-2.479,0.126-4.201,0.294-5.503,0.462C301.425,364.113,301.005,357.854,300.921,355.796z"/>
	<path class="st1" d="M321.709,345.798c3.528-0.21,7.141-0.336,9.872-0.336c0.252,3.654,0.504,11.048,0.504,14.198l2.646-2.982
		c4.285,2.269,7.855,4.705,10.46,7.142l-4.327,4.872c-2.143-2.016-6.049-4.957-8.78-6.553c0,5.041-0.042,15.585-0.126,18.189
		c-2.562,0-7.141-0.084-8.695-0.168C323.264,366.76,322.759,355.291,321.709,345.798z"/>
	<path class="st2" d="M353.042,367.096c-0.21-2.814-0.294-5.713-0.294-8.948c2.226-0.126,6.301-0.21,8.905-0.21
		c0,1.765-0.126,6.092-0.252,9.284C357.915,367.222,354.848,367.18,353.042,367.096z"/>
	<path class="st1" d="M383.367,344.495l-0.546,6.89l6.007,0.084v2.353l-19.03,0.084l-0.21-2.772l6.721,0.126l-0.63-6.848
		L383.367,344.495z M371.143,380.79l-0.882-14.493l17.769-0.462l-0.756,14.871L371.143,380.79z M370.933,363.945l-0.252-2.395
		l16.971-0.757l-0.252,2.898L370.933,363.945z M387.904,356.09v2.437l-17.055,0.546v-2.856L387.904,356.09z M377.024,368.313
		l-0.336,10.208l4.789,0.21l-0.378-10.586L377.024,368.313z M402.061,377.64l1.723-12.099l4.285,0.336v14.409l-16.635,0.378
		c-0.714-3.487-1.176-12.099-1.176-21.382l10.375-0.378l-0.294-8.738l-11.048,0.084l0.294-3.276l18.735,1.135l-0.63,13.568h-10.67
		c0,5.629,0.714,12.644,1.764,16.467L402.061,377.64z"/>
	<path class="st1" d="M411.211,370.876c0-1.344,0.336-2.856,1.008-4.495l3.234,0.757v0.21c0,2.562,2.688,4.032,7.352,4.032
		c3.78,0,8.569-0.966,13.484-2.73c0.63,2.059,1.134,4.327,1.596,7.184c-3.024,1.26-10.754,2.479-15.459,2.479
		C415.37,378.312,411.211,375.539,411.211,370.876z M427.762,354.787l0.672-3.948c-1.849-0.252-3.655-0.378-5.167-0.378
		c-2.646,0-5.965,0.378-10.46,1.218l-0.756-3.528c3.066-0.631,6.217-0.925,9.662-0.925c6.133,0,12.182,0.967,15.039,2.353
		c-1.176,2.814-2.311,4.873-3.529,6.386L427.762,354.787z M431.71,366.423c-0.294-2.184-0.756-4.578-1.47-7.854l5.125-0.799
		c0.546,2.353,1.05,5.125,1.512,7.855L431.71,366.423z M438.012,365.331c-0.378-2.353-1.008-5.797-1.428-7.813l4.621-0.672
		c0.546,1.891,1.008,4.243,1.512,7.729L438.012,365.331z"/>
	<path class="st1" d="M447.919,376.925c10.124-4.872,15.627-9.871,15.627-14.24c0-2.437-1.722-3.612-5.167-3.612
		c-3.108,0-7.729,0.966-14.114,2.898l-1.134-4.033c6.343-1.428,11.552-2.1,15.795-2.1c8.4,0,12.854,2.73,12.854,7.896
		c0,5.84-5.671,12.687-14.912,17.938C453.296,380.076,450.439,378.563,447.919,376.925z M463.252,354.409
		c-2.437-1.933-7.981-4.621-12.014-5.881c1.89-2.353,3.066-3.613,4.83-5.041c3.781,1.471,8.402,4.495,10.628,6.932L463.252,354.409z
		"/>
	<path class="st2" d="M479.629,367.096c-0.21-2.814-0.294-5.713-0.294-8.948c2.227-0.126,6.302-0.21,8.906-0.21
		c0,1.765-0.126,6.092-0.252,9.284C484.502,367.222,481.436,367.18,479.629,367.096z"/>
	<path class="st1" d="M498.527,367.138c0-4.831,1.975-11.174,5.42-17.182c-0.925,0.042-5.966,0.547-8.15,0.841l0.211-4.705
		c5.671,0.126,11.552,0.546,16.047,1.134c-3.949,9.746-5.966,16.972-5.966,21.424c0,4.453,2.101,7.436,5.209,7.436
		c4.747,0,6.974-6.847,6.974-21.382c0-2.017-0.042-4.284-0.126-6.721c4.831,0.63,10.04,1.806,15.459,3.402l-1.387,4.873
		c-2.94-1.513-4.789-2.311-6.511-2.856c0,20.121-3.109,26.38-13.19,26.38C503.778,379.781,498.527,375.035,498.527,367.138z"/>
	<path class="st1" d="M543.301,376.127c7.688-3.066,10.838-5.461,10.838-8.233c0-2.143-1.849-3.486-4.789-3.486
		c-2.814,0-8.611,1.218-13.232,2.814c0-5.671,0.421-11.09,1.177-15.039c2.688,0,5.419,0.252,8.065,0.756
		c-0.588,2.604-1.345,7.604-1.345,9.116c2.479-0.462,4.915-0.714,6.932-0.714c6.763,0,10.796,2.814,10.796,7.519
		c0,4.873-4.243,9.41-12.309,13.148C547.25,380.412,545.233,378.479,543.301,376.127z M555.441,354.997
		c-3.487-2.437-7.352-4.41-11.048-5.629c0.798-2.101,1.428-3.486,2.184-4.789c4.831,1.219,8.444,2.772,11.889,5.083L555.441,354.997
		z"/>
	<path class="st1" d="M576.188,378.857c3.066-7.1,5.461-15.038,5.461-18.147c0-2.646-1.681-4.2-4.621-4.2
		c-1.765,6.763-3.402,13.82-4.789,20.541c-3.108-0.672-5.629-1.134-7.813-1.428c1.135-4.327,4.201-14.577,5.545-18.567
		c-2.311,0.504-4.999,1.26-6.805,1.891l-0.589-3.403c2.857-0.714,7.1-1.512,8.57-1.638c1.05-3.318,1.89-5.839,3.024-9.032
		c1.722,0.379,3.36,0.631,5.839,0.925c-0.924,2.562-1.681,5.251-2.227,7.729c7.226,0.21,11.048,3.738,11.048,10.207
		c0,4.033-1.47,9.452-4.452,16.636L576.188,378.857z M584.254,353.569c-0.127-1.891-0.295-4.285-0.673-7.897l4.831-0.378
		c0.336,2.1,0.588,4.956,0.714,7.981L584.254,353.569z M590.387,353.107c0-1.849-0.378-6.806-0.546-7.939l5.083-0.337
		c0.378,2.941,0.63,5.63,0.756,7.981L590.387,353.107z M591.688,373.48c0.126-3.108,0.168-5.755,0.168-8.233
		c0-4.243-0.126-7.436-0.42-9.914c1.555-0.084,4.243-0.42,6.091-0.756c0.883,4.957,1.261,9.073,1.261,13.904
		c0,1.597-0.042,3.192-0.126,4.999H591.688z"/>
	<path class="st1" d="M601.301,375.077c2.185-7.855,4.453-14.493,6.764-19.744c-1.008,0.042-2.814,0.252-4.621,0.547l-0.252-3.739
		c1.681-0.252,4.075-0.546,6.554-0.798c1.428-3.024,2.73-5.545,4.032-7.897c2.437,0.294,4.537,0.84,6.512,1.681
		c-1.219,2.772-1.807,4.242-2.269,5.671c1.974-0.126,8.149-0.252,12.602-0.252l0.294,4.032c-1.596-0.084-4.83-0.168-7.057-0.168
		s-4.705,0.084-7.31,0.21c-2.646,6.848-5.503,16.047-7.352,23.524C603.821,376.211,602.813,375.791,601.301,375.077z
		 M612.854,374.32c0-4.578,3.78-7.477,9.661-7.603c-0.126-3.445-0.42-7.1-0.714-8.822c5.713,0,11.931,0.126,14.492,0.294
		l-0.126,3.739c-2.856-0.462-5.124-0.798-7.561-1.135c0.126,1.387,0.252,3.781,0.378,7.1c2.604,0.798,5.293,2.395,8.065,4.747
		l-1.849,4.242c-2.437-2.31-4.411-3.906-6.091-4.872c0,2.142-0.168,4.956-0.546,8.275c-2.143,0.378-3.991,0.546-5.84,0.546
		C616.13,380.832,612.854,378.647,612.854,374.32z M622.599,370.33c-2.226,0-3.528,1.47-3.528,3.99c0,2.437,1.219,4.117,3.234,4.411
		L622.599,370.33z"/>
	<path class="st2" d="M644.897,367.096c-0.21-2.814-0.294-5.713-0.294-8.948c2.227-0.126,6.302-0.21,8.906-0.21
		c0,1.765-0.126,6.092-0.252,9.284C649.771,367.222,646.704,367.18,644.897,367.096z"/>
	<path class="st1" d="M681.314,379.529c0.84-8.695,1.387-15.753,1.639-22.054c-1.429-0.084-2.772-0.126-4.117-0.126h-1.302
		c-1.681,6.47-3.151,13.904-4.453,22.348c-3.15-0.294-6.301-0.672-9.368-1.134c1.303-6.637,3.067-13.61,5.293-20.71
		c-2.394,0.21-4.998,0.546-7.939,1.093v-4.243c3.445-0.294,7.226-0.504,9.2-0.504c1.008-3.192,2.059-6.217,3.15-9.073
		c2.311,0.378,4.621,0.882,6.974,1.47l-1.975,7.31c4.747,0.084,9.199,0.336,12.938,0.756c0.042,1.303,0.084,4.453,0.084,7.226
		c0,5.545-0.168,11.762-0.462,17.979C689.254,379.865,685.6,379.739,681.314,379.529z"/>
	<path class="st1" d="M701.81,378.018c3.99-4.789,6.763-8.948,8.401-12.477c-2.479-0.462-4.495-0.798-6.091-1.05l1.176-4.495
		c2.353,0.42,4.705,0.966,6.932,1.597c1.176-2.437,2.311-5.041,3.486-8.023c-2.143-0.42-4.789-0.715-7.939-0.841
		c-2.311,3.949-4.831,7.855-7.729,11.889c-2.688-1.471-5.125-2.982-7.352-4.579c4.243-4.915,8.276-10.208,12.183-15.879l5.797,2.604
		l-0.84,1.849c4.495,0.63,9.031,1.47,13.568,2.562c-2.101,11.09-6.343,22.348-11.342,29.909
		C708.194,380.286,704.75,379.235,701.81,378.018z"/>
	<path class="st1" d="M744.902,379.529c0.84-8.695,1.387-15.753,1.639-22.054c-1.429-0.084-2.772-0.126-4.117-0.126h-1.302
		c-1.681,6.47-3.151,13.904-4.453,22.348c-3.15-0.294-6.301-0.672-9.368-1.134c1.303-6.637,3.067-13.61,5.293-20.71
		c-2.394,0.21-4.998,0.546-7.939,1.093v-4.243c3.445-0.294,7.226-0.504,9.2-0.504c1.008-3.192,2.059-6.217,3.15-9.073
		c2.311,0.378,4.621,0.882,6.974,1.47l-1.975,7.31c4.747,0.084,9.199,0.336,12.938,0.756c0.042,1.303,0.084,4.453,0.084,7.226
		c0,5.545-0.168,11.762-0.462,17.979C752.842,379.865,749.188,379.739,744.902,379.529z"/>
	<path class="st1" d="M763.59,378.228c4.999-6.848,7.31-12.645,7.52-18.651c-4.663,0.168-9.704,0.252-13.989,0.252l0.253-4.873
		c5.545,0.546,10.375,0.799,14.114,0.799c0-3.907-0.21-7.436-0.588-10.25l7.687-0.631c0.547,4.075,0.883,7.478,1.093,10.46
		c3.066-0.252,6.805-0.63,11.216-1.134l0.252,4.747c-3.78,0.168-7.604,0.294-11.342,0.378c0,8.653-1.429,15.164-4.663,21.256
		C771.865,380.034,768.421,379.319,763.59,378.228z"/>
	<path class="st2" d="M798.995,367.096c-0.21-2.814-0.294-5.713-0.294-8.948c2.227-0.126,6.302-0.21,8.906-0.21
		c0,1.765-0.126,6.092-0.252,9.284C803.868,367.222,800.802,367.18,798.995,367.096z"/>
	<path class="st1" d="M140.442,441.277c1.89-6.133,3.57-14.786,3.57-18.399c0-3.402-1.47-4.83-5.083-4.83
		c-1.092,7.519-2.017,15.248-2.604,21.76c-3.361-0.462-5.839-0.631-7.939-0.715c0.672-4.578,2.814-16.425,3.571-19.743
		c-2.101,0.756-4.327,1.639-6.553,2.604l-0.924-3.486c2.437-0.883,6.175-2.017,8.317-2.521c0.462-2.311,1.092-5.167,2.101-9.662
		c2.016,0.21,4.663,0.378,5.923,0.378c-0.588,2.143-1.134,5.209-1.47,8.191c0.546-0.084,1.05-0.126,1.722-0.126
		c6.805,0,10.46,4.159,10.46,11.889c0,3.864-0.882,8.779-2.814,15.375C143.929,441.529,142.795,441.445,140.442,441.277z
		 M153.128,415.359c2.353-0.463,4.033-0.841,6.007-1.345c1.806,6.259,2.688,11.72,3.108,19.407
		c-2.269,0.168-4.285,0.378-6.889,0.715C154.557,424.013,154.053,419.77,153.128,415.359z"/>
	<path class="st1" d="M180.342,426.071c-4.663,0-7.939,5.251-9.746,15.626c-2.479-0.126-4.873-0.336-7.099-0.672
		c2.269-12.056,6.469-24.994,11.09-33.941c3.403,0.462,6.637,1.302,9.452,2.478c-3.318,5.419-5.629,9.956-6.847,13.569
		c1.68-0.211,3.108-0.295,4.789-0.295c1.68,0,3.57,0.084,6.259,0.337c-0.252,2.772-0.378,5.124-0.378,7.015
		c0,6.301,1.386,8.443,5.377,8.443c1.47,0,3.403-0.294,5.545-0.84l0.42,3.276c-3.109,0.588-5.419,0.84-7.604,0.84
		C183.073,441.907,180.342,438.085,180.342,426.071z"/>
	<path class="st1" d="M209.279,413.889l0.462,8.317l-7.436,0.084l0.462-11.174l14.577,0.042l-0.21-6.133l8.654,0.126l-0.21,6.007
		l14.577,0.042l0.462,11.384l-7.226-0.294l0.294-8.023L209.279,413.889z M225.241,429.474l14.703,0.21l-0.294,2.898l-14.24,0.21
		c0.084,3.486,0.168,7.436,0.168,11.342l-15.795-1.638l0.252-2.688l6.931-0.084c0.168-2.227,0.252-4.537,0.378-6.806l-14.073,0.21
		l-0.252-3.948l14.409,0.21c0.042-1.597,0.084-3.066,0.084-4.369l1.68-0.084c1.386-1.512,3.108-3.654,3.949-4.999l-12.182,0.883
		l0.168-3.655h20.962l0.126,1.933c-1.008,1.681-3.865,4.915-7.1,7.939L225.241,429.474z"/>
	<path class="st3" d="M250.858,425.356c0-7.897,4.117-15.837,11.006-21.13l2.185,1.975c-4.999,4.957-7.351,9.83-7.351,15.333
		c0,6.469,3.276,12.351,8.653,15.543c-1.26,2.143-3.192,5.083-5.251,7.897C254.555,440.689,250.858,432.876,250.858,425.356z"/>
	<path class="st3" d="M268.791,436.11c0.672-6.469,1.764-13.568,3.234-21.508l9.074,1.765c-2.688,5.965-5.419,13.232-7.855,20.752
		L268.791,436.11z M291.811,442.706l-12.476-0.378l-0.294-2.395l5.503-0.799l-1.47-32.514l9.914-0.126L291.811,442.706z
		 M299.246,436.657c-0.966-7.142-2.562-16.426-3.655-21.046l5.797-1.429c2.604,5.923,5.251,13.694,6.721,19.954L299.246,436.657z"/>
	<path class="st3" d="M318.646,416.157l-0.378,7.939l-6.763,0.294l0.84-11.258l3.571-0.042l-2.73-5.629l6.763-1.387l2.688,6.974
		h4.579l-2.268-6.68l7.393-0.798l1.47,7.394h3.613l3.865-7.184l6.427,2.437l-4.117,4.705l4.957-0.042l0.84,11.3l-7.142-0.126
		l-0.462-8.443L318.646,416.157z M334.146,429.39l14.577,0.084v2.856l-14.451,0.336l0.336,10.964l-15.711-1.218l0.252-2.688
		l6.847-0.252c0-2.017,0.042-4.285,0.168-6.596l-13.988,0.336v-3.906l14.157,0.084l0.252-3.402l1.512-0.084
		c1.596-1.555,3.318-3.655,3.781-4.579l-11.846,0.588l0.168-3.612h20.542l0.126,1.764c-1.47,2.227-4.579,5.756-6.763,7.813
		L334.146,429.39z"/>
	<path class="st3" d="M370.266,424.685l-3.318,2.059l-2.059-5.209l0.84,21.382l-6.847,0.63v-19.281l-3.235,11.216l-2.688-1.092
		l4.075-17.14l-3.865,0.336l-0.42-3.738l6.133-0.126v-8.107h5.377l0.294,7.981l4.957-0.126v2.646l-3.024,0.252l4.369,6.049
		l1.933-7.729l-2.185-0.042v-2.688l6.637-0.21l-0.378-6.133l6.679-0.294l-0.252,6.217l7.435-0.252l0.126,3.738l-3.823-0.084
		l5.125,9.158l-4.201,4.537l-6.133-11.301l3.864-2.395l-11.72-0.252l5.545,3.235l-7.981,11.426l-2.185-0.84L370.266,424.685z
		 M386.271,427.289c-0.84,1.05-1.891,2.311-3.066,3.654c3.024,2.856,6.091,5.587,8.149,7.226l-5.587,5.713
		c-2.227-2.646-4.453-5.629-6.511-8.569c-2.983,3.15-6.007,6.217-8.065,7.981l-2.353-1.891c1.974-2.562,4.789-6.469,7.52-10.418
		c-0.882-1.428-1.723-2.814-2.479-4.116l2.856-2.227c0.714,0.756,1.512,1.513,2.311,2.353c1.008-1.513,1.974-2.982,2.814-4.285
		L386.271,427.289z"/>
	<path class="st3" d="M399.033,440.563c0.126-3.906,0.252-17.013,0.252-25.541l-4.999-0.168l-0.42-2.478
		c5.461-1.639,9.62-2.983,13.148-4.369c0.168,5.209,0.294,23.44,0.294,32.556H399.033z"/>
	<path class="st3" d="M450.951,432.078l-0.168,3.99h-12.854l0.252,7.184l-9.536-0.126l0.21-7.058h-17.139l-0.168-3.024l5.923-0.126
		l0.588-12.645l11.3,0.421l0.252-7.058l-8.695-0.084l-6.217,9.409l-2.814-1.176l4.495-15.879l8.443,1.681l-1.933,2.94l26.213-0.42
		l-0.126,3.738l-11.762-0.126l0.252,7.268l10.964,0.378l-0.126,3.108l-10.754-0.042l0.294,7.981L450.951,432.078z M424.15,432.75
		l4.831-0.126l0.252-8.233l-3.823-0.042L424.15,432.75z"/>
	<path class="st3" d="M458.842,429.096c-0.211-2.814-0.295-5.713-0.295-8.948c2.227-0.126,6.301-0.21,8.906-0.21
		c0,1.765-0.127,6.092-0.252,9.284C463.715,429.222,460.647,429.18,458.842,429.096z"/>
	<path class="st3" d="M497.904,440.983l-22.432-0.798l-0.547-3.402c8.612-6.596,14.997-15.333,14.997-20.5
		c0-2.604-1.597-4.495-3.78-4.495c-2.479,0-5.251,2.353-7.813,6.638l-4.159-4.579c2.646-3.36,7.184-5.419,11.931-5.419
		c6.679,0,11.594,4.075,11.594,9.62c0,5.209-4.327,10.964-14.03,18.651l14.45-0.967L497.904,440.983z"/>
	<path class="st3" d="M540.074,432.078l-0.168,3.99h-12.854l0.252,7.184l-9.535-0.126l0.21-7.058H500.84l-0.169-3.024l5.924-0.126
		l0.588-12.645l11.3,0.421l0.252-7.058l-8.695-0.084l-6.217,9.409l-2.814-1.176l4.494-15.879l8.443,1.681l-1.932,2.94l26.212-0.42
		l-0.126,3.738l-11.762-0.126l0.252,7.268l10.964,0.378l-0.126,3.108l-10.754-0.042l0.294,7.981L540.074,432.078z M513.273,432.75
		l4.831-0.126l0.252-8.233l-3.822-0.042L513.273,432.75z"/>
	<path class="st3" d="M554.602,427.751c0-5.713,2.437-10.628,7.394-14.87c-6.68,0.546-11.09,1.428-18.693,3.696l-0.673-4.495
		c8.234-1.554,15.585-2.31,22.853-2.31c2.982,0,5.965,0.126,9.031,0.378l-0.126,3.318c-7.52,0.126-12.56,4.285-12.56,10.334
		c0,3.948,2.142,7.646,7.813,13.484c-1.975,1.68-4.369,3.36-7.604,5.293C556.87,437.791,554.602,433.296,554.602,427.751z
		 M567.75,426.869l-1.849-8.149l4.663-1.261c0.63,3.025,1.26,5.672,1.933,8.107L567.75,426.869z M573.841,425.356
		c-0.546-2.646-1.176-5.209-1.975-8.275l4.537-1.218c0.756,2.688,1.387,5.335,1.933,8.401L573.841,425.356z"/>
	<path class="st3" d="M576.648,437.077c2.185-7.855,4.453-14.493,6.764-19.744c-1.008,0.042-2.814,0.252-4.621,0.547l-0.252-3.739
		c1.681-0.252,4.075-0.546,6.554-0.798c1.428-3.024,2.73-5.545,4.032-7.897c2.437,0.294,4.537,0.84,6.512,1.681
		c-1.219,2.772-1.807,4.242-2.269,5.671c1.974-0.126,8.149-0.252,12.602-0.252l0.294,4.032c-1.596-0.084-4.83-0.168-7.057-0.168
		s-4.705,0.084-7.31,0.21c-2.646,6.848-5.503,16.047-7.352,23.524C579.169,438.211,578.161,437.791,576.648,437.077z
		 M588.201,436.32c0-4.578,3.78-7.477,9.661-7.603c-0.126-3.445-0.42-7.1-0.714-8.822c5.713,0,11.931,0.126,14.492,0.294
		l-0.126,3.739c-2.856-0.462-5.124-0.798-7.561-1.135c0.126,1.387,0.252,3.781,0.378,7.1c2.604,0.798,5.293,2.395,8.065,4.747
		l-1.849,4.242c-2.437-2.31-4.411-3.906-6.091-4.872c0,2.142-0.168,4.956-0.546,8.275c-2.143,0.378-3.991,0.546-5.84,0.546
		C591.478,442.832,588.201,440.647,588.201,436.32z M597.946,432.33c-2.226,0-3.528,1.47-3.528,3.99
		c0,2.437,1.219,4.117,3.234,4.411L597.946,432.33z"/>
	<path class="st3" d="M622.094,438.127c7.688-3.066,10.838-5.461,10.838-8.233c0-2.143-1.849-3.486-4.789-3.486
		c-2.814,0-8.611,1.218-13.232,2.814c0-5.671,0.421-11.09,1.177-15.039c2.688,0,5.419,0.252,8.065,0.756
		c-0.588,2.604-1.345,7.604-1.345,9.116c2.479-0.462,4.915-0.714,6.932-0.714c6.763,0,10.796,2.814,10.796,7.519
		c0,4.873-4.243,9.41-12.309,13.148C626.043,442.412,624.026,440.479,622.094,438.127z M634.234,416.997
		c-3.487-2.437-7.352-4.41-11.048-5.629c0.798-2.101,1.428-3.486,2.184-4.789c4.831,1.219,8.444,2.772,11.889,5.083L634.234,416.997
		z"/>
	<path class="st3" d="M645.74,438.925c10.124-4.872,15.627-9.871,15.627-14.24c0-2.437-1.723-3.612-5.167-3.612
		c-3.108,0-7.729,0.966-14.114,2.898l-1.135-4.033c6.344-1.428,11.553-2.1,15.795-2.1c8.401,0,12.854,2.73,12.854,7.896
		c0,5.84-5.671,12.687-14.912,17.938C651.117,442.076,648.261,440.563,645.74,438.925z M661.073,416.409
		c-2.437-1.933-7.981-4.621-12.015-5.881c1.891-2.353,3.067-3.613,4.831-5.041c3.781,1.471,8.401,4.495,10.628,6.932
		L661.073,416.409z"/>
	<path class="st3" d="M696.983,441.487l-23.482-0.84l-0.588-3.486c9.031-6.806,15.711-15.795,15.711-21.13
		c0-2.688-1.681-4.663-3.949-4.663c-2.604,0-5.503,2.437-8.191,6.848l-4.369-4.705c2.772-3.444,7.562-5.587,12.519-5.587
		c6.974,0,12.141,4.2,12.141,9.914c0,5.377-4.537,11.3-14.703,19.239l15.165-1.009L696.983,441.487z"/>
	<path class="st3" d="M727.896,431.658h-4.537c-0.168,4.326-0.252,7.813-0.252,9.241c-1.513,0.084-4.705,0.168-6.596,0.168
		c-0.084-2.646-0.126-6.259-0.168-9.493c-5.755-0.042-11.09-0.168-14.912-0.336c0-4.957,0.252-14.745,0.672-23.146
		c2.521,0,5.965,0.21,8.107,0.462c-0.714,5.881-1.513,14.955-1.723,19.785c2.562,0,5.293-0.042,7.855-0.126v-0.798
		c0-6.469,0.126-13.946,0.294-19.155c3.781,0,6.302,0.042,7.771,0.168c-0.294,4.663-0.63,12.561-0.924,19.449
		c1.639-0.126,3.108-0.21,4.243-0.336L727.896,431.658z"/>
	<path class="st3" d="M731.251,425.23c0-9.913,5.671-17.307,13.316-17.307c7.183,0,12.266,6.595,12.266,15.963
		c0,9.913-5.755,17.349-13.4,17.349C736.292,441.235,731.251,434.641,731.251,425.23z M749.986,427.499
		c0-8.065-3.697-15.921-7.52-15.921c-2.646,0-4.411,3.865-4.411,9.62c0,8.275,3.613,16.425,7.31,16.425
		C748.012,437.623,749.986,433.296,749.986,427.499z"/>
	<path class="st3" d="M767.749,413.889l0.462,8.317l-7.435,0.084l0.462-11.174l14.576,0.042l-0.21-6.133l8.653,0.126l-0.21,6.007
		l14.577,0.042l0.462,11.384l-7.226-0.294l0.294-8.023L767.749,413.889z M783.712,429.474l14.703,0.21l-0.294,2.898l-14.241,0.21
		c0.084,3.486,0.168,7.436,0.168,11.342l-15.795-1.638l0.253-2.688l6.931-0.084c0.168-2.227,0.252-4.537,0.378-6.806l-14.072,0.21
		l-0.252-3.948l14.408,0.21c0.042-1.597,0.084-3.066,0.084-4.369l1.681-0.084c1.386-1.512,3.108-3.654,3.948-4.999l-12.182,0.883
		l0.168-3.655h20.962l0.126,1.933c-1.009,1.681-3.865,4.915-7.1,7.939L783.712,429.474z"/>
	<path class="st3" d="M804.33,443c4.999-4.957,7.352-9.83,7.352-15.333c0-6.469-3.276-12.35-8.653-15.543
		c1.26-2.142,3.192-5.082,5.251-7.897c5.545,4.285,9.241,12.099,9.241,19.618c0,7.897-4.116,15.837-11.006,21.13L804.33,443z"/>
</g>
<g>
	<path class="st1" d="M50.956,510.497c-1.55-0.403-3.782-1.179-5.209-1.736c1.644,2.201,3.163,4.495,4.031,6.201l-6.977,3.162
		c-1.581-3.783-4.279-8.402-6.697-11.565l4.899-3.38c1.178,1.117,2.667,2.884,4.124,4.744c2.791-2.945,5.116-5.953,6.418-8.31
		c-1.83-0.217-3.597-0.31-5.302-0.31c-4.62,0-9.239,0.682-15.348,2.232l-0.62-3.441c7.379-0.838,12.774-1.21,17.643-1.21
		c3.534,0,6.79,0.187,10.294,0.62C57.096,501.319,54.305,506.28,50.956,510.497z"/>
	<path class="st1" d="M60.004,495.055c3.441,0.186,7.845,0.651,10.697,1.178l-0.62,3.907c-1.612-0.062-3.318-0.093-5.085-0.093
		c-1.736,0-3.473,0.031-5.178,0.093L60.004,495.055z M61.213,512.604c7.535-4.465,13.612-9.271,18.139-14.293l3.132,2.418
		c-4.713,7.565-10.17,13.363-16.464,17.487C64.252,516.387,62.67,514.527,61.213,512.604z"/>
	<path class="st1" d="M96.959,518.155c0.62-6.388,1.023-11.627,1.209-16.31c-0.806-0.093-2.945-0.093-3.938-0.093
		c-1.303,5.054-2.388,10.542-3.225,16.526c-2.232-0.218-4.496-0.496-6.821-0.837c0.899-4.744,2.201-9.829,3.845-15.286
		c-1.984,0.155-3.876,0.434-5.798,0.806v-3.131c2.139-0.187,4.806-0.342,6.697-0.403c0.93-2.884,1.891-5.675,2.294-6.697
		c1.892,0.341,3.597,0.713,5.085,1.116c-0.527,1.643-1.116,3.875-1.426,5.363l4.62,0.187l0.187,2.48l4.31-0.155
		c0.155,2.078,0.217,4.837,0.217,7.783c0,2.914-0.062,6.046-0.217,8.898C102.292,518.403,99.439,518.279,96.959,518.155z
		 M100.369,501.04l-0.465-6.697l3.628-0.279l0.558,6.635L100.369,501.04z M104.927,500.76c-0.155-2.543-0.341-4.806-0.558-6.76
		l3.504-0.217c0.279,1.923,0.465,4.155,0.589,6.791L104.927,500.76z"/>
	<path class="st2" d="M126.688,517.317c0.248-2.387,0.372-4.558,0.372-6.479c0-8.558-2.418-12.62-7.503-12.62
		c-4.806,0-7.968,3.628-7.968,9.147c0,3.689,1.364,6.387,3.255,6.387c1.612,0,2.635-1.953,2.635-4.961
		c0-2.046-0.465-4.713-1.457-8.123c1.24-0.279,2.636-0.435,3.969-0.435c0.589,0,1.178,0.031,1.736,0.094
		c0.341,1.922,0.527,3.689,0.527,5.271c0,6.666-3.163,10.728-8.341,10.728c-4.558,0-7.255-3.193-7.255-8.588
		c0-7.349,4.992-11.752,13.333-11.752c8.774,0,12.991,4.868,12.991,15.008c0,1.953-0.155,4.154-0.496,6.666
		C130.13,517.659,127.836,517.535,126.688,517.317z"/>
	<path class="st2" d="M133.969,512.233c0-1.023,0.279-2.171,0.837-3.411l2.449,0.589v0.372c0,1.799,2.294,2.853,5.922,2.853
		c2.791,0,6.264-0.62,10.046-1.829c0.559,1.892,0.931,3.689,1.147,5.333c-2.17,0.807-7.906,1.612-11.503,1.612
		C137.194,517.751,133.969,515.736,133.969,512.233z M146.868,500.45l0.589-2.883c-1.52-0.248-2.822-0.372-4.31-0.372
		c-2.232,0-4.868,0.278-7.689,0.774l-0.558-2.604c1.674-0.373,4.031-0.559,6.635-0.559c5.023,0,9.922,0.775,12.309,1.922
		c-0.899,2.016-1.798,3.535-2.759,4.683L146.868,500.45z"/>
	<path class="st2" d="M157.654,516.046c7.472-3.597,11.534-7.286,11.534-10.511c0-1.799-1.271-2.667-3.814-2.667
		c-2.294,0-5.705,0.713-10.418,2.14l-0.837-2.977c4.682-1.055,8.526-1.551,11.658-1.551c6.201,0,9.488,2.016,9.488,5.829
		c0,4.31-4.186,9.364-11.007,13.239C161.623,518.372,159.514,517.255,157.654,516.046z M168.971,499.427
		c-1.798-1.427-5.891-3.411-8.867-4.341c1.395-1.736,2.263-2.667,3.565-3.721c2.791,1.085,6.201,3.317,7.845,5.115L168.971,499.427z
		"/>
	<path class="st2" d="M187.416,517.783c1.395-4.527,2.635-10.914,2.635-13.581c0-2.512-1.085-3.565-3.751-3.565
		c-0.806,5.55-1.488,11.255-1.922,16.062c-2.48-0.342-4.31-0.466-5.86-0.527c0.496-3.38,2.078-12.123,2.636-14.573
		c-1.55,0.559-3.193,1.21-4.837,1.923l-0.682-2.574c1.798-0.65,4.558-1.488,6.139-1.859c0.341-1.706,0.806-3.814,1.55-7.132
		c1.488,0.155,3.442,0.279,4.372,0.279c-0.434,1.581-0.837,3.845-1.085,6.046c0.403-0.062,0.775-0.093,1.271-0.093
		c5.022,0,7.72,3.069,7.72,8.774c0,2.853-0.651,6.48-2.078,11.348C189.989,517.968,189.152,517.907,187.416,517.783z
		 M196.779,498.652c1.736-0.341,2.977-0.62,4.434-0.992c1.333,4.62,1.984,8.65,2.295,14.325c-1.675,0.123-3.163,0.278-5.085,0.526
		C197.833,505.04,197.461,501.908,196.779,498.652z"/>
	<path class="st2" d="M229.081,502.559l5.333,0.03l-0.124,2.016l-29.207,0.279l-0.124-2.543l5.333,0.031l-0.465-4.62h-3.659v-2.077
		l10.821-0.031l-0.248-3.782l5.891-0.155l-0.248,3.938l10.759-0.03l0.093,2.201h-3.659L229.081,502.559z M208.772,506.621
		l21.828,0.217l0.403,12.062l-22.635,0.217L208.772,506.621z M225.144,508.729l-10.914,0.248l0.093,2.76l10.729,0.217
		L225.144,508.729z M214.509,516.791l10.355,0.248l0.124-3.256L214.416,514L214.509,516.791z M215.842,497.784v4.65l7.721,0.062
		v-4.713H215.842z"/>
	<path class="st2" d="M255.276,517.317c0.248-2.387,0.372-4.558,0.372-6.479c0-8.558-2.418-12.62-7.503-12.62
		c-4.806,0-7.969,3.628-7.969,9.147c0,3.689,1.364,6.387,3.256,6.387c1.612,0,2.636-1.953,2.636-4.961
		c0-2.046-0.465-4.713-1.458-8.123c1.24-0.279,2.635-0.435,3.969-0.435c0.589,0,1.178,0.031,1.736,0.094
		c0.341,1.922,0.527,3.689,0.527,5.271c0,6.666-3.162,10.728-8.34,10.728c-4.558,0-7.255-3.193-7.255-8.588
		c0-7.349,4.992-11.752,13.333-11.752c8.775,0,12.992,4.868,12.992,15.008c0,1.953-0.155,4.154-0.496,6.666
		C258.718,517.659,256.423,517.535,255.276,517.317z"/>
	<path class="st1" d="M291.578,508.45l-0.155,2.977l-10.479-0.093c0.093,2.697,0.124,5.364,0.124,7.938l-11.317-0.248l0.062-1.829
		l4.713-0.714v-5.209l-11.689-0.124l-0.155-2.418l11.813-0.124c-0.031-1.303-0.031-2.543-0.062-3.752l-10.852,0.187l-0.124-3.194
		l10.914,0.187c-0.031-1.334-0.093-2.636-0.124-3.876l-9.302,0.806l-0.311-2.263l21.891-5.023l1.457,5.271l-7.751,0.682
		c0.124,1.52,0.217,3.039,0.31,4.496l10.263,0.187l-0.093,2.294l-10.046,0.155l0.186,3.782L291.578,508.45z"/>
	<path class="st1" d="M318.827,501.938l-9.302,0.311l0.031,1.551l9.643-0.218l-0.093,1.954l-9.488,0.062l0.062,1.581l10.325,0.031
		l-0.093,1.674l-25.921,0.248l-0.093-1.984l10.201,0.031l0.062-1.52l-9.209,0.062l-0.093-1.612l9.333-0.217l0.062-1.488
		l-8.867,0.278l-0.248-2.107h9.178l0.062-1.736l-11.1-0.187l-0.093-1.581l11.255-0.094l0.031-1.611l-9.333,0.093l-0.124-1.954
		l9.519,0.062l0.062-1.799l4.589,0.062l0.062,1.799l9.953,0.062l-0.155,3.193l2.294-0.03l-0.093,2.294l-2.294-0.031L318.827,501.938
		z M295.2,510.403l24.154-0.062l0.279,8.65l-24.742,0.187L295.2,510.403z M314.362,512.17h-14.201v1.674l14.201-0.217V512.17z
		 M300.161,517.069l14.201,0.248v-1.55l-14.201-0.187V517.069z M309.308,495.303l0.031,1.644l4.558-0.031l-0.062-1.675
		L309.308,495.303z M309.401,498.931l0.062,1.644h4.558l-0.062-1.551L309.401,498.931z"/>
	<path class="st1" d="M324.061,511.798c0-2.977,3.318-4.961,9.333-5.55c0-0.713-0.093-1.736-0.217-2.822
		c-2.853,0.248-5.953,0.838-8.961,1.706l-0.496-2.821c2.636-0.435,5.581-0.807,9.147-1.147l-0.403-2.45
		c-2.202,0.155-4.868,0.527-9.302,1.21l-0.341-2.698c2.853-0.371,7.069-0.744,9.271-0.806c-0.279-1.427-0.744-3.225-1.116-4.341
		c2.542-0.434,4.837-0.713,6.697-0.775c0.248,1.334,0.527,3.597,0.62,4.899c2.79,0,4.898,0.093,6.852,0.31l-0.31,2.449
		c-1.922-0.371-4.093-0.558-6.294-0.558l0.217,2.604c1.55,0,4.558,0.248,6.015,0.559l-0.434,2.449
		c-2.201-0.496-3.876-0.744-5.426-0.807c0.093,1.396,0.124,3.193,0.124,5.551c-1.209-0.187-2.698-0.311-4.186-0.311
		c-4,0-6.17,0.744-6.17,2.14c0,1.892,4,3.101,12.03,3.658c-0.682,1.984-1.395,3.565-2.294,4.961
		C329.673,518.527,324.061,515.643,324.061,511.798z"/>
	<path class="st1" d="M370.193,499.52c-0.961,2.512-2.76,5.488-4.93,8.402c2.573,2.108,5.581,4.403,9.022,6.821l-5.798,4.992
		c-2.356-1.829-4.93-4.217-7.441-6.821c-2.853,3.008-5.892,5.52-8.341,6.635l-5.55-3.782c3.503-1.488,7.224-3.876,10.511-6.604
		c-2.977-3.441-5.581-6.977-7.317-9.983l-3.535-0.062l0.124-2.325l11.1-0.186l-0.31-5.427l5.953,0.187l-0.279,5.146l11.069-0.186
		l0.124,3.256L370.193,499.52z M356.489,499.272c1.426,1.829,3.255,3.752,5.488,5.798c1.768-1.892,3.225-3.813,4.217-5.643
		L356.489,499.272z"/>
	<path class="st1" d="M381.846,497.567l0.341,6.139l-5.488,0.062l0.341-8.248l10.759,0.031l-0.155-4.527l6.388,0.094l-0.155,4.434
		l10.759,0.031l0.341,8.402l-5.333-0.217l0.217-5.922L381.846,497.567z M393.628,509.07l10.852,0.155l-0.217,2.139l-10.511,0.155
		c0.062,2.573,0.124,5.488,0.124,8.372l-11.658-1.209l0.186-1.984l5.116-0.062c0.124-1.644,0.187-3.349,0.279-5.023l-10.387,0.155
		l-0.187-2.914l10.635,0.155c0.031-1.179,0.062-2.264,0.062-3.225l1.24-0.062c1.023-1.116,2.294-2.697,2.915-3.689l-8.992,0.65
		l0.124-2.697h15.472l0.093,1.427c-0.744,1.24-2.853,3.628-5.24,5.86L393.628,509.07z"/>
	<path class="st2" d="M410.645,514.496c0-2.666,2.45-5.271,7.473-7.938c-0.651-0.589-1.364-0.837-2.14-0.837
		c-1.767,0-3.751,1.457-5.426,4.124c-1.488-0.683-2.853-1.458-4.155-2.295c1.984-2.294,3.783-4.868,5.085-7.72l-4.558,0.062
		l0.217-2.977c1.83,0.248,3.814,0.403,5.271,0.403c0.93-2.48,1.488-4.217,1.892-5.799c2.511,0.187,4.682,0.496,6.666,0.899
		l-2.17,4.713c1.891-0.124,3.907-0.372,6.449-0.837l0.186,2.884c-2.48,0.186-5.085,0.341-7.845,0.465
		c-1.116,2.294-1.798,3.504-2.325,4.248c0.837-0.187,1.674-0.279,2.449-0.279c1.458,0,2.791,0.341,3.876,0.961
		c1.612-0.961,3.317-1.798,5.023-2.542c0.713,0.961,1.302,1.768,3.039,4.248c-1.488,0.558-3.659,1.426-5.209,2.107
		c0.527,1.613,0.992,3.287,1.333,4.868c-1.891,0.435-3.813,0.683-5.767,0.744c0-1.209-0.124-2.666-0.311-3.658
		c-3.225,1.457-4.806,2.945-4.806,4.558c0,1.457,1.333,2.201,3.659,2.201c2.046,0,4.899-0.558,8.31-1.736l0.558,3.008
		c-2.977,0.651-5.674,0.992-8.03,0.992C413.993,519.364,410.645,517.627,410.645,514.496z"/>
	<path class="st2" d="M440.251,518.96c0-4.991-0.124-9.271-0.434-14.076c-2.511,1.953-5.023,4.03-7.596,6.356l-3.132-3.814
		c5.426-5.953,11.41-11.1,18.263-15.751c1.364,1.86,2.666,3.752,3.906,5.675c-4.154,2.418-7.534,4.588-10.201,6.604l5.054-0.186
		c0.217,2.387,0.341,5.333,0.341,8.247c0,2.356-0.093,4.713-0.217,6.79L440.251,518.96z"/>
	<path class="st2" d="M448.526,514.651c4.155-3.008,7.472-5.829,9.891-8.434c-1.582-1.52-2.945-2.729-4.217-3.752l2.387-2.697
		c1.334,0.868,2.822,1.892,4.744,3.225c2.016-2.884,3.659-5.798,4.961-8.744c2.108,0.992,4.031,1.984,5.86,3.008
		c-1.52,3.193-3.689,6.388-6.542,9.612c1.55,1.457,2.821,2.821,3.938,4.124c-1.303,1.24-2.636,2.387-4.031,3.503
		c-1.146-1.581-2.201-2.884-3.193-4.03c-3.379,3.162-6.418,5.55-10.294,8.062L448.526,514.651z"/>
	<path class="st2" d="M495.712,507.458c-1.768-0.279-5.178-0.403-10.79-0.403c-5.054,0-8.093,0.093-11.472,0.372l-0.311-3.504
		c5.984-0.774,10.387-1.115,14.511-1.115c2.48,0,5.147,0.123,8.217,0.371L495.712,507.458z"/>
	<path class="st2" d="M497.63,501.628c3.565,0.155,6.759,0.496,9.271,0.899l-0.187,3.41c-5.674,0-8.371,0-9.239,0.031
		L497.63,501.628z M507.737,499.892c-2.79-0.589-6.077-1.179-9.022-1.55l0.931-4.248c4.806,1.24,6.914,1.829,8.898,2.512
		L507.737,499.892z M500.513,514.403c4.59-3.008,11.193-9.457,13.488-13.178l6.015-0.465c-2.821,6.883-7.751,13.487-13.58,18.17
		C505.443,518.403,502.932,516.48,500.513,514.403z M513.442,500.295c-0.062-1.179-0.496-5.24-0.682-6.325l3.565-0.403l0.992,6.418
		L513.442,500.295z M518.155,499.985c-0.248-2.046-0.558-4.217-0.992-6.542l3.659-0.372c0.403,2.264,0.713,4.434,0.868,6.604
		L518.155,499.985z"/>
	<path class="st2" d="M522.058,505.597c0-3.163,0.248-7.007,0.744-11.597c1.209-0.123,4.558-0.248,6.542-0.248
		c-0.868,6.078-1.302,10.604-1.302,13.984c0,6.015,1.333,8.713,4.278,8.713c2.264,0,5.054-1.582,8.372-4.713l2.016,2.635
		c-3.721,3.287-7.38,4.807-11.628,4.807C524.507,519.178,522.058,515.519,522.058,505.597z"/>
	<path class="st2" d="M543.263,517.659c0.961-5.799,2.604-13.798,3.565-17.332c-1.24,0.278-3.101,0.806-5.085,1.488l-0.527-2.574
		c1.736-0.527,4.465-1.146,6.232-1.457c0.402-1.52,1.146-3.906,1.829-5.891c2.201,0,4.062,0.154,5.644,0.465
		c-0.683,2.232-1.055,3.565-1.334,4.65c3.504-0.341,7.845-0.496,11.534-0.496l-0.31,3.008c-2.636-0.311-4.341-0.403-6.14-0.403
		c-1.55,0-3.255,0.062-5.581,0.248c-0.898,3.752-2.016,10.511-3.131,18.944C547.603,518.092,545.37,517.875,543.263,517.659z
		 M554.394,513.659c0-1.333,0.744-2.729,1.891-3.504l1.923,0.559c-0.248,0.527-0.372,0.961-0.372,1.333
		c0,1.085,1.085,1.581,3.38,1.581c1.302,0,2.884-0.154,5.116-0.465c0.248,1.085,0.371,2.356,0.434,4.217
		c-1.396,0.155-2.821,0.217-4.154,0.217C557.215,517.596,554.394,516.232,554.394,513.659z M554.703,503.458
		c1.829-0.589,4.744-0.93,7.782-0.93c1.551,0,2.946,0.093,4.187,0.279c-0.311,1.178-0.589,1.953-1.085,3.038
		c-1.396-0.465-2.76-0.683-4.342-0.683c-1.519,0-3.348,0.218-5.798,0.714L554.703,503.458z"/>
	<path class="st2" d="M572.495,518.805c-1.302-2.635-2.666-5.084-4.123-7.348l3.007-1.892c1.923,1.768,3.628,4.03,5.179,6.79
		L572.495,518.805z"/>
	<path class="st1" d="M602.723,518c0.031-0.558,0.031-1.147,0.062-1.705l-10.759-0.093c0.031,0.496,0.031,1.022,0.062,1.519
		l-6.356,0.248c0-7.349,0.155-15.999,0.465-25.177l22.387,0.155c0.31,8.341,0.465,16.123,0.465,25.301L602.723,518z
		 M591.777,495.614c0,2.449,0,4.806,0.031,7.068l11.255,0.435v-0.372c0-2.48-0.031-5.271-0.124-7.473L591.777,495.614z
		 M602.878,513.255c0.093-2.604,0.154-5.146,0.186-7.689l-11.224,0.527c0.03,2.697,0.062,5.271,0.124,7.597L602.878,513.255z"/>
	<path class="st1" d="M637.413,516.108c-1.953-4-4.434-8.371-7.256-12.836c-0.062,2.635-0.124,5.333-0.217,8.062l4.217-0.187v3.411
		l-4.31-0.093l-0.187,4.526l-5.333,0.124l-0.278-4.806l-4.838-0.124v-2.326l4.713-0.217c-0.123-3.008-0.248-5.922-0.341-8.65
		c-2.449,3.473-5.239,7.658-8.774,13.209l-2.264-1.21c2.697-5.426,5.085-10.077,7.38-14.417c-2.14,0.123-4.31,0.31-6.573,0.526
		l0.124-3.162c3.658-0.124,6.914-0.218,9.952-0.279c-0.03-2.14-0.062-4.093-0.062-5.829h6.914c0,1.892,0,3.813-0.03,5.768
		c2.48,0,5.643,0.03,10.139,0.154l0.186,2.264c-2.17,0-4.186,0-6.077,0.031c2.667,3.441,5.396,7.565,8,12.03L637.413,516.108z"/>
	<path class="st1" d="M655.948,497.008v1.582l-12.34,0.65l-0.155-1.922l4.03-0.094l-0.402-4.806l5.209-0.217l-0.311,4.899
		L655.948,497.008z M644.786,518.682l-0.713-10.573l11.473-0.435l-0.403,11.069L644.786,518.682z M655.143,500.729v1.582
		l-10.821,0.558l-0.124-2.046L655.143,500.729z M654.987,506.032l-10.48,0.186l-0.154-1.674l10.79-0.59L654.987,506.032z
		 M651.174,509.349l-2.573-0.062l0.278,8.093l2.295-0.062V509.349z M670.273,505.38l1.581,0.03l-0.093,1.488l-15.689,0.466
		l-0.186-2.14l2.232,0.031l0.651-4.434l-2.419,0.31l-0.124-2.294l2.884-0.125l0.558-3.875l-3.41-0.094l0.062-1.55l13.829-0.124
		v2.016l-5.705-0.155l-0.59,3.565l6.171-0.279L670.273,505.38z M657.096,508.883l13.767,0.062l0.311,9.363l-14.077,0.279V508.883z
		 M662.212,517.039l3.658-0.341l-0.279-6.295l-3.379-0.062V517.039z M663.576,500.233l-0.837,5.085l3.131,0.031l-0.434-5.333
		L663.576,500.233z"/>
	<path class="st2" d="M684.995,517.783c1.396-4.527,2.636-10.914,2.636-13.581c0-2.512-1.085-3.565-3.751-3.565
		c-0.807,5.55-1.488,11.255-1.923,16.062c-2.48-0.342-4.31-0.466-5.86-0.527c0.496-3.38,2.078-12.123,2.636-14.573
		c-1.55,0.559-3.193,1.21-4.837,1.923l-0.682-2.574c1.798-0.65,4.558-1.488,6.139-1.859c0.341-1.706,0.807-3.814,1.551-7.132
		c1.488,0.155,3.441,0.279,4.371,0.279c-0.434,1.581-0.837,3.845-1.085,6.046c0.403-0.062,0.775-0.093,1.271-0.093
		c5.022,0,7.72,3.069,7.72,8.774c0,2.853-0.65,6.48-2.077,11.348C687.569,517.968,686.731,517.907,684.995,517.783z
		 M694.359,498.652c1.736-0.341,2.977-0.62,4.434-0.992c1.333,4.62,1.984,8.65,2.295,14.325c-1.675,0.123-3.163,0.278-5.085,0.526
		C695.413,505.04,695.042,501.908,694.359,498.652z"/>
	<path class="st2" d="M701.764,514.682c1.612-5.799,3.286-10.697,4.992-14.573c-0.744,0.031-2.077,0.187-3.411,0.403l-0.186-2.76
		c1.24-0.186,3.008-0.402,4.837-0.589c1.054-2.232,2.015-4.093,2.977-5.829c1.798,0.217,3.349,0.62,4.806,1.24
		c-0.899,2.047-1.333,3.132-1.674,4.186c1.457-0.093,6.015-0.186,9.301-0.186l0.218,2.977c-1.179-0.062-3.565-0.124-5.209-0.124
		s-3.473,0.062-5.396,0.155c-1.953,5.054-4.062,11.844-5.426,17.363C703.624,515.519,702.88,515.209,701.764,514.682z
		 M710.29,514.124c0-3.379,2.791-5.519,7.132-5.611c-0.093-2.543-0.311-5.24-0.527-6.512c4.217,0,8.806,0.093,10.697,0.217
		l-0.093,2.76c-2.109-0.341-3.783-0.589-5.582-0.837c0.094,1.022,0.187,2.79,0.279,5.239c1.923,0.59,3.907,1.768,5.953,3.504
		l-1.364,3.132c-1.798-1.705-3.255-2.884-4.495-3.597c0,1.581-0.125,3.658-0.403,6.108c-1.581,0.278-2.946,0.403-4.31,0.403
		C712.709,518.93,710.29,517.317,710.29,514.124z M717.483,511.178c-1.643,0-2.604,1.085-2.604,2.945
		c0,1.799,0.899,3.039,2.388,3.256L717.483,511.178z"/>
	<path class="st2" d="M753.197,499.52c-0.961,2.512-2.76,5.488-4.93,8.402c2.573,2.108,5.581,4.403,9.022,6.821l-5.798,4.992
		c-2.356-1.829-4.931-4.217-7.441-6.821c-2.853,3.008-5.892,5.52-8.341,6.635l-5.55-3.782c3.503-1.488,7.224-3.876,10.511-6.604
		c-2.977-3.441-5.581-6.977-7.317-9.983l-3.534-0.062l0.123-2.325l11.101-0.186l-0.31-5.427l5.953,0.187l-0.279,5.146l11.068-0.186
		l0.125,3.256L753.197,499.52z M739.493,499.272c1.426,1.829,3.255,3.752,5.487,5.798c1.768-1.892,3.225-3.813,4.217-5.643
		L739.493,499.272z"/>
	<path class="st2" d="M764.85,497.567l0.341,6.139l-5.488,0.062l0.342-8.248l10.759,0.031l-0.155-4.527l6.388,0.094l-0.155,4.434
		l10.759,0.031l0.341,8.402l-5.332-0.217l0.217-5.922L764.85,497.567z M776.632,509.07l10.852,0.155l-0.217,2.139l-10.511,0.155
		c0.062,2.573,0.124,5.488,0.124,8.372l-11.658-1.209l0.186-1.984l5.116-0.062c0.124-1.644,0.187-3.349,0.279-5.023l-10.387,0.155
		l-0.187-2.914l10.635,0.155c0.031-1.179,0.062-2.264,0.062-3.225l1.24-0.062c1.023-1.116,2.295-2.697,2.914-3.689l-8.991,0.65
		l0.124-2.697h15.472l0.093,1.427c-0.744,1.24-2.852,3.628-5.239,5.86L776.632,509.07z"/>
	<path class="st1" d="M793.835,514.527c7.038-5.892,10.635-10.511,12.619-16.185c-4.837,0-11.721,0.558-16.836,1.363l-0.217-3.906
		c4.123-0.186,7.627-0.279,10.883-0.279c4.465,0,8.402,0.187,12.682,0.559c-1.365,8.526-5.364,16.092-11.845,22.479
		C798.733,517.535,796.284,516.17,793.835,514.527z"/>
	<path class="st1" d="M825.673,520.015c-1.209,0-2.418-0.031-3.1-0.093c0-4.248-0.031-7.008-0.125-9.892
		c-1.426,3.659-3.534,6.821-6.355,9.519c-1.582-0.93-3.163-2.015-4.62-3.162c3.225-2.512,5.705-5.426,7.503-8.837
		c1.179,0.403,2.419,0.837,3.442,1.24l-0.124-2.821c-3.07,0.124-6.016,0.186-8.775,0.186h-1.55l0.187-2.542
		c3.007,0.217,6.666,0.372,8.867,0.372c0.465,0,0.868,0,1.209-0.031c-0.062-1.209-0.186-3.504-0.248-4.186
		c0.496-0.062,2.512-0.124,3.689-0.124c0.527,0,0.931,0.031,1.147,0.062c0.124,1.334,0.218,3.194,0.218,3.969
		c1.426-0.154,2.542-0.31,3.534-0.496l0.279,2.512c-1.551,0.094-2.977,0.155-3.752,0.155c0.093,1.736,0.093,3.628,0.093,5.519
		c0,3.194-0.093,6.326-0.248,8.651H825.673z"/>
	<path class="st1" d="M829.235,495.055c3.442,0.186,7.845,0.651,10.697,1.178l-0.62,3.907c-1.612-0.062-3.317-0.093-5.085-0.093
		c-1.736,0-3.473,0.031-5.178,0.093L829.235,495.055z M830.445,512.604c7.534-4.465,13.611-9.271,18.138-14.293l3.132,2.418
		c-4.713,7.565-10.17,13.363-16.464,17.487C833.483,516.387,831.902,514.527,830.445,512.604z"/>
	<path class="st1" d="M852.392,493.071c2.605-0.155,5.271-0.248,7.287-0.248c0.186,2.697,0.372,8.154,0.372,10.48l1.953-2.202
		c3.163,1.675,5.798,3.473,7.721,5.271l-3.194,3.597c-1.581-1.488-4.465-3.659-6.479-4.837c0,3.721-0.031,11.503-0.093,13.425
		c-1.892,0-5.271-0.062-6.419-0.123C853.539,508.542,853.167,500.079,852.392,493.071z"/>
	<path class="st2" d="M42.011,561.1c2.047-5.55,3.008-11.193,3.008-16.898c1.892-0.123,4.806-0.154,5.581-0.154v5.209
		c1.488-2.016,2.945-4.403,4.248-7.162c-1.396-0.125-2.884-0.187-4.465-0.187c-4.589,0-9.674,0.527-14.294,1.488v-3.782
		c4.589-0.342,8.774-0.527,12.558-0.527c5.054,0,9.519,0.31,13.115,0.93c-1.054,4.155-2.821,8.465-5.209,12.837
		c-2.449-0.837-4.465-1.675-5.984-2.48c-0.248,4.124-0.744,8.154-1.457,11.906C47.158,562.155,44.802,561.751,42.011,561.1z"/>
	<path class="st2" d="M59.339,558.744c2.821-5.146,4.217-10.573,4.775-18.572l5.643,0.248c-0.279,7.938-1.209,14.696-2.791,20.092
		C64.796,560.294,62.253,559.706,59.339,558.744z M73.105,552.667c0-5.363-0.186-9.178-0.527-11.968l6.542-0.683
		c0.217,2.729,0.341,5.364,0.341,7.876c0,2.48-0.124,5.116-0.341,7.875c2.574-0.558,5.364-1.426,7.72-2.449l1.055,3.782
		c-4.992,1.334-9.457,2.047-14.914,2.388C73.074,557.596,73.105,554.837,73.105,552.667z"/>
	<path class="st2" d="M88.976,558.527c7.038-5.892,10.635-10.511,12.619-16.185c-4.837,0-11.72,0.558-16.836,1.363l-0.217-3.906
		c4.124-0.186,7.627-0.279,10.883-0.279c4.465,0,8.402,0.187,12.681,0.559c-1.364,8.526-5.364,16.092-11.844,22.479
		C93.874,561.535,91.425,560.17,88.976,558.527z"/>
	<path class="st2" d="M112.598,563.301c1.612-4.434,2.387-8.96,2.387-13.518c1.519-0.094,3.845-0.125,4.465-0.125v4.155
		c1.209-1.612,2.356-3.504,3.411-5.705c-1.116-0.124-2.325-0.155-3.565-0.155c-3.69,0-7.752,0.403-11.441,1.179v-3.008
		c3.659-0.279,7.007-0.435,10.046-0.435c4.031,0,7.597,0.248,10.48,0.744c-0.837,3.318-2.263,6.76-4.155,10.264
		c-1.953-0.683-3.565-1.334-4.806-1.984c-0.187,3.286-0.589,6.511-1.147,9.519C116.69,564.139,114.83,563.797,112.598,563.301z"/>
	<path class="st2" d="M138.483,547.582c-1.954,2.295-4.434,4.713-8.062,7.969l-2.604-3.473c2.48-1.644,9.426-7.317,11.844-9.674
		c4.713,3.504,10.635,7.349,17.549,11.441c-1.209,2.015-2.604,3.969-4.186,5.829C147.506,555.458,142.545,551.333,138.483,547.582z
		 M147.475,546.497l-0.651-6.325l3.566-0.217c0.217,2.17,0.465,4.31,0.744,6.356L147.475,546.497z M152.032,546.28
		c-0.155-1.675-0.372-3.566-0.806-6.48l3.473-0.311c0.341,2.45,0.558,4.59,0.713,6.48L152.032,546.28z"/>
	<path class="st2" d="M156.027,546.434c1.271-0.341,2.883-0.682,4.403-0.961c0.341,2.574,0.868,5.147,1.55,7.689
		c-1.209,0.279-2.542,0.651-3.783,1.086C157.36,551.922,156.647,549.411,156.027,546.434z M161.856,562.279
		c4.93-5.116,8.092-10.388,9.705-16.186c1.984,0.683,3.659,1.333,5.24,1.984c-3.163,8.155-6.821,13.487-11.596,16.898
		L161.856,562.279z M163.003,544.45c1.364-0.123,3.008-0.186,4.558-0.186c0,1.147,0.062,6.945,0.093,7.597
		c-1.83,0.093-3.101,0.217-4.062,0.341C163.375,550.589,163.065,545.969,163.003,544.45z"/>
	<path class="st2" d="M177.479,537.071c2.604-0.155,5.271-0.248,7.287-0.248c0.186,2.697,0.372,8.154,0.372,10.48l1.953-2.202
		c3.163,1.675,5.798,3.473,7.721,5.271l-3.194,3.597c-1.582-1.488-4.465-3.659-6.48-4.837c0,3.721-0.031,11.503-0.093,13.425
		c-1.891,0-5.271-0.062-6.418-0.123C178.626,552.542,178.254,544.079,177.479,537.071z"/>
	<path class="st2" d="M195.676,555.643c0-2.108,0.775-3.875,2.853-6.729l-3.131,0.342c-0.527-3.473-0.837-7.535-0.837-11.534
		c1.674-0.311,3.69-0.496,6.232-0.589c-0.279,2.077-0.527,6.511-0.527,9.58c2.604-2.294,5.984-4.713,10.046-7.193
		c1.458,1.457,2.759,3.101,3.845,4.807c-9.643,4.991-13.797,8.682-13.797,12.216c0,2.016,1.333,3.101,3.813,3.101
		c2.232,0,6.356-0.837,9.488-1.953l0.713,3.008c-3.287,0.961-6.977,1.519-9.829,1.519
		C198.839,562.216,195.676,559.891,195.676,555.643z"/>
	<path class="st2" d="M225.189,536.11l-0.403,5.085l4.434,0.062v1.736l-14.045,0.062l-0.155-2.047l4.961,0.094l-0.465-5.055
		L225.189,536.11z M216.167,562.899l-0.651-10.697l13.115-0.341l-0.558,10.976L216.167,562.899z M216.012,550.465l-0.187-1.768
		l12.526-0.558l-0.186,2.14L216.012,550.465z M228.538,544.667v1.798l-12.589,0.403v-2.108L228.538,544.667z M220.507,553.69
		l-0.248,7.534l3.535,0.155l-0.279-7.813L220.507,553.69z M238.987,560.573l1.271-8.93l3.163,0.248v10.636l-12.278,0.278
		c-0.527-2.573-0.868-8.93-0.868-15.781l7.658-0.279l-0.217-6.449l-8.155,0.062l0.217-2.419l13.828,0.837l-0.465,10.016h-7.875
		c0,4.154,0.527,9.332,1.302,12.154L238.987,560.573z"/>
	<path class="st2" d="M244.873,555.582c0-0.992,0.248-2.108,0.744-3.317l2.387,0.558v0.155c0,1.891,1.984,2.977,5.426,2.977
		c2.791,0,6.325-0.713,9.953-2.016c0.465,1.52,0.837,3.193,1.179,5.302c-2.232,0.931-7.938,1.829-11.41,1.829
		C247.942,561.069,244.873,559.023,244.873,555.582z M257.089,543.706l0.496-2.914c-1.364-0.186-2.697-0.279-3.813-0.279
		c-1.954,0-4.403,0.279-7.721,0.899l-0.558-2.604c2.263-0.465,4.589-0.682,7.131-0.682c4.527,0,8.992,0.713,11.1,1.736
		c-0.868,2.077-1.706,3.596-2.604,4.713L257.089,543.706z M260.003,552.294c-0.217-1.612-0.558-3.38-1.085-5.798l3.783-0.589
		c0.403,1.736,0.775,3.782,1.116,5.798L260.003,552.294z M264.654,551.489c-0.279-1.736-0.744-4.279-1.054-5.768l3.411-0.496
		c0.403,1.396,0.744,3.132,1.116,5.705L264.654,551.489z"/>
	<path class="st2" d="M271.099,560.046c7.472-3.597,11.534-7.286,11.534-10.511c0-1.799-1.271-2.667-3.814-2.667
		c-2.294,0-5.705,0.713-10.418,2.14l-0.837-2.977c4.682-1.055,8.526-1.551,11.658-1.551c6.201,0,9.488,2.016,9.488,5.829
		c0,4.31-4.186,9.364-11.007,13.239C275.068,562.372,272.959,561.255,271.099,560.046z M282.416,543.427
		c-1.798-1.427-5.891-3.411-8.867-4.341c1.395-1.736,2.263-2.667,3.565-3.721c2.791,1.085,6.201,3.317,7.845,5.115L282.416,543.427z
		"/>
	<path class="st2" d="M299.124,561.472c2.264-5.239,4.031-11.1,4.031-13.395c0-1.953-1.24-3.101-3.411-3.101
		c-1.302,4.992-2.512,10.201-3.535,15.162c-2.294-0.496-4.155-0.837-5.767-1.055c0.837-3.193,3.101-10.759,4.093-13.704
		c-1.705,0.372-3.689,0.931-5.023,1.396l-0.434-2.512c2.108-0.527,5.24-1.116,6.325-1.209c0.775-2.449,1.396-4.311,2.232-6.666
		c1.271,0.278,2.48,0.465,4.31,0.682c-0.682,1.892-1.24,3.876-1.643,5.705c5.333,0.155,8.155,2.76,8.155,7.534
		c0,2.977-1.085,6.977-3.287,12.278L299.124,561.472z M305.077,542.807c-0.093-1.396-0.217-3.163-0.496-5.829l3.565-0.279
		c0.248,1.55,0.435,3.659,0.527,5.892L305.077,542.807z M309.604,542.465c0-1.363-0.279-5.022-0.403-5.859l3.751-0.248
		c0.279,2.17,0.465,4.154,0.558,5.891L309.604,542.465z M310.565,557.503c0.093-2.294,0.124-4.247,0.124-6.077
		c0-3.131-0.093-5.488-0.311-7.317c1.147-0.062,3.132-0.31,4.496-0.558c0.651,3.658,0.93,6.697,0.93,10.263
		c0,1.179-0.031,2.356-0.093,3.689H310.565z"/>
	<path class="st2" d="M316.482,562.061c0.186-4.092,0.558-8.03,1.116-11.812c1.55,0,3.938,0.093,5.457,0.402
		c-0.341,2.512-0.558,4.559-0.682,5.892c1.396,0.992,3.225,1.55,4.527,1.55c1.984,0,3.101-1.333,3.101-3.069
		c0-2.511-2.294-5.674-4.992-7.101c1.271-1.581,2.853-3.193,4.186-4.31c-1.116-1.147-2.76-2.201-5.085-3.255
		c1.054-1.488,2.388-2.698,3.907-3.69c3.535,2.388,4.868,3.813,6.635,6.853c-1.364,0.744-2.697,1.644-4.031,2.76
		c3.503,3.534,4.713,5.798,4.713,8.682c0,3.813-2.108,5.674-6.046,5.674c-2.201,0-4.868-0.589-7.131-1.488
		c-0.093,1.147-0.155,1.984-0.217,3.069C320.296,562.216,317.784,562.155,316.482,562.061z M336.884,550.465
		c1.396-0.186,2.884-0.248,5.271-0.248c0.403,3.628,0.744,7.504,1.023,11.627c-1.581,0.217-3.565,0.342-5.643,0.342
		C337.535,558.496,337.287,554.279,336.884,550.465z"/>
	<path class="st2" d="M356.97,556.635c0-0.744,0.062-1.581,0.187-2.48c-2.388,0-3.504,1.457-6.667,8.806
		c-1.674-0.496-3.349-1.116-6.325-2.294c4.589-7.689,7.813-11.597,12.124-14.604c-3.814,0.248-7.535,0.774-11.101,1.581
		l-0.341-3.194c4.589-0.248,13.302-0.434,19.068-0.434l0.311,2.884c-2.326,0.434-4.837,2.14-7.565,5.146
		c1.426,0,3.658,0.093,4.961,0.311c0,3.938,1.116,5.581,3.813,5.581c0.62,0,1.705-0.062,2.636-0.155c0,1.52-0.124,3.876-0.248,5.116
		c-1.333,0.186-2.543,0.279-3.597,0.279C359.265,563.178,356.97,561.1,356.97,556.635z M353.312,535.242
		c0.93-0.124,3.379-0.218,5.643-0.218c0.372,2.326,0.683,5.209,0.683,7.38c-0.589,0-3.318,0.062-4.713,0.124
		C354.645,540.575,354.148,538.311,353.312,535.242z"/>
	<path class="st2" d="M374.298,551.83c0-4.31,1.954-7.999,5.892-11.101c-5.24,0.342-8.651,0.931-14.418,2.512l-0.434-3.349
		c6.201-0.961,11.069-1.396,16.03-1.396c2.946,0,6.108,0.155,8.465,0.403l-0.155,2.419c-5.829,0-9.767,3.069-9.767,7.596
		c0,2.884,1.581,5.582,5.798,9.922c-1.55,1.271-3.441,2.48-5.891,3.814C375.973,559.116,374.298,555.83,374.298,551.83z"/>
	<path class="st2" d="M395.563,562.805c-1.303-2.635-2.667-5.084-4.124-7.348l3.008-1.892c1.922,1.768,3.627,4.03,5.178,6.79
		L395.563,562.805z"/>
	<path class="st2" d="M417.667,561.783c1.395-4.527,2.635-10.914,2.635-13.581c0-2.512-1.085-3.565-3.751-3.565
		c-0.806,5.55-1.488,11.255-1.922,16.062c-2.48-0.342-4.31-0.466-5.86-0.527c0.496-3.38,2.078-12.123,2.636-14.573
		c-1.55,0.559-3.193,1.21-4.837,1.923l-0.682-2.574c1.798-0.65,4.558-1.488,6.139-1.859c0.341-1.706,0.806-3.814,1.55-7.132
		c1.488,0.155,3.442,0.279,4.372,0.279c-0.434,1.581-0.837,3.845-1.085,6.046c0.403-0.062,0.775-0.093,1.271-0.093
		c5.022,0,7.72,3.069,7.72,8.774c0,2.853-0.651,6.48-2.078,11.348C420.241,561.968,419.404,561.907,417.667,561.783z
		 M427.031,542.652c1.736-0.341,2.977-0.62,4.434-0.992c1.333,4.62,1.984,8.65,2.295,14.325c-1.675,0.123-3.163,0.278-5.085,0.526
		C428.085,549.04,427.713,545.908,427.031,542.652z"/>
	<path class="st2" d="M446.249,550.558c-3.441,0-5.86,3.876-7.193,11.534c-1.829-0.093-3.597-0.248-5.24-0.496
		c1.674-8.898,4.775-18.448,8.186-25.053c2.511,0.342,4.899,0.961,6.976,1.83c-2.449,3.999-4.154,7.348-5.054,10.015
		c1.24-0.155,2.294-0.218,3.535-0.218s2.635,0.062,4.62,0.248c-0.186,2.047-0.278,3.783-0.278,5.179c0,4.65,1.022,6.231,3.969,6.231
		c1.085,0,2.511-0.217,4.092-0.619l0.311,2.418c-2.295,0.434-4,0.62-5.612,0.62C448.265,562.248,446.249,559.426,446.249,550.558z"
		/>
	<path class="st2" d="M466.739,541.567l0.341,6.139l-5.488,0.062l0.341-8.248l10.76,0.031l-0.155-4.527l6.387,0.094l-0.155,4.434
		l10.76,0.031l0.341,8.402l-5.333-0.217l0.217-5.922L466.739,541.567z M478.521,553.07l10.853,0.155l-0.217,2.139l-10.511,0.155
		c0.062,2.573,0.123,5.488,0.123,8.372l-11.658-1.209l0.187-1.984l5.116-0.062c0.124-1.644,0.186-3.349,0.279-5.023l-10.388,0.155
		l-0.186-2.914l10.635,0.155c0.031-1.179,0.062-2.264,0.062-3.225l1.24-0.062c1.023-1.116,2.295-2.697,2.915-3.689l-8.991,0.65
		l0.123-2.697h15.473l0.093,1.427c-0.744,1.24-2.853,3.628-5.24,5.86L478.521,553.07z"/>
	<path class="st2" d="M496.281,552.109c-1.922,0.217-3.193,0.403-4.186,0.62l-0.403-2.945c1.271-0.218,2.697-0.403,4.527-0.59
		c0-1.333,0.031-2.729,0.093-4.248c-1.829,0.094-3.441,0.248-4.774,0.466l-0.248-3.039c1.426-0.155,2.883-0.278,5.146-0.434
		c0.155-2.171,0.311-4.062,0.496-6.016c2.016,0.062,4,0.187,6.356,0.435c-0.248,2.201-0.403,3.721-0.527,5.395
		c2.667,0,5.054,0.094,7.41,0.279l-0.124,2.977c-1.798-0.186-4.402-0.279-7.534-0.279c-0.124,1.116-0.217,2.48-0.279,4.031
		c2.543,0,5.984,0.124,7.504,0.279l-0.248,2.883c-1.396-0.186-3.752-0.31-5.736-0.31c-0.589,0-1.147,0-1.644,0.03
		c-0.031,0.496-0.062,1.303-0.062,1.892c0,4.744,1.022,6.915,3.162,6.915c2.295,0,5.798-2.45,8.093-5.644l2.512,2.667
		c-2.945,3.844-6.697,5.735-11.349,5.735C498.7,563.208,496.561,560.325,496.281,552.109z"/>
	<path class="st2" d="M526.353,541.628l-6.512,11.845l-3.225-1.023l3.876-13.55L526.353,541.628z M546.134,550.682l-4.991,2.915
		l-1.333-4c-2.822,6.17-8.559,11.349-15.845,13.767l-6.046-3.535c5.674-1.457,10.79-4.062,14.728-7.162l-7.565-1.302l0.062-1.768
		l3.597-0.217l-0.466-13.674l6.047-0.124l-0.527,16.123c2.047-1.768,3.689-3.689,4.837-5.643l-1.923-5.768l4.403-1.364
		L546.134,550.682z"/>
	<path class="st2" d="M547.555,549.597c0-3.163,0.248-7.007,0.744-11.597c1.209-0.123,4.558-0.248,6.542-0.248
		c-0.868,6.078-1.302,10.604-1.302,13.984c0,6.015,1.333,8.713,4.278,8.713c2.264,0,5.055-1.582,8.372-4.713l2.015,2.635
		c-3.721,3.287-7.379,4.807-11.627,4.807C550.004,563.178,547.555,559.519,547.555,549.597z"/>
	<path class="st2" d="M570.931,557.348c7.534-4.402,10.572-7.162,10.572-9.549c0-1.923-1.953-3.163-4.93-3.163
		c-2.945,0-8.123,1.209-14.728,3.473l-0.714-3.534c5.209-1.365,11.845-2.388,15.597-2.388c6.387,0,10.759,2.945,10.759,7.286
		c0,4.402-4.589,9.674-11.255,12.867C574.496,561.069,572.729,559.395,570.931,557.348z"/>
	<path class="st2" d="M599.637,561.783c1.396-4.527,2.636-10.914,2.636-13.581c0-2.512-1.086-3.565-3.752-3.565
		c-0.807,5.55-1.488,11.255-1.922,16.062c-2.48-0.342-4.311-0.466-5.86-0.527c0.496-3.38,2.077-12.123,2.636-14.573
		c-1.551,0.559-3.194,1.21-4.838,1.923l-0.682-2.574c1.799-0.65,4.558-1.488,6.139-1.859c0.342-1.706,0.807-3.814,1.551-7.132
		c1.488,0.155,3.441,0.279,4.372,0.279c-0.435,1.581-0.837,3.845-1.085,6.046c0.402-0.062,0.774-0.093,1.271-0.093
		c5.023,0,7.721,3.069,7.721,8.774c0,2.853-0.651,6.48-2.077,11.348C602.21,561.968,601.373,561.907,599.637,561.783z
		 M609.001,542.652c1.736-0.341,2.977-0.62,4.434-0.992c1.333,4.62,1.984,8.65,2.294,14.325c-1.674,0.123-3.162,0.278-5.085,0.526
		C610.055,549.04,609.683,545.908,609.001,542.652z"/>
	<path class="st2" d="M629.21,556.635c0-0.744,0.062-1.581,0.187-2.48c-2.388,0-3.504,1.457-6.667,8.806
		c-1.674-0.496-3.348-1.116-6.324-2.294c4.588-7.689,7.812-11.597,12.123-14.604c-3.814,0.248-7.535,0.774-11.101,1.581
		l-0.341-3.194c4.589-0.248,13.302-0.434,19.068-0.434l0.311,2.884c-2.326,0.434-4.837,2.14-7.565,5.146
		c1.426,0,3.658,0.093,4.961,0.311c0,3.938,1.116,5.581,3.813,5.581c0.62,0,1.705-0.062,2.636-0.155c0,1.52-0.124,3.876-0.248,5.116
		c-1.333,0.186-2.543,0.279-3.597,0.279C631.505,563.178,629.21,561.1,629.21,556.635z M625.552,535.242
		c0.93-0.124,3.379-0.218,5.643-0.218c0.372,2.326,0.683,5.209,0.683,7.38c-0.589,0-3.317,0.062-4.713,0.124
		C626.885,540.575,626.389,538.311,625.552,535.242z"/>
	<path class="st2" d="M643.19,558.527c0-2.853,2.666-5.116,5.984-5.116c2.387,0,4.186,1.147,4.93,3.101
		c0.589-0.806,0.868-1.705,0.868-2.542c0-2.543-2.356-4.899-5.644-4.899c-2.418,0-4.186,1.271-6.077,4.341l-5.054-3.101
		c4-4.682,8.341-8.837,11.225-10.759c-2.295,0.311-4.496,0.682-7.225,1.209l-0.155-3.504c3.534-0.278,7.534-0.465,10.449-0.465
		c1.147,0,2.14,0.031,2.853,0.094l0.124,2.418c-2.48,1.457-5.396,4.279-7.504,7.317c1.085-0.279,2.14-0.403,3.163-0.403
		c4.93,0,8.774,3.132,8.774,7.721c0,4.961-4.465,8.589-10.604,8.589C645.392,562.527,643.19,561.069,643.19,558.527z
		 M650.693,557.814c0-1.303-0.62-2.295-1.488-2.295c-0.899,0-1.581,1.055-1.581,2.573c0,1.271,0.713,2.295,1.612,2.295
		C650.104,560.387,650.693,559.364,650.693,557.814z"/>
	<path class="st2" d="M660.89,557.348c0-3.131,2.946-5.084,8.279-5.487c-0.311-5.427-0.992-10.542-2.047-15.379
		c1.612-0.435,3.814-0.651,6.325-0.651c0.279,2.047,0.527,4.465,0.775,7.627c1.705-0.31,4.961-0.682,6.914-0.806l0.187,2.977
		l-6.945,0.093c0.093,1.147,0.124,3.566,0.124,6.636c3.069,0.744,5.953,2.077,8.093,3.689l-1.892,3.256
		c-2.108-1.829-4.155-3.256-6.232-4.341c-0.093,2.635-0.341,5.829-0.558,7.379c-1.303,0.124-2.512,0.187-3.598,0.187
		C664.208,562.527,660.89,560.728,660.89,557.348z M669.293,554.093c-2.295,0.186-3.565,1.178-3.565,2.853
		c0,1.86,1.55,3.256,3.565,3.256V554.093z"/>
	<path class="st2" d="M685.877,560.046c7.473-3.597,11.534-7.286,11.534-10.511c0-1.799-1.271-2.667-3.813-2.667
		c-2.295,0-5.705,0.713-10.418,2.14l-0.837-2.977c4.682-1.055,8.526-1.551,11.658-1.551c6.201,0,9.487,2.016,9.487,5.829
		c0,4.31-4.186,9.364-11.007,13.239C689.846,562.372,687.737,561.255,685.877,560.046z M697.194,543.427
		c-1.799-1.427-5.892-3.411-8.868-4.341c1.396-1.736,2.264-2.667,3.565-3.721c2.791,1.085,6.201,3.317,7.845,5.115L697.194,543.427z
		"/>
	<path class="st2" d="M705.096,553.039c0-5.209,0.683-10.759,1.923-15.688c2.511,0.341,4.526,0.713,6.201,1.146
		c-1.551,4.807-2.45,10.821-2.45,16.402c0,1.457,0.062,2.853,0.187,4.186l2.914-0.217l0.248,2.108
		c-2.201,0.775-4.867,1.271-8.03,1.488C705.437,559.922,705.096,556.698,705.096,553.039z M715.762,555.83
		c0-1.023,0.217-2.232,0.527-3.163c0.744,0.094,1.426,0.217,2.294,0.435c0,2.294,0.899,3.193,3.132,3.193
		c1.644,0,5.147-0.496,8.093-1.116c0.186,0.807,0.65,3.628,0.806,4.898c-2.636,0.838-5.022,1.24-7.286,1.24
		C718.366,561.317,715.762,559.426,715.762,555.83z M721.684,543.365c-1.922,0-3.782,0.248-5.581,0.744l-0.31-2.511
		c2.697-0.744,5.983-1.179,8.991-1.179c2.388,0,4.372,0.279,5.52,0.775c-0.248,0.992-0.559,1.86-1.086,3.255
		C726.428,543.706,724.009,543.365,721.684,543.365z"/>
	<path class="st2" d="M731.601,558.682c1.612-5.799,3.287-10.697,4.992-14.573c-0.744,0.031-2.078,0.187-3.411,0.403l-0.186-2.76
		c1.24-0.186,3.007-0.402,4.837-0.589c1.054-2.232,2.016-4.093,2.977-5.829c1.798,0.217,3.349,0.62,4.806,1.24
		c-0.899,2.047-1.333,3.132-1.675,4.186c1.458-0.093,6.016-0.186,9.303-0.186l0.217,2.977c-1.179-0.062-3.566-0.124-5.209-0.124
		c-1.644,0-3.473,0.062-5.396,0.155c-1.953,5.054-4.062,11.844-5.426,17.363C733.461,559.519,732.717,559.209,731.601,558.682z
		 M740.127,558.124c0-3.379,2.791-5.519,7.132-5.611c-0.094-2.543-0.311-5.24-0.527-6.512c4.217,0,8.806,0.093,10.697,0.217
		l-0.094,2.76c-2.107-0.341-3.782-0.589-5.58-0.837c0.093,1.022,0.186,2.79,0.278,5.239c1.923,0.59,3.907,1.768,5.953,3.504
		l-1.364,3.132c-1.798-1.705-3.256-2.884-4.496-3.597c0,1.581-0.123,3.658-0.402,6.108c-1.582,0.278-2.945,0.403-4.311,0.403
		C742.546,562.93,740.127,561.317,740.127,558.124z M747.32,555.178c-1.644,0-2.604,1.085-2.604,2.945
		c0,1.799,0.899,3.039,2.388,3.256L747.32,555.178z"/>
	<path class="st2" d="M759.593,544.357c0-2.884,0.311-5.395,0.992-7.813c1.458,0.187,2.605,0.372,5.675,0.931
		c-0.714,2.48-1.333,7.379-1.333,10.542l2.729-0.155l0.186,2.108c-1.892,0.217-4.031,0.403-7.441,0.651
		C759.841,548.946,759.593,546.93,759.593,544.357z M766.136,561.69c4.465-6.047,6.232-11.101,6.232-17.798
		c0-2.294-0.218-4.774-0.59-7.038c1.953-0.342,3.566-0.496,5.333-0.559c0.279,2.884,0.435,5.52,0.435,8.062
		c0,7.876-1.396,13.922-4.403,18.914C771.034,562.868,768.709,562.34,766.136,561.69z"/>
	<path class="st2" d="M779.619,557.411c0-3.565,3.782-5.922,9.456-5.922l-0.093-2.604c-2.666,0-5.705-0.031-8.867-0.093v-2.946
		c3.813,0.218,6.356,0.341,8.712,0.341c-0.062-0.744-0.217-2.232-0.31-3.038c-3.038,0-6.542-0.031-9.364-0.093l0.094-2.729
		c2.821,0.186,5.643,0.31,9.022,0.31c-0.187-1.116-0.496-3.007-0.589-3.876l6.604-0.31c0.094,0.744,0.218,2.388,0.311,4.062
		c3.039-0.124,5.24-0.31,7.008-0.589l0.123,2.79c-2.729,0.218-4.682,0.342-6.945,0.403l0.125,3.008
		c2.945-0.155,4.806-0.279,6.542-0.435l-0.093,2.76c-3.132,0.187-4.435,0.248-6.48,0.311c0,1.054-0.094,2.79-0.187,3.752
		c2.915,0.898,5.457,2.263,7.721,4.123l-2.232,3.349c-1.705-1.829-3.597-3.38-5.705-4.682c-0.187,2.077-0.651,4.744-1.085,6.821
		c-1.334,0.248-2.604,0.372-4.186,0.372C782.937,562.496,779.619,560.728,779.619,557.411z M789.106,553.627
		c-2.449,0-4.093,1.365-4.093,3.442c0,1.953,1.427,3.038,3.907,3.038C789.014,557.751,789.106,554.899,789.106,553.627z"/>
	<path class="st2" d="M803.086,549.597c0-3.163,0.248-7.007,0.744-11.597c1.209-0.123,4.558-0.248,6.542-0.248
		c-0.868,6.078-1.302,10.604-1.302,13.984c0,6.015,1.333,8.713,4.278,8.713c2.264,0,5.055-1.582,8.372-4.713l2.015,2.635
		c-3.721,3.287-7.379,4.807-11.627,4.807C805.535,563.178,803.086,559.519,803.086,549.597z"/>
	<path class="st2" d="M824.29,561.659c0.962-5.799,2.605-13.798,3.566-17.332c-1.24,0.278-3.101,0.806-5.085,1.488l-0.527-2.574
		c1.736-0.527,4.465-1.146,6.232-1.457c0.403-1.52,1.147-3.906,1.829-5.891c2.201,0,4.062,0.154,5.643,0.465
		c-0.682,2.232-1.054,3.565-1.333,4.65c3.504-0.341,7.845-0.496,11.534-0.496l-0.31,3.008c-2.636-0.311-4.341-0.403-6.14-0.403
		c-1.55,0-3.256,0.062-5.581,0.248c-0.899,3.752-2.015,10.511-3.132,18.944C828.632,562.092,826.399,561.875,824.29,561.659z
		 M835.422,557.659c0-1.333,0.744-2.729,1.892-3.504l1.922,0.559c-0.248,0.527-0.372,0.961-0.372,1.333
		c0,1.085,1.085,1.581,3.38,1.581c1.302,0,2.883-0.154,5.115-0.465c0.248,1.085,0.373,2.356,0.435,4.217
		c-1.396,0.155-2.821,0.217-4.155,0.217C838.243,561.596,835.422,560.232,835.422,557.659z M835.731,547.458
		c1.83-0.589,4.744-0.93,7.783-0.93c1.55,0,2.945,0.093,4.186,0.279c-0.311,1.178-0.59,1.953-1.086,3.038
		c-1.395-0.465-2.759-0.683-4.34-0.683c-1.52,0-3.35,0.218-5.799,0.714L835.731,547.458z"/>
	<path class="st2" d="M849.399,558.806c0-2.604,1.923-4.341,4.744-4.341c2.697,0,4.496,1.612,4.496,4.062
		c0,2.573-1.984,4.372-4.837,4.372C851.136,562.899,849.399,561.287,849.399,558.806z M855.291,558.588
		c0-1.581-0.403-2.449-1.179-2.449c-0.867,0-1.363,1.055-1.363,2.822c0,1.519,0.371,2.263,1.146,2.263
		C854.795,561.224,855.291,560.294,855.291,558.588z"/>
</g>
</svg>
