<?xml version="1.0" encoding="utf-8"?>
<!-- Generator: Adobe Illustrator 28.0.0, SVG Export Plug-In . SVG Version: 6.00 Build 0)  -->
<svg version="1.1" id="Otomanopee_-_Open_Source_Japanese_Font"
	 xmlns="http://www.w3.org/2000/svg" xmlns:xlink="http://www.w3.org/1999/xlink" x="0px" y="0px" width="900px" height="600px"
	 viewBox="0 0 900 600" style="enable-background:new 0 0 900 600;" xml:space="preserve">
<style type="text/css">
	.st0{fill:#EDE7DF;}
	.st1{fill:#993333;}
	.st2{fill:#663333;}
	.st3{fill:#996666;}
</style>
<rect y="0" class="st0" width="900" height="600"/>
<g>
	<path class="st1" d="M22,60.4C22,45.8,32,35,45.8,35s23.8,10.8,23.8,25.4c0,14.6-10,25.4-23.8,25.4S22,75.1,22,60.4z M57.8,62.7
		c0-12.5-5.9-22.2-13.4-22.2c-6.4,0-10.6,7-10.6,17.6c0,12.5,5.9,22.2,13.4,22.2C53.5,80.3,57.8,73.3,57.8,62.7z"/>
	<path class="st1" d="M99,48.1l-0.4,6.1h-7.2c0,13.8-0.1,27.4-0.3,31.1c-3,0.2-6.7,0.3-10.7,0.3c-0.1-3.7-0.3-17.3-0.3-31.4H73
		l-0.4-6.1h7.5V35.5c3.2,0,8.2,0.1,11.4,0.3v12.3H99z"/>
	<path class="st1" d="M99.4,67.5c0-10.7,8.8-19.3,19.7-19.3c10.4,0,18.6,8.1,18.6,18.3c0,10.7-8.8,19.3-19.7,19.3
		C107.5,85.8,99.4,77.8,99.4,67.5z M127.3,69.1c0-8.9-4.4-15.6-10.2-15.6c-4.7,0-7.5,4.2-7.5,11.4c0,8.9,4.4,15.6,10.2,15.6
		C124.6,80.5,127.3,76.2,127.3,69.1z"/>
	<path class="st1" d="M197.4,78.1c0,2.4-0.1,4.5-0.2,7.1c-2.5,0.3-6.9,0.5-11.4,0.5c0.3-3.7,0.4-8.1,0.4-12.2
		c0-13.7-1.6-20.1-4.9-20.1c-2.3,0-5.3,3.1-6.9,7.1c0.7,4.2,1,9.5,1,16.2c0,3-0.1,5.7-0.2,8.5c-2.6,0.1-8,0.3-11.4,0.3
		c0.3-4.7,0.4-10.3,0.4-15.2c0-12.5-1-17-3.8-17c-2.4,0-5.4,3.2-7.2,7.3c0.1,6.8,0.1,15.5,0.1,24.8c-3,0-8.5-0.1-10.7-0.3
		c0-16.5,0.1-31.1,0.3-36.6c2.8,0,7,0.1,10,0.3c0.1,0.9,0.1,2.2,0.1,3.8c3.6-3.1,7.2-4.6,10.8-4.6c3.8,0,6.4,1.5,8.2,5
		c3.4-3.2,7.3-5,11.4-5C193,48.2,197.4,57.8,197.4,78.1z"/>
	<path class="st1" d="M228.7,85.6c0-1.5,0-2.8-0.1-4.2c-4.6,2.9-9,4.4-13.5,4.4c-7.5,0-12.7-4-12.7-9.9c0-8,9.5-14.8,23-16.6
		c-1.6-3.9-3.8-5.8-6.5-5.8c-3.4,0-9.1,2.8-14.5,6.9l-2-6.6c6.5-3.7,12.8-5.6,18.6-5.6c13.7,0,19,10.4,19,37.2
		C238.3,85.5,233.7,85.6,228.7,85.6z M228.4,75.8c-0.3-4.7-0.8-8.6-1.5-11.8c-6.8,1.3-13.6,6.9-13.6,11.5c0,2.7,2.3,4.4,5.9,4.4
		C222.4,79.9,225.4,78.6,228.4,75.8z"/>
	<path class="st1" d="M283.4,85.6c-3.1,0-8.4-0.1-11.4-0.3c0-23.4-1.8-31.9-6.9-31.9c-2.8,0-5.9,2.6-8.1,6.5
		c-0.1,11.2-0.2,21.2-0.3,25.4c-2.8,0.1-7,0.3-10.7,0.3c-0.2-5.6-0.3-20.7-0.3-36.9c2.9,0,8.5,0.1,11.4,0.3v3.4
		c3.7-2.8,7.5-4.2,11.4-4.2C279.2,48.2,283.4,58.8,283.4,85.6z"/>
	<path class="st1" d="M287.1,67.5c0-10.7,8.8-19.3,19.7-19.3c10.4,0,18.6,8.1,18.6,18.3c0,10.7-8.8,19.3-19.7,19.3
		C295.3,85.8,287.1,77.8,287.1,67.5z M315.1,69.1c0-8.9-4.4-15.6-10.2-15.6c-4.7,0-7.5,4.2-7.5,11.4c0,8.9,4.4,15.6,10.2,15.6
		C312.3,80.5,315.1,76.2,315.1,69.1z"/>
	<path class="st1" d="M364.7,66.5c0,10.8-6.7,19.3-15,19.3c-2.5,0-5.3-0.8-8.1-2.2c0,4.4-0.1,7.8-0.1,9.6c-3.3,0-7.9-0.1-10.7-0.3
		c-0.2-6.1-0.3-30.1-0.3-44c2.8-0.1,8.2-0.3,11.4-0.3v2.2c2.6-1.8,5.4-2.7,8.3-2.7C358.5,48.2,364.7,56,364.7,66.5z M354.8,68.6
		c0-8.6-3.3-15-7.7-15c-1.8,0-3.8,1.2-5.3,3.2c0,6.1-0.1,12.9-0.1,19c1.5,2.9,3.9,4.7,6.5,4.7C352.3,80.5,354.8,76.1,354.8,68.6z"/>
	<path class="st1" d="M400,72.7l4.7,4c-4.3,5.8-10.6,9.1-17.5,9.1c-10.8,0-18.8-8.1-18.8-18.9c0-10.8,7.9-18.7,18.5-18.7
		c10,0,17.4,7.1,18.4,17.7l-26.2,4.9c1.7,5.7,5.5,9.6,10,9.6C393.3,80.4,397.8,77.2,400,72.7z M378.3,64.3V65l15.4-2.1
		c-0.6-5.6-3.9-9.4-8.2-9.4C381,53.5,378.3,57.5,378.3,64.3z"/>
	<path class="st1" d="M440.7,72.7l4.7,4c-4.3,5.8-10.6,9.1-17.5,9.1c-10.8,0-18.8-8.1-18.8-18.9c0-10.8,7.9-18.7,18.5-18.7
		c10,0,17.4,7.1,18.4,17.7l-26.2,4.9c1.7,5.7,5.5,9.6,10,9.6C434,80.4,438.5,77.2,440.7,72.7z M419,64.3V65l15.4-2.1
		c-0.6-5.6-3.9-9.4-8.2-9.4C421.7,53.5,419,57.5,419,64.3z"/>
	<path class="st2" d="M460.7,60.2v-2.5h9.8v2.5H460.7z"/>
	<path class="st2" d="M482.3,59c0-6.2,4.3-10.8,10.1-10.8c5.8,0,10.1,4.6,10.1,10.8s-4.3,10.8-10.1,10.8
		C486.5,69.8,482.3,65.2,482.3,59z M497.4,60c0-5.3-2.5-9.4-5.7-9.4c-2.7,0-4.5,3-4.5,7.4c0,5.3,2.5,9.4,5.7,9.4
		C495.6,67.4,497.4,64.4,497.4,60z"/>
	<path class="st2" d="M518.2,61.6c0,4.6-2.8,8.2-6.4,8.2c-1.1,0-2.3-0.3-3.4-1c0,1.8,0,3.3-0.1,4.1c-1.4,0-3.4-0.1-4.5-0.1
		c-0.1-2.6-0.1-12.8-0.1-18.6c1.2-0.1,3.5-0.1,4.8-0.1v0.9c1.1-0.8,2.3-1.1,3.5-1.1C515.6,53.8,518.2,57.1,518.2,61.6z M514,62.5
		c0-3.6-1.4-6.4-3.3-6.4c-0.8,0-1.6,0.5-2.2,1.4c0,2.6,0,5.5-0.1,8.1c0.6,1.2,1.7,2,2.8,2C513,67.5,514,65.6,514,62.5z"/>
	<path class="st2" d="M532.6,64.2l2,1.7c-1.8,2.5-4.5,3.9-7.4,3.9c-4.6,0-8-3.4-8-8c0-4.6,3.4-8,7.9-8c4.3,0,7.4,3,7.8,7.5
		l-11.1,2.1c0.7,2.4,2.4,4.1,4.3,4.1C529.8,67.5,531.7,66.1,532.6,64.2z M523.4,60.6v0.3l6.5-0.9c-0.3-2.4-1.7-4-3.5-4
		C524.6,56,523.4,57.7,523.4,60.6z"/>
	<path class="st2" d="M551.9,69.7c-1.3,0-3.6-0.1-4.8-0.1c0-9.9-0.8-13.5-2.9-13.5c-1.2,0-2.5,1.1-3.4,2.7c0,4.8-0.1,9-0.1,10.8
		c-1.2,0.1-3,0.1-4.5,0.1c-0.1-2.4-0.1-8.8-0.1-15.7c1.2,0,3.6,0.1,4.8,0.1v1.4c1.6-1.2,3.2-1.8,4.8-1.8
		C550.1,53.8,551.9,58.3,551.9,69.7z"/>
	<path class="st2" d="M562.9,66.5c0.9-1.2,1.9-2.5,3.2-3.7c2.2,2.4,5.3,4.4,7.5,4.4c1.3,0,2.6-0.7,2.6-2.1c0-2-2.6-3.2-5.3-4.5
		c-3.2-1.5-6.6-3.2-6.6-6.2c0-3.1,3.4-6.1,8.2-6.1c2.7,0,5.7,1,7.8,2.7c-0.7,1.3-2,2.6-3,3.4c-2.3-2.2-4.6-3.8-6.6-3.8
		c-1.5,0-2.2,0.9-2.2,1.7c0,1.3,2,2.3,4.5,3.4c3.4,1.6,7.4,3.5,7.4,7.2c0,3.7-3.9,6.9-8.6,6.9C568.6,69.8,564.9,68.4,562.9,66.5z"/>
	<path class="st2" d="M580.8,62c0-4.5,3.8-8.2,8.3-8.2c4.4,0,7.9,3.4,7.9,7.8c0,4.5-3.8,8.2-8.3,8.2C584.3,69.8,580.8,66.3,580.8,62
		z M592.7,62.7c0-3.8-1.8-6.6-4.3-6.6c-2,0-3.2,1.8-3.2,4.8c0,3.8,1.8,6.6,4.3,6.6C591.5,67.5,592.7,65.7,592.7,62.7z"/>
	<path class="st2" d="M614,54.1c0,6-0.1,13-0.1,15.4c-1.5,0.1-3.1,0.1-4.5,0.1c0-0.4,0-1-0.1-1.7c-1.6,1.2-3.3,1.8-5,1.8
		c-4.2,0-6.2-3.8-6.2-11.4c0-1.3,0.1-2.6,0.2-4.1c0.9-0.1,2.4-0.1,4.8-0.1c-0.1,1.9-0.2,3.5-0.2,5c0,5.8,0.9,8.4,2.8,8.4
		c1.3,0,2.7-1.1,3.6-2.9c0-3-0.1-6.8-0.1-10.6C610.7,54,612.8,54.1,614,54.1z"/>
	<path class="st2" d="M630.8,59.6c-1.5,0.5-3,0.9-4.4,1.1c0-2.5-1.1-4.7-2.4-4.7c-1,0-2.4,1.4-3.2,3.2c0,4.8-0.1,8.7-0.1,10.4
		c-1.3,0-3.1-0.1-4.5-0.1c-0.1-2.2-0.1-8.8-0.1-15.4c1.2-0.1,3.6-0.1,4.8-0.1v1.6c1.4-1.1,3.1-1.8,4.5-1.8
		C628.3,53.8,630.6,56.3,630.8,59.6z"/>
	<path class="st2" d="M631,61.8c0-4.4,3.8-8,8.5-8c2.4,0,4.7,1,6.9,3l-2.7,2.9c-1.2-2.2-3.2-3.7-5-3.7c-2,0-3.2,1.8-3.2,4.5
		c0,3.8,2.2,6.9,4.9,6.9c1.5,0,3.2-1,4.2-2.7l1.7,1.7c-2.2,2.2-4.6,3.3-7.1,3.3C634.7,69.8,631,66.1,631,61.8z"/>
	<path class="st2" d="M660.2,64.2l2,1.7c-1.8,2.5-4.5,3.9-7.4,3.9c-4.6,0-8-3.4-8-8c0-4.6,3.4-8,7.9-8c4.3,0,7.4,3,7.8,7.5
		l-11.1,2.1c0.7,2.4,2.4,4.1,4.3,4.1C657.3,67.5,659.2,66.1,660.2,64.2z M651,60.6v0.3l6.5-0.9c-0.3-2.4-1.7-4-3.5-4
		C652.1,56,651,57.7,651,60.6z"/>
	<path class="st3" d="M673.4,68.1l0.6-2.2c3.2,1.1,4.5,1.5,5.5,1.5c2.3,0,3.1-2.1,3.1-11.2c0-2.4-0.1-5.1-0.1-7.7
		c1.9-0.1,3.8-0.2,5.6-0.2c0,0.8,0.1,3.2,0.1,4.9c0,13.3-1.6,16.4-7.5,16.4C678.1,69.8,675.5,69.2,673.4,68.1z"/>
	<path class="st3" d="M700.8,69.7c0-0.6,0-1.2,0-1.8c-1.9,1.2-3.8,1.8-5.7,1.8c-3.2,0-5.4-1.7-5.4-4.2c0-3.4,4-6.3,9.8-7.1
		c-0.7-1.7-1.6-2.5-2.8-2.5c-1.4,0-3.9,1.2-6.2,2.9l-0.8-2.8c2.7-1.6,5.4-2.4,7.9-2.4c5.8,0,8.1,4.4,8.1,15.8
		C704.9,69.6,702.9,69.7,700.8,69.7z M700.7,65.5c-0.1-2-0.3-3.6-0.6-5c-2.9,0.6-5.8,2.9-5.8,4.9c0,1.1,1,1.9,2.5,1.9
		C698.1,67.2,699.4,66.7,700.7,65.5z"/>
	<path class="st3" d="M721.7,61.6c0,4.6-2.8,8.2-6.4,8.2c-1.1,0-2.3-0.3-3.4-1c0,1.8,0,3.3-0.1,4.1c-1.4,0-3.4-0.1-4.5-0.1
		c-0.1-2.6-0.1-12.8-0.1-18.6c1.2-0.1,3.5-0.1,4.8-0.1v0.9c1.1-0.8,2.3-1.1,3.5-1.1C719,53.8,721.7,57.1,721.7,61.6z M717.5,62.5
		c0-3.6-1.4-6.4-3.3-6.4c-0.8,0-1.6,0.5-2.2,1.4c0,2.6,0,5.5-0.1,8.1c0.6,1.2,1.7,2,2.8,2C716.4,67.5,717.5,65.6,717.5,62.5z"/>
	<path class="st3" d="M733.8,69.7c0-0.6,0-1.2,0-1.8c-1.9,1.2-3.8,1.8-5.7,1.8c-3.2,0-5.4-1.7-5.4-4.2c0-3.4,4-6.3,9.8-7.1
		c-0.7-1.7-1.6-2.5-2.8-2.5c-1.4,0-3.9,1.2-6.2,2.9l-0.8-2.8c2.7-1.6,5.4-2.4,7.9-2.4c5.8,0,8.1,4.4,8.1,15.8
		C737.9,69.6,735.9,69.7,733.8,69.7z M733.7,65.5c-0.1-2-0.3-3.6-0.6-5c-2.9,0.6-5.8,2.9-5.8,4.9c0,1.1,1,1.9,2.5,1.9
		C731.2,67.2,732.4,66.7,733.7,65.5z"/>
	<path class="st3" d="M756.5,69.7c-1.3,0-3.6-0.1-4.8-0.1c0-9.9-0.8-13.5-2.9-13.5c-1.2,0-2.5,1.1-3.4,2.7c0,4.8-0.1,9-0.1,10.8
		c-1.2,0.1-3,0.1-4.5,0.1c-0.1-2.4-0.1-8.8-0.1-15.7c1.2,0,3.6,0.1,4.8,0.1v1.4c1.6-1.2,3.2-1.8,4.8-1.8
		C754.7,53.8,756.5,58.3,756.5,69.7z"/>
	<path class="st3" d="M770.8,64.2l2,1.7c-1.8,2.5-4.5,3.9-7.4,3.9c-4.6,0-8-3.4-8-8c0-4.6,3.4-8,7.9-8c4.3,0,7.4,3,7.8,7.5L762,63.4
		c0.7,2.4,2.4,4.1,4.3,4.1C768,67.5,769.9,66.1,770.8,64.2z M761.6,60.6v0.3l6.5-0.9c-0.3-2.4-1.7-4-3.5-4
		C762.8,56,761.6,57.7,761.6,60.6z"/>
	<path class="st3" d="M774.1,68.5l1.2-3.4c2.1,1.3,5.3,2.4,7.1,2.4c1.6,0,2.3-0.9,2.3-1.7c0-1.4-2.1-2.1-4.4-2.8
		c-2.8-0.8-5.9-1.8-5.9-4.4c0-2.5,2.8-4.8,7.4-4.8c2.5,0,5.1,0.7,7.2,1.8l-1.6,2.7c-2.1-1.3-4-2.2-5.7-2.2c-1.7,0-2.5,0.9-2.5,1.6
		c0,1.1,1.7,1.5,3.7,2c2.9,0.7,6.5,1.6,6.5,4.9c0,3-3.1,5.2-7.4,5.2C779.8,69.8,776.3,69.1,774.1,68.5z"/>
	<path class="st3" d="M803.9,64.2l2,1.7c-1.8,2.5-4.5,3.9-7.4,3.9c-4.6,0-8-3.4-8-8c0-4.6,3.4-8,7.9-8c4.3,0,7.4,3,7.8,7.5L795,63.4
		c0.7,2.4,2.4,4.1,4.3,4.1C801,67.5,802.9,66.1,803.9,64.2z M794.7,60.6v0.3l6.5-0.9c-0.3-2.4-1.7-4-3.5-4
		C795.8,56,794.7,57.7,794.7,60.6z"/>
	<path class="st2" d="M832.9,51.1l-9.5-0.4l0.2,5.9l9-0.3l-0.2,3l-8.7-0.5c0.1,3.8,0.1,7.4,0.1,10.9l-5.6-0.2
		c0-4.5,0.2-18.3,0.3-20.9c5.1,0,11.9-0.1,14.6-0.3L832.9,51.1z"/>
	<path class="st2" d="M833.2,62c0-4.5,3.8-8.2,8.3-8.2c4.4,0,7.9,3.4,7.9,7.8c0,4.5-3.8,8.2-8.3,8.2C836.6,69.8,833.2,66.3,833.2,62
		z M845,62.7c0-3.8-1.8-6.6-4.3-6.6c-2,0-3.2,1.8-3.2,4.8c0,3.8,1.8,6.6,4.3,6.6C843.9,67.5,845,65.7,845,62.7z"/>
	<path class="st2" d="M866.9,69.7c-1.3,0-3.6-0.1-4.8-0.1c0-9.9-0.8-13.5-2.9-13.5c-1.2,0-2.5,1.1-3.4,2.7c0,4.8-0.1,9-0.1,10.8
		c-1.2,0.1-3,0.1-4.5,0.1C851,67.3,851,60.9,851,54c1.2,0,3.6,0.1,4.8,0.1v1.4c1.6-1.2,3.2-1.8,4.8-1.8
		C865.1,53.8,866.9,58.3,866.9,69.7z"/>
	<path class="st2" d="M878,53.8l-0.2,2.6h-3.1c0,5.9-0.1,11.6-0.1,13.2c-1.3,0.1-2.8,0.1-4.5,0.1c-0.1-1.6-0.1-7.3-0.1-13.3H867
		l-0.2-2.6h3.2v-5.3c1.4,0,3.5,0.1,4.8,0.1v5.2C874.8,53.8,878,53.8,878,53.8z"/>
</g>
<g>
	<path class="st3" d="M57.3,167.5c-1.9,0-3.8,0-4.9-0.1c0-6.7,0-10.8-0.2-15.6c-2.2,5.7-5.5,10.7-10,15c-2.5-1.5-5-3.2-7.3-5
		c5.1-3.9,9-8.5,11.8-13.9c2,0.7,3.8,1.3,5.4,1.9l-0.2-4.4c-4.8,0.2-9.4,0.3-13.8,0.3h-2.5l0.3-4c4.8,0.4,10.5,0.6,14,0.6
		c0.7,0,1.4,0,1.9,0c-0.1-1.9-0.3-5.6-0.4-6.7c0.8-0.1,3.9-0.2,5.8-0.2c0.8,0,1.5,0,1.8,0.1c0.2,2.1,0.3,5.1,0.3,6.3
		c2.3-0.2,4-0.5,5.6-0.8l0.4,3.9c-2.4,0.2-4.7,0.2-5.9,0.3c0.1,2.7,0.2,5.7,0.2,8.7c0,5-0.2,10-0.4,13.6L57.3,167.5L57.3,167.5z"/>
	<path class="st3" d="M92.7,154.2c-2.2-0.4-6.5-0.5-13.6-0.5c-6.4,0-10.2,0.1-14.4,0.5l-0.4-4.4c7.5-1,13.1-1.4,18.3-1.4
		c3.1,0,6.5,0.2,10.3,0.5L92.7,154.2z"/>
	<path class="st3" d="M96.4,163.1c8.3-6.7,13.1-13,15.6-20.4c-6.7,0-14.9,0.7-20.9,1.7l-0.3-4.9c4.4-0.2,8.7-0.3,12.7-0.3
		c5.8,0,11.2,0.2,16.5,0.7c-0.8,4.2-1.1,5.3-1.3,6.2c-3.3,0-5.4,2.7-5.4,5.7c0,1.3,0.4,2.7,1.3,4c-2.8,4.9-5.8,9-9.2,12.4
		C102.5,166.8,99.4,165.1,96.4,163.1z M114.5,151.7c0-2.7,1.9-4.6,4.6-4.6c2.7,0,4.8,2,4.8,4.8c0,2.6-1.8,4.3-4.6,4.3
		C116.4,156.2,114.5,154.4,114.5,151.7z M120.6,150.8c0-1.2-0.5-2.2-1.1-2.2c-0.8,0-1.5,1.8-1.5,3.8c0,1.1,0.6,2.1,1.2,2.1
		C120,154.5,120.6,153,120.6,150.8z"/>
	<path class="st3" d="M122.6,138.6c4.3,0.2,9.9,0.8,13.5,1.5l-0.8,4.9c-2-0.1-4.2-0.1-6.4-0.1c-2.2,0-4.4,0-6.5,0.1L122.6,138.6z
		 M124.1,160.7c9.5-5.6,17.1-11.7,22.8-18l3.9,3c-5.9,9.5-12.8,16.8-20.7,22C127.9,165.4,125.9,163.1,124.1,160.7z"/>
	<path class="st3" d="M155.9,152.6c-2.2-4.1-3.7-8.4-4.6-12.6c2.2-0.7,4.7-1.2,7.8-1.7c0.7,4,1.6,8.1,2.7,12.5L155.9,152.6z
		 M158,164.8c8.9-11,11.4-15.9,13.7-27.5c3,0.8,5.9,1.7,8.9,2.6c-2.3,10.9-8.2,21.3-15.8,28L158,164.8z"/>
	<path class="st3" d="M209,154.2c-2.2-0.4-6.5-0.5-13.6-0.5c-6.4,0-10.2,0.1-14.4,0.5l-0.4-4.4c7.5-1,13.1-1.4,18.3-1.4
		c3.1,0,6.5,0.2,10.3,0.5L209,154.2z"/>
	<path class="st3" d="M233.6,168.8c-1.5-3.8-3.8-8-6.7-12.6c-3.5,4.3-7.5,8.3-11.9,12.1c-2.7-2.4-4.8-4.6-6.5-6.6
		c9.9-7.8,16.4-14.5,19.1-19.7c-5.5,0.1-12.9,0.8-16.7,1.5l-0.3-4.7c2.7-0.2,5.4-0.2,8.1-0.2c6.1,0,12.1,0.4,17.2,1.1
		c-2,5.1-4.1,9.3-6.6,12.6c3.7,3.7,7.1,8,10.3,12.9L233.6,168.8z"/>
	<path class="st2" d="M252.9,167.2c1.8-5.7,3.3-13.7,3.3-17.1c0-3.2-1.4-4.5-4.7-4.5c-1,7-1.9,14.2-2.4,20.2
		c-3.1-0.4-5.4-0.6-7.4-0.7c0.6-4.3,2.6-15.2,3.3-18.3c-1.9,0.7-4,1.5-6.1,2.4l-0.9-3.2c2.3-0.8,5.7-1.9,7.7-2.3
		c0.4-2.1,1-4.8,1.9-9c1.9,0.2,4.3,0.4,5.5,0.4c-0.5,2-1.1,4.8-1.4,7.6c0.5-0.1,1-0.1,1.6-0.1c6.3,0,9.7,3.9,9.7,11
		c0,3.6-0.8,8.2-2.6,14.3C256.1,167.4,255.1,167.3,252.9,167.2z M264.7,143.1c2.2-0.4,3.7-0.8,5.6-1.2c1.7,5.8,2.5,10.9,2.9,18
		c-2.1,0.2-4,0.4-6.4,0.7C266,151.2,265.5,147.2,264.7,143.1z"/>
	<path class="st2" d="M274.3,163.3c2-7.3,4.1-13.5,6.3-18.3c-0.9,0-2.6,0.2-4.3,0.5l-0.2-3.5c1.6-0.2,3.8-0.5,6.1-0.7
		c1.3-2.8,2.5-5.1,3.7-7.3c2.3,0.3,4.2,0.8,6,1.6c-1.1,2.6-1.7,3.9-2.1,5.3c1.8-0.1,7.6-0.2,11.7-0.2l0.3,3.7
		c-1.5-0.1-4.5-0.2-6.6-0.2c-2.1,0-4.4,0.1-6.8,0.2c-2.5,6.4-5.1,14.9-6.8,21.8C276.6,164.3,275.7,164,274.3,163.3z M285,162.6
		c0-4.3,3.5-6.9,9-7.1c-0.1-3.2-0.4-6.6-0.7-8.2c5.3,0,11.1,0.1,13.5,0.3l-0.1,3.5c-2.7-0.4-4.8-0.7-7-1.1c0.1,1.3,0.2,3.5,0.4,6.6
		c2.4,0.7,4.9,2.2,7.5,4.4l-1.7,3.9c-2.3-2.1-4.1-3.6-5.7-4.5c0,2-0.2,4.6-0.5,7.7c-2,0.4-3.7,0.5-5.4,0.5
		C288.1,168.6,285,166.6,285,162.6z M294.1,158.9c-2.1,0-3.3,1.4-3.3,3.7c0,2.3,1.1,3.8,3,4.1L294.1,158.9z"/>
	<path class="st2" d="M339.3,144.2c-1.2,3.2-3.5,6.9-6.2,10.6c3.2,2.7,7,5.5,11.4,8.6l-7.3,6.3c-3-2.3-6.2-5.3-9.4-8.6
		c-3.6,3.8-7.4,6.9-10.5,8.3l-7-4.8c4.4-1.9,9.1-4.9,13.2-8.3c-3.7-4.3-7-8.8-9.2-12.6l-4.4-0.1l0.2-2.9l14-0.2l-0.4-6.8l7.5,0.2
		l-0.4,6.5l13.9-0.2l0.2,4.1L339.3,144.2z M322.1,143.9c1.8,2.3,4.1,4.7,6.9,7.3c2.2-2.4,4.1-4.8,5.3-7.1L322.1,143.9z"/>
	<path class="st2" d="M354.3,141.8l0.4,7.7l-6.9,0.1l0.4-10.4l13.5,0l-0.2-5.7l8,0.1l-0.2,5.6l13.5,0l0.4,10.6l-6.7-0.3l0.3-7.4
		L354.3,141.8z M369.1,156.2l13.7,0.2l-0.3,2.7l-13.2,0.2c0.1,3.2,0.2,6.9,0.2,10.5l-14.7-1.5l0.2-2.5l6.4-0.1
		c0.2-2.1,0.2-4.2,0.4-6.3l-13.1,0.2l-0.2-3.7l13.4,0.2c0-1.5,0.1-2.8,0.1-4.1l1.6-0.1c1.3-1.4,2.9-3.4,3.7-4.6l-11.3,0.8l0.2-3.4
		h19.5l0.1,1.8c-0.9,1.6-3.6,4.6-6.6,7.4L369.1,156.2z"/>
	<path class="st3" d="M391.1,163.1c8.9-7.4,13.4-13.2,15.9-20.4c-6.1,0-14.7,0.7-21.2,1.7l-0.3-4.9c5.2-0.2,9.6-0.4,13.7-0.4
		c5.6,0,10.6,0.2,16,0.7c-1.7,10.7-6.7,20.2-14.9,28.3C397.2,166.9,394.2,165.2,391.1,163.1z"/>
	<path class="st3" d="M431.4,170c-1.5,0-3,0-3.9-0.1c0-5.3,0-8.8-0.2-12.4c-1.8,4.6-4.4,8.6-8,12c-2-1.2-4-2.5-5.8-4
		c4.1-3.2,7.2-6.8,9.4-11.1c1.5,0.5,3,1.1,4.3,1.6l-0.2-3.5c-3.9,0.2-7.6,0.2-11,0.2h-2l0.2-3.2c3.8,0.3,8.4,0.5,11.2,0.5
		c0.6,0,1.1,0,1.5,0c-0.1-1.5-0.2-4.4-0.3-5.3c0.6-0.1,3.2-0.2,4.6-0.2c0.7,0,1.2,0,1.4,0.1c0.2,1.7,0.3,4,0.3,5
		c1.8-0.2,3.2-0.4,4.4-0.6l0.4,3.2c-2,0.1-3.7,0.2-4.7,0.2c0.1,2.2,0.1,4.6,0.1,6.9c0,4-0.1,8-0.3,10.9L431.4,170L431.4,170z"/>
	<path class="st3" d="M436.2,138.6c4.3,0.2,9.9,0.8,13.5,1.5l-0.8,4.9c-2-0.1-4.2-0.1-6.4-0.1c-2.2,0-4.4,0-6.5,0.1L436.2,138.6z
		 M437.8,160.7c9.5-5.6,17.1-11.7,22.8-18l3.9,3c-5.9,9.5-12.8,16.8-20.7,22C441.6,165.4,439.6,163.1,437.8,160.7z"/>
	<path class="st3" d="M465.7,136.1c3.3-0.2,6.6-0.3,9.2-0.3c0.2,3.4,0.5,10.3,0.5,13.2l2.5-2.8c4,2.1,7.3,4.4,9.7,6.6l-4,4.5
		c-2-1.9-5.6-4.6-8.2-6.1c0,4.7,0,14.5-0.1,16.9c-2.4,0-6.6-0.1-8.1-0.2C467.1,155.6,466.7,144.9,465.7,136.1z"/>
	<path class="st1" d="M558.3,169.4c-4.2,0-8.3-0.1-10.8-0.3c0-14.7-0.1-23.8-0.4-34.3c-4.9,12.6-12.2,23.6-22,33
		c-5.5-3.3-10.9-7-16-11c11.2-8.7,19.8-18.8,26-30.6c4.4,1.5,8.4,2.9,12,4.3l-0.4-9.8c-10.7,0.4-20.8,0.6-30.4,0.6h-5.4l0.6-8.8
		c10.5,0.8,23.1,1.3,30.8,1.3c1.6,0,3,0,4.1-0.1c-0.2-4.2-0.6-12.3-0.8-14.7c1.7-0.2,8.7-0.3,12.7-0.3c1.8,0,3.3,0.1,4,0.2
		c0.3,4.6,0.6,11.2,0.7,13.8c5-0.5,8.9-1,12.3-1.7l0.9,8.7c-5.3,0.3-10.3,0.5-13,0.6c0.3,6,0.3,12.6,0.3,19.1c0,11.1-0.3,22-0.9,30
		L558.3,169.4L558.3,169.4z"/>
	<path class="st1" d="M582,151.8c0-5.8,2.2-10.8,7.9-18.7l-8.7,0.9c-1.5-9.6-2.3-20.9-2.3-32c4.6-0.9,10.2-1.4,17.3-1.6
		c-0.8,5.8-1.5,18.1-1.5,26.6c7.2-6.4,16.6-13.1,27.9-20c4,4,7.7,8.6,10.7,13.3c-26.7,13.8-38.3,24.1-38.3,33.9
		c0,5.6,3.7,8.6,10.6,8.6c6.2,0,17.6-2.3,26.3-5.4l2,8.3c-9.1,2.7-19.3,4.2-27.3,4.2C590.7,170,582,163.5,582,151.8z"/>
	<path class="st1" d="M692.9,148.6c-4.3-1.1-10.5-3.3-14.4-4.8c4.6,6.1,8.8,12.5,11.2,17.2l-19.3,8.8c-4.4-10.5-11.9-23.3-18.6-32.1
		l13.6-9.4c3.3,3.1,7.4,8,11.4,13.2c7.7-8.2,14.2-16.5,17.8-23c-5.1-0.6-10-0.9-14.7-0.9c-12.8,0-25.6,1.9-42.6,6.2l-1.7-9.5
		c20.5-2.3,35.4-3.4,48.9-3.4c9.8,0,18.8,0.5,28.6,1.7C709.9,123.1,702.2,136.9,692.9,148.6z"/>
	<path class="st1" d="M764.3,167.5c0.7-6.6,1-12.6,1-18c0-23.7-6.7-35-20.8-35c-13.3,0-22.1,10.1-22.1,25.4c0,10.2,3.8,17.7,9,17.7
		c4.5,0,7.3-5.4,7.3-13.8c0-5.7-1.3-13.1-4-22.5c3.4-0.8,7.3-1.2,11-1.2c1.6,0,3.3,0.1,4.8,0.3c0.9,5.3,1.5,10.2,1.5,14.6
		c0,18.5-8.8,29.8-23.1,29.8c-12.6,0-20.1-8.9-20.1-23.8c0-20.4,13.8-32.6,37-32.6c24.3,0,36,13.5,36,41.6c0,5.4-0.4,11.5-1.4,18.5
		C773.8,168.5,767.5,168.1,764.3,167.5z"/>
	<path class="st1" d="M813.1,129.6c-5.2,6.1-11.5,12.4-22.4,22.1l-7.2-9.6c6.9-4.6,26.1-20.3,32.9-26.8c11.5,8.8,27,18.8,48.7,31.7
		c-3.7,5.9-7.6,11.4-11.6,16.2C838.1,151.4,824.3,140,813.1,129.6z M835.8,118.1c0-5.9,4-9.5,10.2-9.5c6.6,0,11,4,11,10.2
		c0,5.8-4,9.5-10.4,9.5C840,128.4,835.8,124.3,835.8,118.1z M849.5,119.3c0-4.1-1.5-7.4-3.4-7.4c-1.7,0-3,2.6-3,6.2c0,4,1.5,7,3.6,7
		C848.5,125,849.5,122.8,849.5,119.3z"/>
</g>
<g>
	<path class="st2" d="M95.8,249.3c10.2-6,14.3-9.7,14.3-12.9c0-2.6-2.6-4.3-6.7-4.3c-4,0-11,1.6-20,4.7l-1-4.8
		c7.1-1.8,16-3.2,21.1-3.2c8.7,0,14.6,4,14.6,9.9c0,6-6.2,13.1-15.2,17.4C100.6,254.3,98.2,252,95.8,249.3z"/>
	<path class="st2" d="M135.8,255.3c1.9-6.1,3.6-14.8,3.6-18.4c0-3.4-1.5-4.8-5.1-4.8c-1.1,7.5-2,15.2-2.6,21.8
		c-3.4-0.5-5.8-0.6-7.9-0.7c0.7-4.6,2.8-16.4,3.6-19.7c-2.1,0.8-4.3,1.6-6.6,2.6l-0.9-3.5c2.4-0.9,6.2-2,8.3-2.5
		c0.5-2.3,1.1-5.2,2.1-9.7c2,0.2,4.7,0.4,5.9,0.4c-0.6,2.1-1.1,5.2-1.5,8.2c0.5-0.1,1.1-0.1,1.7-0.1c6.8,0,10.5,4.2,10.5,11.9
		c0,3.9-0.9,8.8-2.8,15.4C139.3,255.5,138.2,255.4,135.8,255.3z M148.5,229.4c2.4-0.5,4-0.8,6-1.3c1.8,6.3,2.7,11.7,3.1,19.4
		c-2.3,0.2-4.3,0.4-6.9,0.7C149.9,238,149.4,233.8,148.5,229.4z"/>
	<path class="st2" d="M177.1,248.3c0-1,0.1-2.1,0.3-3.4c-3.2,0-4.7,2-9,11.9c-2.3-0.7-4.5-1.5-8.6-3.1c6.2-10.4,10.6-15.7,16.4-19.8
		c-5.2,0.3-10.2,1.1-15,2.1l-0.5-4.3c6.2-0.3,18-0.6,25.8-0.6l0.4,3.9c-3.1,0.6-6.6,2.9-10.2,7c1.9,0,5,0.1,6.7,0.4
		c0,5.3,1.5,7.6,5.2,7.6c0.8,0,2.3-0.1,3.6-0.2c0,2.1-0.2,5.3-0.3,6.9c-1.8,0.3-3.4,0.4-4.9,0.4
		C180.2,257.2,177.1,254.4,177.1,248.3z M172.1,219.3c1.3-0.2,4.6-0.3,7.6-0.3c0.5,3.1,0.9,7.1,0.9,10c-0.8,0-4.5,0.1-6.4,0.2
		C173.9,226.5,173.2,223.5,172.1,219.3z"/>
	<path class="st2" d="M197.2,250.9c0-3.9,3.6-6.9,8.1-6.9c3.2,0,5.7,1.6,6.7,4.2c0.8-1.1,1.2-2.3,1.2-3.4c0-3.4-3.2-6.6-7.6-6.6
		c-3.3,0-5.7,1.7-8.2,5.9l-6.8-4.2c5.4-6.3,11.3-12,15.2-14.6c-3.1,0.4-6.1,0.9-9.8,1.6l-0.2-4.7c4.8-0.4,10.2-0.6,14.2-0.6
		c1.6,0,2.9,0,3.9,0.1l0.2,3.3c-3.4,2-7.3,5.8-10.2,9.9c1.5-0.4,2.9-0.5,4.3-0.5c6.7,0,11.9,4.2,11.9,10.5c0,6.7-6,11.6-14.4,11.6
		C200.2,256.3,197.2,254.3,197.2,250.9z M207.3,249.9c0-1.8-0.8-3.1-2-3.1c-1.2,0-2.1,1.4-2.1,3.5c0,1.7,1,3.1,2.2,3.1
		C206.6,253.4,207.3,252,207.3,249.9z"/>
	<path class="st1" d="M254.9,230.5c-1.3,3.4-3.7,7.4-6.7,11.4c3.5,2.9,7.6,6,12.2,9.2l-7.9,6.8c-3.2-2.5-6.7-5.7-10.1-9.2
		c-3.9,4.1-8,7.5-11.3,9l-7.5-5.1c4.7-2,9.8-5.2,14.2-8.9c-4-4.7-7.6-9.5-9.9-13.5l-4.8-0.1l0.2-3.2l15-0.3l-0.4-7.4l8.1,0.3l-0.4,7
		l15-0.3l0.2,4.4L254.9,230.5z M236.4,230.2c1.9,2.5,4.4,5.1,7.4,7.9c2.4-2.6,4.4-5.2,5.7-7.6L236.4,230.2z"/>
	<path class="st1" d="M271.9,227.9l0.5,8.3l-7.4,0.1l0.5-11.2l14.6,0l-0.2-6.1l8.7,0.1l-0.2,6l14.6,0l0.5,11.4l-7.2-0.3l0.3-8
		L271.9,227.9z M287.9,243.5l14.7,0.2l-0.3,2.9l-14.2,0.2c0.1,3.5,0.2,7.4,0.2,11.3l-15.8-1.6l0.3-2.7l6.9-0.1
		c0.2-2.2,0.3-4.5,0.4-6.8l-14.1,0.2l-0.3-3.9l14.4,0.2c0-1.6,0.1-3.1,0.1-4.4l1.7-0.1c1.4-1.5,3.1-3.7,3.9-5l-12.2,0.9l0.2-3.7h21
		l0.1,1.9c-1,1.7-3.9,4.9-7.1,7.9L287.9,243.5z"/>
	<path class="st2" d="M307.2,254.7c0.3-2.6,0.4-5.8,0.5-8.3c2.6,0,5.5,0.3,7.7,0.6c-0.3,3.2-0.7,5.8-1.1,8.1
		C311.9,254.9,309.6,254.8,307.2,254.7z M307.3,222.8c2.1-0.3,5.4-0.6,7.8-0.6c0.2,4.3,0.3,6.4,0.3,8.2c-2.2,0.1-4.3,0.3-7.3,0.6
		L307.3,222.8z"/>
	<path class="st2" d="M90.7,307.8c0.6-1.6,0.9-3.2,1.1-4.8c-1.5,1-2.8,2.2-3.8,3.4l-2.6-4.3c1.5-0.3,3.1-0.7,4.9-1.4
		c-1.8-0.8-3.4-1.3-4.9-1.6l2.6-4.3c0.9,1.2,2.1,2.4,3.7,3.6c-0.2-1.8-0.5-3.4-1.1-5h5c-0.6,1.6-1,3.2-1.2,4.9
		c1.5-1.1,2.8-2.3,3.8-3.5l2.6,4.2c-1.7,0.3-3.4,0.8-5,1.6c1.8,0.7,3.4,1.2,5,1.4l-2.6,4.3c-1-1.2-2.3-2.3-3.8-3.4
		c0.3,1.6,0.6,3.2,1.2,4.8L90.7,307.8L90.7,307.8z"/>
	<path class="st3" d="M143.7,317c-0.6-2.4-1.3-4.9-2-7.4c-2.5,0.3-5,0.5-7.8,0.5c-1.4,0-3,0-4.6-0.1c-0.6,2.2-1.2,4.5-1.8,6.8
		l-5-0.3c3.1-10.6,7.1-21.5,11.4-31.8c2.1-0.2,4.7-0.4,7.4-0.4c3.4,8.3,7.4,19.4,11.4,31.9C149.4,316.7,146.7,317,143.7,317z
		 M140.8,306.1c-1.8-6.7-3.8-13.1-5.2-16.9c-1.2,3.2-3,9-5.1,16.6c2.2,0.3,4.6,0.4,7.3,0.4C138.8,306.1,139.9,306.1,140.8,306.1z"/>
	<path class="st3" d="M150.4,293.7c3.4-0.5,6.2-0.8,8.2-0.9c1.6,6,3.8,12.6,6.3,19c2.5-6.2,4.7-12.8,6.3-18.8l4.5,0.6
		c-2.9,8.1-6.1,16-9.3,23.1c-2.1,0.2-4.6,0.3-6.6,0.3C156.5,309.5,153.1,301.1,150.4,293.7z"/>
	<path class="st3" d="M194,316.6c0-0.9,0-1.8,0-2.6c-2.9,1.8-5.8,2.8-8.6,2.8c-4.8,0-8.1-2.6-8.1-6.3c0-5.1,6-9.4,14.7-10.6
		c-1-2.5-2.4-3.7-4.2-3.7c-2.1,0-5.8,1.8-9.2,4.4l-1.3-4.2c4.1-2.4,8.1-3.6,11.8-3.6c8.7,0,12.1,6.6,12.1,23.6
		C200.1,316.6,197.1,316.6,194,316.6z M193.8,310.4c-0.2-3-0.5-5.5-1-7.5c-4.3,0.8-8.7,4.4-8.7,7.3c0,1.7,1.5,2.8,3.8,2.8
		C190,313,191.9,312.2,193.8,310.4z"/>
	<path class="st3" d="M204.6,293.6c2.5,0,5.6,0.1,7.2,0.2c0,8.2-0.1,18.8-0.2,22.7c-2.6,0.1-5,0.2-6.8,0.2
		C204.7,313,204.6,303.5,204.6,293.6z M204.6,290.3v-5.7h7.1v5.7H204.6z"/>
	<path class="st3" d="M223.5,293.8c0,13.3,1.1,18.9,3.9,20.3l-2.9,3.4c-6-0.7-8-6.1-8-21.5c0-3.2,0.1-7.1,0.2-11
		c1.6-0.1,3.8-0.2,7-0.2C223.5,288,223.5,291.1,223.5,293.8z"/>
	<path class="st3" d="M245.7,316.6c0-0.9,0-1.8,0-2.6c-2.9,1.8-5.8,2.8-8.6,2.8c-4.8,0-8.1-2.6-8.1-6.3c0-5.1,6-9.4,14.7-10.6
		c-1-2.5-2.4-3.7-4.2-3.7c-2.1,0-5.8,1.8-9.2,4.4l-1.3-4.2c4.1-2.4,8.1-3.6,11.8-3.6c8.7,0,12.1,6.6,12.1,23.6
		C251.9,316.6,248.9,316.6,245.7,316.6z M245.6,310.4c-0.2-3-0.5-5.5-1-7.5c-4.3,0.8-8.7,4.4-8.7,7.3c0,1.7,1.5,2.8,3.8,2.8
		C241.7,313,243.6,312.2,245.6,310.4z"/>
	<path class="st3" d="M278.2,304.5c0,6.8-4.2,12.3-9.6,12.3c-1.6,0-3.4-0.5-5.2-1.5c0,0.5,0,1,0,1.3c-2.4,0-5.2-0.1-6.8-0.2
		c-0.1-3.9-0.2-23.2-0.2-31.7c1.9,0,5.3,0.1,7.2,0.2v9.7c1.6-1.2,3.4-1.8,5.3-1.8C274.2,292.8,278.2,297.8,278.2,304.5z
		 M271.8,305.8c0-5.5-2.1-9.5-4.9-9.5c-1.2,0-2.4,0.8-3.4,2.1c0,4.2,0,8.5-0.1,12c1,1.9,2.5,3.1,4.2,3.1
		C270.3,313.4,271.8,310.6,271.8,305.8z"/>
	<path class="st3" d="M288.6,293.8c0,13.3,1.1,18.9,3.9,20.3l-2.9,3.4c-6-0.7-8-6.1-8-21.5c0-3.2,0.1-7.1,0.2-11
		c1.6-0.1,3.8-0.2,7-0.2C288.6,288,288.6,291.1,288.6,293.8z"/>
	<path class="st3" d="M314.2,308.5l3,2.5c-2.7,3.7-6.8,5.8-11.1,5.8c-6.8,0-12-5.1-12-12c0-6.8,5-11.9,11.8-11.9
		c6.4,0,11.1,4.5,11.7,11.3l-16.7,3.1c1.1,3.7,3.5,6.1,6.4,6.1C310,313.3,312.8,311.3,314.2,308.5z M300.4,303.1v0.4l9.8-1.3
		c-0.4-3.6-2.5-6-5.2-6C302.1,296.2,300.4,298.8,300.4,303.1z"/>
	<path class="st1" d="M355.6,309.5c-2.5,0.3-5,0.5-7.8,0.5c-1.4,0-3,0-4.6-0.1l-1.8,6.8l-5-0.3c3.1-10.6,7.1-21.5,11.4-31.8
		c2.1-0.2,4.7-0.4,7.4-0.4c3.4,8.3,7.4,19.4,11.4,31.9c-3.3,0.6-6,0.8-9,0.8L355.6,309.5z M351.7,306.1l3,0
		c-1.8-6.7-3.8-13.1-5.2-16.9c-1.2,3.2-3,9-5.1,16.6C346.6,306,348.9,306.1,351.7,306.1z"/>
	<path class="st1" d="M367.2,305.1c0-6.8,4.2-12.3,9.6-12.3c1.6,0,3.4,0.5,5,1.4v-9.5c1.9,0,5.3,0.1,7.2,0.2
		c0,8.5-0.1,29.1-0.2,31.7c-2.4,0-5.2-0.1-6.8-0.2l0-1.6c-1.7,1.2-3.6,1.8-5.5,1.8C371.2,316.8,367.2,311.8,367.2,305.1z
		 M378.4,313.3c1.3,0,2.5-0.8,3.5-2.2l-0.1-12c-1-1.8-2.4-2.9-4.1-2.9c-2.6,0-4.2,2.8-4.2,7.6C373.5,309.3,375.6,313.3,378.4,313.3z
		"/>
	<path class="st1" d="M392.3,305.1c0-6.8,5.6-12.3,12.5-12.3c6.6,0,11.8,5.1,11.8,11.6c0,6.8-5.6,12.3-12.5,12.3
		C397.5,316.8,392.3,311.6,392.3,305.1z M410.1,306.1c0-5.7-2.8-9.9-6.5-9.9c-3,0-4.7,2.7-4.7,7.2c0,5.7,2.8,9.9,6.5,9.9
		C408.3,313.4,410.1,310.7,410.1,306.1z"/>
	<path class="st1" d="M427,315.3l0,1.3c-2.4,0-5.2-0.1-6.8-0.2c-0.1-3.9-0.2-23.2-0.2-31.7c1.9,0,5.3,0.1,7.2,0.2v9.7
		c1.6-1.2,3.4-1.8,5.3-1.8c5.3,0,9.3,5,9.3,11.6c0,6.8-4.2,12.3-9.6,12.3C430.6,316.8,428.8,316.3,427,315.3z M431.2,313.4
		c2.6,0,4.2-2.8,4.2-7.6c0-5.5-2.1-9.5-4.9-9.5c-1.2,0-2.4,0.8-3.4,2.1l-0.1,12C428,312.2,429.5,313.4,431.2,313.4z"/>
	<path class="st1" d="M444.2,304.8c0-6.8,5-11.9,11.8-11.9c6.4,0,11.1,4.5,11.7,11.3l-16.7,3.1c1.1,3.7,3.5,6.1,6.4,6.1
		c2.6,0,5.5-2,6.9-4.9l3,2.5c-2.7,3.7-6.8,5.8-11.1,5.8C449.3,316.8,444.2,311.6,444.2,304.8z M450.5,303.5l9.8-1.3
		c-0.4-3.6-2.5-6-5.2-6c-2.9,0-4.6,2.6-4.6,6.9V303.5z"/>
	<path class="st1" d="M488.6,316.6c-0.5-11.6-0.7-21.8-0.7-31.7c1.3,0,4.7-0.1,8.7-0.1c0,8.2-0.1,20.4-0.4,28.6
		c5.8,0,11.6-0.2,15.7-0.4l0.1,3.7C509.5,316.6,499.5,316.6,488.6,316.6z"/>
	<path class="st1" d="M530.2,314c-2.9,1.8-5.8,2.8-8.6,2.8c-4.8,0-8.1-2.6-8.1-6.3c0-5.1,6-9.4,14.7-10.6c-1-2.5-2.4-3.7-4.2-3.7
		c-2.1,0-5.8,1.8-9.2,4.4l-1.3-4.2c4.1-2.4,8.2-3.6,11.8-3.6c8.7,0,12.1,6.6,12.1,23.7c-1.1,0.1-4.1,0.2-7.2,0.2L530.2,314z
		 M524.2,313c2,0,3.9-0.8,5.8-2.6c-0.2-3-0.5-5.5-1-7.5c-4.3,0.8-8.7,4.4-8.7,7.3C520.4,311.9,521.9,313,524.2,313z"/>
	<path class="st1" d="M543.2,296.7h-4.6l-0.3-3.9h4.8v-8c2.1,0,5.2,0.1,7.2,0.2v7.9h4.8l-0.3,3.9h-4.6c0,8.8-0.1,17.4-0.2,19.8
		c-1.9,0.1-4.2,0.2-6.8,0.2C543.3,314.3,543.2,305.6,543.2,296.7z"/>
	<path class="st1" d="M557.7,293.6c2.5,0,5.6,0.1,7.2,0.2c0,8.2-0.1,18.8-0.2,22.7c-2.6,0.1-5,0.2-6.8,0.2
		C557.8,313,557.7,303.5,557.7,293.6z M557.8,284.6h7.1v5.7h-7.1V284.6z"/>
	<path class="st1" d="M585.8,316.5c0-14.9-1.2-20.3-4.4-20.3c-1.8,0-3.8,1.6-5.1,4.1c0,7.1-0.1,13.5-0.2,16.2
		c-1.8,0.1-4.5,0.2-6.8,0.2c-0.1-3.6-0.2-13.2-0.2-23.5c1.8,0,5.4,0.1,7.2,0.2v2.1c2.4-1.8,4.8-2.6,7.3-2.6c6.8,0,9.5,6.8,9.5,23.8
		C591,316.6,587.7,316.6,585.8,316.5z"/>
	<path class="st1" d="M612.8,316.2l-0.5-3.4c8.6-6.6,15-15.3,15-20.5c0-2.6-1.6-4.5-3.8-4.5c-2.5,0-5.3,2.4-7.8,6.6l-4.2-4.6
		c2.6-3.4,7.2-5.4,11.9-5.4c6.7,0,11.6,4.1,11.6,9.6c0,5.2-4.3,11-14,18.7l14.5-1l-0.2,5.3L612.8,316.2z"/>
	<path class="st2" d="M90.7,369.8c0.6-1.6,0.9-3.2,1.1-4.8c-1.5,1-2.8,2.2-3.8,3.4l-2.6-4.3c1.5-0.3,3.1-0.7,4.9-1.4
		c-1.8-0.8-3.4-1.3-4.9-1.6l2.6-4.3c0.9,1.2,2.1,2.4,3.7,3.6c-0.2-1.8-0.5-3.4-1.1-5h5c-0.6,1.6-1,3.2-1.2,4.9
		c1.5-1.1,2.8-2.3,3.8-3.5l2.6,4.2c-1.7,0.3-3.4,0.8-5,1.6c1.8,0.7,3.4,1.2,5,1.4l-2.6,4.3c-1-1.2-2.3-2.3-3.8-3.4
		c0.3,1.6,0.6,3.2,1.2,4.8L90.7,369.8L90.7,369.8z"/>
	<path class="st1" d="M131.1,378.4c2.8-7.5,4.1-15.2,4.1-22.9c2.6-0.2,6.5-0.2,7.6-0.2v7.1c2-2.7,4-6,5.8-9.7
		c-1.9-0.2-3.9-0.3-6-0.3c-6.2,0-13.1,0.7-19.4,2v-5.1c6.2-0.5,11.9-0.7,17-0.7c6.8,0,12.9,0.4,17.8,1.3c-1.4,5.6-3.8,11.5-7.1,17.4
		c-3.3-1.1-6-2.3-8.1-3.4c-0.3,5.6-1,11-2,16.1C138.1,379.8,134.9,379.2,131.1,378.4z"/>
	<path class="st1" d="M155.8,375.2c3.8-7,5.7-14.3,6.5-25.2l7.6,0.3c-0.4,10.8-1.6,19.9-3.8,27.2
		C163.2,377.3,159.7,376.5,155.8,375.2z M174.4,366.9c0-7.3-0.3-12.4-0.7-16.2l8.9-0.9c0.3,3.7,0.5,7.3,0.5,10.7
		c0,3.4-0.2,6.9-0.5,10.7c3.5-0.8,7.3-1.9,10.5-3.3l1.4,5.1c-6.8,1.8-12.8,2.8-20.2,3.2C174.4,373.6,174.4,369.9,174.4,366.9z"/>
	<path class="st1" d="M197.1,374.9c9.5-8,14.4-14.2,17.1-21.9c-6.6,0-15.9,0.8-22.8,1.8l-0.3-5.3c5.6-0.3,10.3-0.4,14.7-0.4
		c6,0,11.4,0.3,17.2,0.8c-1.8,11.6-7.3,21.8-16,30.5C203.7,378.9,200.4,377.1,197.1,374.9z"/>
	<path class="st1" d="M230.3,381.3c2.2-6,3.2-12.1,3.2-18.3c2.1-0.1,5.2-0.2,6-0.2v5.6c1.6-2.2,3.2-4.7,4.6-7.7
		c-1.5-0.2-3.1-0.2-4.8-0.2c-5,0-10.5,0.5-15.5,1.6v-4.1c5-0.4,9.5-0.6,13.6-0.6c5.5,0,10.3,0.3,14.2,1c-1.1,4.5-3.1,9.2-5.6,13.9
		c-2.6-0.9-4.8-1.8-6.5-2.7c-0.3,4.5-0.8,8.8-1.6,12.9C235.8,382.5,233.3,382,230.3,381.3z"/>
	<path class="st1" d="M266.5,360c-2.6,3.1-6,6.4-10.9,10.8l-3.5-4.7c3.4-2.2,12.8-9.9,16-13.1c6.4,4.7,14.4,10,23.8,15.5
		c-1.6,2.7-3.5,5.4-5.7,7.9C278.7,370.7,272,365.1,266.5,360z M278.7,358.6l-0.9-8.6l4.8-0.3c0.3,2.9,0.6,5.8,1,8.6L278.7,358.6z
		 M284.9,358.3c-0.2-2.3-0.5-4.8-1.1-8.8l4.7-0.4c0.5,3.3,0.8,6.2,1,8.8L284.9,358.3z"/>
	<path class="st1" d="M291.5,358.5c1.7-0.5,3.9-0.9,6-1.3c0.5,3.5,1.2,7,2.1,10.4c-1.6,0.4-3.4,0.9-5.1,1.5
		C293.3,365.9,292.3,362.5,291.5,358.5z M299.4,380c6.7-6.9,11-14.1,13.1-21.9c2.7,0.9,5,1.8,7.1,2.7c-4.3,11-9.2,18.3-15.7,22.9
		L299.4,380z M300.9,355.8c1.8-0.2,4.1-0.3,6.2-0.3c0,1.6,0.1,9.4,0.1,10.3c-2.5,0.1-4.2,0.3-5.5,0.5
		C301.4,364.1,301,357.9,300.9,355.8z"/>
	<path class="st1" d="M321.7,345.8c3.5-0.2,7.1-0.3,9.9-0.3c0.3,3.7,0.5,11,0.5,14.2l2.6-3c4.3,2.3,7.9,4.7,10.5,7.1l-4.3,4.9
		c-2.1-2-6-5-8.8-6.6c0,5,0,15.6-0.1,18.2c-2.6,0-7.1-0.1-8.7-0.2C323.3,366.8,322.8,355.3,321.7,345.8z"/>
	<path class="st2" d="M353,367.1c-0.2-2.8-0.3-5.7-0.3-8.9c2.2-0.1,6.3-0.2,8.9-0.2c0,1.8-0.1,6.1-0.3,9.3
		C357.9,367.2,354.8,367.2,353,367.1z"/>
	<path class="st1" d="M383.4,344.5l-0.5,6.9l6,0.1v2.4l-19,0.1l-0.2-2.8l6.7,0.1l-0.6-6.8L383.4,344.5z M371.1,380.8l-0.9-14.5
		l17.8-0.5l-0.8,14.9L371.1,380.8z M370.9,363.9l-0.3-2.4l17-0.8l-0.3,2.9L370.9,363.9z M387.9,356.1v2.4l-17.1,0.5v-2.9
		L387.9,356.1z M377,368.3l-0.3,10.2l4.8,0.2l-0.4-10.6L377,368.3z M402.1,377.6l1.7-12.1l4.3,0.3v14.4l-16.6,0.4
		c-0.7-3.5-1.2-12.1-1.2-21.4l10.4-0.4l-0.3-8.7l-11,0.1l0.3-3.3l18.7,1.1l-0.6,13.6H397c0,5.6,0.7,12.6,1.8,16.5L402.1,377.6z"/>
	<path class="st1" d="M411.2,370.9c0-1.3,0.3-2.9,1-4.5l3.2,0.8v0.2c0,2.6,2.7,4,7.4,4c3.8,0,8.6-1,13.5-2.7
		c0.6,2.1,1.1,4.3,1.6,7.2c-3,1.3-10.8,2.5-15.5,2.5C415.4,378.3,411.2,375.5,411.2,370.9z M427.8,354.8l0.7-3.9
		c-1.8-0.3-3.7-0.4-5.2-0.4c-2.6,0-6,0.4-10.5,1.2l-0.8-3.5c3.1-0.6,6.2-0.9,9.7-0.9c6.1,0,12.2,1,15,2.4c-1.2,2.8-2.3,4.9-3.5,6.4
		L427.8,354.8z M431.7,366.4c-0.3-2.2-0.8-4.6-1.5-7.9l5.1-0.8c0.5,2.4,1,5.1,1.5,7.9L431.7,366.4z M438,365.3
		c-0.4-2.4-1-5.8-1.4-7.8l4.6-0.7c0.5,1.9,1,4.2,1.5,7.7L438,365.3z"/>
	<path class="st1" d="M447.9,376.9c10.1-4.9,15.6-9.9,15.6-14.2c0-2.4-1.7-3.6-5.2-3.6c-3.1,0-7.7,1-14.1,2.9l-1.1-4
		c6.3-1.4,11.6-2.1,15.8-2.1c8.4,0,12.9,2.7,12.9,7.9c0,5.8-5.7,12.7-14.9,17.9C453.3,380.1,450.4,378.6,447.9,376.9z M463.3,354.4
		c-2.4-1.9-8-4.6-12-5.9c1.9-2.4,3.1-3.6,4.8-5c3.8,1.5,8.4,4.5,10.6,6.9L463.3,354.4z"/>
	<path class="st2" d="M479.6,367.1c-0.2-2.8-0.3-5.7-0.3-8.9c2.2-0.1,6.3-0.2,8.9-0.2c0,1.8-0.1,6.1-0.3,9.3
		C484.5,367.2,481.4,367.2,479.6,367.1z"/>
	<path class="st1" d="M498.5,367.1c0-4.8,2-11.2,5.4-17.2c-0.9,0-6,0.5-8.1,0.8l0.2-4.7c5.7,0.1,11.6,0.5,16,1.1
		c-3.9,9.7-6,17-6,21.4c0,4.5,2.1,7.4,5.2,7.4c4.7,0,7-6.8,7-21.4c0-2,0-4.3-0.1-6.7c4.8,0.6,10,1.8,15.5,3.4l-1.4,4.9
		c-2.9-1.5-4.8-2.3-6.5-2.9c0,20.1-3.1,26.4-13.2,26.4C503.8,379.8,498.5,375,498.5,367.1z"/>
	<path class="st1" d="M543.3,376.1c7.7-3.1,10.8-5.5,10.8-8.2c0-2.1-1.8-3.5-4.8-3.5c-2.8,0-8.6,1.2-13.2,2.8c0-5.7,0.4-11.1,1.2-15
		c2.7,0,5.4,0.3,8.1,0.8c-0.6,2.6-1.3,7.6-1.3,9.1c2.5-0.5,4.9-0.7,6.9-0.7c6.8,0,10.8,2.8,10.8,7.5c0,4.9-4.2,9.4-12.3,13.1
		C547.2,380.4,545.2,378.5,543.3,376.1z M555.4,355c-3.5-2.4-7.4-4.4-11-5.6c0.8-2.1,1.4-3.5,2.2-4.8c4.8,1.2,8.4,2.8,11.9,5.1
		L555.4,355z"/>
	<path class="st1" d="M576.2,378.9c3.1-7.1,5.5-15,5.5-18.1c0-2.6-1.7-4.2-4.6-4.2c-1.8,6.8-3.4,13.8-4.8,20.5
		c-3.1-0.7-5.6-1.1-7.8-1.4c1.1-4.3,4.2-14.6,5.5-18.6c-2.3,0.5-5,1.3-6.8,1.9l-0.6-3.4c2.9-0.7,7.1-1.5,8.6-1.6c1-3.3,1.9-5.8,3-9
		c1.7,0.4,3.4,0.6,5.8,0.9c-0.9,2.6-1.7,5.3-2.2,7.7c7.2,0.2,11,3.7,11,10.2c0,4-1.5,9.5-4.5,16.6L576.2,378.9z M584.3,353.6
		c-0.1-1.9-0.3-4.3-0.7-7.9l4.8-0.4c0.3,2.1,0.6,5,0.7,8L584.3,353.6z M590.4,353.1c0-1.8-0.4-6.8-0.5-7.9l5.1-0.3
		c0.4,2.9,0.6,5.6,0.8,8L590.4,353.1z M591.7,373.5c0.1-3.1,0.2-5.8,0.2-8.2c0-4.2-0.1-7.4-0.4-9.9c1.6-0.1,4.2-0.4,6.1-0.8
		c0.9,5,1.3,9.1,1.3,13.9c0,1.6,0,3.2-0.1,5L591.7,373.5L591.7,373.5z"/>
	<path class="st1" d="M601.3,375.1c2.2-7.9,4.5-14.5,6.8-19.7c-1,0-2.8,0.3-4.6,0.5l-0.3-3.7c1.7-0.3,4.1-0.5,6.6-0.8
		c1.4-3,2.7-5.5,4-7.9c2.4,0.3,4.5,0.8,6.5,1.7c-1.2,2.8-1.8,4.2-2.3,5.7c2-0.1,8.1-0.3,12.6-0.3l0.3,4c-1.6-0.1-4.8-0.2-7.1-0.2
		s-4.7,0.1-7.3,0.2c-2.6,6.8-5.5,16-7.4,23.5C603.8,376.2,602.8,375.8,601.3,375.1z M612.9,374.3c0-4.6,3.8-7.5,9.7-7.6
		c-0.1-3.4-0.4-7.1-0.7-8.8c5.7,0,11.9,0.1,14.5,0.3l-0.1,3.7c-2.9-0.5-5.1-0.8-7.6-1.1c0.1,1.4,0.3,3.8,0.4,7.1
		c2.6,0.8,5.3,2.4,8.1,4.7l-1.8,4.2c-2.4-2.3-4.4-3.9-6.1-4.9c0,2.1-0.2,5-0.5,8.3c-2.1,0.4-4,0.5-5.8,0.5
		C616.1,380.8,612.9,378.6,612.9,374.3z M622.6,370.3c-2.2,0-3.5,1.5-3.5,4c0,2.4,1.2,4.1,3.2,4.4L622.6,370.3z"/>
	<path class="st2" d="M644.9,367.1c-0.2-2.8-0.3-5.7-0.3-8.9c2.2-0.1,6.3-0.2,8.9-0.2c0,1.8-0.1,6.1-0.3,9.3
		C649.8,367.2,646.7,367.2,644.9,367.1z"/>
	<path class="st1" d="M681.3,379.5c0.8-8.7,1.4-15.8,1.6-22.1c-1.4-0.1-2.8-0.1-4.1-0.1h-1.3c-1.7,6.5-3.2,13.9-4.5,22.3
		c-3.2-0.3-6.3-0.7-9.4-1.1c1.3-6.6,3.1-13.6,5.3-20.7c-2.4,0.2-5,0.5-7.9,1.1v-4.2c3.4-0.3,7.2-0.5,9.2-0.5c1-3.2,2.1-6.2,3.2-9.1
		c2.3,0.4,4.6,0.9,7,1.5l-2,7.3c4.7,0.1,9.2,0.3,12.9,0.8c0,1.3,0.1,4.5,0.1,7.2c0,5.5-0.2,11.8-0.5,18
		C689.3,379.9,685.6,379.7,681.3,379.5z"/>
	<path class="st1" d="M701.8,378c4-4.8,6.8-8.9,8.4-12.5c-2.5-0.5-4.5-0.8-6.1-1l1.2-4.5c2.4,0.4,4.7,1,6.9,1.6c1.2-2.4,2.3-5,3.5-8
		c-2.1-0.4-4.8-0.7-7.9-0.8c-2.3,3.9-4.8,7.9-7.7,11.9c-2.7-1.5-5.1-3-7.4-4.6c4.2-4.9,8.3-10.2,12.2-15.9l5.8,2.6l-0.8,1.8
		c4.5,0.6,9,1.5,13.6,2.6c-2.1,11.1-6.3,22.3-11.3,29.9C708.2,380.3,704.8,379.2,701.8,378z"/>
	<path class="st1" d="M744.9,379.5c0.8-8.7,1.4-15.8,1.6-22.1c-1.4-0.1-2.8-0.1-4.1-0.1h-1.3c-1.7,6.5-3.2,13.9-4.5,22.3
		c-3.2-0.3-6.3-0.7-9.4-1.1c1.3-6.6,3.1-13.6,5.3-20.7c-2.4,0.2-5,0.5-7.9,1.1v-4.2c3.4-0.3,7.2-0.5,9.2-0.5c1-3.2,2.1-6.2,3.2-9.1
		c2.3,0.4,4.6,0.9,7,1.5l-2,7.3c4.7,0.1,9.2,0.3,12.9,0.8c0,1.3,0.1,4.5,0.1,7.2c0,5.5-0.2,11.8-0.5,18
		C752.8,379.9,749.2,379.7,744.9,379.5z"/>
	<path class="st1" d="M763.6,378.2c5-6.8,7.3-12.6,7.5-18.7c-4.7,0.2-9.7,0.3-14,0.3l0.3-4.9c5.5,0.5,10.4,0.8,14.1,0.8
		c0-3.9-0.2-7.4-0.6-10.2l7.7-0.6c0.5,4.1,0.9,7.5,1.1,10.5c3.1-0.3,6.8-0.6,11.2-1.1l0.3,4.7c-3.8,0.2-7.6,0.3-11.3,0.4
		c0,8.7-1.4,15.2-4.7,21.3C771.9,380,768.4,379.3,763.6,378.2z"/>
	<path class="st2" d="M799,367.1c-0.2-2.8-0.3-5.7-0.3-8.9c2.2-0.1,6.3-0.2,8.9-0.2c0,1.8-0.1,6.1-0.3,9.3
		C803.9,367.2,800.8,367.2,799,367.1z"/>
	<path class="st1" d="M140.4,441.3c1.9-6.1,3.6-14.8,3.6-18.4c0-3.4-1.5-4.8-5.1-4.8c-1.1,7.5-2,15.2-2.6,21.8
		c-3.4-0.5-5.8-0.6-7.9-0.7c0.7-4.6,2.8-16.4,3.6-19.7c-2.1,0.8-4.3,1.6-6.6,2.6l-0.9-3.5c2.4-0.9,6.2-2,8.3-2.5
		c0.5-2.3,1.1-5.2,2.1-9.7c2,0.2,4.7,0.4,5.9,0.4c-0.6,2.1-1.1,5.2-1.5,8.2c0.5-0.1,1.1-0.1,1.7-0.1c6.8,0,10.5,4.2,10.5,11.9
		c0,3.9-0.9,8.8-2.8,15.4C143.9,441.5,142.8,441.4,140.4,441.3z M153.1,415.4c2.4-0.5,4-0.8,6-1.3c1.8,6.3,2.7,11.7,3.1,19.4
		c-2.3,0.2-4.3,0.4-6.9,0.7C154.6,424,154.1,419.8,153.1,415.4z"/>
	<path class="st1" d="M180.3,426.1c-4.7,0-7.9,5.3-9.7,15.6c-2.5-0.1-4.9-0.3-7.1-0.7c2.3-12.1,6.5-25,11.1-33.9
		c3.4,0.5,6.6,1.3,9.5,2.5c-3.3,5.4-5.6,10-6.8,13.6c1.7-0.2,3.1-0.3,4.8-0.3c1.7,0,3.6,0.1,6.3,0.3c-0.3,2.8-0.4,5.1-0.4,7
		c0,6.3,1.4,8.4,5.4,8.4c1.5,0,3.4-0.3,5.5-0.8l0.4,3.3c-3.1,0.6-5.4,0.8-7.6,0.8C183.1,441.9,180.3,438.1,180.3,426.1z"/>
	<path class="st1" d="M209.3,413.9l0.5,8.3l-7.4,0.1l0.5-11.2l14.6,0l-0.2-6.1l8.7,0.1l-0.2,6l14.6,0l0.5,11.4l-7.2-0.3l0.3-8
		L209.3,413.9z M225.2,429.5l14.7,0.2l-0.3,2.9l-14.2,0.2c0.1,3.5,0.2,7.4,0.2,11.3l-15.8-1.6l0.3-2.7l6.9-0.1
		c0.2-2.2,0.3-4.5,0.4-6.8l-14.1,0.2l-0.3-3.9l14.4,0.2c0-1.6,0.1-3.1,0.1-4.4l1.7-0.1c1.4-1.5,3.1-3.7,3.9-5l-12.2,0.9l0.2-3.7h21
		l0.1,1.9c-1,1.7-3.9,4.9-7.1,7.9L225.2,429.5z"/>
	<path class="st3" d="M250.9,425.4c0-7.9,4.1-15.8,11-21.1l2.2,2c-5,5-7.4,9.8-7.4,15.3c0,6.5,3.3,12.4,8.7,15.5
		c-1.3,2.1-3.2,5.1-5.3,7.9C254.6,440.7,250.9,432.9,250.9,425.4z"/>
	<path class="st3" d="M268.8,436.1c0.7-6.5,1.8-13.6,3.2-21.5l9.1,1.8c-2.7,6-5.4,13.2-7.9,20.8L268.8,436.1z M291.8,442.7
		l-12.5-0.4l-0.3-2.4l5.5-0.8l-1.5-32.5l9.9-0.1L291.8,442.7z M299.2,436.7c-1-7.1-2.6-16.4-3.7-21l5.8-1.4c2.6,5.9,5.3,13.7,6.7,20
		L299.2,436.7z"/>
	<path class="st3" d="M318.6,416.2l-0.4,7.9l-6.8,0.3l0.8-11.3l3.6,0l-2.7-5.6l6.8-1.4l2.7,7h4.6l-2.3-6.7l7.4-0.8l1.5,7.4h3.6
		l3.9-7.2l6.4,2.4l-4.1,4.7l5,0l0.8,11.3l-7.1-0.1l-0.5-8.4L318.6,416.2z M334.1,429.4l14.6,0.1v2.9l-14.5,0.3l0.3,11l-15.7-1.2
		l0.3-2.7l6.8-0.3c0-2,0-4.3,0.2-6.6l-14,0.3v-3.9l14.2,0.1l0.3-3.4l1.5-0.1c1.6-1.6,3.3-3.7,3.8-4.6l-11.8,0.6l0.2-3.6h20.5
		l0.1,1.8c-1.5,2.2-4.6,5.8-6.8,7.8L334.1,429.4z"/>
	<path class="st3" d="M370.3,424.7l-3.3,2.1l-2.1-5.2l0.8,21.4l-6.8,0.6v-19.3l-3.2,11.2l-2.7-1.1l4.1-17.1l-3.9,0.3l-0.4-3.7
		l6.1-0.1v-8.1h5.4l0.3,8l5-0.1v2.6l-3,0.3l4.4,6l1.9-7.7l-2.2,0V412l6.6-0.2l-0.4-6.1l6.7-0.3l-0.3,6.2l7.4-0.3l0.1,3.7l-3.8-0.1
		l5.1,9.2l-4.2,4.5l-6.1-11.3l3.9-2.4l-11.7-0.3l5.5,3.2l-8,11.4l-2.2-0.8L370.3,424.7z M386.3,427.3c-0.8,1-1.9,2.3-3.1,3.7
		c3,2.9,6.1,5.6,8.1,7.2l-5.6,5.7c-2.2-2.6-4.5-5.6-6.5-8.6c-3,3.1-6,6.2-8.1,8l-2.4-1.9c2-2.6,4.8-6.5,7.5-10.4
		c-0.9-1.4-1.7-2.8-2.5-4.1l2.9-2.2c0.7,0.8,1.5,1.5,2.3,2.4c1-1.5,2-3,2.8-4.3L386.3,427.3z"/>
	<path class="st3" d="M399,440.6c0.1-3.9,0.3-17,0.3-25.5l-5-0.2l-0.4-2.5c5.5-1.6,9.6-3,13.1-4.4c0.2,5.2,0.3,23.4,0.3,32.6H399z"
		/>
	<path class="st3" d="M451,432.1l-0.2,4h-12.9l0.3,7.2l-9.5-0.1l0.2-7.1h-17.1l-0.2-3l5.9-0.1l0.6-12.6l11.3,0.4l0.3-7.1l-8.7-0.1
		l-6.2,9.4l-2.8-1.2l4.5-15.9l8.4,1.7l-1.9,2.9l26.2-0.4l-0.1,3.7l-11.8-0.1l0.3,7.3l11,0.4l-0.1,3.1l-10.8,0l0.3,8L451,432.1z
		 M424.1,432.8l4.8-0.1l0.3-8.2l-3.8,0L424.1,432.8z"/>
	<path class="st3" d="M458.8,429.1c-0.2-2.8-0.3-5.7-0.3-8.9c2.2-0.1,6.3-0.2,8.9-0.2c0,1.8-0.1,6.1-0.3,9.3
		C463.7,429.2,460.6,429.2,458.8,429.1z"/>
	<path class="st3" d="M497.9,441l-22.4-0.8l-0.5-3.4c8.6-6.6,15-15.3,15-20.5c0-2.6-1.6-4.5-3.8-4.5c-2.5,0-5.3,2.4-7.8,6.6
		l-4.2-4.6c2.6-3.4,7.2-5.4,11.9-5.4c6.7,0,11.6,4.1,11.6,9.6c0,5.2-4.3,11-14,18.7l14.5-1L497.9,441z"/>
	<path class="st3" d="M540.1,432.1l-0.2,4h-12.9l0.3,7.2l-9.5-0.1l0.2-7.1h-17.1l-0.2-3l5.9-0.1l0.6-12.6l11.3,0.4l0.3-7.1l-8.7-0.1
		l-6.2,9.4l-2.8-1.2l4.5-15.9l8.4,1.7l-1.9,2.9l26.2-0.4l-0.1,3.7l-11.8-0.1l0.3,7.3l11,0.4l-0.1,3.1l-10.8,0l0.3,8L540.1,432.1z
		 M513.3,432.8l4.8-0.1l0.3-8.2l-3.8,0L513.3,432.8z"/>
	<path class="st3" d="M554.6,427.8c0-5.7,2.4-10.6,7.4-14.9c-6.7,0.5-11.1,1.4-18.7,3.7l-0.7-4.5c8.2-1.6,15.6-2.3,22.9-2.3
		c3,0,6,0.1,9,0.4l-0.1,3.3c-7.5,0.1-12.6,4.3-12.6,10.3c0,3.9,2.1,7.6,7.8,13.5c-2,1.7-4.4,3.4-7.6,5.3
		C556.9,437.8,554.6,433.3,554.6,427.8z M567.8,426.9l-1.8-8.1l4.7-1.3c0.6,3,1.3,5.7,1.9,8.1L567.8,426.9z M573.8,425.4
		c-0.5-2.6-1.2-5.2-2-8.3l4.5-1.2c0.8,2.7,1.4,5.3,1.9,8.4L573.8,425.4z"/>
	<path class="st3" d="M576.6,437.1c2.2-7.9,4.5-14.5,6.8-19.7c-1,0-2.8,0.3-4.6,0.5l-0.3-3.7c1.7-0.3,4.1-0.5,6.6-0.8
		c1.4-3,2.7-5.5,4-7.9c2.4,0.3,4.5,0.8,6.5,1.7c-1.2,2.8-1.8,4.2-2.3,5.7c2-0.1,8.1-0.3,12.6-0.3l0.3,4c-1.6-0.1-4.8-0.2-7.1-0.2
		s-4.7,0.1-7.3,0.2c-2.6,6.8-5.5,16-7.4,23.5C579.2,438.2,578.2,437.8,576.6,437.1z M588.2,436.3c0-4.6,3.8-7.5,9.7-7.6
		c-0.1-3.4-0.4-7.1-0.7-8.8c5.7,0,11.9,0.1,14.5,0.3l-0.1,3.7c-2.9-0.5-5.1-0.8-7.6-1.1c0.1,1.4,0.3,3.8,0.4,7.1
		c2.6,0.8,5.3,2.4,8.1,4.7l-1.8,4.2c-2.4-2.3-4.4-3.9-6.1-4.9c0,2.1-0.2,5-0.5,8.3c-2.1,0.4-4,0.5-5.8,0.5
		C591.5,442.8,588.2,440.6,588.2,436.3z M597.9,432.3c-2.2,0-3.5,1.5-3.5,4c0,2.4,1.2,4.1,3.2,4.4L597.9,432.3z"/>
	<path class="st3" d="M622.1,438.1c7.7-3.1,10.8-5.5,10.8-8.2c0-2.1-1.8-3.5-4.8-3.5c-2.8,0-8.6,1.2-13.2,2.8c0-5.7,0.4-11.1,1.2-15
		c2.7,0,5.4,0.3,8.1,0.8c-0.6,2.6-1.3,7.6-1.3,9.1c2.5-0.5,4.9-0.7,6.9-0.7c6.8,0,10.8,2.8,10.8,7.5c0,4.9-4.2,9.4-12.3,13.1
		C626,442.4,624,440.5,622.1,438.1z M634.2,417c-3.5-2.4-7.4-4.4-11-5.6c0.8-2.1,1.4-3.5,2.2-4.8c4.8,1.2,8.4,2.8,11.9,5.1
		L634.2,417z"/>
	<path class="st3" d="M645.7,438.9c10.1-4.9,15.6-9.9,15.6-14.2c0-2.4-1.7-3.6-5.2-3.6c-3.1,0-7.7,1-14.1,2.9l-1.1-4
		c6.3-1.4,11.6-2.1,15.8-2.1c8.4,0,12.9,2.7,12.9,7.9c0,5.8-5.7,12.7-14.9,17.9C651.1,442.1,648.3,440.6,645.7,438.9z M661.1,416.4
		c-2.4-1.9-8-4.6-12-5.9c1.9-2.4,3.1-3.6,4.8-5c3.8,1.5,8.4,4.5,10.6,6.9L661.1,416.4z"/>
	<path class="st3" d="M697,441.5l-23.5-0.8l-0.6-3.5c9-6.8,15.7-15.8,15.7-21.1c0-2.7-1.7-4.7-3.9-4.7c-2.6,0-5.5,2.4-8.2,6.8
		l-4.4-4.7c2.8-3.4,7.6-5.6,12.5-5.6c7,0,12.1,4.2,12.1,9.9c0,5.4-4.5,11.3-14.7,19.2l15.2-1L697,441.5z"/>
	<path class="st3" d="M727.9,431.7h-4.5c-0.2,4.3-0.3,7.8-0.3,9.2c-1.5,0.1-4.7,0.2-6.6,0.2c-0.1-2.6-0.1-6.3-0.2-9.5
		c-5.8,0-11.1-0.2-14.9-0.3c0-5,0.3-14.7,0.7-23.1c2.5,0,6,0.2,8.1,0.5c-0.7,5.9-1.5,15-1.7,19.8c2.6,0,5.3,0,7.9-0.1v-0.8
		c0-6.5,0.1-13.9,0.3-19.2c3.8,0,6.3,0,7.8,0.2c-0.3,4.7-0.6,12.6-0.9,19.4c1.6-0.1,3.1-0.2,4.2-0.3L727.9,431.7z"/>
	<path class="st3" d="M731.3,425.2c0-9.9,5.7-17.3,13.3-17.3c7.2,0,12.3,6.6,12.3,16c0,9.9-5.8,17.3-13.4,17.3
		C736.3,441.2,731.3,434.6,731.3,425.2z M750,427.5c0-8.1-3.7-15.9-7.5-15.9c-2.6,0-4.4,3.9-4.4,9.6c0,8.3,3.6,16.4,7.3,16.4
		C748,437.6,750,433.3,750,427.5z"/>
	<path class="st3" d="M767.7,413.9l0.5,8.3l-7.4,0.1l0.5-11.2l14.6,0l-0.2-6.1l8.7,0.1l-0.2,6l14.6,0l0.5,11.4l-7.2-0.3l0.3-8
		L767.7,413.9z M783.7,429.5l14.7,0.2l-0.3,2.9l-14.2,0.2c0.1,3.5,0.2,7.4,0.2,11.3l-15.8-1.6l0.3-2.7l6.9-0.1
		c0.2-2.2,0.3-4.5,0.4-6.8l-14.1,0.2l-0.3-3.9l14.4,0.2c0-1.6,0.1-3.1,0.1-4.4l1.7-0.1c1.4-1.5,3.1-3.7,3.9-5l-12.2,0.9l0.2-3.7h21
		l0.1,1.9c-1,1.7-3.9,4.9-7.1,7.9L783.7,429.5z"/>
	<path class="st3" d="M804.3,443c5-5,7.4-9.8,7.4-15.3c0-6.5-3.3-12.4-8.7-15.5c1.3-2.1,3.2-5.1,5.3-7.9c5.5,4.3,9.2,12.1,9.2,19.6
		c0,7.9-4.1,15.8-11,21.1L804.3,443z"/>
</g>
<g>
	<path class="st1" d="M51,510.5c-1.5-0.4-3.8-1.2-5.2-1.7c1.6,2.2,3.2,4.5,4,6.2l-7,3.2c-1.6-3.8-4.3-8.4-6.7-11.6l4.9-3.4
		c1.2,1.1,2.7,2.9,4.1,4.7c2.8-2.9,5.1-6,6.4-8.3c-1.8-0.2-3.6-0.3-5.3-0.3c-4.6,0-9.2,0.7-15.3,2.2l-0.6-3.4
		c7.4-0.8,12.8-1.2,17.6-1.2c3.5,0,6.8,0.2,10.3,0.6C57.1,501.3,54.3,506.3,51,510.5z"/>
	<path class="st1" d="M60,495.1c3.4,0.2,7.8,0.7,10.7,1.2l-0.6,3.9c-1.6-0.1-3.3-0.1-5.1-0.1c-1.7,0-3.5,0-5.2,0.1L60,495.1z
		 M61.2,512.6c7.5-4.5,13.6-9.3,18.1-14.3l3.1,2.4c-4.7,7.6-10.2,13.4-16.5,17.5C64.3,516.4,62.7,514.5,61.2,512.6z"/>
	<path class="st1" d="M97,518.2c0.6-6.4,1-11.6,1.2-16.3c-0.8-0.1-2.9-0.1-3.9-0.1c-1.3,5.1-2.4,10.5-3.2,16.5
		c-2.2-0.2-4.5-0.5-6.8-0.8c0.9-4.7,2.2-9.8,3.8-15.3c-2,0.2-3.9,0.4-5.8,0.8v-3.1c2.1-0.2,4.8-0.3,6.7-0.4c0.9-2.9,1.9-5.7,2.3-6.7
		c1.9,0.3,3.6,0.7,5.1,1.1c-0.5,1.6-1.1,3.9-1.4,5.4l4.6,0.2l0.2,2.5l4.3-0.2c0.2,2.1,0.2,4.8,0.2,7.8c0,2.9-0.1,6-0.2,8.9
		C102.3,518.4,99.4,518.3,97,518.2z M100.4,501l-0.5-6.7l3.6-0.3l0.6,6.6L100.4,501z M104.9,500.8c-0.2-2.5-0.3-4.8-0.6-6.8l3.5-0.2
		c0.3,1.9,0.5,4.2,0.6,6.8L104.9,500.8z"/>
	<path class="st2" d="M126.7,517.3c0.2-2.4,0.4-4.6,0.4-6.5c0-8.6-2.4-12.6-7.5-12.6c-4.8,0-8,3.6-8,9.1c0,3.7,1.4,6.4,3.3,6.4
		c1.6,0,2.6-2,2.6-5c0-2-0.5-4.7-1.5-8.1c1.2-0.3,2.6-0.4,4-0.4c0.6,0,1.2,0,1.7,0.1c0.3,1.9,0.5,3.7,0.5,5.3
		c0,6.7-3.2,10.7-8.3,10.7c-4.6,0-7.3-3.2-7.3-8.6c0-7.3,5-11.8,13.3-11.8c8.8,0,13,4.9,13,15c0,2-0.2,4.2-0.5,6.7
		C130.1,517.7,127.8,517.5,126.7,517.3z"/>
	<path class="st2" d="M134,512.2c0-1,0.3-2.2,0.8-3.4l2.4,0.6v0.4c0,1.8,2.3,2.9,5.9,2.9c2.8,0,6.3-0.6,10-1.8
		c0.6,1.9,0.9,3.7,1.1,5.3c-2.2,0.8-7.9,1.6-11.5,1.6C137.2,517.8,134,515.7,134,512.2z M146.9,500.5l0.6-2.9
		c-1.5-0.2-2.8-0.4-4.3-0.4c-2.2,0-4.9,0.3-7.7,0.8l-0.6-2.6c1.7-0.4,4-0.6,6.6-0.6c5,0,9.9,0.8,12.3,1.9c-0.9,2-1.8,3.5-2.8,4.7
		L146.9,500.5z"/>
	<path class="st2" d="M157.7,516c7.5-3.6,11.5-7.3,11.5-10.5c0-1.8-1.3-2.7-3.8-2.7c-2.3,0-5.7,0.7-10.4,2.1l-0.8-3
		c4.7-1.1,8.5-1.6,11.7-1.6c6.2,0,9.5,2,9.5,5.8c0,4.3-4.2,9.4-11,13.2C161.6,518.4,159.5,517.3,157.7,516z M169,499.4
		c-1.8-1.4-5.9-3.4-8.9-4.3c1.4-1.7,2.3-2.7,3.6-3.7c2.8,1.1,6.2,3.3,7.8,5.1L169,499.4z"/>
	<path class="st2" d="M187.4,517.8c1.4-4.5,2.6-10.9,2.6-13.6c0-2.5-1.1-3.6-3.8-3.6c-0.8,5.5-1.5,11.3-1.9,16.1
		c-2.5-0.3-4.3-0.5-5.9-0.5c0.5-3.4,2.1-12.1,2.6-14.6c-1.6,0.6-3.2,1.2-4.8,1.9l-0.7-2.6c1.8-0.6,4.6-1.5,6.1-1.9
		c0.3-1.7,0.8-3.8,1.6-7.1c1.5,0.2,3.4,0.3,4.4,0.3c-0.4,1.6-0.8,3.8-1.1,6c0.4-0.1,0.8-0.1,1.3-0.1c5,0,7.7,3.1,7.7,8.8
		c0,2.9-0.7,6.5-2.1,11.3C190,518,189.2,517.9,187.4,517.8z M196.8,498.7c1.7-0.3,3-0.6,4.4-1c1.3,4.6,2,8.6,2.3,14.3
		c-1.7,0.1-3.2,0.3-5.1,0.5C197.8,505,197.5,501.9,196.8,498.7z"/>
	<path class="st2" d="M229.1,502.6l5.3,0l-0.1,2l-29.2,0.3l-0.1-2.5l5.3,0l-0.5-4.6h-3.7v-2.1l10.8,0l-0.2-3.8l5.9-0.2l-0.2,3.9
		l10.8,0l0.1,2.2h-3.7L229.1,502.6z M208.8,506.6l21.8,0.2l0.4,12.1l-22.6,0.2L208.8,506.6z M225.1,508.7l-10.9,0.2l0.1,2.8
		l10.7,0.2L225.1,508.7z M214.5,516.8l10.4,0.2l0.1-3.3l-10.6,0.2L214.5,516.8z M215.8,497.8v4.6l7.7,0.1v-4.7L215.8,497.8
		L215.8,497.8z"/>
	<path class="st2" d="M255.3,517.3c0.2-2.4,0.4-4.6,0.4-6.5c0-8.6-2.4-12.6-7.5-12.6c-4.8,0-8,3.6-8,9.1c0,3.7,1.4,6.4,3.3,6.4
		c1.6,0,2.6-2,2.6-5c0-2-0.5-4.7-1.5-8.1c1.2-0.3,2.6-0.4,4-0.4c0.6,0,1.2,0,1.7,0.1c0.3,1.9,0.5,3.7,0.5,5.3
		c0,6.7-3.2,10.7-8.3,10.7c-4.6,0-7.3-3.2-7.3-8.6c0-7.3,5-11.8,13.3-11.8c8.8,0,13,4.9,13,15c0,2-0.2,4.2-0.5,6.7
		C258.7,517.7,256.4,517.5,255.3,517.3z"/>
	<path class="st1" d="M291.6,508.5l-0.2,3l-10.5-0.1c0.1,2.7,0.1,5.4,0.1,7.9l-11.3-0.2l0.1-1.8l4.7-0.7v-5.2l-11.7-0.1l-0.2-2.4
		l11.8-0.1c0-1.3,0-2.5-0.1-3.8l-10.9,0.2l-0.1-3.2l10.9,0.2c0-1.3-0.1-2.6-0.1-3.9l-9.3,0.8l-0.3-2.3l21.9-5l1.5,5.3l-7.8,0.7
		c0.1,1.5,0.2,3,0.3,4.5l10.3,0.2l-0.1,2.3l-10,0.2l0.2,3.8L291.6,508.5z"/>
	<path class="st1" d="M318.8,501.9l-9.3,0.3l0,1.6l9.6-0.2l-0.1,2l-9.5,0.1l0.1,1.6l10.3,0l-0.1,1.7l-25.9,0.2l-0.1-2l10.2,0
		l0.1-1.5l-9.2,0.1l-0.1-1.6l9.3-0.2l0.1-1.5l-8.9,0.3l-0.2-2.1h9.2l0.1-1.7l-11.1-0.2l-0.1-1.6l11.3-0.1l0-1.6l-9.3,0.1l-0.1-2
		l9.5,0.1l0.1-1.8l4.6,0.1l0.1,1.8l10,0.1l-0.2,3.2l2.3,0l-0.1,2.3l-2.3,0L318.8,501.9z M295.2,510.4l24.2-0.1l0.3,8.7l-24.7,0.2
		L295.2,510.4z M314.4,512.2h-14.2v1.7l14.2-0.2V512.2z M300.2,517.1l14.2,0.2v-1.5l-14.2-0.2V517.1z M309.3,495.3l0,1.6l4.6,0
		l-0.1-1.7L309.3,495.3z M309.4,498.9l0.1,1.6h4.6L314,499L309.4,498.9z"/>
	<path class="st1" d="M324.1,511.8c0-3,3.3-5,9.3-5.5c0-0.7-0.1-1.7-0.2-2.8c-2.9,0.2-6,0.8-9,1.7l-0.5-2.8c2.6-0.4,5.6-0.8,9.1-1.1
		l-0.4-2.5c-2.2,0.2-4.9,0.5-9.3,1.2l-0.3-2.7c2.9-0.4,7.1-0.7,9.3-0.8c-0.3-1.4-0.7-3.2-1.1-4.3c2.5-0.4,4.8-0.7,6.7-0.8
		c0.2,1.3,0.5,3.6,0.6,4.9c2.8,0,4.9,0.1,6.9,0.3l-0.3,2.4c-1.9-0.4-4.1-0.6-6.3-0.6l0.2,2.6c1.5,0,4.6,0.2,6,0.6l-0.4,2.4
		c-2.2-0.5-3.9-0.7-5.4-0.8c0.1,1.4,0.1,3.2,0.1,5.6c-1.2-0.2-2.7-0.3-4.2-0.3c-4,0-6.2,0.7-6.2,2.1c0,1.9,4,3.1,12,3.7
		c-0.7,2-1.4,3.6-2.3,5C329.7,518.5,324.1,515.6,324.1,511.8z"/>
	<path class="st1" d="M370.2,499.5c-1,2.5-2.8,5.5-4.9,8.4c2.6,2.1,5.6,4.4,9,6.8l-5.8,5c-2.4-1.8-4.9-4.2-7.4-6.8
		c-2.9,3-5.9,5.5-8.3,6.6l-5.5-3.8c3.5-1.5,7.2-3.9,10.5-6.6c-3-3.4-5.6-7-7.3-10l-3.5-0.1l0.1-2.3l11.1-0.2l-0.3-5.4l6,0.2
		l-0.3,5.1l11.1-0.2l0.1,3.3L370.2,499.5z M356.5,499.3c1.4,1.8,3.3,3.8,5.5,5.8c1.8-1.9,3.2-3.8,4.2-5.6L356.5,499.3z"/>
	<path class="st1" d="M381.8,497.6l0.3,6.1l-5.5,0.1l0.3-8.2l10.8,0l-0.2-4.5l6.4,0.1l-0.2,4.4l10.8,0l0.3,8.4l-5.3-0.2l0.2-5.9
		L381.8,497.6z M393.6,509.1l10.9,0.2l-0.2,2.1l-10.5,0.2c0.1,2.6,0.1,5.5,0.1,8.4l-11.7-1.2l0.2-2l5.1-0.1c0.1-1.6,0.2-3.3,0.3-5
		l-10.4,0.2l-0.2-2.9l10.6,0.2c0-1.2,0.1-2.3,0.1-3.2l1.2-0.1c1-1.1,2.3-2.7,2.9-3.7l-9,0.6l0.1-2.7h15.5l0.1,1.4
		c-0.7,1.2-2.9,3.6-5.2,5.9L393.6,509.1z"/>
	<path class="st2" d="M410.6,514.5c0-2.7,2.5-5.3,7.5-7.9c-0.7-0.6-1.4-0.8-2.1-0.8c-1.8,0-3.8,1.5-5.4,4.1
		c-1.5-0.7-2.9-1.5-4.2-2.3c2-2.3,3.8-4.9,5.1-7.7l-4.6,0.1l0.2-3c1.8,0.2,3.8,0.4,5.3,0.4c0.9-2.5,1.5-4.2,1.9-5.8
		c2.5,0.2,4.7,0.5,6.7,0.9l-2.2,4.7c1.9-0.1,3.9-0.4,6.4-0.8l0.2,2.9c-2.5,0.2-5.1,0.3-7.8,0.5c-1.1,2.3-1.8,3.5-2.3,4.2
		c0.8-0.2,1.7-0.3,2.4-0.3c1.5,0,2.8,0.3,3.9,1c1.6-1,3.3-1.8,5-2.5c0.7,1,1.3,1.8,3,4.2c-1.5,0.6-3.7,1.4-5.2,2.1
		c0.5,1.6,1,3.3,1.3,4.9c-1.9,0.4-3.8,0.7-5.8,0.7c0-1.2-0.1-2.7-0.3-3.7c-3.2,1.5-4.8,2.9-4.8,4.6c0,1.5,1.3,2.2,3.7,2.2
		c2,0,4.9-0.6,8.3-1.7l0.6,3c-3,0.7-5.7,1-8,1C414,519.4,410.6,517.6,410.6,514.5z"/>
	<path class="st2" d="M440.3,519c0-5-0.1-9.3-0.4-14.1c-2.5,2-5,4-7.6,6.4l-3.1-3.8c5.4-6,11.4-11.1,18.3-15.8
		c1.4,1.9,2.7,3.8,3.9,5.7c-4.2,2.4-7.5,4.6-10.2,6.6l5.1-0.2c0.2,2.4,0.3,5.3,0.3,8.2c0,2.4-0.1,4.7-0.2,6.8L440.3,519z"/>
	<path class="st2" d="M448.5,514.7c4.2-3,7.5-5.8,9.9-8.4c-1.6-1.5-2.9-2.7-4.2-3.8l2.4-2.7c1.3,0.9,2.8,1.9,4.7,3.2
		c2-2.9,3.7-5.8,5-8.7c2.1,1,4,2,5.9,3c-1.5,3.2-3.7,6.4-6.5,9.6c1.5,1.5,2.8,2.8,3.9,4.1c-1.3,1.2-2.6,2.4-4,3.5
		c-1.1-1.6-2.2-2.9-3.2-4c-3.4,3.2-6.4,5.6-10.3,8.1L448.5,514.7z"/>
	<path class="st2" d="M495.7,507.5c-1.8-0.3-5.2-0.4-10.8-0.4c-5.1,0-8.1,0.1-11.5,0.4l-0.3-3.5c6-0.8,10.4-1.1,14.5-1.1
		c2.5,0,5.1,0.1,8.2,0.4L495.7,507.5z"/>
	<path class="st2" d="M497.6,501.6c3.6,0.2,6.8,0.5,9.3,0.9l-0.2,3.4c-5.7,0-8.4,0-9.2,0L497.6,501.6z M507.7,499.9
		c-2.8-0.6-6.1-1.2-9-1.5l0.9-4.2c4.8,1.2,6.9,1.8,8.9,2.5L507.7,499.9z M500.5,514.4c4.6-3,11.2-9.5,13.5-13.2l6-0.5
		c-2.8,6.9-7.8,13.5-13.6,18.2C505.4,518.4,502.9,516.5,500.5,514.4z M513.4,500.3c-0.1-1.2-0.5-5.2-0.7-6.3l3.6-0.4l1,6.4
		L513.4,500.3z M518.2,500c-0.2-2-0.6-4.2-1-6.5l3.7-0.4c0.4,2.3,0.7,4.4,0.9,6.6L518.2,500z"/>
	<path class="st2" d="M522.1,505.6c0-3.2,0.2-7,0.7-11.6c1.2-0.1,4.6-0.2,6.5-0.2c-0.9,6.1-1.3,10.6-1.3,14c0,6,1.3,8.7,4.3,8.7
		c2.3,0,5.1-1.6,8.4-4.7l2,2.6c-3.7,3.3-7.4,4.8-11.6,4.8C524.5,519.2,522.1,515.5,522.1,505.6z"/>
	<path class="st2" d="M543.3,517.7c1-5.8,2.6-13.8,3.6-17.3c-1.2,0.3-3.1,0.8-5.1,1.5l-0.5-2.6c1.7-0.5,4.5-1.1,6.2-1.5
		c0.4-1.5,1.1-3.9,1.8-5.9c2.2,0,4.1,0.2,5.6,0.5c-0.7,2.2-1.1,3.6-1.3,4.6c3.5-0.3,7.8-0.5,11.5-0.5l-0.3,3
		c-2.6-0.3-4.3-0.4-6.1-0.4c-1.5,0-3.3,0.1-5.6,0.2c-0.9,3.8-2,10.5-3.1,18.9C547.6,518.1,545.4,517.9,543.3,517.7z M554.4,513.7
		c0-1.3,0.7-2.7,1.9-3.5l1.9,0.6c-0.2,0.5-0.4,1-0.4,1.3c0,1.1,1.1,1.6,3.4,1.6c1.3,0,2.9-0.2,5.1-0.5c0.2,1.1,0.4,2.4,0.4,4.2
		c-1.4,0.2-2.8,0.2-4.2,0.2C557.2,517.6,554.4,516.2,554.4,513.7z M554.7,503.5c1.8-0.6,4.7-0.9,7.8-0.9c1.6,0,2.9,0.1,4.2,0.3
		c-0.3,1.2-0.6,2-1.1,3c-1.4-0.5-2.8-0.7-4.3-0.7c-1.5,0-3.3,0.2-5.8,0.7L554.7,503.5z"/>
	<path class="st2" d="M572.5,518.8c-1.3-2.6-2.7-5.1-4.1-7.3l3-1.9c1.9,1.8,3.6,4,5.2,6.8L572.5,518.8z"/>
	<path class="st1" d="M602.7,518c0-0.6,0-1.1,0.1-1.7l-10.8-0.1c0,0.5,0,1,0.1,1.5l-6.4,0.2c0-7.3,0.2-16,0.5-25.2l22.4,0.2
		c0.3,8.3,0.5,16.1,0.5,25.3L602.7,518z M591.8,495.6c0,2.4,0,4.8,0,7.1l11.3,0.4v-0.4c0-2.5,0-5.3-0.1-7.5L591.8,495.6z
		 M602.9,513.3c0.1-2.6,0.2-5.1,0.2-7.7l-11.2,0.5c0,2.7,0.1,5.3,0.1,7.6L602.9,513.3z"/>
	<path class="st1" d="M637.4,516.1c-2-4-4.4-8.4-7.3-12.8c-0.1,2.6-0.1,5.3-0.2,8.1l4.2-0.2v3.4l-4.3-0.1l-0.2,4.5l-5.3,0.1
		l-0.3-4.8l-4.8-0.1v-2.3l4.7-0.2c-0.1-3-0.2-5.9-0.3-8.6c-2.4,3.5-5.2,7.7-8.8,13.2l-2.3-1.2c2.7-5.4,5.1-10.1,7.4-14.4
		c-2.1,0.1-4.3,0.3-6.6,0.5l0.1-3.2c3.7-0.1,6.9-0.2,10-0.3c0-2.1-0.1-4.1-0.1-5.8h6.9c0,1.9,0,3.8,0,5.8c2.5,0,5.6,0,10.1,0.2
		l0.2,2.3c-2.2,0-4.2,0-6.1,0c2.7,3.4,5.4,7.6,8,12L637.4,516.1z"/>
	<path class="st1" d="M655.9,497v1.6l-12.3,0.6l-0.2-1.9l4-0.1l-0.4-4.8l5.2-0.2l-0.3,4.9L655.9,497z M644.8,518.7l-0.7-10.6
		l11.5-0.4l-0.4,11.1L644.8,518.7z M655.1,500.7v1.6l-10.8,0.6l-0.1-2L655.1,500.7z M655,506l-10.5,0.2l-0.2-1.7l10.8-0.6L655,506z
		 M651.2,509.3l-2.6-0.1l0.3,8.1l2.3-0.1V509.3z M670.3,505.4l1.6,0l-0.1,1.5l-15.7,0.5l-0.2-2.1l2.2,0l0.7-4.4l-2.4,0.3l-0.1-2.3
		l2.9-0.1l0.6-3.9l-3.4-0.1l0.1-1.5l13.8-0.1v2l-5.7-0.2l-0.6,3.6l6.2-0.3L670.3,505.4z M657.1,508.9l13.8,0.1l0.3,9.4l-14.1,0.3
		L657.1,508.9L657.1,508.9z M662.2,517l3.7-0.3l-0.3-6.3l-3.4-0.1V517z M663.6,500.2l-0.8,5.1l3.1,0l-0.4-5.3L663.6,500.2z"/>
	<path class="st2" d="M685,517.8c1.4-4.5,2.6-10.9,2.6-13.6c0-2.5-1.1-3.6-3.8-3.6c-0.8,5.5-1.5,11.3-1.9,16.1
		c-2.5-0.3-4.3-0.5-5.9-0.5c0.5-3.4,2.1-12.1,2.6-14.6c-1.5,0.6-3.2,1.2-4.8,1.9l-0.7-2.6c1.8-0.6,4.6-1.5,6.1-1.9
		c0.3-1.7,0.8-3.8,1.6-7.1c1.5,0.2,3.4,0.3,4.4,0.3c-0.4,1.6-0.8,3.8-1.1,6c0.4-0.1,0.8-0.1,1.3-0.1c5,0,7.7,3.1,7.7,8.8
		c0,2.9-0.7,6.5-2.1,11.3C687.6,518,686.7,517.9,685,517.8z M694.4,498.7c1.7-0.3,3-0.6,4.4-1c1.3,4.6,2,8.6,2.3,14.3
		c-1.7,0.1-3.2,0.3-5.1,0.5C695.4,505,695,501.9,694.4,498.7z"/>
	<path class="st2" d="M701.8,514.7c1.6-5.8,3.3-10.7,5-14.6c-0.7,0-2.1,0.2-3.4,0.4l-0.2-2.8c1.2-0.2,3-0.4,4.8-0.6
		c1.1-2.2,2-4.1,3-5.8c1.8,0.2,3.3,0.6,4.8,1.2c-0.9,2-1.3,3.1-1.7,4.2c1.5-0.1,6-0.2,9.3-0.2l0.2,3c-1.2-0.1-3.6-0.1-5.2-0.1
		s-3.5,0.1-5.4,0.2c-2,5.1-4.1,11.8-5.4,17.4C703.6,515.5,702.9,515.2,701.8,514.7z M710.3,514.1c0-3.4,2.8-5.5,7.1-5.6
		c-0.1-2.5-0.3-5.2-0.5-6.5c4.2,0,8.8,0.1,10.7,0.2l-0.1,2.8c-2.1-0.3-3.8-0.6-5.6-0.8c0.1,1,0.2,2.8,0.3,5.2c1.9,0.6,3.9,1.8,6,3.5
		l-1.4,3.1c-1.8-1.7-3.3-2.9-4.5-3.6c0,1.6-0.1,3.7-0.4,6.1c-1.6,0.3-2.9,0.4-4.3,0.4C712.7,518.9,710.3,517.3,710.3,514.1z
		 M717.5,511.2c-1.6,0-2.6,1.1-2.6,2.9c0,1.8,0.9,3,2.4,3.3L717.5,511.2z"/>
	<path class="st2" d="M753.2,499.5c-1,2.5-2.8,5.5-4.9,8.4c2.6,2.1,5.6,4.4,9,6.8l-5.8,5c-2.4-1.8-4.9-4.2-7.4-6.8
		c-2.9,3-5.9,5.5-8.3,6.6l-5.5-3.8c3.5-1.5,7.2-3.9,10.5-6.6c-3-3.4-5.6-7-7.3-10l-3.5-0.1l0.1-2.3l11.1-0.2l-0.3-5.4l6,0.2
		l-0.3,5.1l11.1-0.2l0.1,3.3L753.2,499.5z M739.5,499.3c1.4,1.8,3.3,3.8,5.5,5.8c1.8-1.9,3.2-3.8,4.2-5.6L739.5,499.3z"/>
	<path class="st2" d="M764.8,497.6l0.3,6.1l-5.5,0.1l0.3-8.2l10.8,0l-0.2-4.5l6.4,0.1l-0.2,4.4l10.8,0l0.3,8.4l-5.3-0.2l0.2-5.9
		L764.8,497.6z M776.6,509.1l10.9,0.2l-0.2,2.1l-10.5,0.2c0.1,2.6,0.1,5.5,0.1,8.4l-11.7-1.2l0.2-2l5.1-0.1c0.1-1.6,0.2-3.3,0.3-5
		l-10.4,0.2l-0.2-2.9l10.6,0.2c0-1.2,0.1-2.3,0.1-3.2l1.2-0.1c1-1.1,2.3-2.7,2.9-3.7l-9,0.6l0.1-2.7h15.5l0.1,1.4
		c-0.7,1.2-2.9,3.6-5.2,5.9L776.6,509.1z"/>
	<path class="st1" d="M793.8,514.5c7-5.9,10.6-10.5,12.6-16.2c-4.8,0-11.7,0.6-16.8,1.4l-0.2-3.9c4.1-0.2,7.6-0.3,10.9-0.3
		c4.5,0,8.4,0.2,12.7,0.6c-1.4,8.5-5.4,16.1-11.8,22.5C798.7,517.5,796.3,516.2,793.8,514.5z"/>
	<path class="st1" d="M825.7,520c-1.2,0-2.4,0-3.1-0.1c0-4.2,0-7-0.1-9.9c-1.4,3.7-3.5,6.8-6.4,9.5c-1.6-0.9-3.2-2-4.6-3.2
		c3.2-2.5,5.7-5.4,7.5-8.8c1.2,0.4,2.4,0.8,3.4,1.2l-0.1-2.8c-3.1,0.1-6,0.2-8.8,0.2H812l0.2-2.5c3,0.2,6.7,0.4,8.9,0.4
		c0.5,0,0.9,0,1.2,0c-0.1-1.2-0.2-3.5-0.2-4.2c0.5-0.1,2.5-0.1,3.7-0.1c0.5,0,0.9,0,1.1,0.1c0.1,1.3,0.2,3.2,0.2,4
		c1.4-0.2,2.5-0.3,3.5-0.5l0.3,2.5c-1.6,0.1-3,0.2-3.8,0.2c0.1,1.7,0.1,3.6,0.1,5.5c0,3.2-0.1,6.3-0.2,8.7L825.7,520L825.7,520z"/>
	<path class="st1" d="M829.2,495.1c3.4,0.2,7.8,0.7,10.7,1.2l-0.6,3.9c-1.6-0.1-3.3-0.1-5.1-0.1c-1.7,0-3.5,0-5.2,0.1L829.2,495.1z
		 M830.4,512.6c7.5-4.5,13.6-9.3,18.1-14.3l3.1,2.4c-4.7,7.6-10.2,13.4-16.5,17.5C833.5,516.4,831.9,514.5,830.4,512.6z"/>
	<path class="st1" d="M852.4,493.1c2.6-0.2,5.3-0.2,7.3-0.2c0.2,2.7,0.4,8.2,0.4,10.5l2-2.2c3.2,1.7,5.8,3.5,7.7,5.3l-3.2,3.6
		c-1.6-1.5-4.5-3.7-6.5-4.8c0,3.7,0,11.5-0.1,13.4c-1.9,0-5.3-0.1-6.4-0.1C853.5,508.5,853.2,500.1,852.4,493.1z"/>
	<path class="st2" d="M42,561.1c2-5.5,3-11.2,3-16.9c1.9-0.1,4.8-0.2,5.6-0.2v5.2c1.5-2,2.9-4.4,4.2-7.2c-1.4-0.1-2.9-0.2-4.5-0.2
		c-4.6,0-9.7,0.5-14.3,1.5v-3.8c4.6-0.3,8.8-0.5,12.6-0.5c5.1,0,9.5,0.3,13.1,0.9c-1.1,4.2-2.8,8.5-5.2,12.8c-2.4-0.8-4.5-1.7-6-2.5
		c-0.2,4.1-0.7,8.2-1.5,11.9C47.2,562.2,44.8,561.8,42,561.1z"/>
	<path class="st2" d="M59.3,558.7c2.8-5.1,4.2-10.6,4.8-18.6l5.6,0.2c-0.3,7.9-1.2,14.7-2.8,20.1C64.8,560.3,62.3,559.7,59.3,558.7z
		 M73.1,552.7c0-5.4-0.2-9.2-0.5-12l6.5-0.7c0.2,2.7,0.3,5.4,0.3,7.9c0,2.5-0.1,5.1-0.3,7.9c2.6-0.6,5.4-1.4,7.7-2.4l1.1,3.8
		c-5,1.3-9.5,2-14.9,2.4C73.1,557.6,73.1,554.8,73.1,552.7z"/>
	<path class="st2" d="M89,558.5c7-5.9,10.6-10.5,12.6-16.2c-4.8,0-11.7,0.6-16.8,1.4l-0.2-3.9c4.1-0.2,7.6-0.3,10.9-0.3
		c4.5,0,8.4,0.2,12.7,0.6c-1.4,8.5-5.4,16.1-11.8,22.5C93.9,561.5,91.4,560.2,89,558.5z"/>
	<path class="st2" d="M112.6,563.3c1.6-4.4,2.4-9,2.4-13.5c1.5-0.1,3.8-0.1,4.5-0.1v4.2c1.2-1.6,2.4-3.5,3.4-5.7
		c-1.1-0.1-2.3-0.2-3.6-0.2c-3.7,0-7.8,0.4-11.4,1.2v-3c3.7-0.3,7-0.4,10-0.4c4,0,7.6,0.2,10.5,0.7c-0.8,3.3-2.3,6.8-4.2,10.3
		c-2-0.7-3.6-1.3-4.8-2c-0.2,3.3-0.6,6.5-1.1,9.5C116.7,564.1,114.8,563.8,112.6,563.3z"/>
	<path class="st2" d="M138.5,547.6c-2,2.3-4.4,4.7-8.1,8l-2.6-3.5c2.5-1.6,9.4-7.3,11.8-9.7c4.7,3.5,10.6,7.3,17.5,11.4
		c-1.2,2-2.6,4-4.2,5.8C147.5,555.5,142.5,551.3,138.5,547.6z M147.5,546.5l-0.7-6.3l3.6-0.2c0.2,2.2,0.5,4.3,0.7,6.4L147.5,546.5z
		 M152,546.3c-0.2-1.7-0.4-3.6-0.8-6.5l3.5-0.3c0.3,2.5,0.6,4.6,0.7,6.5L152,546.3z"/>
	<path class="st2" d="M156,546.4c1.3-0.3,2.9-0.7,4.4-1c0.3,2.6,0.9,5.1,1.6,7.7c-1.2,0.3-2.5,0.7-3.8,1.1
		C157.4,551.9,156.6,549.4,156,546.4z M161.9,562.3c4.9-5.1,8.1-10.4,9.7-16.2c2,0.7,3.7,1.3,5.2,2c-3.2,8.2-6.8,13.5-11.6,16.9
		L161.9,562.3z M163,544.5c1.4-0.1,3-0.2,4.6-0.2c0,1.1,0.1,6.9,0.1,7.6c-1.8,0.1-3.1,0.2-4.1,0.3C163.4,550.6,163.1,546,163,544.5z
		"/>
	<path class="st2" d="M177.5,537.1c2.6-0.2,5.3-0.2,7.3-0.2c0.2,2.7,0.4,8.2,0.4,10.5l2-2.2c3.2,1.7,5.8,3.5,7.7,5.3l-3.2,3.6
		c-1.6-1.5-4.5-3.7-6.5-4.8c0,3.7,0,11.5-0.1,13.4c-1.9,0-5.3-0.1-6.4-0.1C178.6,552.5,178.3,544.1,177.5,537.1z"/>
	<path class="st2" d="M195.7,555.6c0-2.1,0.8-3.9,2.9-6.7l-3.1,0.3c-0.5-3.5-0.8-7.5-0.8-11.5c1.7-0.3,3.7-0.5,6.2-0.6
		c-0.3,2.1-0.5,6.5-0.5,9.6c2.6-2.3,6-4.7,10-7.2c1.5,1.5,2.8,3.1,3.8,4.8c-9.6,5-13.8,8.7-13.8,12.2c0,2,1.3,3.1,3.8,3.1
		c2.2,0,6.4-0.8,9.5-2l0.7,3c-3.3,1-7,1.5-9.8,1.5C198.8,562.2,195.7,559.9,195.7,555.6z"/>
	<path class="st2" d="M225.2,536.1l-0.4,5.1l4.4,0.1v1.7l-14,0.1l-0.2-2l5,0.1l-0.5-5.1L225.2,536.1z M216.2,562.9l-0.7-10.7
		l13.1-0.3l-0.6,11L216.2,562.9z M216,550.5l-0.2-1.8l12.5-0.6l-0.2,2.1L216,550.5z M228.5,544.7v1.8l-12.6,0.4v-2.1L228.5,544.7z
		 M220.5,553.7l-0.2,7.5l3.5,0.2l-0.3-7.8L220.5,553.7z M239,560.6l1.3-8.9l3.2,0.2v10.6l-12.3,0.3c-0.5-2.6-0.9-8.9-0.9-15.8
		l7.7-0.3l-0.2-6.4l-8.2,0.1l0.2-2.4l13.8,0.8l-0.5,10h-7.9c0,4.2,0.5,9.3,1.3,12.2L239,560.6z"/>
	<path class="st2" d="M244.9,555.6c0-1,0.2-2.1,0.7-3.3l2.4,0.6v0.2c0,1.9,2,3,5.4,3c2.8,0,6.3-0.7,10-2c0.5,1.5,0.8,3.2,1.2,5.3
		c-2.2,0.9-7.9,1.8-11.4,1.8C247.9,561.1,244.9,559,244.9,555.6z M257.1,543.7l0.5-2.9c-1.4-0.2-2.7-0.3-3.8-0.3
		c-2,0-4.4,0.3-7.7,0.9l-0.6-2.6c2.3-0.5,4.6-0.7,7.1-0.7c4.5,0,9,0.7,11.1,1.7c-0.9,2.1-1.7,3.6-2.6,4.7L257.1,543.7z M260,552.3
		c-0.2-1.6-0.6-3.4-1.1-5.8l3.8-0.6c0.4,1.7,0.8,3.8,1.1,5.8L260,552.3z M264.7,551.5c-0.3-1.7-0.7-4.3-1.1-5.8l3.4-0.5
		c0.4,1.4,0.7,3.1,1.1,5.7L264.7,551.5z"/>
	<path class="st2" d="M271.1,560c7.5-3.6,11.5-7.3,11.5-10.5c0-1.8-1.3-2.7-3.8-2.7c-2.3,0-5.7,0.7-10.4,2.1l-0.8-3
		c4.7-1.1,8.5-1.6,11.7-1.6c6.2,0,9.5,2,9.5,5.8c0,4.3-4.2,9.4-11,13.2C275.1,562.4,273,561.3,271.1,560z M282.4,543.4
		c-1.8-1.4-5.9-3.4-8.9-4.3c1.4-1.7,2.3-2.7,3.6-3.7c2.8,1.1,6.2,3.3,7.8,5.1L282.4,543.4z"/>
	<path class="st2" d="M299.1,561.5c2.3-5.2,4-11.1,4-13.4c0-2-1.2-3.1-3.4-3.1c-1.3,5-2.5,10.2-3.5,15.2c-2.3-0.5-4.2-0.8-5.8-1.1
		c0.8-3.2,3.1-10.8,4.1-13.7c-1.7,0.4-3.7,0.9-5,1.4l-0.4-2.5c2.1-0.5,5.2-1.1,6.3-1.2c0.8-2.4,1.4-4.3,2.2-6.7
		c1.3,0.3,2.5,0.5,4.3,0.7c-0.7,1.9-1.2,3.9-1.6,5.7c5.3,0.2,8.2,2.8,8.2,7.5c0,3-1.1,7-3.3,12.3L299.1,561.5z M305.1,542.8
		c-0.1-1.4-0.2-3.2-0.5-5.8l3.6-0.3c0.2,1.5,0.4,3.7,0.5,5.9L305.1,542.8z M309.6,542.5c0-1.4-0.3-5-0.4-5.9l3.8-0.2
		c0.3,2.2,0.5,4.2,0.6,5.9L309.6,542.5z M310.6,557.5c0.1-2.3,0.1-4.2,0.1-6.1c0-3.1-0.1-5.5-0.3-7.3c1.1-0.1,3.1-0.3,4.5-0.6
		c0.7,3.7,0.9,6.7,0.9,10.3c0,1.2,0,2.4-0.1,3.7H310.6z"/>
	<path class="st2" d="M316.5,562.1c0.2-4.1,0.6-8,1.1-11.8c1.5,0,3.9,0.1,5.5,0.4c-0.3,2.5-0.6,4.6-0.7,5.9c1.4,1,3.2,1.5,4.5,1.5
		c2,0,3.1-1.3,3.1-3.1c0-2.5-2.3-5.7-5-7.1c1.3-1.6,2.9-3.2,4.2-4.3c-1.1-1.1-2.8-2.2-5.1-3.3c1.1-1.5,2.4-2.7,3.9-3.7
		c3.5,2.4,4.9,3.8,6.6,6.9c-1.4,0.7-2.7,1.6-4,2.8c3.5,3.5,4.7,5.8,4.7,8.7c0,3.8-2.1,5.7-6,5.7c-2.2,0-4.9-0.6-7.1-1.5
		c-0.1,1.1-0.2,2-0.2,3.1C320.3,562.2,317.8,562.2,316.5,562.1z M336.9,550.5c1.4-0.2,2.9-0.2,5.3-0.2c0.4,3.6,0.7,7.5,1,11.6
		c-1.6,0.2-3.6,0.3-5.6,0.3C337.5,558.5,337.3,554.3,336.9,550.5z"/>
	<path class="st2" d="M357,556.6c0-0.7,0.1-1.6,0.2-2.5c-2.4,0-3.5,1.5-6.7,8.8c-1.7-0.5-3.3-1.1-6.3-2.3
		c4.6-7.7,7.8-11.6,12.1-14.6c-3.8,0.2-7.5,0.8-11.1,1.6l-0.3-3.2c4.6-0.2,13.3-0.4,19.1-0.4l0.3,2.9c-2.3,0.4-4.8,2.1-7.6,5.1
		c1.4,0,3.7,0.1,5,0.3c0,3.9,1.1,5.6,3.8,5.6c0.6,0,1.7-0.1,2.6-0.2c0,1.5-0.1,3.9-0.2,5.1c-1.3,0.2-2.5,0.3-3.6,0.3
		C359.3,563.2,357,561.1,357,556.6z M353.3,535.2c0.9-0.1,3.4-0.2,5.6-0.2c0.4,2.3,0.7,5.2,0.7,7.4c-0.6,0-3.3,0.1-4.7,0.1
		C354.6,540.6,354.1,538.3,353.3,535.2z"/>
	<path class="st2" d="M374.3,551.8c0-4.3,2-8,5.9-11.1c-5.2,0.3-8.7,0.9-14.4,2.5l-0.4-3.3c6.2-1,11.1-1.4,16-1.4
		c2.9,0,6.1,0.2,8.5,0.4l-0.2,2.4c-5.8,0-9.8,3.1-9.8,7.6c0,2.9,1.6,5.6,5.8,9.9c-1.5,1.3-3.4,2.5-5.9,3.8
		C376,559.1,374.3,555.8,374.3,551.8z"/>
	<path class="st2" d="M395.6,562.8c-1.3-2.6-2.7-5.1-4.1-7.3l3-1.9c1.9,1.8,3.6,4,5.2,6.8L395.6,562.8z"/>
	<path class="st2" d="M417.7,561.8c1.4-4.5,2.6-10.9,2.6-13.6c0-2.5-1.1-3.6-3.8-3.6c-0.8,5.5-1.5,11.3-1.9,16.1
		c-2.5-0.3-4.3-0.5-5.9-0.5c0.5-3.4,2.1-12.1,2.6-14.6c-1.5,0.6-3.2,1.2-4.8,1.9l-0.7-2.6c1.8-0.7,4.6-1.5,6.1-1.9
		c0.3-1.7,0.8-3.8,1.5-7.1c1.5,0.2,3.4,0.3,4.4,0.3c-0.4,1.6-0.8,3.8-1.1,6c0.4-0.1,0.8-0.1,1.3-0.1c5,0,7.7,3.1,7.7,8.8
		c0,2.9-0.7,6.5-2.1,11.3C420.2,562,419.4,561.9,417.7,561.8z M427,542.7c1.7-0.3,3-0.6,4.4-1c1.3,4.6,2,8.7,2.3,14.3
		c-1.7,0.1-3.2,0.3-5.1,0.5C428.1,549,427.7,545.9,427,542.7z"/>
	<path class="st2" d="M446.2,550.6c-3.4,0-5.9,3.9-7.2,11.5c-1.8-0.1-3.6-0.2-5.2-0.5c1.7-8.9,4.8-18.4,8.2-25.1
		c2.5,0.3,4.9,1,7,1.8c-2.4,4-4.2,7.3-5.1,10c1.2-0.2,2.3-0.2,3.5-0.2s2.6,0.1,4.6,0.2c-0.2,2-0.3,3.8-0.3,5.2c0,4.7,1,6.2,4,6.2
		c1.1,0,2.5-0.2,4.1-0.6l0.3,2.4c-2.3,0.4-4,0.6-5.6,0.6C448.3,562.2,446.2,559.4,446.2,550.6z"/>
	<path class="st2" d="M466.7,541.6l0.3,6.1l-5.5,0.1l0.3-8.2l10.8,0l-0.2-4.5l6.4,0.1l-0.2,4.4l10.8,0l0.3,8.4l-5.3-0.2l0.2-5.9
		L466.7,541.6z M478.5,553.1l10.9,0.2l-0.2,2.1l-10.5,0.2c0.1,2.6,0.1,5.5,0.1,8.4l-11.7-1.2l0.2-2l5.1-0.1c0.1-1.6,0.2-3.3,0.3-5
		l-10.4,0.2l-0.2-2.9l10.6,0.2c0-1.2,0.1-2.3,0.1-3.2l1.2-0.1c1-1.1,2.3-2.7,2.9-3.7l-9,0.7l0.1-2.7h15.5l0.1,1.4
		c-0.7,1.2-2.9,3.6-5.2,5.9L478.5,553.1z"/>
	<path class="st2" d="M496.3,552.1c-1.9,0.2-3.2,0.4-4.2,0.6l-0.4-2.9c1.3-0.2,2.7-0.4,4.5-0.6c0-1.3,0-2.7,0.1-4.2
		c-1.8,0.1-3.4,0.2-4.8,0.5l-0.2-3c1.4-0.2,2.9-0.3,5.1-0.4c0.2-2.2,0.3-4.1,0.5-6c2,0.1,4,0.2,6.4,0.4c-0.2,2.2-0.4,3.7-0.5,5.4
		c2.7,0,5.1,0.1,7.4,0.3l-0.1,3c-1.8-0.2-4.4-0.3-7.5-0.3c-0.1,1.1-0.2,2.5-0.3,4c2.5,0,6,0.1,7.5,0.3l-0.2,2.9
		c-1.4-0.2-3.8-0.3-5.7-0.3c-0.6,0-1.1,0-1.6,0c0,0.5-0.1,1.3-0.1,1.9c0,4.7,1,6.9,3.2,6.9c2.3,0,5.8-2.5,8.1-5.6l2.5,2.7
		c-2.9,3.8-6.7,5.7-11.3,5.7C498.7,563.2,496.6,560.3,496.3,552.1z"/>
	<path class="st2" d="M526.4,541.6l-6.5,11.8l-3.2-1l3.9-13.5L526.4,541.6z M546.1,550.7l-5,2.9l-1.3-4c-2.8,6.2-8.6,11.3-15.8,13.8
		l-6-3.5c5.7-1.5,10.8-4.1,14.7-7.2l-7.6-1.3l0.1-1.8l3.6-0.2l-0.5-13.7l6-0.1l-0.5,16.1c2-1.8,3.7-3.7,4.8-5.6l-1.9-5.8l4.4-1.4
		L546.1,550.7z"/>
	<path class="st2" d="M547.6,549.6c0-3.2,0.2-7,0.7-11.6c1.2-0.1,4.6-0.2,6.5-0.2c-0.9,6.1-1.3,10.6-1.3,14c0,6,1.3,8.7,4.3,8.7
		c2.3,0,5.1-1.6,8.4-4.7l2,2.6c-3.7,3.3-7.4,4.8-11.6,4.8C550,563.2,547.6,559.5,547.6,549.6z"/>
	<path class="st2" d="M570.9,557.3c7.5-4.4,10.6-7.2,10.6-9.5c0-1.9-2-3.2-4.9-3.2c-2.9,0-8.1,1.2-14.7,3.5l-0.7-3.5
		c5.2-1.4,11.8-2.4,15.6-2.4c6.4,0,10.8,2.9,10.8,7.3c0,4.4-4.6,9.7-11.3,12.9C574.5,561.1,572.7,559.4,570.9,557.3z"/>
	<path class="st2" d="M599.6,561.8c1.4-4.5,2.6-10.9,2.6-13.6c0-2.5-1.1-3.6-3.8-3.6c-0.8,5.5-1.5,11.3-1.9,16.1
		c-2.5-0.3-4.3-0.5-5.9-0.5c0.5-3.4,2.1-12.1,2.6-14.6c-1.6,0.6-3.2,1.2-4.8,1.9l-0.7-2.6c1.8-0.7,4.6-1.5,6.1-1.9
		c0.3-1.7,0.8-3.8,1.6-7.1c1.5,0.2,3.4,0.3,4.4,0.3c-0.4,1.6-0.8,3.8-1.1,6c0.4-0.1,0.8-0.1,1.3-0.1c5,0,7.7,3.1,7.7,8.8
		c0,2.9-0.7,6.5-2.1,11.3C602.2,562,601.4,561.9,599.6,561.8z M609,542.7c1.7-0.3,3-0.6,4.4-1c1.3,4.6,2,8.7,2.3,14.3
		c-1.7,0.1-3.2,0.3-5.1,0.5C610.1,549,609.7,545.9,609,542.7z"/>
	<path class="st2" d="M629.2,556.6c0-0.7,0.1-1.6,0.2-2.5c-2.4,0-3.5,1.5-6.7,8.8c-1.7-0.5-3.3-1.1-6.3-2.3
		c4.6-7.7,7.8-11.6,12.1-14.6c-3.8,0.2-7.5,0.8-11.1,1.6l-0.3-3.2c4.6-0.2,13.3-0.4,19.1-0.4l0.3,2.9c-2.3,0.4-4.8,2.1-7.6,5.1
		c1.4,0,3.7,0.1,5,0.3c0,3.9,1.1,5.6,3.8,5.6c0.6,0,1.7-0.1,2.6-0.2c0,1.5-0.1,3.9-0.2,5.1c-1.3,0.2-2.5,0.3-3.6,0.3
		C631.5,563.2,629.2,561.1,629.2,556.6z M625.6,535.2c0.9-0.1,3.4-0.2,5.6-0.2c0.4,2.3,0.7,5.2,0.7,7.4c-0.6,0-3.3,0.1-4.7,0.1
		C626.9,540.6,626.4,538.3,625.6,535.2z"/>
	<path class="st2" d="M643.2,558.5c0-2.9,2.7-5.1,6-5.1c2.4,0,4.2,1.1,4.9,3.1c0.6-0.8,0.9-1.7,0.9-2.5c0-2.5-2.4-4.9-5.6-4.9
		c-2.4,0-4.2,1.3-6.1,4.3l-5.1-3.1c4-4.7,8.3-8.8,11.2-10.8c-2.3,0.3-4.5,0.7-7.2,1.2l-0.2-3.5c3.5-0.3,7.5-0.5,10.4-0.5
		c1.1,0,2.1,0,2.9,0.1l0.1,2.4c-2.5,1.5-5.4,4.3-7.5,7.3c1.1-0.3,2.1-0.4,3.2-0.4c4.9,0,8.8,3.1,8.8,7.7c0,5-4.5,8.6-10.6,8.6
		C645.4,562.5,643.2,561.1,643.2,558.5z M650.7,557.8c0-1.3-0.6-2.3-1.5-2.3c-0.9,0-1.6,1.1-1.6,2.6c0,1.3,0.7,2.3,1.6,2.3
		C650.1,560.4,650.7,559.4,650.7,557.8z"/>
	<path class="st2" d="M660.9,557.3c0-3.1,2.9-5.1,8.3-5.5c-0.3-5.4-1-10.5-2-15.4c1.6-0.4,3.8-0.7,6.3-0.7c0.3,2,0.5,4.5,0.8,7.6
		c1.7-0.3,5-0.7,6.9-0.8l0.2,3l-6.9,0.1c0.1,1.1,0.1,3.6,0.1,6.6c3.1,0.7,6,2.1,8.1,3.7l-1.9,3.3c-2.1-1.8-4.2-3.3-6.2-4.3
		c-0.1,2.6-0.3,5.8-0.6,7.4c-1.3,0.1-2.5,0.2-3.6,0.2C664.2,562.5,660.9,560.7,660.9,557.3z M669.3,554.1c-2.3,0.2-3.6,1.2-3.6,2.9
		c0,1.9,1.5,3.3,3.6,3.3V554.1z"/>
	<path class="st2" d="M685.9,560c7.5-3.6,11.5-7.3,11.5-10.5c0-1.8-1.3-2.7-3.8-2.7c-2.3,0-5.7,0.7-10.4,2.1l-0.8-3
		c4.7-1.1,8.5-1.6,11.7-1.6c6.2,0,9.5,2,9.5,5.8c0,4.3-4.2,9.4-11,13.2C689.8,562.4,687.7,561.3,685.9,560z M697.2,543.4
		c-1.8-1.4-5.9-3.4-8.9-4.3c1.4-1.7,2.3-2.7,3.6-3.7c2.8,1.1,6.2,3.3,7.8,5.1L697.2,543.4z"/>
	<path class="st2" d="M705.1,553c0-5.2,0.7-10.8,1.9-15.7c2.5,0.3,4.5,0.7,6.2,1.1c-1.6,4.8-2.5,10.8-2.5,16.4
		c0,1.5,0.1,2.9,0.2,4.2l2.9-0.2l0.2,2.1c-2.2,0.8-4.9,1.3-8,1.5C705.4,559.9,705.1,556.7,705.1,553z M715.8,555.8
		c0-1,0.2-2.2,0.5-3.2c0.7,0.1,1.4,0.2,2.3,0.4c0,2.3,0.9,3.2,3.1,3.2c1.6,0,5.1-0.5,8.1-1.1c0.2,0.8,0.7,3.6,0.8,4.9
		c-2.6,0.8-5,1.2-7.3,1.2C718.4,561.3,715.8,559.4,715.8,555.8z M721.7,543.4c-1.9,0-3.8,0.2-5.6,0.7l-0.3-2.5c2.7-0.7,6-1.2,9-1.2
		c2.4,0,4.4,0.3,5.5,0.8c-0.2,1-0.6,1.9-1.1,3.3C726.4,543.7,724,543.4,721.7,543.4z"/>
	<path class="st2" d="M731.6,558.7c1.6-5.8,3.3-10.7,5-14.6c-0.7,0-2.1,0.2-3.4,0.4l-0.2-2.8c1.2-0.2,3-0.4,4.8-0.6
		c1.1-2.2,2-4.1,3-5.8c1.8,0.2,3.3,0.6,4.8,1.2c-0.9,2-1.3,3.1-1.7,4.2c1.5-0.1,6-0.2,9.3-0.2l0.2,3c-1.2-0.1-3.6-0.1-5.2-0.1
		c-1.6,0-3.5,0.1-5.4,0.2c-2,5.1-4.1,11.8-5.4,17.4C733.5,559.5,732.7,559.2,731.6,558.7z M740.1,558.1c0-3.4,2.8-5.5,7.1-5.6
		c-0.1-2.5-0.3-5.2-0.5-6.5c4.2,0,8.8,0.1,10.7,0.2l-0.1,2.8c-2.1-0.3-3.8-0.6-5.6-0.8c0.1,1,0.2,2.8,0.3,5.2c1.9,0.6,3.9,1.8,6,3.5
		l-1.4,3.1c-1.8-1.7-3.3-2.9-4.5-3.6c0,1.6-0.1,3.7-0.4,6.1c-1.6,0.3-2.9,0.4-4.3,0.4C742.5,562.9,740.1,561.3,740.1,558.1z
		 M747.3,555.2c-1.6,0-2.6,1.1-2.6,2.9c0,1.8,0.9,3,2.4,3.3L747.3,555.2z"/>
	<path class="st2" d="M759.6,544.4c0-2.9,0.3-5.4,1-7.8c1.5,0.2,2.6,0.4,5.7,0.9c-0.7,2.5-1.3,7.4-1.3,10.5l2.7-0.2l0.2,2.1
		c-1.9,0.2-4,0.4-7.4,0.7C759.8,548.9,759.6,546.9,759.6,544.4z M766.1,561.7c4.5-6,6.2-11.1,6.2-17.8c0-2.3-0.2-4.8-0.6-7
		c2-0.3,3.6-0.5,5.3-0.6c0.3,2.9,0.4,5.5,0.4,8.1c0,7.9-1.4,13.9-4.4,18.9C771,562.9,768.7,562.3,766.1,561.7z"/>
	<path class="st2" d="M779.6,557.4c0-3.6,3.8-5.9,9.5-5.9l-0.1-2.6c-2.7,0-5.7,0-8.9-0.1v-2.9c3.8,0.2,6.4,0.3,8.7,0.3
		c-0.1-0.7-0.2-2.2-0.3-3c-3,0-6.5,0-9.4-0.1l0.1-2.7c2.8,0.2,5.6,0.3,9,0.3c-0.2-1.1-0.5-3-0.6-3.9l6.6-0.3
		c0.1,0.7,0.2,2.4,0.3,4.1c3-0.1,5.2-0.3,7-0.6l0.1,2.8c-2.7,0.2-4.7,0.3-6.9,0.4l0.1,3c2.9-0.2,4.8-0.3,6.5-0.4l-0.1,2.8
		c-3.1,0.2-4.4,0.2-6.5,0.3c0,1.1-0.1,2.8-0.2,3.8c2.9,0.9,5.5,2.3,7.7,4.1l-2.2,3.3c-1.7-1.8-3.6-3.4-5.7-4.7
		c-0.2,2.1-0.7,4.7-1.1,6.8c-1.3,0.2-2.6,0.4-4.2,0.4C782.9,562.5,779.6,560.7,779.6,557.4z M789.1,553.6c-2.4,0-4.1,1.4-4.1,3.4
		c0,2,1.4,3,3.9,3C789,557.8,789.1,554.9,789.1,553.6z"/>
	<path class="st2" d="M803.1,549.6c0-3.2,0.2-7,0.7-11.6c1.2-0.1,4.6-0.2,6.5-0.2c-0.9,6.1-1.3,10.6-1.3,14c0,6,1.3,8.7,4.3,8.7
		c2.3,0,5.1-1.6,8.4-4.7l2,2.6c-3.7,3.3-7.4,4.8-11.6,4.8C805.5,563.2,803.1,559.5,803.1,549.6z"/>
	<path class="st2" d="M824.3,561.7c1-5.8,2.6-13.8,3.6-17.3c-1.2,0.3-3.1,0.8-5.1,1.5l-0.5-2.6c1.7-0.5,4.5-1.1,6.2-1.5
		c0.4-1.5,1.1-3.9,1.8-5.9c2.2,0,4.1,0.2,5.6,0.5c-0.7,2.2-1.1,3.6-1.3,4.7c3.5-0.3,7.8-0.5,11.5-0.5l-0.3,3
		c-2.6-0.3-4.3-0.4-6.1-0.4c-1.5,0-3.3,0.1-5.6,0.2c-0.9,3.8-2,10.5-3.1,18.9C828.6,562.1,826.4,561.9,824.3,561.7z M835.4,557.7
		c0-1.3,0.7-2.7,1.9-3.5l1.9,0.6c-0.2,0.5-0.4,1-0.4,1.3c0,1.1,1.1,1.6,3.4,1.6c1.3,0,2.9-0.2,5.1-0.5c0.2,1.1,0.4,2.4,0.4,4.2
		c-1.4,0.2-2.8,0.2-4.2,0.2C838.2,561.6,835.4,560.2,835.4,557.7z M835.7,547.5c1.8-0.6,4.7-0.9,7.8-0.9c1.5,0,2.9,0.1,4.2,0.3
		c-0.3,1.2-0.6,2-1.1,3c-1.4-0.5-2.8-0.7-4.3-0.7c-1.5,0-3.3,0.2-5.8,0.7L835.7,547.5z"/>
	<path class="st2" d="M849.4,558.8c0-2.6,1.9-4.3,4.7-4.3c2.7,0,4.5,1.6,4.5,4.1c0,2.6-2,4.4-4.8,4.4
		C851.1,562.9,849.4,561.3,849.4,558.8z M855.3,558.6c0-1.6-0.4-2.4-1.2-2.4c-0.9,0-1.4,1.1-1.4,2.8c0,1.5,0.4,2.3,1.1,2.3
		C854.8,561.2,855.3,560.3,855.3,558.6z"/>
</g>
</svg>
