<?xml version="1.0" encoding="utf-8"?>
<svg version="1.1" id="Otomanopee - Open Source Japanese Font" xmlns="http://www.w3.org/2000/svg" xmlns:xlink="http://www.w3.org/1999/xlink" width="900" height="600" viewBox="0 0 900 600">
<style type="text/css">
	.st0{fill:#EDE7DF;}
	.st1{fill:#993333;}
	.st2{fill:#663333;}
	.st3{fill:#996666;}
</style>
<rect y="0" class="st0" width="900" height="600"/>
<g>
	<path class="st1" d="M21.995,60.795C21.995,45.922,32.179,35,46.115,35c13.937,0,24.121,10.922,24.121,25.795
		c0,14.875-10.184,25.797-24.121,25.797C32.179,86.592,21.995,75.67,21.995,60.795z M58.31,63.141
		c0-12.662-5.963-22.512-13.601-22.512c-6.5,0-10.788,7.102-10.788,17.822c0,12.662,5.963,22.512,13.602,22.512
		C54.021,80.963,58.31,73.861,58.31,63.141z"/>
	<path class="st1" d="M98.616,54.363l-7.303,0.068c-0.067,14.002-0.201,27.871-0.268,31.691c-3.015,0.201-6.767,0.268-10.854,0.268
		c-0.067-3.752-0.201-17.621-0.268-31.959l-7.303,0.066l-0.402-6.164l7.638,0.066V35.537c3.283,0,8.309,0.133,11.524,0.268V48.4
		l7.638,0.066L98.616,54.363z"/>
	<path class="st1" d="M99.399,68.031c0-10.854,8.978-19.631,19.966-19.631c10.586,0,18.894,8.174,18.894,18.559
		c0,10.855-8.978,19.633-19.966,19.633C107.708,86.592,99.399,78.418,99.399,68.031z M127.808,69.641
		c0-9.045-4.422-15.813-10.385-15.813c-4.757,0-7.571,4.287-7.571,11.523c0,9.045,4.422,15.813,10.385,15.813
		C124.994,81.164,127.808,76.877,127.808,69.641z"/>
	<path class="st1" d="M198.118,78.752c0,2.412-0.067,4.557-0.201,7.236c-2.546,0.336-7.035,0.535-11.524,0.535
		c0.268-3.752,0.402-8.174,0.402-12.395c0-13.869-1.608-20.369-5.025-20.369c-2.345,0-5.427,3.15-7.035,7.236
		c0.67,4.223,1.005,9.648,1.005,16.482c0,3.082-0.067,5.83-0.201,8.645c-2.68,0.133-8.107,0.268-11.524,0.268
		c0.268-4.758,0.402-10.453,0.402-15.41c0-12.73-1.005-17.221-3.886-17.221c-2.412,0-5.494,3.217-7.303,7.438
		c0.067,6.902,0.134,15.746,0.134,25.193c-3.015,0-8.643-0.135-10.854-0.268c0-16.752,0.134-31.625,0.335-37.186
		c2.814,0,7.102,0.133,10.184,0.268c0.067,0.938,0.067,2.211,0.134,3.818c3.685-3.148,7.303-4.623,10.988-4.623
		c3.819,0,6.499,1.541,8.375,5.092c3.417-3.283,7.437-5.092,11.524-5.092C193.628,48.4,198.118,58.115,198.118,78.752z"/>
	<path class="st1" d="M228.951,86.391c0-1.475,0-2.881-0.067-4.221c-4.623,2.947-9.179,4.422-13.735,4.422
		c-7.638,0-12.864-4.088-12.864-10.051c0-8.107,9.648-15.008,23.383-16.885c-1.608-3.953-3.819-5.896-6.633-5.896
		c-3.417,0-9.246,2.814-14.74,7.035l-2.01-6.699c6.566-3.752,12.998-5.695,18.894-5.695c13.87,0,19.296,10.586,19.296,37.723
		C238.733,86.256,233.976,86.391,228.951,86.391z M228.683,76.406c-0.268-4.756-0.804-8.709-1.541-11.992
		c-6.901,1.34-13.802,6.969-13.802,11.658c0,2.746,2.345,4.488,6.03,4.488C222.585,80.561,225.601,79.221,228.683,76.406z"/>
	<path class="st1" d="M283.501,86.391c-3.149,0-8.509-0.135-11.524-0.268c0-23.719-1.876-32.363-7.035-32.363
		c-2.881,0-6.03,2.613-8.174,6.566c-0.067,11.391-0.201,21.574-0.335,25.797c-2.814,0.133-7.103,0.268-10.854,0.268
		c-0.201-5.695-0.335-21.039-0.335-37.453c2.948,0,8.644,0.133,11.524,0.268v3.416c3.752-2.814,7.638-4.221,11.591-4.221
		C279.213,48.4,283.501,59.188,283.501,86.391z"/>
	<path class="st1" d="M286.737,68.031c0-10.854,8.978-19.631,19.966-19.631c10.586,0,18.895,8.174,18.895,18.559
		c0,10.855-8.979,19.633-19.967,19.633C295.044,86.592,286.737,78.418,286.737,68.031z M315.145,69.641
		c0-9.045-4.422-15.813-10.386-15.813c-4.757,0-7.57,4.287-7.57,11.523c0,9.045,4.422,15.813,10.385,15.813
		C312.331,81.164,315.145,76.877,315.145,69.641z"/>
	<path class="st1" d="M365.294,66.959c0,10.922-6.767,19.633-15.276,19.633c-2.613,0-5.427-0.805-8.241-2.279
		c-0.066,4.154-0.066,7.639-0.134,9.783c-3.35,0-8.04-0.135-10.854-0.268c-0.134-7.035-0.335-30.553-0.335-44.623
		c2.881-0.135,8.375-0.268,11.524-0.268v2.211c2.68-1.811,5.494-2.748,8.442-2.748C358.929,48.4,365.294,56.307,365.294,66.959z
		 M355.177,69.104c0-8.709-3.35-15.209-7.839-15.209c-1.943,0-3.819,1.207-5.36,3.283c-0.067,6.164-0.067,12.998-0.134,19.229
		c1.474,3.016,3.953,4.824,6.633,4.824C352.699,81.23,355.177,76.742,355.177,69.104z"/>
	<path class="st1" d="M400.81,73.324l4.758,4.021c-4.355,5.896-10.787,9.246-17.756,9.246c-10.921,0-19.095-8.174-19.095-19.162
		c0-10.922,8.04-19.029,18.827-19.029c10.184,0,17.688,7.17,18.693,17.957l-26.6,4.957c1.742,5.83,5.628,9.783,10.184,9.783
		C393.976,81.098,398.533,77.881,400.81,73.324z M378.767,64.748v0.67l15.611-2.143c-0.604-5.695-3.953-9.516-8.309-9.516
		C381.514,53.76,378.767,57.848,378.767,64.748z"/>
	<path class="st1" d="M441.372,73.324l4.758,4.021c-4.355,5.896-10.787,9.246-17.756,9.246c-10.921,0-19.095-8.174-19.095-19.162
		c0-10.922,8.04-19.029,18.827-19.029c10.184,0,17.688,7.17,18.693,17.957l-26.6,4.957c1.742,5.83,5.628,9.783,10.184,9.783
		C434.538,81.098,439.094,77.881,441.372,73.324z M419.329,64.748v0.67l15.611-2.143c-0.604-5.695-3.953-9.516-8.309-9.516
		C422.076,53.76,419.329,57.848,419.329,64.748z"/>
	<path class="st2" d="M460.868,57.869h9.378v2.41h-9.378V57.869z"/>
	<path class="st2" d="M482.843,59.074c0-5.947,4.072-10.316,9.646-10.316s9.646,4.369,9.646,10.316
		c0,5.949-4.073,10.316-9.646,10.316S482.843,65.023,482.843,59.074z M497.366,60.012c0-5.064-2.385-9.002-5.439-9.002
		c-2.599,0-4.313,2.84-4.313,7.127c0,5.064,2.385,9.002,5.439,9.002C495.651,67.139,497.366,64.299,497.366,60.012z"/>
	<path class="st2" d="M518.181,61.539c0,4.367-2.706,7.852-6.109,7.852c-1.045,0-2.17-0.322-3.295-0.912
		c-0.027,1.662-0.027,3.055-0.054,3.912c-1.34,0-3.216-0.053-4.341-0.107c-0.054-2.813-0.134-12.217-0.134-17.844
		c1.151-0.055,3.349-0.107,4.608-0.107v0.885c1.071-0.725,2.197-1.1,3.376-1.1C515.636,54.117,518.181,57.279,518.181,61.539z
		 M514.135,62.396c0-3.482-1.34-6.082-3.135-6.082c-0.777,0-1.527,0.482-2.144,1.313c-0.027,2.465-0.027,5.199-0.054,7.691
		c0.59,1.205,1.581,1.928,2.652,1.928C513.144,67.246,514.135,65.451,514.135,62.396z"/>
	<path class="st2" d="M532.662,64.086l1.902,1.607c-1.741,2.357-4.313,3.697-7.101,3.697c-4.367,0-7.637-3.27-7.637-7.664
		c0-4.367,3.216-7.609,7.529-7.609c4.073,0,7.074,2.867,7.476,7.182l-10.637,1.982c0.696,2.33,2.25,3.912,4.072,3.912
		C529.928,67.193,531.75,65.906,532.662,64.086z M523.846,60.656v0.268l6.243-0.857c-0.241-2.277-1.581-3.805-3.322-3.805
		C524.945,56.262,523.846,57.895,523.846,60.656z"/>
	<path class="st2" d="M552.032,69.311c-1.259,0-3.402-0.055-4.608-0.107c0-9.486-0.75-12.941-2.813-12.941
		c-1.152,0-2.411,1.045-3.269,2.625c-0.027,4.555-0.081,8.629-0.135,10.316c-1.125,0.053-2.84,0.107-4.34,0.107
		c-0.081-2.277-0.135-8.414-0.135-14.979c1.18,0,3.457,0.053,4.609,0.107v1.365c1.5-1.125,3.054-1.688,4.635-1.688
		C550.317,54.117,552.032,58.432,552.032,69.311z"/>
	<path class="st2" d="M563.961,66.256c0.83-1.18,1.822-2.385,3.027-3.564c2.09,2.252,5.037,4.207,7.181,4.207
		c1.286,0,2.492-0.697,2.492-2.037c0-4.072-11.441-4.77-11.441-10.234c0-2.922,3.242-5.869,7.824-5.869c2.6,0,5.439,0.939,7.422,2.6
		c-0.643,1.205-1.875,2.465-2.894,3.297c-2.197-2.064-4.367-3.672-6.27-3.672c-1.394,0-2.09,0.857-2.09,1.635
		c0,3.107,11.36,4.02,11.36,10.182c0,3.564-3.778,6.592-8.226,6.592C569.401,69.391,565.89,68.078,563.961,66.256z"/>
	<path class="st2" d="M581.743,61.969c0-4.342,3.59-7.852,7.984-7.852c4.233,0,7.557,3.27,7.557,7.422
		c0,4.342-3.591,7.852-7.985,7.852C585.065,69.391,581.743,66.121,581.743,61.969z M593.103,62.611c0-3.617-1.769-6.324-4.152-6.324
		c-1.903,0-3.028,1.715-3.028,4.609c0,3.617,1.769,6.324,4.153,6.324C591.978,67.221,593.103,65.506,593.103,62.611z"/>
	<path class="st2" d="M614.269,54.439c0,5.76-0.054,12.406-0.134,14.764c-1.394,0.08-2.947,0.107-4.341,0.107
		c-0.026-0.43-0.026-0.992-0.054-1.662c-1.527,1.152-3.135,1.742-4.77,1.742c-3.992,0-5.975-3.59-5.975-10.906
		c0-1.205,0.054-2.518,0.16-3.912c0.857-0.08,2.278-0.107,4.609-0.107c-0.107,1.797-0.161,3.377-0.161,4.77
		c0,5.52,0.857,8.012,2.68,8.012c1.206,0,2.545-1.098,3.43-2.732c-0.027-2.84-0.054-6.484-0.054-10.182
		C611.108,54.332,613.117,54.385,614.269,54.439z"/>
	<path class="st2" d="M630.818,59.691c-1.42,0.455-2.894,0.83-4.18,1.045c0-2.412-1.046-4.475-2.251-4.475
		c-0.965,0-2.305,1.34-3.028,3.055c-0.026,4.555-0.08,8.332-0.134,9.994c-1.259,0-2.974-0.055-4.34-0.107
		c-0.081-2.145-0.135-8.387-0.135-14.764c1.18-0.055,3.457-0.107,4.608-0.107v1.555c1.367-1.1,2.921-1.77,4.314-1.77
		C628.379,54.117,630.603,56.529,630.818,59.691z"/>
	<path class="st2" d="M632.225,61.807c0-4.18,3.671-7.689,8.092-7.689c2.305,0,4.528,0.965,6.646,2.895l-2.546,2.787
		c-1.152-2.117-3.081-3.537-4.796-3.537c-1.876,0-3.081,1.688-3.081,4.34c0,3.59,2.116,6.592,4.662,6.592
		c1.474,0,3.027-0.992,3.992-2.572l1.635,1.607c-2.063,2.063-4.422,3.162-6.807,3.162C635.789,69.391,632.225,65.906,632.225,61.807
		z"/>
	<path class="st2" d="M660.542,64.086l1.902,1.607c-1.742,2.357-4.314,3.697-7.101,3.697c-4.367,0-7.637-3.27-7.637-7.664
		c0-4.367,3.216-7.609,7.529-7.609c4.073,0,7.074,2.867,7.476,7.182l-10.638,1.982c0.697,2.33,2.251,3.912,4.073,3.912
		C657.809,67.193,659.631,65.906,660.542,64.086z M651.727,60.656v0.268l6.243-0.857c-0.241-2.277-1.581-3.805-3.323-3.805
		C652.826,56.262,651.727,57.895,651.727,60.656z"/>
	<path class="st3" d="M674.506,67.809l0.563-2.09c3.054,1.072,4.34,1.42,5.251,1.42c2.225,0,2.975-2.035,2.975-10.689
		c0-2.305-0.054-4.689-0.107-7.342c1.795-0.107,3.563-0.162,5.359-0.162c0.026,1.555,0.053,3.029,0.053,4.717
		c0,12.754-1.554,15.729-7.153,15.729C679.008,69.391,676.543,68.828,674.506,67.809z"/>
	<path class="st3" d="M701.213,69.311c0-0.59,0-1.152-0.026-1.689c-1.849,1.18-3.671,1.77-5.493,1.77
		c-3.055,0-5.145-1.635-5.145-4.02c0-3.242,3.858-6.002,9.352-6.752c-0.644-1.582-1.527-2.357-2.652-2.357
		c-1.367,0-3.698,1.125-5.896,2.813l-0.804-2.68c2.626-1.5,5.198-2.277,7.557-2.277c5.546,0,7.717,4.234,7.717,15.086
		C705.125,69.256,703.223,69.311,701.213,69.311z M701.106,65.318c-0.106-1.902-0.321-3.484-0.616-4.797
		c-2.76,0.535-5.52,2.787-5.52,4.662c0,1.098,0.938,1.795,2.412,1.795C698.668,66.979,699.874,66.443,701.106,65.318z"/>
	<path class="st3" d="M722.167,61.539c0,4.367-2.706,7.852-6.108,7.852c-1.045,0-2.171-0.322-3.296-0.912
		c-0.027,1.662-0.027,3.055-0.054,3.912c-1.34,0-3.216-0.053-4.341-0.107c-0.054-2.813-0.134-12.217-0.134-17.844
		c1.152-0.055,3.35-0.107,4.608-0.107v0.885c1.072-0.725,2.197-1.1,3.376-1.1C719.623,54.117,722.167,57.279,722.167,61.539z
		 M718.122,62.396c0-3.482-1.34-6.082-3.135-6.082c-0.777,0-1.527,0.482-2.144,1.313c-0.026,2.465-0.026,5.199-0.054,7.691
		c0.59,1.205,1.581,1.928,2.653,1.928C717.13,67.246,718.122,65.451,718.122,62.396z"/>
	<path class="st3" d="M734.477,69.311c0-0.59,0-1.152-0.026-1.689c-1.849,1.18-3.671,1.77-5.493,1.77
		c-3.055,0-5.145-1.635-5.145-4.02c0-3.242,3.858-6.002,9.352-6.752c-0.644-1.582-1.527-2.357-2.652-2.357
		c-1.367,0-3.698,1.125-5.896,2.813l-0.804-2.68c2.626-1.5,5.198-2.277,7.557-2.277c5.546,0,7.717,4.234,7.717,15.086
		C738.389,69.256,736.487,69.311,734.477,69.311z M734.37,65.318c-0.106-1.902-0.321-3.484-0.616-4.797
		c-2.76,0.535-5.52,2.787-5.52,4.662c0,1.098,0.938,1.795,2.412,1.795C731.932,66.979,733.137,66.443,734.37,65.318z"/>
	<path class="st3" d="M756.538,69.311c-1.26,0-3.403-0.055-4.608-0.107c0-9.486-0.751-12.941-2.813-12.941
		c-1.152,0-2.412,1.045-3.27,2.625c-0.026,4.555-0.08,8.629-0.134,10.316c-1.125,0.053-2.84,0.107-4.341,0.107
		c-0.08-2.277-0.134-8.414-0.134-14.979c1.179,0,3.457,0.053,4.608,0.107v1.365c1.501-1.125,3.055-1.688,4.636-1.688
		C754.823,54.117,756.538,58.432,756.538,69.311z"/>
	<path class="st3" d="M771.018,64.086l1.902,1.607c-1.742,2.357-4.314,3.697-7.101,3.697c-4.368,0-7.637-3.27-7.637-7.664
		c0-4.367,3.216-7.609,7.529-7.609c4.073,0,7.074,2.867,7.476,7.182l-10.638,1.982c0.697,2.33,2.251,3.912,4.073,3.912
		C768.285,67.193,770.107,65.906,771.018,64.086z M762.203,60.656v0.268l6.243-0.857c-0.241-2.277-1.581-3.805-3.323-3.805
		C763.301,56.262,762.203,57.895,762.203,60.656z"/>
	<path class="st3" d="M774.457,68.158l1.179-3.242c2.01,1.205,5.038,2.277,6.779,2.277c1.527,0,2.224-0.83,2.224-1.635
		c0-3.055-9.779-2.357-9.779-6.887c0-2.385,2.706-4.555,7.047-4.555c2.357,0,4.876,0.643,6.886,1.742l-1.5,2.545
		c-1.983-1.232-3.832-2.143-5.467-2.143c-1.58,0-2.411,0.83-2.411,1.553c0,2.492,9.78,1.314,9.78,6.592
		c0,2.895-2.975,4.984-7.074,4.984C779.922,69.391,776.546,68.801,774.457,68.158z"/>
	<path class="st3" d="M803.454,64.086l1.902,1.607c-1.742,2.357-4.314,3.697-7.101,3.697c-4.368,0-7.637-3.27-7.637-7.664
		c0-4.367,3.216-7.609,7.529-7.609c4.073,0,7.074,2.867,7.476,7.182l-10.638,1.982c0.697,2.33,2.251,3.912,4.073,3.912
		C800.72,67.193,802.542,65.906,803.454,64.086z M794.638,60.656v0.268l6.243-0.857c-0.241-2.277-1.581-3.805-3.323-3.805
		C795.737,56.262,794.638,57.895,794.638,60.656z"/>
	<path class="st2" d="M823.528,51.143l0.161,5.734l8.601-0.027l-0.188,2.6l-8.359-0.482c0.08,3.564,0.106,7.021,0.106,10.316
		l-5.358-0.053c0-4.287,0.16-17.311,0.241-20.07c4.876,0,11.388-0.133,13.96-0.268l-0.054,2.438L823.528,51.143z"/>
	<path class="st2" d="M833.617,61.969c0-4.342,3.591-7.852,7.985-7.852c4.233,0,7.556,3.27,7.556,7.422
		c0,4.342-3.591,7.852-7.985,7.852C836.939,69.391,833.617,66.121,833.617,61.969z M844.978,62.611c0-3.617-1.769-6.324-4.153-6.324
		c-1.902,0-3.028,1.715-3.028,4.609c0,3.617,1.769,6.324,4.153,6.324C843.852,67.221,844.978,65.506,844.978,62.611z"/>
	<path class="st2" d="M866.467,69.311c-1.26,0-3.403-0.055-4.608-0.107c0-9.486-0.751-12.941-2.813-12.941
		c-1.152,0-2.412,1.045-3.27,2.625c-0.026,4.555-0.08,8.629-0.134,10.316c-1.125,0.053-2.84,0.107-4.341,0.107
		c-0.08-2.277-0.134-8.414-0.134-14.979c1.179,0,3.457,0.053,4.608,0.107v1.365c1.501-1.125,3.055-1.688,4.636-1.688
		C864.752,54.117,866.467,58.432,866.467,69.311z"/>
	<path class="st2" d="M877.844,56.502l-2.92,0.027c-0.027,5.6-0.08,11.146-0.107,12.674c-1.206,0.08-2.706,0.107-4.341,0.107
		c-0.026-1.502-0.08-7.047-0.107-12.781l-2.92,0.027l-0.161-2.467l3.055,0.027v-5.145c1.313,0,3.322,0.055,4.608,0.107v5.037
		l3.055,0.027L877.844,56.502z"/>
</g>
<g>
	<path class="st3" d="M53.66,167.438c0-6.543-0.038-10.635-0.191-15.303c-2.18,5.623-5.432,10.52-9.793,14.689
		c-2.448-1.453-4.857-3.098-7.115-4.896c4.974-3.863,8.799-8.377,11.553-13.617c1.951,0.65,3.749,1.301,5.317,1.912l-0.191-4.361
		c-4.743,0.191-9.257,0.268-13.503,0.268h-2.41l0.268-3.9c4.667,0.344,10.29,0.572,13.695,0.572c0.727,0,1.339,0,1.836-0.037
		c-0.077-1.875-0.268-5.471-0.345-6.541c0.766-0.078,3.635-0.154,5.662-0.154c0.803,0,1.453,0,1.798,0.039
		c0.152,2.027,0.268,4.666,0.306,6.197c2.219-0.23,3.94-0.459,5.471-0.766l0.421,3.863c-2.372,0.152-4.17,0.23-5.776,0.268
		c0.114,2.678,0.152,5.586,0.152,8.492c0,4.936-0.152,9.793-0.382,13.352h-1.989C56.567,167.514,54.655,167.475,53.66,167.438z"/>
	<path class="st3" d="M81.192,154.01c-6.235,0-9.984,0.115-14.154,0.459l-0.383-4.322c7.384-0.957,12.815-1.377,17.903-1.377
		c3.061,0,6.35,0.152,10.137,0.459l-0.19,5.279C92.324,154.162,88.116,154.01,81.192,154.01z"/>
	<path class="st3" d="M99.642,163.191c8.11-6.619,12.815-12.74,15.34-19.969c-6.886-0.039-14.995,0.611-20.466,1.684l-0.268-4.82
		c4.361-0.191,8.492-0.307,12.471-0.307c5.661,0,10.979,0.23,16.143,0.65c-0.803,4.094-1.032,5.164-1.3,6.121
		c-3.252,0-5.317,2.602-5.317,5.547c0,1.301,0.382,2.678,1.262,3.939c-2.754,4.82-5.737,8.836-9.027,12.127
		C105.572,166.863,102.587,165.18,99.642,163.191z M117.392,152.098c0-2.678,1.874-4.553,4.514-4.553
		c2.678,0,4.667,1.988,4.667,4.666c0,2.525-1.76,4.246-4.514,4.246C119.266,156.457,117.392,154.699,117.392,152.098z
		 M123.322,151.18c0-1.188-0.536-2.182-1.109-2.182c-0.766,0-1.492,1.799-1.492,3.75c0,1.07,0.573,2.064,1.224,2.064
		C122.748,154.813,123.322,153.283,123.322,151.18z"/>
	<path class="st3" d="M126.378,139.359c4.667,0.152,9.487,0.65,13.045,1.338l-0.536,4.744c-1.989-0.076-4.093-0.076-6.273-0.076
		c-2.143,0-4.284,0-6.389,0.076L126.378,139.359z M127.947,160.857c9.296-5.51,16.794-11.438,22.379-17.635l3.863,2.982
		c-5.814,9.334-12.547,16.488-20.313,21.576C131.696,165.523,129.745,163.229,127.947,160.857z"/>
	<path class="st3" d="M155.1,140.621c2.143-0.65,4.629-1.186,7.688-1.684c0.65,3.902,1.569,7.957,2.678,12.242l-5.814,1.797
		C157.51,148.922,155.98,144.752,155.1,140.621z M161.794,164.873c8.722-10.787,11.132-15.607,13.465-26.969
		c2.908,0.805,5.815,1.645,8.685,2.525c-2.258,10.672-7.995,20.848-15.531,27.504L161.794,164.873z"/>
	<path class="st3" d="M199.138,154.01c-6.235,0-9.984,0.115-14.153,0.459l-0.383-4.322c7.383-0.957,12.814-1.377,17.902-1.377
		c3.061,0,6.351,0.152,10.138,0.459l-0.191,5.279C210.27,154.162,206.062,154.01,199.138,154.01z"/>
	<path class="st3" d="M229.352,156.457c-3.442,4.209-7.345,8.188-11.629,11.898c-2.678-2.373-4.743-4.477-6.389-6.428
		c9.755-7.65,16.105-14.191,18.783-19.318c-5.394,0.115-12.662,0.766-16.373,1.455l-0.306-4.592c2.64-0.152,5.279-0.229,7.957-0.229
		c6.006,0,11.858,0.383,16.908,1.109c-1.951,5.012-4.056,9.104-6.427,12.355c3.672,3.672,7,7.881,10.061,12.701l-5.968,3.365
		C234.478,165.027,232.259,160.934,229.352,156.457z"/>
	<path class="st2" d="M256.268,167.246c1.721-5.586,3.251-13.467,3.251-16.756c0-3.098-1.339-4.398-4.628-4.398
		c-0.995,6.848-1.837,13.885-2.372,19.814c-3.061-0.42-5.317-0.611-7.23-0.65c0.612-4.17,2.563-14.957,3.252-17.979
		c-1.913,0.688-3.94,1.492-5.968,2.371l-0.842-3.174c2.219-0.805,5.624-1.838,7.574-2.297c0.421-2.104,0.995-4.705,1.913-8.797
		c1.836,0.191,3.634,0.305,5.394,0.344c-0.535,1.951-1.032,4.744-1.339,7.459c0.497-0.076,0.957-0.115,1.568-0.115
		c6.197,0,9.525,3.787,9.525,10.826c0,3.52-0.804,7.996-2.563,14.002C259.443,167.475,258.41,167.398,256.268,167.246z
		 M267.821,143.643c2.142-0.42,3.672-0.766,5.47-1.225c1.646,5.701,2.448,10.674,2.831,17.674c-2.065,0.152-3.902,0.344-6.273,0.65
		C269.121,151.523,268.662,147.66,267.821,143.643z"/>
	<path class="st2" d="M277.736,163.42c1.989-7.152,4.055-13.197,6.159-17.979c-0.919,0.037-2.563,0.229-4.208,0.496l-0.229-3.404
		c1.53-0.229,3.71-0.496,5.967-0.727c1.301-2.754,2.487-5.049,3.673-7.191c2.219,0.268,4.132,0.766,5.93,1.529
		c-1.109,2.525-1.646,3.865-2.066,5.164c1.798-0.113,7.422-0.229,11.477-0.229l0.268,3.672c-1.453-0.076-4.399-0.152-6.427-0.152
		s-4.284,0.076-6.656,0.191c-2.41,6.234-5.011,14.613-6.694,21.422C279.687,164.223,279.418,164.109,277.736,163.42z
		 M288.255,162.732c0-4.17,3.443-6.848,8.799-6.887c-0.115-3.137-0.383-6.504-0.65-8.072c5.202,0,10.864,0.115,13.197,0.27
		l-0.114,3.404c-2.602-0.422-4.591-0.689-6.886-1.033c0.114,1.262,0.229,3.443,0.344,6.465c2.372,0.727,4.82,2.18,7.345,4.322
		l-1.683,3.863c-2.219-2.104-4.017-3.557-5.547-4.438c0,1.951-0.153,4.514-0.498,7.537c-1.95,0.344-3.634,0.496-5.316,0.496
		C291.24,168.66,288.255,166.672,288.255,162.732z M297.092,159.098c-2.027,0-3.175,1.338-3.175,3.635
		c0,2.295,1.147,3.748,3.099,4.016L297.092,159.098z"/>
	<path class="st2" d="M334.221,155.08c3.176,2.602,6.886,5.434,11.132,8.416l-7.153,6.16c-2.907-2.258-6.082-5.203-9.181-8.416
		c-3.52,3.711-7.269,6.809-10.29,8.186l-6.848-4.666c4.323-1.836,8.913-4.783,12.968-8.148c-3.672-4.246-6.886-8.607-9.027-12.318
		l-4.361-0.076l0.153-2.869l13.694-0.229l-0.382-6.695l7.345,0.229l-0.345,6.352l13.657-0.23l0.152,4.018l-5.432-0.076
		C339.118,147.813,336.899,151.484,334.221,155.08z M323.396,144.408c1.76,2.256,4.017,4.629,6.771,7.152
		c2.181-2.332,3.979-4.705,5.203-6.961L323.396,144.408z"/>
	<path class="st2" d="M354.581,149.916l-6.618,0.039l0.421-10.176l13.273,0.039l-0.191-5.586l7.881,0.115l-0.191,5.471l13.274,0.037
		l0.421,10.367l-6.58-0.268l0.191-7.307l-22.11-0.344L354.581,149.916z M368.849,156.496l13.389,0.191l-0.268,2.639l-12.969,0.191
		c0.077,3.176,0.153,6.771,0.153,10.33l-14.384-1.492l0.229-2.449l6.313-0.076c0.114-1.492,0.191-3.711,0.306-6.197l-12.776,0.191
		l-0.229-3.596l13.121,0.191c0.038-1.34,0.038-2.678,0.076-3.979l1.415-0.076c1.263-1.377,2.831-3.328,3.597-4.553l-11.094,0.803
		l0.152-3.328h19.089l0.115,1.76c-0.88,1.531-3.176,4.133-6.351,7.154L368.849,156.496z"/>
	<path class="st3" d="M390.064,163.229c8.685-7.268,13.121-12.967,15.569-19.969c-6.273-0.037-14.498,0.613-20.771,1.684
		l-0.268-4.82c5.088-0.229,9.41-0.344,13.427-0.344c5.509,0,10.367,0.23,15.646,0.689c-1.684,10.52-6.618,19.854-14.613,27.732
		C396.109,166.939,393.086,165.256,390.064,163.229z"/>
	<path class="st3" d="M427.417,169.961c0-5.24-0.038-8.529-0.153-12.24c-1.76,4.475-4.36,8.416-7.842,11.744
		c-1.951-1.186-3.902-2.486-5.7-3.941c3.979-3.061,7.039-6.693,9.258-10.863c1.53,0.498,2.983,1.033,4.246,1.529l-0.153-3.52
		c-3.787,0.154-7.421,0.23-10.825,0.23h-1.913l0.229-3.137c3.711,0.307,8.225,0.459,10.94,0.459h1.454
		c-0.038-1.529-0.191-4.398-0.268-5.24c0.611-0.076,2.907-0.115,4.552-0.115h1.415c0.115,1.645,0.23,3.748,0.269,4.973
		c1.76-0.191,3.137-0.383,4.36-0.611l0.345,3.098c-1.913,0.115-3.328,0.191-4.629,0.191c0.076,2.143,0.115,4.477,0.115,6.809
		c0,3.941-0.115,7.844-0.307,10.674h-1.568C429.711,170,428.181,169.961,427.417,169.961z"/>
	<path class="st3" d="M437.639,139.359c4.667,0.152,9.487,0.65,13.045,1.338l-0.536,4.744c-1.989-0.076-4.093-0.076-6.273-0.076
		c-2.143,0-4.284,0-6.389,0.076L437.639,139.359z M439.208,160.857c9.296-5.51,16.794-11.438,22.379-17.635l3.863,2.982
		c-5.814,9.334-12.547,16.488-20.313,21.576C442.957,165.523,441.005,163.229,439.208,160.857z"/>
	<path class="st3" d="M467.068,136.758c3.214-0.154,6.504-0.268,8.99-0.307c0.229,3.48,0.382,7.918,0.459,12.93l2.41-2.717
		c3.901,2.066,7.153,4.285,9.524,6.504l-3.939,4.438c-1.951-1.836-5.509-4.514-7.995-5.967c0,4.59-0.038,9.18-0.115,16.563
		c-2.333,0-6.503-0.076-7.918-0.152C468.484,155.846,468.025,145.402,467.068,136.758z"/>
	<path class="st1" d="M545.445,168.465c0-14.535-0.085-23.631-0.425-34.002c-4.846,12.496-12.071,23.377-21.762,32.643
		c-5.44-3.23-10.796-6.887-15.812-10.881c11.051-8.586,19.552-18.617,25.672-30.262c4.336,1.443,8.331,2.889,11.816,4.25
		l-0.425-9.691c-10.541,0.426-20.572,0.596-30.008,0.596h-5.355l0.595-8.672c10.371,0.766,22.867,1.275,30.433,1.275
		c1.615,0,2.976,0,4.08-0.084c-0.17-4.166-0.595-12.156-0.765-14.537c1.7-0.17,8.075-0.34,12.581-0.34c1.785,0,3.23,0,3.995,0.086
		c0.34,4.504,0.596,10.369,0.681,13.77c4.93-0.51,8.755-1.02,12.155-1.699l0.936,8.586c-5.271,0.34-9.266,0.51-12.836,0.594
		c0.255,5.951,0.34,12.412,0.34,18.873c0,10.965-0.34,21.762-0.851,29.666h-4.42C551.906,168.635,547.655,168.551,545.445,168.465z"
		/>
	<path class="st1" d="M580.376,151.209c0-5.781,2.125-10.625,7.82-18.447l-8.586,0.936c-1.444-9.52-2.295-20.656-2.295-31.623
		c4.591-0.85,10.116-1.359,17.087-1.613c-0.766,5.695-1.445,17.85-1.445,26.266c7.141-6.289,16.406-12.92,27.542-19.721
		c3.995,3.994,7.565,8.5,10.541,13.176c-26.438,13.686-37.828,23.803-37.828,33.492c0,5.525,3.655,8.502,10.456,8.502
		c6.12,0,17.426-2.297,26.012-5.355l1.955,8.244c-9.011,2.637-19.126,4.166-26.947,4.166
		C589.047,169.23,580.376,162.855,580.376,151.209z"/>
	<path class="st1" d="M689.775,148.064c-4.251-1.105-10.371-3.23-14.281-4.762c4.505,6.035,8.671,12.326,11.051,17.002l-19.127,8.67
		c-4.335-10.369-11.73-23.035-18.361-31.707l13.432-9.266c3.229,3.061,7.311,7.906,11.306,13.006
		c7.65-8.076,14.026-16.32,17.597-22.781c-5.016-0.596-9.861-0.85-14.536-0.85c-12.666,0-25.332,1.869-42.079,6.119l-1.7-9.436
		c20.232-2.295,35.023-3.314,48.369-3.314c9.69,0,18.616,0.51,28.223,1.699C706.606,122.902,698.956,136.502,689.775,148.064z"/>
	<path class="st1" d="M763.376,166.766c0.68-6.547,1.02-12.496,1.02-17.768c0-23.461-6.63-34.598-20.571-34.598
		c-13.176,0-21.847,9.947-21.847,25.078c0,10.115,3.74,17.512,8.926,17.512c4.42,0,7.226-5.355,7.226-13.602
		c0-5.611-1.275-12.922-3.995-22.271c3.399-0.766,7.226-1.191,10.881-1.191c1.614,0,3.229,0.086,4.76,0.256
		c0.936,5.27,1.445,10.115,1.445,14.451c0,18.275-8.671,29.412-22.867,29.412c-12.496,0-19.892-8.756-19.892-23.547
		c0-20.146,13.687-32.217,36.554-32.217c24.057,0,35.617,13.346,35.617,41.143c0,5.355-0.425,11.391-1.36,18.277
		C772.812,167.701,766.521,167.359,763.376,166.766z"/>
	<path class="st1" d="M811.331,125.197c-9.436,10.371-16.151,18.275-20.571,23.971l-8.076-9.35
		c8.841-8.586,20.487-19.297,31.453-29.158c19.552,12.496,33.662,22.188,49.304,33.918c-2.976,5.102-7.396,10.797-12.666,16.576
		C833.773,144.664,821.362,133.443,811.331,125.197z M836.748,115.422c0-5.525,4.421-9.266,10.881-9.266
		c6.291,0,10.456,3.57,10.456,9.096c0,5.609-4.08,9.096-10.541,9.096C840.999,124.348,836.748,120.777,836.748,115.422z
		 M850.094,115.336c0-3.314-0.936-5.609-2.296-5.609c-1.529,0-3.06,3.145-3.06,6.459c0,2.721,1.02,4.506,2.635,4.506
		C849.074,120.691,850.094,118.652,850.094,115.336z"/>
</g>
<g>
	<path class="st2" d="M95.774,249.27c10.208-5.965,14.324-9.703,14.324-12.938c0-2.605-2.646-4.285-6.679-4.285
		c-3.99,0-11.006,1.639-19.953,4.705l-0.967-4.789c7.058-1.848,16.047-3.234,21.13-3.234c8.653,0,14.577,3.99,14.577,9.871
		c0,5.965-6.218,13.107-15.249,17.434C100.605,254.311,98.211,252.043,95.774,249.27z"/>
	<path class="st2" d="M135.843,255.277c1.891-6.133,3.571-14.787,3.571-18.4c0-3.402-1.471-4.83-5.083-4.83
		c-1.093,7.52-2.017,15.248-2.604,21.76c-3.361-0.461-5.84-0.672-7.939-0.715c0.672-4.578,2.814-16.424,3.57-19.742
		c-2.101,0.756-4.327,1.639-6.553,2.604l-0.925-3.486c2.437-0.883,6.176-2.016,8.317-2.52c0.462-2.311,1.093-5.168,2.101-9.662
		c2.017,0.209,3.991,0.336,5.924,0.377c-0.589,2.143-1.135,5.209-1.471,8.191c0.546-0.084,1.05-0.125,1.723-0.125
		c6.805,0,10.46,4.158,10.46,11.889c0,3.863-0.883,8.779-2.815,15.375C139.33,255.529,138.195,255.445,135.843,255.277z
		 M148.529,229.359c2.353-0.463,4.033-0.842,6.007-1.346c1.807,6.26,2.688,11.721,3.109,19.408c-2.269,0.168-4.285,0.377-6.89,0.715
		C149.958,238.012,149.453,233.77,148.529,229.359z"/>
	<path class="st2" d="M177.087,248.305c0-1.01,0.084-2.143,0.252-3.361c-3.234,0-4.747,1.975-9.031,11.93
		c-2.269-0.672-4.537-1.512-8.57-3.107c6.218-10.418,10.586-15.711,16.426-19.787c-5.167,0.336-10.208,1.051-15.039,2.143
		l-0.462-4.326c6.217-0.336,18.021-0.588,25.834-0.588l0.421,3.906c-3.151,0.588-6.554,2.898-10.25,6.973
		c2.059-0.041,4.957,0.127,6.721,0.422c0,5.334,1.513,7.561,5.167,7.561c0.84,0,2.311-0.084,3.571-0.211
		c0,2.059-0.169,5.252-0.337,6.932c-1.806,0.252-3.444,0.379-4.872,0.379C180.195,257.168,177.087,254.354,177.087,248.305z
		 M172.13,219.318c1.261-0.168,4.579-0.293,7.646-0.293c0.504,3.15,0.84,6.637,0.924,9.996c-0.798,0-4.494,0.086-6.385,0.17
		C173.937,226.545,173.264,223.477,172.13,219.318z"/>
	<path class="st2" d="M197.203,250.867c0-3.865,3.612-6.932,8.107-6.932c3.234,0,5.671,1.555,6.679,4.201
		c0.799-1.094,1.177-2.311,1.177-3.445c0-3.445-3.192-6.637-7.646-6.637c-3.276,0-5.671,1.721-8.233,5.881l-6.848-4.201
		c5.419-6.344,11.301-11.973,15.207-14.576c-3.108,0.42-6.091,0.924-9.788,1.639l-0.21-4.748c4.789-0.377,10.208-0.629,14.157-0.629
		c1.554,0,2.898,0.041,3.864,0.125l0.168,3.277c-3.36,1.975-7.31,5.797-10.166,9.914c1.471-0.379,2.898-0.547,4.285-0.547
		c6.679,0,11.888,4.242,11.888,10.459c0,6.723-6.049,11.637-14.366,11.637C200.186,256.285,197.203,254.311,197.203,250.867z
		 M207.369,249.9c0-1.764-0.841-3.109-2.017-3.109c-1.218,0-2.143,1.43-2.143,3.486c0,1.723,0.967,3.109,2.185,3.109
		C206.57,253.387,207.369,252,207.369,249.9z"/>
	<path class="st1" d="M248.278,241.918c3.486,2.857,7.562,5.967,12.225,9.242l-7.855,6.764c-3.192-2.479-6.68-5.713-10.082-9.242
		c-3.864,4.074-7.981,7.479-11.3,8.99l-7.52-5.125c4.747-2.018,9.788-5.252,14.24-8.947c-4.032-4.664-7.562-9.453-9.913-13.527
		l-4.789-0.084l0.168-3.15l15.038-0.252l-0.42-7.352l8.065,0.252l-0.378,6.975l14.997-0.254l0.168,4.412l-5.965-0.084
		C253.655,233.938,251.219,237.971,248.278,241.918z M236.391,230.199c1.932,2.479,4.41,5.082,7.435,7.855
		c2.395-2.563,4.369-5.168,5.714-7.646L236.391,230.199z"/>
	<path class="st1" d="M272.215,236.248l-7.267,0.041l0.462-11.174l14.576,0.043l-0.21-6.133l8.653,0.125l-0.21,6.008l14.577,0.041
		l0.462,11.385l-7.226-0.295l0.21-8.023l-24.28-0.377L272.215,236.248z M287.884,243.473l14.703,0.211l-0.294,2.898l-14.241,0.209
		c0.084,3.486,0.168,7.436,0.168,11.342l-15.795-1.637l0.253-2.689l6.931-0.084c0.126-1.639,0.21-4.074,0.336-6.805l-14.03,0.209
		l-0.252-3.947l14.408,0.209c0.042-1.471,0.042-2.939,0.084-4.369l1.555-0.084c1.386-1.512,3.108-3.654,3.948-4.998l-12.182,0.883
		l0.168-3.656h20.962l0.126,1.934c-0.967,1.68-3.487,4.537-6.974,7.855L287.884,243.473z"/>
	<path class="st2" d="M307.2,254.73c0.252-2.604,0.42-5.754,0.504-8.316c2.646,0,5.545,0.252,7.688,0.629
		c-0.336,3.234-0.672,5.756-1.093,8.107C311.947,254.941,309.595,254.773,307.2,254.73z M307.284,222.805
		c2.101-0.336,5.419-0.588,7.771-0.588c0.21,4.328,0.252,6.428,0.252,8.234c-2.185,0.125-4.327,0.293-7.268,0.629
		C307.746,227.721,307.536,225.158,307.284,222.805z"/>
	<path class="st2" d="M90.689,307.826c0.588-1.597,0.924-3.193,1.092-4.831c-1.512,1.05-2.772,2.185-3.781,3.402l-2.562-4.285
		c1.47-0.252,3.108-0.714,4.915-1.428c-1.765-0.798-3.361-1.302-4.873-1.596l2.604-4.285c0.924,1.176,2.143,2.353,3.697,3.57
		c-0.168-1.764-0.546-3.444-1.092-4.999h4.999c-0.588,1.554-0.966,3.234-1.218,4.915c1.512-1.092,2.814-2.268,3.781-3.486
		l2.604,4.243c-1.681,0.294-3.361,0.84-5.041,1.638c1.806,0.714,3.444,1.176,5.041,1.428l-2.562,4.285
		c-1.008-1.176-2.269-2.31-3.823-3.402c0.252,1.638,0.63,3.234,1.218,4.831H90.689z"/>
	<path class="st3" d="M143.736,316.983c-0.588-2.394-1.26-4.915-1.974-7.435c-2.479,0.294-4.999,0.462-7.771,0.462
		c-1.428,0-3.024-0.042-4.621-0.126c-0.588,2.185-1.218,4.453-1.849,6.847l-5.041-0.336c3.109-10.586,7.058-21.55,11.426-31.758
		c2.058-0.21,4.705-0.42,7.393-0.42c3.403,8.317,7.352,19.365,11.426,31.926C149.45,316.731,146.677,316.983,143.736,316.983z
		 M140.796,306.061c-1.848-6.721-3.823-13.148-5.167-16.929c-1.176,3.192-2.982,8.989-5.125,16.593
		c2.227,0.252,4.579,0.378,7.31,0.378C138.822,306.103,139.872,306.103,140.796,306.061z"/>
	<path class="st3" d="M150.411,293.711c3.361-0.504,6.217-0.798,8.233-0.924c1.597,6.049,3.781,12.645,6.26,18.987
		c2.52-6.175,4.704-12.77,6.259-18.819l4.453,0.588c-2.899,8.107-6.092,16.047-9.284,23.062c-2.143,0.21-4.579,0.336-6.637,0.336
		C156.502,309.548,153.142,301.147,150.411,293.711z"/>
	<path class="st3" d="M194.011,316.647c0-0.924,0-1.806-0.042-2.646c-2.898,1.848-5.755,2.772-8.612,2.772
		c-4.788,0-8.065-2.562-8.065-6.301c0-5.083,6.05-9.41,14.661-10.585c-1.008-2.479-2.395-3.697-4.159-3.697
		c-2.142,0-5.797,1.764-9.241,4.411l-1.261-4.201c4.117-2.353,8.149-3.571,11.847-3.571c8.695,0,12.098,6.637,12.098,23.65
		C200.144,316.563,197.161,316.647,194.011,316.647z M193.843,310.388c-0.168-2.982-0.505-5.461-0.967-7.519
		c-4.326,0.84-8.653,4.369-8.653,7.309c0,1.723,1.471,2.814,3.78,2.814C190.02,312.993,191.91,312.153,193.843,310.388z"/>
	<path class="st3" d="M204.591,293.585c2.521,0,5.629,0.084,7.225,0.168c0,8.191-0.084,18.819-0.21,22.726
		c-2.562,0.126-4.998,0.168-6.805,0.168C204.675,312.951,204.591,303.457,204.591,293.585z M204.633,290.308v-5.671h7.141v5.671
		H204.633z"/>
	<path class="st3" d="M223.491,293.753c0,13.316,1.093,18.861,3.865,20.29l-2.94,3.361c-6.007-0.714-7.981-6.091-7.981-21.466
		c0-3.193,0.084-7.1,0.21-11.006c1.638-0.126,3.78-0.168,7.015-0.168C223.533,287.956,223.491,291.149,223.491,293.753z"/>
	<path class="st3" d="M245.753,316.647c0-0.924,0-1.806-0.042-2.646c-2.898,1.848-5.755,2.772-8.612,2.772
		c-4.788,0-8.065-2.562-8.065-6.301c0-5.083,6.05-9.41,14.661-10.585c-1.008-2.479-2.395-3.697-4.159-3.697
		c-2.142,0-5.797,1.764-9.241,4.411l-1.261-4.201c4.117-2.353,8.149-3.571,11.847-3.571c8.695,0,12.098,6.637,12.098,23.65
		C251.886,316.563,248.903,316.647,245.753,316.647z M245.585,310.388c-0.168-2.982-0.505-5.461-0.967-7.519
		c-4.326,0.84-8.653,4.369-8.653,7.309c0,1.723,1.471,2.814,3.78,2.814C241.762,312.993,243.652,312.153,245.585,310.388z"/>
	<path class="st3" d="M278.177,304.465c0,6.847-4.243,12.308-9.578,12.308c-1.638,0-3.444-0.504-5.209-1.47
		c0,0.546-0.042,1.008-0.042,1.344c-2.437,0-5.167-0.084-6.805-0.168c-0.126-3.907-0.21-23.23-0.21-31.716
		c1.89,0,5.335,0.084,7.225,0.168v9.662c1.639-1.176,3.445-1.765,5.293-1.765C274.186,292.829,278.177,297.786,278.177,304.465z
		 M271.834,305.809c0-5.461-2.101-9.536-4.915-9.536c-1.219,0-2.395,0.756-3.403,2.1c0,4.243-0.042,8.528-0.084,11.972
		c0.967,1.891,2.479,3.067,4.201,3.067C270.279,313.413,271.834,310.598,271.834,305.809z"/>
	<path class="st3" d="M288.59,293.753c0,13.316,1.093,18.861,3.865,20.29l-2.94,3.361c-6.007-0.714-7.981-6.091-7.981-21.466
		c0-3.193,0.084-7.1,0.21-11.006c1.638-0.126,3.78-0.168,7.015-0.168C288.632,287.956,288.59,291.149,288.59,293.753z"/>
	<path class="st3" d="M314.254,308.456l2.982,2.521c-2.73,3.697-6.763,5.797-11.132,5.797c-6.848,0-11.973-5.125-11.973-12.014
		c0-6.847,5.041-11.93,11.805-11.93c6.385,0,11.09,4.495,11.72,11.258l-16.677,3.108c1.092,3.655,3.528,6.133,6.385,6.133
		C309.969,313.329,312.825,311.312,314.254,308.456z M300.434,303.079v0.42l9.787-1.344c-0.378-3.57-2.478-5.965-5.208-5.965
		C302.155,296.19,300.434,298.752,300.434,303.079z"/>
	<path class="st1" d="M357.598,316.983c-0.588-2.394-1.26-4.915-1.975-7.435c-2.479,0.294-4.998,0.462-7.771,0.462
		c-1.429,0-3.025-0.042-4.621-0.126c-0.588,2.185-1.219,4.453-1.849,6.847l-5.041-0.336c3.108-10.586,7.058-21.55,11.426-31.758
		c2.059-0.21,4.705-0.42,7.394-0.42c3.402,8.317,7.352,19.365,11.426,31.926C363.311,316.731,360.538,316.983,357.598,316.983z
		 M354.657,306.061c-1.849-6.721-3.822-13.148-5.167-16.929c-1.176,3.192-2.982,8.989-5.125,16.593
		c2.227,0.252,4.579,0.378,7.31,0.378C352.683,306.103,353.733,306.103,354.657,306.061z"/>
	<path class="st1" d="M388.637,284.931c0,8.528-0.126,29.111-0.21,31.716c-2.437,0-5.167-0.084-6.806-0.168
		c0-0.378-0.042-0.924-0.042-1.554c-1.723,1.218-3.57,1.848-5.461,1.848c-5.335,0-9.326-4.957-9.326-11.636
		c0-6.848,4.243-12.309,9.578-12.309c1.597,0,3.36,0.504,5.041,1.386v-9.452C383.302,284.764,386.746,284.848,388.637,284.931z
		 M381.537,311.102c-0.042-3.319-0.084-7.646-0.084-11.972c-0.966-1.848-2.437-2.94-4.117-2.94c-2.646,0-4.2,2.814-4.2,7.603
		c0,5.461,2.101,9.536,4.915,9.536C379.311,313.329,380.529,312.531,381.537,311.102z"/>
	<path class="st1" d="M391.991,305.138c0-6.806,5.63-12.309,12.519-12.309c6.638,0,11.847,5.125,11.847,11.636
		c0,6.805-5.63,12.308-12.519,12.308C397.2,316.773,391.991,311.648,391.991,305.138z M409.803,306.145
		c0-5.671-2.772-9.914-6.511-9.914c-2.982,0-4.747,2.688-4.747,7.225c0,5.671,2.772,9.914,6.511,9.914
		C408.038,313.371,409.803,310.682,409.803,306.145z"/>
	<path class="st1" d="M441.556,304.465c0,6.847-4.243,12.308-9.578,12.308c-1.638,0-3.444-0.504-5.209-1.47
		c0,0.546-0.042,1.008-0.042,1.344c-2.437,0-5.167-0.084-6.805-0.168c-0.126-3.907-0.21-23.23-0.21-31.716
		c1.89,0,5.335,0.084,7.225,0.168v9.662c1.639-1.176,3.445-1.765,5.293-1.765C437.564,292.829,441.556,297.786,441.556,304.465z
		 M435.213,305.809c0-5.461-2.101-9.536-4.915-9.536c-1.219,0-2.395,0.756-3.403,2.1c0,4.243-0.042,8.528-0.084,11.972
		c0.967,1.891,2.479,3.067,4.201,3.067C433.658,313.413,435.213,310.598,435.213,305.809z"/>
	<path class="st1" d="M464.193,308.456l2.982,2.521c-2.73,3.697-6.763,5.797-11.132,5.797c-6.848,0-11.972-5.125-11.972-12.014
		c0-6.847,5.041-11.93,11.804-11.93c6.385,0,11.09,4.495,11.72,11.258l-16.677,3.108c1.092,3.655,3.528,6.133,6.385,6.133
		C459.908,313.329,462.764,311.312,464.193,308.456z M450.373,303.079v0.42l9.787-1.344c-0.378-3.57-2.478-5.965-5.208-5.965
		C452.094,296.19,450.373,298.752,450.373,303.079z"/>
	<path class="st1" d="M522.827,284.722c-1.555,10.838-3.865,22.516-6.302,31.926l-6.133,0.252c-1.764-6.553-3.486-13.4-4.915-19.407
		c-1.512,6.007-3.36,12.476-5.545,19.407l-7.351-0.252c-2.604-9.494-4.789-20.583-6.302-31.589c3.024-0.546,6.049-0.84,8.864-0.84
		c0.882,9.452,2.184,19.702,3.192,25.331c2.479-10.922,4.074-19.828,4.452-24.49c2.353-0.252,4.705-0.42,6.638-0.42
		c0.63,4.327,2.101,10.964,5.461,24.911c1.765-9.032,3.192-19.87,3.402-25.163L522.827,284.722z"/>
	<path class="st1" d="M543.572,308.456l2.982,2.521c-2.73,3.697-6.763,5.797-11.132,5.797c-6.848,0-11.973-5.125-11.973-12.014
		c0-6.847,5.041-11.93,11.805-11.93c6.385,0,11.09,4.495,11.72,11.258l-16.677,3.108c1.092,3.655,3.528,6.133,6.385,6.133
		C539.287,313.329,542.143,311.312,543.572,308.456z M529.751,303.079v0.42l9.787-1.344c-0.378-3.57-2.478-5.965-5.208-5.965
		C531.473,296.19,529.751,298.752,529.751,303.079z"/>
	<path class="st1" d="M549.49,314.841l1.849-5.083c3.15,1.89,7.897,3.571,10.628,3.571c2.395,0,3.486-1.302,3.486-2.562
		c0-2.143-3.108-3.151-6.553-4.201c-4.159-1.26-8.779-2.688-8.779-6.595c0-3.739,4.242-7.142,11.048-7.142
		c3.696,0,7.646,1.008,10.796,2.73l-2.353,3.991c-3.108-1.932-6.007-3.36-8.569-3.36c-2.479,0-3.781,1.302-3.781,2.437
		c0,1.596,2.562,2.268,5.545,2.982c4.411,1.05,9.788,2.437,9.788,7.351c0,4.537-4.663,7.813-11.09,7.813
		C558.06,316.773,552.767,315.849,549.49,314.841z"/>
	<path class="st1" d="M590.653,292.787l-0.252,3.865h-4.579c0,8.78-0.084,17.433-0.168,19.828c-1.891,0.126-4.243,0.168-6.806,0.168
		c-0.084-2.353-0.168-11.006-0.168-19.996h-4.578l-0.253-3.865h4.789v-8.023c2.059,0,5.209,0.084,7.226,0.168v7.855H590.653z"/>
	<path class="st1" d="M611.191,308.456l2.982,2.521c-2.73,3.697-6.763,5.797-11.132,5.797c-6.848,0-11.973-5.125-11.973-12.014
		c0-6.847,5.041-11.93,11.805-11.93c6.385,0,11.09,4.495,11.72,11.258l-16.677,3.108c1.092,3.655,3.528,6.133,6.385,6.133
		C606.906,313.329,609.762,311.312,611.191,308.456z M597.371,303.079v0.42l9.787-1.344c-0.378-3.57-2.478-5.965-5.208-5.965
		C599.092,296.19,597.371,298.752,597.371,303.079z"/>
	<path class="st1" d="M639.164,301.567c-2.227,0.714-4.537,1.302-6.554,1.638c0-3.781-1.638-7.015-3.528-7.015
		c-1.513,0-3.612,2.1-4.747,4.789c-0.042,7.142-0.126,13.064-0.21,15.669c-1.975,0-4.663-0.084-6.805-0.168
		c-0.126-3.361-0.211-13.148-0.211-23.146c1.849-0.084,5.419-0.168,7.226-0.168v2.436c2.143-1.722,4.579-2.772,6.764-2.772
		C635.34,292.829,638.828,296.61,639.164,301.567z"/>
	<path class="st1" d="M665.665,316.647c-1.974,0-5.335-0.084-7.225-0.168c0-14.871-1.177-20.29-4.411-20.29
		c-1.807,0-3.78,1.638-5.125,4.117c-0.042,7.141-0.126,13.526-0.21,16.173c-1.765,0.084-4.453,0.168-6.805,0.168
		c-0.127-3.571-0.211-13.19-0.211-23.482c1.849,0,5.419,0.084,7.226,0.168v2.142c2.353-1.764,4.789-2.646,7.268-2.646
		C662.976,292.829,665.665,299.592,665.665,316.647z"/>
	<path class="st1" d="M707.875,316.983l-22.432-0.798l-0.547-3.403c8.612-6.595,14.997-15.333,14.997-20.5
		c0-2.604-1.597-4.495-3.78-4.495c-2.479,0-5.251,2.352-7.813,6.637l-4.159-4.579c2.646-3.36,7.184-5.419,11.931-5.419
		c6.679,0,11.594,4.075,11.594,9.62c0,5.209-4.327,10.964-14.03,18.651l14.45-0.966L707.875,316.983z"/>
	<path class="st2" d="M91.784,364.994c-1.513,1.051-2.772,2.186-3.781,3.402l-2.563-4.283c1.471-0.252,3.108-0.715,4.915-1.43
		c-1.765-0.797-3.36-1.301-4.873-1.596l2.604-4.285c0.925,1.176,2.143,2.354,3.697,3.57c-0.168-1.764-0.547-3.443-1.093-4.998h4.999
		c-0.588,1.555-0.966,3.234-1.218,4.914c1.512-1.092,2.814-2.268,3.78-3.486l2.604,4.242c-1.681,0.295-3.36,0.842-5.041,1.639
		c1.807,0.715,3.444,1.178,5.041,1.43l-2.563,4.283c-1.008-1.176-2.269-2.311-3.822-3.402c0.252,1.639,0.63,3.234,1.218,4.832
		h-4.999C91.279,368.229,91.616,366.633,91.784,364.994z"/>
	<path class="st1" d="M131.137,378.354c2.772-7.52,4.117-15.166,4.075-22.895c2.563-0.168,6.511-0.252,7.562-0.211l0.084,7.059
		c2.017-2.73,3.906-5.965,5.671-9.705c-1.891-0.168-3.907-0.252-6.049-0.252c-6.218,0-13.106,0.715-19.366,2.018v-5.125
		c6.218-0.463,11.889-0.715,17.014-0.715c6.847,0,12.896,0.42,17.769,1.26c-1.428,5.629-3.822,11.469-7.057,17.393
		c-3.318-1.135-6.049-2.27-8.107-3.361c-0.336,5.588-1.009,11.049-1.975,16.131C138.11,379.781,134.918,379.234,131.137,378.354z"/>
	<path class="st1" d="M155.789,375.16c3.823-6.973,5.714-14.324,6.47-25.162l7.646,0.336c-0.378,10.754-1.639,19.912-3.781,27.221
		C163.183,377.262,159.738,376.463,155.789,375.16z M174.44,366.928c0-7.268-0.252-12.436-0.714-16.215l8.863-0.926
		c0.295,3.697,0.463,7.268,0.463,10.67c0,3.361-0.168,6.932-0.463,10.67c3.487-0.756,7.268-1.932,10.46-3.318l1.429,5.125
		c-6.764,1.807-12.771,2.773-20.164,3.234C174.398,372.934,174.44,369.867,174.44,366.928z"/>
	<path class="st1" d="M197.118,374.867c9.535-7.982,14.408-14.242,17.097-21.93c-6.889-0.041-15.921,0.674-22.81,1.85l-0.295-5.293
		c5.588-0.252,10.334-0.379,14.745-0.379c6.049,0,11.384,0.252,17.181,0.756c-1.848,11.553-7.267,21.803-16.047,30.457
		C203.755,378.941,200.437,377.092,197.118,374.867z"/>
	<path class="st1" d="M230.299,381.336c2.227-6.008,3.276-12.141,3.234-18.316c2.059-0.125,5.209-0.209,6.049-0.168l0.084,5.629
		c1.597-2.184,3.109-4.746,4.537-7.729c-1.513-0.168-3.108-0.211-4.831-0.211c-4.999,0-10.502,0.547-15.501,1.598v-4.076
		c4.957-0.377,9.494-0.588,13.611-0.588c5.461,0,10.333,0.336,14.198,1.01c-1.135,4.494-3.024,9.156-5.629,13.904
		c-2.646-0.883-4.831-1.807-6.47-2.689c-0.294,4.494-0.84,8.863-1.596,12.896C235.886,382.469,233.323,382.049,230.299,381.336z"/>
	<path class="st1" d="M266.545,360.037c-2.646,3.109-6.008,6.385-10.923,10.797l-3.528-4.705c3.36-2.227,12.771-9.914,16.047-13.107
		c6.385,4.748,14.408,9.957,23.776,15.502c-1.639,2.73-3.528,5.377-5.671,7.896C278.769,370.707,272.048,365.121,266.545,360.037z
		 M277.845,349.998l4.831-0.295c0.294,2.941,0.63,5.84,1.008,8.611l-4.957,0.254L277.845,349.998z M283.81,349.494l4.705-0.42
		c0.462,3.359,0.756,6.217,0.966,8.779l-4.579,0.42C284.649,356.09,284.355,353.527,283.81,349.494z"/>
	<path class="st1" d="M291.49,358.525c1.765-0.463,3.949-0.924,5.966-1.303c0.504,3.486,1.176,6.975,2.142,10.418
		c-1.638,0.336-3.486,0.84-5.166,1.471C293.297,365.961,292.373,362.559,291.49,358.525z M299.388,379.992
		c6.68-6.975,10.964-14.074,13.19-21.93c2.646,0.926,4.915,1.807,7.058,2.689c-4.285,11.047-9.241,18.273-15.669,22.852
		L299.388,379.992z M300.984,355.838c1.849-0.211,4.033-0.295,6.133-0.254c0.084,2.311,0.126,7.898,0.126,10.293
		c-2.479,0.125-4.2,0.252-5.461,0.42C301.488,364.154,301.026,358.357,300.984,355.838z"/>
	<path class="st1" d="M321.73,345.797c3.528-0.168,7.141-0.293,9.871-0.336c0.253,3.822,0.421,8.695,0.505,14.199l2.646-2.982
		c4.284,2.268,7.855,4.705,10.46,7.141l-4.327,4.873c-2.143-2.016-6.049-4.957-8.779-6.553c0,5.041-0.042,10.082-0.126,18.189
		c-2.563,0-7.142-0.084-8.696-0.168C323.284,366.76,322.78,355.291,321.73,345.797z"/>
	<path class="st2" d="M353.063,367.096c-0.21-2.814-0.294-5.713-0.294-8.949c2.227-0.125,6.302-0.209,8.906-0.209
		c0,1.764-0.126,6.092-0.252,9.283C357.936,367.221,354.869,367.18,353.063,367.096z"/>
	<path class="st1" d="M382.843,351.342l6.049,0.127l-0.042,2.352l-19.029,0.084l-0.21-2.771l6.721,0.125l-0.63-6.848l7.688,0.043
		L382.843,351.342z M370.282,366.297l17.769-0.463l-0.756,14.871l-16.131,0.084L370.282,366.297z M370.702,361.551l16.971-0.758
		l-0.252,2.898l-16.467,0.254L370.702,361.551z M387.925,358.525l-16.971,0.547l-0.084-2.857l17.055-0.125L387.925,358.525
		L387.925,358.525z M376.709,378.521l4.789,0.209l-0.084-10.586l-4.411,0.168L376.709,378.521z M403.93,365.541l4.201,0.336
		l-0.042,14.408l-16.635,0.379c-0.715-3.488-1.177-12.1-1.177-21.383l10.376-0.377l-0.168-8.738l-11.174,0.084l0.294-3.277
		l18.735,1.135l-0.63,13.568h-10.67c0,5.629,0.714,12.645,1.764,16.467l3.277-0.504L403.93,365.541z"/>
	<path class="st1" d="M411.231,370.875c0-1.344,0.337-2.855,1.009-4.494l3.234,0.756c-0.126,2.689,2.563,4.242,7.352,4.242
		c3.78,0,8.569-0.965,13.484-2.73c0.63,2.059,1.134,4.328,1.596,7.184c-3.024,1.26-10.754,2.479-15.458,2.479
		C415.391,378.311,411.231,375.539,411.231,370.875z M427.783,354.787l0.672-3.949c-1.849-0.252-3.654-0.377-5.167-0.377
		c-2.646,0-5.965,0.377-10.46,1.217l-0.756-3.527c3.066-0.631,6.217-0.926,9.661-0.926c6.134,0,12.183,0.967,15.039,2.354
		c-1.176,2.814-2.311,4.873-3.528,6.385L427.783,354.787z M430.262,358.568l5.124-0.799c0.547,2.352,1.051,5.125,1.513,7.855
		l-5.167,0.797C431.438,364.238,430.976,361.844,430.262,358.568z M436.604,357.518l4.621-0.672
		c0.546,1.891,1.008,4.242,1.512,7.729l-4.705,0.756C437.654,362.979,437.024,359.533,436.604,357.518z"/>
	<path class="st1" d="M447.94,376.924c10.124-4.871,15.627-9.871,15.627-14.24c0-2.436-1.723-3.611-5.167-3.611
		c-3.108,0-7.729,0.965-14.114,2.898l-1.135-4.033c6.344-1.428,11.553-2.1,15.795-2.1c8.401,0,12.854,2.73,12.854,7.896
		c0,5.84-5.671,12.686-14.912,17.938C453.317,380.076,450.461,378.563,447.94,376.924z M451.259,348.527
		c1.891-2.352,3.067-3.613,4.831-5.041c3.781,1.471,8.401,4.496,10.628,6.932l-3.444,3.99
		C460.837,352.477,455.292,349.787,451.259,348.527z"/>
	<path class="st2" d="M479.649,367.096c-0.21-2.814-0.294-5.713-0.294-8.949c2.227-0.125,6.302-0.209,8.906-0.209
		c0,1.764-0.126,6.092-0.252,9.283C484.522,367.221,481.456,367.18,479.649,367.096z"/>
	<path class="st1" d="M498.549,367.137c0-4.83,1.975-11.174,5.42-17.182c-0.925,0.043-5.966,0.547-8.15,0.842l0.211-4.705
		c5.671,0.125,11.552,0.545,16.047,1.133c-3.949,9.746-5.966,16.973-5.966,21.424c0,4.453,2.101,7.436,5.209,7.436
		c4.747,0,6.974-6.846,6.974-21.381c0-2.018-0.042-4.285-0.126-6.721c4.831,0.629,10.04,1.805,15.459,3.402l-1.387,4.873
		c-2.94-1.514-4.789-2.311-6.511-2.857c0,20.121-3.109,26.381-13.19,26.381C503.8,379.781,498.549,375.035,498.549,367.137z"/>
	<path class="st1" d="M543.321,376.127c7.688-3.066,10.838-5.461,10.838-8.234c0-2.143-1.849-3.486-4.789-3.486
		c-2.814,0-8.611,1.219-13.232,2.814c0-5.67,0.421-11.09,1.177-15.039c2.94,0.043,5.629,0.295,8.065,0.756
		c-0.63,2.689-1.303,7.227-1.345,9.117c2.479-0.463,4.915-0.715,6.932-0.715c6.764,0,10.796,2.814,10.796,7.52
		c0,4.873-4.243,9.41-12.309,13.148C547.271,380.412,545.254,378.479,543.321,376.127z M544.414,349.367
		c0.798-2.1,1.428-3.486,2.184-4.789c4.831,1.219,8.443,2.773,11.889,5.084l-3.024,5.334
		C551.975,352.561,548.11,350.586,544.414,349.367z"/>
	<path class="st1" d="M576.209,378.857c3.066-7.1,5.461-15.039,5.461-18.148c0-2.646-1.681-4.199-4.621-4.199
		c-1.765,6.762-3.402,13.82-4.789,20.541c-3.108-0.672-5.629-1.135-7.813-1.428c1.135-4.328,4.201-14.578,5.545-18.568
		c-2.311,0.504-4.999,1.26-6.805,1.891l-0.589-3.402c2.857-0.715,7.1-1.512,8.57-1.639c1.05-3.318,1.89-5.838,3.024-9.031
		c1.722,0.379,3.36,0.631,5.839,0.924c-0.924,2.563-1.681,5.252-2.227,7.73c7.226,0.209,11.048,3.738,11.048,10.207
		c0,4.033-1.47,9.451-4.452,16.635L576.209,378.857z M583.602,345.672l4.831-0.379c0.336,2.1,0.588,4.957,0.714,7.982l-4.872,0.293
		C584.147,351.678,583.979,349.283,583.602,345.672z M589.861,345.168l5.082-0.338c0.379,2.941,0.631,5.631,0.757,7.982
		l-5.293,0.295C590.365,351.258,590.029,346.301,589.861,345.168z M591.877,365.246c0-4.242-0.126-7.436-0.42-9.914
		c1.555-0.084,4.243-0.42,6.091-0.756c0.883,4.957,1.261,9.074,1.261,13.904c0,1.598-0.042,3.193-0.126,5h-6.932
		C591.835,370.371,591.877,367.725,591.877,365.246z"/>
	<path class="st1" d="M601.322,375.076c2.185-7.855,4.453-14.492,6.764-19.744c-1.008,0.043-2.814,0.252-4.621,0.547l-0.252-3.738
		c1.681-0.252,4.075-0.547,6.554-0.799c1.428-3.023,2.73-5.545,4.032-7.896c2.437,0.293,4.537,0.84,6.512,1.68
		c-1.219,2.773-1.807,4.242-2.269,5.672c1.974-0.127,8.149-0.252,12.602-0.252l0.294,4.031c-1.596-0.084-4.83-0.168-7.057-0.168
		s-4.705,0.084-7.31,0.211c-2.646,6.848-5.503,16.047-7.352,23.523C603.465,375.959,603.171,375.832,601.322,375.076z
		 M612.875,374.32c0-4.578,3.78-7.52,9.661-7.561c-0.126-3.445-0.42-7.143-0.714-8.865c5.713,0,11.931,0.127,14.492,0.295
		l-0.126,3.738c-2.856-0.461-5.04-0.756-7.561-1.135c0.126,1.387,0.252,3.781,0.378,7.1c2.604,0.799,5.293,2.395,8.065,4.748
		l-1.849,4.242c-2.437-2.311-4.411-3.906-6.091-4.873c0,2.143-0.168,4.957-0.546,8.275c-2.143,0.379-3.991,0.547-5.84,0.547
		C616.151,380.832,612.875,378.646,612.875,374.32z M622.578,370.33c-2.226,0-3.486,1.469-3.486,3.99c0,2.52,1.261,4.117,3.402,4.41
		L622.578,370.33z"/>
	<path class="st2" d="M644.96,367.096c-0.21-2.814-0.294-5.713-0.294-8.949c2.227-0.125,6.302-0.209,8.906-0.209
		c0,1.764-0.126,6.092-0.252,9.283C649.833,367.221,646.767,367.18,644.96,367.096z"/>
	<path class="st1" d="M681.419,379.529c0.84-8.695,1.387-15.754,1.639-22.055c-1.429-0.084-2.772-0.125-4.117-0.125h-1.302
		c-1.681,6.469-3.151,13.904-4.453,22.348c-3.15-0.295-6.301-0.672-9.368-1.135c1.303-6.637,3.067-13.609,5.293-20.709
		c-2.394,0.209-4.998,0.545-7.939,1.092l-0.042-4.242c3.487-0.295,6.89-0.463,9.242-0.504c0.924-2.73,1.975-5.756,3.15-9.074
		c2.311,0.379,4.621,0.883,6.974,1.471l-1.975,7.309c4.747,0.084,9.199,0.336,12.938,0.756c0.042,2.438,0.084,4.832,0.084,7.227
		c0,5.922-0.168,11.762-0.462,17.979C688.014,379.822,684.863,379.697,681.419,379.529z"/>
	<path class="st1" d="M701.913,378.018c3.99-4.789,6.763-8.949,8.401-12.477c-2.772-0.504-4.495-0.84-6.091-1.051l1.176-4.494
		c2.353,0.42,4.705,0.965,6.932,1.596c1.176-2.436,2.311-5.041,3.486-8.023c-2.143-0.42-4.789-0.715-7.939-0.84
		c-2.311,3.949-4.831,7.855-7.729,11.889c-2.688-1.471-5.125-2.982-7.352-4.58c4.243-4.914,8.276-10.207,12.183-15.879l5.797,2.605
		l-0.84,1.848c4.495,0.631,9.031,1.471,13.568,2.563c-2.101,11.09-6.343,22.348-11.342,29.91
		C708.298,380.285,704.854,379.234,701.913,378.018z"/>
	<path class="st1" d="M745.049,379.529c0.84-8.695,1.387-15.754,1.639-22.055c-1.429-0.084-2.772-0.125-4.117-0.125h-1.302
		c-1.681,6.469-3.151,13.904-4.453,22.348c-3.15-0.295-6.301-0.672-9.368-1.135c1.303-6.637,3.067-13.609,5.293-20.709
		c-2.394,0.209-4.998,0.545-7.939,1.092l-0.042-4.242c3.487-0.295,6.89-0.463,9.242-0.504c0.924-2.73,1.975-5.756,3.15-9.074
		c2.311,0.379,4.621,0.883,6.974,1.471l-1.975,7.309c4.747,0.084,9.199,0.336,12.938,0.756c0.042,2.438,0.084,4.832,0.084,7.227
		c0,5.922-0.168,11.762-0.462,17.979C751.644,379.822,748.493,379.697,745.049,379.529z"/>
	<path class="st1" d="M763.735,378.227c4.999-6.848,7.352-12.645,7.52-18.65c-4.663,0.125-9.284,0.209-13.989,0.252l0.253-4.873
		c5.545,0.545,10.375,0.799,14.114,0.799c0-3.908-0.21-7.436-0.588-10.25l7.687-0.631c0.547,4.074,0.883,7.477,1.093,10.459
		c3.066-0.252,6.805-0.629,11.216-1.133l0.252,4.746c-3.78,0.168-7.604,0.295-11.342,0.379c0,8.652-1.429,15.164-4.663,21.256
		C772.011,380.033,768.566,379.318,763.735,378.227z"/>
	<path class="st2" d="M799.141,367.096c-0.21-2.814-0.294-5.713-0.294-8.949c2.227-0.125,6.302-0.209,8.906-0.209
		c0,1.764-0.126,6.092-0.252,9.283C804.014,367.221,800.947,367.18,799.141,367.096z"/>
	<path class="st1" d="M140.463,441.277c1.891-6.133,3.571-14.787,3.571-18.4c0-3.402-1.471-4.83-5.083-4.83
		c-1.093,7.52-2.017,15.248-2.604,21.76c-3.36-0.461-5.839-0.672-7.939-0.715c0.672-4.578,2.814-16.424,3.57-19.742
		c-2.101,0.756-4.327,1.639-6.553,2.604l-0.925-3.486c2.437-0.883,6.176-2.016,8.318-2.52c0.462-2.311,1.092-5.168,2.1-9.662
		c2.017,0.209,3.991,0.336,5.924,0.377c-0.589,2.143-1.135,5.209-1.471,8.191c0.546-0.084,1.05-0.125,1.723-0.125
		c6.805,0,10.46,4.158,10.46,11.889c0,3.863-0.883,8.779-2.815,15.375C143.95,441.529,142.815,441.445,140.463,441.277z
		 M153.149,415.359c2.353-0.463,4.033-0.842,6.007-1.346c1.807,6.26,2.688,11.721,3.109,19.408c-2.269,0.168-4.285,0.377-6.89,0.715
		C154.578,424.012,154.073,419.77,153.149,415.359z"/>
	<path class="st1" d="M180.363,426.07c-4.663,0-7.939,5.252-9.746,15.627c-2.479-0.127-4.873-0.336-7.1-0.672
		c2.269-12.057,6.47-24.994,11.091-33.941c3.402,0.461,6.637,1.301,9.451,2.477c-3.318,5.42-5.629,9.957-6.847,13.57
		c1.68-0.211,3.108-0.295,4.788-0.295c1.681,0,3.571,0.084,6.26,0.336c-0.252,2.773-0.378,5.125-0.378,7.016
		c0,6.301,1.386,8.443,5.377,8.443c1.47,0,3.402-0.295,5.545-0.84l0.42,3.275c-3.108,0.588-5.419,0.84-7.604,0.84
		C183.094,441.906,180.363,438.084,180.363,426.07z"/>
	<path class="st1" d="M209.593,422.248l-7.267,0.041l0.462-11.174l14.576,0.043l-0.21-6.133l8.653,0.125l-0.21,6.008l14.577,0.041
		l0.462,11.385l-7.226-0.295l0.21-8.023l-24.28-0.377L209.593,422.248z M225.262,429.473l14.703,0.211l-0.294,2.898l-14.241,0.209
		c0.084,3.486,0.168,7.436,0.168,11.342l-15.795-1.637l0.253-2.689l6.931-0.084c0.126-1.639,0.21-4.074,0.336-6.805l-14.03,0.209
		l-0.252-3.947l14.408,0.209c0.042-1.471,0.042-2.939,0.084-4.369l1.555-0.084c1.386-1.512,3.108-3.654,3.948-4.998l-12.182,0.883
		l0.168-3.656h20.962l0.126,1.934c-0.967,1.68-3.487,4.537-6.974,7.855L225.262,429.473z"/>
	<path class="st3" d="M250.879,425.355c0-7.896,4.117-15.836,11.006-21.129l2.185,1.975c-4.999,4.957-7.352,9.83-7.352,15.332
		c0,6.469,3.277,12.352,8.654,15.543c-1.261,2.143-3.193,5.084-5.251,7.898C254.576,440.689,250.879,432.875,250.879,425.355z"/>
	<path class="st3" d="M268.811,436.109c0.673-6.469,1.765-13.568,3.235-21.508l9.073,1.766c-2.688,5.965-5.419,13.232-7.855,20.752
		L268.811,436.109z M279.354,442.328l-0.294-2.395l5.503-0.799l-1.26-32.514l8.947-0.127l-0.252,36.211L279.354,442.328z
		 M295.611,415.611l5.798-1.43c2.604,5.924,5.251,13.695,6.721,19.955l-8.863,2.52C298.3,429.516,296.704,420.23,295.611,415.611z"
		/>
	<path class="st3" d="M318.582,424.096l-7.057,0.295l0.84-11.258l3.57-0.043l-2.73-5.629l6.764-1.387l2.688,6.975h4.579l-2.269-6.68
		l7.394-0.799l1.47,7.395h3.612l3.865-7.184l6.427,2.436l-4.116,4.705l4.957-0.041l0.84,11.299l-7.016-0.125l-0.21-8.443
		l-23.44,0.545L318.582,424.096z M348.744,432.33l-14.535,0.336l0.294,10.963l-15.584-1.217l0.252-2.689l6.847-0.252
		c0-2.016,0.042-4.285,0.168-6.596l-13.988,0.336l0.042-3.906l14.114,0.084l0.252-3.402l1.513-0.084
		c1.597-1.555,3.318-3.654,3.78-4.578l-11.846,0.588l0.168-3.613h20.542l0.126,1.764c-1.513,2.227-4.621,5.799-6.806,7.814
		l0.042,1.512l14.577,0.084L348.744,432.33z"/>
	<path class="st3" d="M366.968,426.742l-2.101-5.293l0.756,21.467l-6.805,0.629l0.084-19.238l-3.234,11.174l-2.688-1.092
		l4.074-17.141l-3.864,0.336l-0.421-3.738l6.134-0.125l0.042-8.066l5.377-0.041l0.294,7.98l4.831-0.125l0.084,2.646l-3.024,0.252
		l4.368,6.049l1.933-7.73l-2.185-0.041v-2.689l6.638-0.209l-0.379-6.133l6.68-0.295l-0.252,6.217l7.436-0.252l0.126,3.738
		l-3.823-0.084l5.125,9.158l-4.2,4.537l-6.134-11.301l3.865-2.395l-11.721-0.252l5.545,3.236l-7.981,11.426l-2.184-0.84l0.924-3.824
		L366.968,426.742z M383.225,430.943c3.024,2.855,6.091,5.586,8.149,7.225l-5.587,5.713c-2.227-2.646-4.453-5.629-6.512-8.568
		c-2.982,3.15-6.007,6.217-8.065,7.98l-2.353-1.891c1.975-2.563,4.789-6.469,7.52-10.418c-0.882-1.428-1.722-2.814-2.479-4.115
		l2.856-2.227c0.715,0.756,1.513,1.512,2.311,2.352c1.009-1.512,1.975-2.982,2.814-4.285l4.411,4.58
		C385.451,428.338,384.4,429.6,383.225,430.943z"/>
	<path class="st3" d="M399.054,440.521c0.126-5.168,0.252-17.014,0.252-25.541l-4.999-0.127l-0.42-2.477
		c5.461-1.639,9.62-2.984,13.148-4.369c0.168,8.863,0.294,23.482,0.294,32.598L399.054,440.521z"/>
	<path class="st3" d="M450.888,436.068H437.53l0.126,7.184l-8.989-0.127l0.084-7.057h-17.097l-0.085-3.025l5.924-0.125l0.588-12.645
		l10.88,0.379l0.084-7.016l-8.107-0.084l-6.217,9.408l-2.814-1.176l4.494-15.879l8.443,1.682l-1.932,2.939l26.17-0.42l-0.084,3.738
		l-11.804-0.125l0.126,7.268l11.048,0.377l-0.042,3.109l-10.964-0.043l0.126,7.982l13.484-0.336L450.888,436.068z M428.792,432.623
		l0.126-8.275h-3.486l-1.261,8.402L428.792,432.623z"/>
	<path class="st3" d="M458.861,429.096c-0.21-2.814-0.294-5.713-0.294-8.949c2.227-0.125,6.302-0.209,8.906-0.209
		c0,1.764-0.126,6.092-0.252,9.283C463.734,429.221,460.668,429.18,458.861,429.096z"/>
	<path class="st3" d="M475.913,440.521l-0.967-3.738c8.612-6.596,14.997-15.334,14.997-20.5c0-2.605-1.597-4.496-3.78-4.496
		c-2.479,0-5.251,2.354-7.813,6.639l-4.159-4.58c2.646-3.359,7.184-5.418,11.931-5.418c6.679,0,11.594,4.074,11.594,9.619
		c0,5.209-4.327,10.965-14.03,18.652l14.45-0.758l-0.294,4.748L475.913,440.521z"/>
	<path class="st3" d="M540.011,436.068h-13.358l0.126,7.184l-8.989-0.127l0.084-7.057h-17.097l-0.085-3.025l5.924-0.125
		l0.588-12.645l10.88,0.379l0.084-7.016l-8.107-0.084l-6.217,9.408l-2.814-1.176l4.494-15.879l8.443,1.682l-1.932,2.939l26.17-0.42
		l-0.084,3.738l-11.804-0.125l0.126,7.268l11.048,0.377l-0.042,3.109l-10.964-0.043l0.126,7.982l13.484-0.336L540.011,436.068z
		 M517.915,432.623l0.126-8.275h-3.486l-1.261,8.402L517.915,432.623z"/>
	<path class="st3" d="M554.622,427.75c0-5.713,2.437-10.627,7.394-14.869c-6.68,0.545-11.09,1.428-18.693,3.695l-0.673-4.494
		c8.234-1.555,15.585-2.311,22.853-2.311c2.982,0,5.965,0.127,9.031,0.379l-0.126,3.318c-7.52,0.125-12.56,4.285-12.56,10.334
		c0,3.947,2.142,7.645,7.813,13.484c-1.975,1.68-4.369,3.359-7.604,5.293C556.891,437.791,554.622,433.295,554.622,427.75z
		 M565.922,418.719l4.663-1.26c0.63,3.025,1.26,5.672,1.933,8.107l-4.747,1.303L565.922,418.719z M571.887,417.08l4.537-1.217
		c0.756,2.688,1.387,5.334,1.933,8.4l-4.495,1.092C573.315,422.709,572.686,420.146,571.887,417.08z"/>
	<path class="st3" d="M576.67,437.076c2.185-7.855,4.453-14.492,6.764-19.744c-1.008,0.043-2.814,0.252-4.621,0.547l-0.252-3.738
		c1.681-0.252,4.075-0.547,6.554-0.799c1.428-3.023,2.73-5.545,4.032-7.896c2.437,0.293,4.537,0.84,6.512,1.68
		c-1.219,2.773-1.807,4.242-2.269,5.672c1.974-0.127,8.149-0.252,12.602-0.252l0.294,4.031c-1.596-0.084-4.83-0.168-7.057-0.168
		s-4.705,0.084-7.31,0.211c-2.646,6.848-5.503,16.047-7.352,23.523C578.813,437.959,578.519,437.832,576.67,437.076z
		 M588.223,436.32c0-4.578,3.78-7.52,9.661-7.561c-0.126-3.445-0.42-7.143-0.714-8.865c5.713,0,11.931,0.127,14.492,0.295
		l-0.126,3.738c-2.856-0.461-5.04-0.756-7.561-1.135c0.126,1.387,0.252,3.781,0.378,7.1c2.604,0.799,5.293,2.395,8.065,4.748
		l-1.849,4.242c-2.437-2.311-4.411-3.906-6.091-4.873c0,2.143-0.168,4.957-0.546,8.275c-2.143,0.379-3.991,0.547-5.84,0.547
		C591.499,442.832,588.223,440.646,588.223,436.32z M597.926,432.33c-2.226,0-3.486,1.469-3.486,3.99c0,2.52,1.261,4.117,3.402,4.41
		L597.926,432.33z"/>
	<path class="st3" d="M622.156,438.127c7.688-3.066,10.838-5.461,10.838-8.234c0-2.143-1.849-3.486-4.789-3.486
		c-2.814,0-8.611,1.219-13.232,2.814c0-5.67,0.421-11.09,1.177-15.039c2.94,0.043,5.629,0.295,8.065,0.756
		c-0.63,2.689-1.303,7.227-1.345,9.117c2.479-0.463,4.915-0.715,6.932-0.715c6.763,0,10.796,2.814,10.796,7.52
		c0,4.873-4.243,9.41-12.309,13.148C626.105,442.412,624.089,440.479,622.156,438.127z M623.249,411.367
		c0.798-2.1,1.428-3.486,2.184-4.789c4.831,1.219,8.444,2.773,11.889,5.084l-3.024,5.334
		C630.81,414.561,626.945,412.586,623.249,411.367z"/>
	<path class="st3" d="M645.803,438.924c10.124-4.871,15.627-9.871,15.627-14.24c0-2.436-1.723-3.611-5.167-3.611
		c-3.108,0-7.729,0.965-14.114,2.898l-1.135-4.033c6.344-1.428,11.553-2.1,15.795-2.1c8.401,0,12.854,2.73,12.854,7.896
		c0,5.84-5.671,12.686-14.912,17.938C651.18,442.076,648.323,440.563,645.803,438.924z M649.121,410.527
		c1.891-2.352,3.067-3.613,4.831-5.041c3.781,1.471,8.401,4.496,10.628,6.932l-3.444,3.99
		C658.699,414.477,653.154,411.787,649.121,410.527z"/>
	<path class="st3" d="M673.984,440.982l-1.05-3.863c9.073-6.764,15.753-15.795,15.753-21.088c0-2.689-1.681-4.664-3.949-4.664
		c-2.604,0-5.503,2.438-8.233,6.848l-4.327-4.705c2.773-3.443,7.52-5.586,12.519-5.586c7.016,0,12.183,4.199,12.183,9.914
		c0,5.377-4.579,11.299-14.745,19.197l15.165-0.758l-0.294,4.873L673.984,440.982z"/>
	<path class="st3" d="M723.422,431.699c-0.126,3.318-0.21,6.469-0.294,9.242c-1.513,0.084-4.663,0.168-6.554,0.168
		c-0.126-3.654-0.168-6.764-0.21-9.494c-5.755-0.084-11.048-0.209-14.87-0.377c0-4.916,0.252-14.703,0.63-23.105
		c2.521,0,5.965,0.168,8.107,0.42c-0.672,5.924-1.471,14.998-1.681,19.785c2.563,0,5.251-0.041,7.813-0.125v-0.756
		c0-6.469,0.168-13.568,0.336-19.197c3.739,0,6.302,0.041,7.771,0.168c-0.336,6.09-0.672,13.021-0.924,19.533
		c1.681-0.127,3.15-0.211,4.285-0.336l0.126,4.074H723.422z"/>
	<path class="st3" d="M731.271,425.23c0-9.914,5.671-17.307,13.316-17.307c7.183,0,12.266,6.594,12.266,15.963
		c0,9.912-5.755,17.348-13.4,17.348C736.313,441.234,731.271,434.641,731.271,425.23z M750.007,427.498
		c0-8.064-3.697-15.92-7.52-15.92c-2.646,0-4.411,3.865-4.411,9.619c0,8.275,3.613,16.426,7.31,16.426
		C748.032,437.623,750.007,433.295,750.007,427.498z"/>
	<path class="st3" d="M768.022,422.248l-7.267,0.041l0.462-11.174l14.576,0.043l-0.21-6.133l8.653,0.125l-0.21,6.008l14.577,0.041
		l0.462,11.385l-7.226-0.295l0.21-8.023l-24.28-0.377L768.022,422.248z M783.691,429.473l14.703,0.211l-0.294,2.898l-14.241,0.209
		c0.084,3.486,0.168,7.436,0.168,11.342l-15.795-1.637l0.253-2.689l6.931-0.084c0.126-1.639,0.21-4.074,0.336-6.805l-14.03,0.209
		l-0.252-3.947l14.408,0.209c0.042-1.471,0.042-2.939,0.084-4.369l1.555-0.084c1.386-1.512,3.108-3.654,3.948-4.998l-12.182,0.883
		l0.168-3.656h20.962l0.126,1.934c-0.967,1.68-3.487,4.537-6.974,7.855L783.691,429.473z"/>
	<path class="st3" d="M804.31,443c4.999-4.957,7.352-9.83,7.352-15.334c0-6.469-3.276-12.35-8.653-15.543
		c1.26-2.141,3.192-5.082,5.251-7.896c5.545,4.285,9.241,12.098,9.241,19.617c0,7.898-4.116,15.838-11.006,21.131L804.31,443z"/>
</g>
<g>
	<path class="st1" d="M50.356,510.859c-1.5-0.389-3.66-1.139-5.04-1.68c1.59,2.131,3.06,4.35,3.9,6l-6.75,3.061
		c-1.53-3.66-4.14-8.131-6.48-11.189l4.74-3.27c1.14,1.08,2.58,2.789,3.99,4.59c2.7-2.852,4.95-5.76,6.209-8.041
		c-1.77-0.209-3.479-0.299-5.13-0.299c-4.47,0-8.939,0.66-14.849,2.16l-0.6-3.33c7.14-0.811,12.359-1.17,17.069-1.17
		c3.42,0,6.57,0.18,9.959,0.6C56.296,501.98,53.596,506.781,50.356,510.859z"/>
	<path class="st1" d="M59.896,496.041c3.66,0.119,7.439,0.51,10.229,1.049l-0.42,3.721c-1.56-0.061-3.21-0.061-4.92-0.061
		c-1.68,0-3.36,0-5.01,0.061L59.896,496.041z M61.126,512.9c7.29-4.32,13.169-8.971,17.549-13.83l3.03,2.34
		c-4.56,7.32-9.84,12.93-15.929,16.92C64.066,516.561,62.536,514.76,61.126,512.9z"/>
	<path class="st1" d="M96.556,518.27c0.6-6.18,0.99-11.25,1.17-15.779c-0.78-0.09-2.85-0.119-3.81-0.09
		c-1.26,4.891-2.31,10.199-3.12,15.99c-2.16-0.211-4.35-0.48-6.6-0.811c0.87-4.59,2.13-9.51,3.72-14.789
		c-1.92,0.15-3.75,0.42-5.61,0.779v-3.029c2.07-0.18,4.65-0.33,6.48-0.391c0.9-2.789,1.83-5.49,2.22-6.48
		c1.83,0.33,3.48,0.691,4.92,1.08c-0.51,1.59-1.08,3.75-1.38,5.191l4.47,0.18l0.18,2.4l4.17-0.15c0.15,2.01,0.21,4.68,0.21,7.529
		c0,2.82-0.06,5.85-0.21,8.609C101.206,518.48,98.956,518.391,96.556,518.27z M99.405,495.23l3.51-0.27l0.54,6.42l-3.6,0.33
		L99.405,495.23z M103.726,494.9l3.39-0.209c0.27,1.859,0.45,4.02,0.57,6.568l-3.42,0.182
		C104.115,498.98,103.936,496.791,103.726,494.9z"/>
	<path class="st2" d="M126.165,517.459c0.24-2.309,0.36-4.408,0.36-6.27c0-8.279-2.34-12.209-7.26-12.209
		c-4.65,0-7.709,3.51-7.709,8.85c0,3.57,1.32,6.18,3.15,6.18c1.56,0,2.55-1.889,2.55-4.799c0-1.98-0.45-4.561-1.41-7.861
		c1.2-0.27,2.55-0.42,3.84-0.42c0.57,0,1.14,0.031,1.68,0.092c0.33,1.859,0.51,3.568,0.51,5.1c0,6.449-3.06,10.379-8.069,10.379
		c-4.41,0-7.02-3.09-7.02-8.311c0-7.109,4.83-11.369,12.899-11.369c8.49,0,12.57,4.711,12.57,14.52c0,1.891-0.15,4.02-0.48,6.449
		C129.495,517.789,127.275,517.67,126.165,517.459z"/>
	<path class="st2" d="M134.056,512.541c0-0.99,0.27-2.102,0.81-3.301l2.37,0.57c-0.12,1.949,2.01,3.119,5.73,3.119
		c2.7,0,6.06-0.6,9.72-1.77c0.54,1.83,0.9,3.57,1.11,5.16c-2.1,0.779-7.65,1.561-11.129,1.561
		C137.176,517.881,134.056,515.93,134.056,512.541z M146.535,501.141l0.57-2.789c-1.47-0.24-2.729-0.361-4.169-0.361
		c-2.16,0-4.71,0.27-7.44,0.75l-0.54-2.52c1.62-0.359,3.9-0.539,6.42-0.539c4.86,0,9.6,0.75,11.91,1.859
		c-0.87,1.949-1.74,3.42-2.67,4.529L146.535,501.141z"/>
	<path class="st2" d="M157.815,516.23c7.229-3.48,11.16-7.051,11.16-10.17c0-1.74-1.23-2.58-3.69-2.58
		c-2.22,0-5.52,0.689-10.08,2.07l-0.81-2.881c4.53-1.02,8.25-1.5,11.28-1.5c6,0,9.179,1.951,9.179,5.641
		c0,4.17-4.05,9.059-10.649,12.809C161.655,518.48,159.615,517.4,157.815,516.23z M160.186,495.951c1.35-1.68,2.189-2.58,3.45-3.6
		c2.7,1.049,6,3.209,7.59,4.949l-2.46,2.85C167.025,498.771,163.065,496.852,160.186,495.951z"/>
	<path class="st2" d="M187.455,517.91c1.35-4.381,2.55-10.561,2.55-13.141c0-2.43-1.05-3.449-3.63-3.449
		c-0.78,5.369-1.44,10.891-1.86,15.539c-2.4-0.33-4.17-0.479-5.67-0.51c0.48-3.27,2.01-11.729,2.55-14.1
		c-1.5,0.541-3.09,1.17-4.68,1.861l-0.66-2.49c1.74-0.631,4.41-1.441,5.94-1.801c0.33-1.65,0.78-3.689,1.5-6.898
		c1.44,0.148,2.85,0.238,4.229,0.27c-0.42,1.529-0.81,3.719-1.05,5.85c0.39-0.061,0.75-0.09,1.23-0.09c4.86,0,7.47,2.969,7.47,8.488
		c0,2.762-0.63,6.271-2.01,10.98C189.945,518.09,189.135,518.029,187.455,517.91z M196.515,499.4c1.68-0.33,2.88-0.6,4.29-0.959
		c1.29,4.469,1.92,8.369,2.22,13.859c-1.62,0.119-3.06,0.27-4.919,0.51C197.535,505.58,197.175,502.551,196.515,499.4z"/>
	<path class="st2" d="M233.774,503.211l-0.12,1.949l-28.259,0.27l-0.12-2.459l5.13,0.029l-0.42-4.469h-3.54v-2.01l10.47-0.031
		l-0.24-3.66l5.7-0.148l-0.24,3.809l10.47-0.029l0.03,2.129h-3.54l-0.48,4.59L233.774,503.211z M230.084,507.32l0.12,11.67
		l-21.329,0.209l0.09-12.09L230.084,507.32z M214.335,509.391l0.06,2.67l10.26,0.209l0.06-3.119L214.335,509.391z M224.535,517.189
		l0.06-3.148l-10.14,0.209l0.06,2.699L224.535,517.189z M215.805,503.061l7.47,0.061l0.03-4.561h-7.53L215.805,503.061z"/>
	<path class="st2" d="M254.805,517.459c0.24-2.309,0.359-4.408,0.359-6.27c0-8.279-2.34-12.209-7.26-12.209
		c-4.649,0-7.709,3.51-7.709,8.85c0,3.57,1.32,6.18,3.15,6.18c1.56,0,2.549-1.889,2.549-4.799c0-1.98-0.449-4.561-1.41-7.861
		c1.201-0.27,2.55-0.42,3.839-0.42c0.57,0,1.141,0.031,1.681,0.092c0.33,1.859,0.51,3.568,0.51,5.1
		c0,6.449-3.06,10.379-8.069,10.379c-4.41,0-7.02-3.09-7.02-8.311c0-7.109,4.83-11.369,12.899-11.369
		c8.49,0,12.57,4.711,12.57,14.52c0,1.891-0.15,4.02-0.48,6.449C258.135,517.789,255.914,517.67,254.805,517.459z"/>
	<path class="st1" d="M290.624,511.76l-10.14-0.09c0.09,2.609,0.12,5.189,0.12,7.68l-10.919-0.24l0.029-1.77l4.561-0.689v-5.041
		l-11.311-0.119l-0.149-2.34l11.43-0.121c-0.03-1.26-0.03-2.459-0.06-3.629l-10.53,0.18l-0.09-3.09l10.56,0.18
		c-0.03-1.289-0.09-2.549-0.12-3.75l-8.999,0.781l-0.301-2.191l21.18-4.859l1.41,5.1l-7.5,0.66c0.119,1.471,0.21,2.939,0.3,4.35
		l9.93,0.182l-0.091,2.219l-9.719,0.15l0.18,3.66l10.38-0.09L290.624,511.76z"/>
	<path class="st1" d="M309.104,502.881l0.03,1.5l9.209-0.211l-0.09,1.891l-9.119,0.061l0.029,1.529l9.961,0.029l-0.091,1.621
		l-25.079,0.24l-0.09-1.92l9.84,0.029l0.029-1.471l-8.85,0.061l-0.09-1.561l8.939-0.18l0.031-1.469l-8.16,0.27l-0.24-2.041h8.4
		l0.029-1.68l-10.529-0.18l-0.09-1.529l10.619-0.09l0.029-1.561l-8.459,0.09l-0.12-1.891l8.579,0.061l0.031-1.74l5.159,0.031
		l0.03,1.77l9.299,0.061l-0.149,3.09l2.22-0.031l-0.06,2.221l-2.25-0.029l-0.12,2.729L309.104,502.881z M318.555,510.74l0.06,8.34
		l-23.64,0.18l0.061-8.49L318.555,510.74z M299.926,512.449l0.029,1.65l13.68-0.209l0.029-1.41L299.926,512.449z M313.604,517.459
		l0.03-1.498l-13.68-0.182l0.029,1.441L313.604,517.459z M309.074,497.75l4.141-0.029l-0.061-1.619l-4.109,0.059L309.074,497.75z
		 M309.104,501.23h4.229l-0.06-1.471l-4.2-0.09L309.104,501.23z"/>
	<path class="st1" d="M323.896,512.121c0-2.881,3.21-4.801,9.029-5.371c0-0.689-0.09-1.68-0.21-2.73
		c-2.76,0.24-5.76,0.811-8.67,1.65l-0.479-2.729c2.55-0.42,5.399-0.781,8.85-1.111l-0.39-2.369c-2.131,0.15-4.71,0.51-9,1.17
		l-0.33-2.609c2.76-0.361,6.84-0.721,8.97-0.781c-0.271-1.379-0.72-3.119-1.08-4.199c2.46-0.42,4.68-0.689,6.479-0.75
		c0.24,1.289,0.51,3.48,0.6,4.74c2.701,0,4.74,0.09,6.631,0.299l-0.301,2.371c-1.859-0.361-3.959-0.541-6.09-0.541l0.211,2.52
		c2.1,0.031,4.409,0.24,5.819,0.541l-0.42,2.369c-2.13-0.479-3.75-0.719-5.25-0.779c0.09,1.35,0.12,3.09,0.12,5.369
		c-1.17-0.18-2.609-0.299-4.05-0.299c-3.87,0-5.97,0.719-5.97,2.068c0,1.83,3.869,3,11.64,3.541c-0.66,1.92-1.351,3.449-2.22,4.799
		C329.325,518.629,323.896,515.84,323.896,512.121z"/>
	<path class="st1" d="M364.604,508.371c2.489,2.039,5.399,4.26,8.729,6.6l-5.609,4.83c-2.28-1.771-4.77-4.08-7.199-6.602
		c-2.761,2.91-5.701,5.34-8.07,6.42l-5.369-3.658c3.389-1.441,6.989-3.75,10.169-6.391c-2.88-3.33-5.399-6.75-7.079-9.66
		l-3.42-0.059l0.119-2.25l10.74-0.182l-0.301-5.248l5.76,0.18l-0.27,4.979l10.709-0.18l0.121,3.15l-4.26-0.061
		C368.444,502.67,366.705,505.551,364.604,508.371z M356.115,500c1.379,1.771,3.149,3.631,5.31,5.611
		c1.71-1.83,3.12-3.691,4.079-5.461L356.115,500z"/>
	<path class="st1" d="M381.705,504.32l-5.189,0.029l0.33-7.979l10.409,0.029l-0.149-4.379l6.18,0.09l-0.15,4.289l10.409,0.031
		l0.33,8.129l-5.159-0.211l0.149-5.729l-17.339-0.27L381.705,504.32z M392.895,509.48l10.5,0.15l-0.211,2.068l-10.169,0.15
		c0.06,2.49,0.12,5.311,0.12,8.1l-11.279-1.17l0.18-1.92l4.949-0.059c0.09-1.17,0.15-2.91,0.24-4.861l-10.02,0.15l-0.18-2.82
		l10.289,0.15c0.03-1.049,0.03-2.1,0.061-3.119l1.109-0.061c0.99-1.08,2.221-2.609,2.82-3.57l-8.699,0.631l0.119-2.609h14.97
		l0.09,1.379c-0.69,1.199-2.489,3.24-4.979,5.609L392.895,509.48z"/>
	<path class="st2" d="M410.205,514.73c0-2.58,2.37-5.1,7.229-7.68c-0.63-0.57-1.319-0.811-2.069-0.811
		c-1.711,0-3.631,1.41-5.25,3.99c-1.439-0.66-2.76-1.41-4.02-2.221c1.92-2.219,3.659-4.709,4.92-7.469l-4.41,0.061l0.21-2.881
		c1.77,0.24,3.42,0.359,5.1,0.391c0.899-2.4,1.44-4.08,1.83-5.611c2.43,0.182,4.53,0.48,6.45,0.871l-2.101,4.561
		c1.83-0.121,3.78-0.361,6.239-0.811l0.181,2.789c-2.399,0.18-4.92,0.33-7.59,0.451c-1.08,2.219-1.739,3.389-2.25,4.109
		c0.81-0.18,1.62-0.27,2.37-0.27c1.41,0,2.699,0.33,3.75,0.93c1.56-0.93,3.209-1.74,4.859-2.461c0.689,0.93,1.26,1.711,2.939,4.111
		c-3.779,1.529-2.819,1.139-5.01,2.068c0.42,1.41,0.811,2.85,1.261,4.68c-1.83,0.42-3.69,0.66-5.58,0.721
		c0-1.17-0.12-2.58-0.3-3.539c-3.12,1.41-4.65,2.85-4.65,4.408c0,1.41,1.291,2.131,3.541,2.131c1.979,0,4.739-0.541,8.039-1.68
		l0.54,2.91c-2.88,0.629-5.489,0.959-7.771,0.959C413.445,519.439,410.205,517.76,410.205,514.73z"/>
	<path class="st2" d="M439.275,505.43c-2.43,1.891-4.859,3.9-7.35,6.15l-3.03-3.689c5.25-5.76,11.04-10.74,17.669-15.24
		c1.32,1.801,2.58,3.631,3.78,5.49c-4.021,2.34-7.29,4.439-9.87,6.391l4.891-0.182c0.209,2.311,0.33,5.16,0.33,7.98
		c0,2.279-0.09,4.561-0.211,6.57l-5.789,0.15C439.695,514.221,439.575,510.08,439.275,505.43z"/>
	<path class="st2" d="M448.545,514.881c4.021-2.91,7.23-5.641,9.57-8.16c-1.53-1.471-2.85-2.641-4.08-3.631l2.311-2.609
		c1.289,0.84,2.729,1.83,4.59,3.119c1.949-2.789,3.539-5.609,4.799-8.459c2.041,0.961,3.9,1.92,5.67,2.91
		c-1.47,3.09-3.57,6.18-6.33,9.299c1.5,1.41,2.73,2.73,3.811,3.99c-1.26,1.201-2.55,2.311-3.9,3.391
		c-1.109-1.531-2.129-2.791-3.09-3.9c-3.27,3.061-6.209,5.369-9.959,7.799L448.545,514.881z"/>
	<path class="st2" d="M484.604,507.531c-4.89,0-7.829,0.09-11.1,0.359l-0.3-3.391c5.79-0.75,10.05-1.08,14.039-1.08
		c2.4,0,4.98,0.121,7.95,0.361l-0.149,4.139C493.334,507.65,490.035,507.531,484.604,507.531z"/>
	<path class="st2" d="M497.685,502.34c3.45,0.15,6.54,0.42,9.03,0.811l-0.181,3.301c-5.489,0-8.1,0-8.939,0.029L497.685,502.34z
		 M498.795,499.102l0.9-4.111c4.649,1.201,6.689,1.771,8.609,2.43l-0.78,3.182C504.824,500.031,501.645,499.461,498.795,499.102z
		 M500.535,514.641c4.439-2.91,10.829-9.15,13.049-12.75l5.82-0.449c-2.73,6.658-7.5,13.049-13.14,17.578
		C505.305,518.51,502.875,516.65,500.535,514.641z M512.385,494.871l3.449-0.391l0.96,6.211l-3.75,0.299
		C512.984,499.852,512.564,495.92,512.385,494.871z M516.645,494.361l3.539-0.361c0.391,2.191,0.69,4.291,0.84,6.391l-3.42,0.301
		C517.363,498.711,517.064,496.611,516.645,494.361z"/>
	<path class="st2" d="M522.225,506.121c0-3.061,0.24-6.781,0.721-11.221c1.17-0.119,4.41-0.24,6.33-0.24
		c-0.841,5.881-1.261,10.26-1.261,13.529c0,5.82,1.29,8.43,4.14,8.43c2.19,0,4.891-1.529,8.1-4.559l1.95,2.549
		c-3.6,3.18-7.14,4.65-11.249,4.65C524.595,519.26,522.225,515.721,522.225,506.121z"/>
	<path class="st2" d="M543.585,517.789c0.931-5.609,2.521-13.348,3.45-16.768c-1.2,0.27-3,0.779-4.92,1.439l-0.51-2.49
		c1.68-0.51,4.319-1.109,6.029-1.41c0.391-1.471,1.109-3.779,1.77-5.699c2.131,0,3.93,0.15,5.46,0.449
		c-0.659,2.16-1.02,3.451-1.29,4.5c3.391-0.33,7.41-0.51,11.16-0.48l-0.301,2.91c-2.549-0.299-4.199-0.42-5.939-0.42
		c-1.5,0-3.149,0.09-5.399,0.27c-0.87,3.631-1.95,10.17-3.03,18.33C547.785,518.209,545.625,518,543.585,517.789z M554.354,513.92
		c0-1.289,0.72-2.641,1.83-3.391l1.86,0.541c-0.24,0.51-0.36,0.93-0.36,1.289c0,1.051,1.05,1.531,3.27,1.531
		c1.261,0,2.79-0.15,4.95-0.451c0.24,1.051,0.359,2.281,0.42,4.08c-1.35,0.15-2.73,0.211-4.02,0.211
		C557.084,517.73,554.354,516.41,554.354,513.92z M554.654,504.051c1.77-0.57,4.59-0.9,7.529-0.9c1.5,0,2.851,0.09,4.051,0.27
		c-0.301,1.141-0.57,1.891-1.051,2.941c-1.35-0.451-2.67-0.66-4.199-0.66c-1.471,0-3.24,0.209-5.609,0.689L554.654,504.051z"/>
	<path class="st2" d="M568.755,511.791l2.909-1.83c1.86,1.709,3.511,3.898,5.01,6.568l-3.93,2.371
		C571.484,516.35,570.164,513.98,568.755,511.791z"/>
	<path class="st1" d="M602.834,518.119c0.029-0.539,0.029-1.109,0.061-1.648l-10.38-0.09c0,0.479,0.03,0.959,0.03,1.469l-6.15,0.24
		c0-7.109,0.15-15.479,0.45-24.359l21.659,0.15c0.3,8.07,0.449,15.6,0.449,24.479L602.834,518.119z M592.244,496.461
		c0,2.4,0,4.65,0.03,6.84l10.89,0.42v-0.359c0-2.4-0.03-4.891-0.09-7.23L592.244,496.461z M602.984,513.529
		c0.09-2.52,0.149-4.979,0.18-7.439l-10.859,0.51c0.029,2.43,0.09,4.83,0.15,7.35L602.984,513.529z"/>
	<path class="st1" d="M630.194,503.811c-0.06,2.4-0.12,4.98-0.21,7.889l4.109-0.209v3.299l-4.199-0.09
		c-0.061,1.381-0.09,2.852-0.15,4.381l-5.16,0.119c-0.09-1.59-0.149-3.148-0.209-4.648l-4.74-0.121v-2.25l4.619-0.209
		c-0.119-2.941-0.209-5.73-0.3-8.49c-2.399,3.359-5.1,7.469-8.579,12.9l-2.19-1.17c2.61-5.25,4.92-9.75,7.14-13.951
		c-2.07,0.121-4.17,0.301-6.359,0.512l0.12-3.061c3.569-0.121,6.749-0.211,9.72-0.27c-0.061-1.891-0.12-3.75-0.15-5.641h6.689
		c0,1.801-0.029,3.631-0.06,5.58c2.399,0,5.46,0.029,9.839,0.15l0.181,2.189c-2.101,0-4.05,0-5.88,0.029
		c2.58,3.33,5.22,7.32,7.74,11.641l-4.92,3.898C635.354,512.42,632.924,508.16,630.194,503.811z"/>
	<path class="st1" d="M656.024,499.34l-11.939,0.631l-0.15-1.859l3.899-0.09l-0.389-4.65l5.039-0.211l-0.3,4.74l3.84-0.09V499.34z
		 M644.535,508.551l11.01-0.42l-0.301,10.709l-9.959-0.029L644.535,508.551z M655.244,502.941l-10.469,0.539l-0.121-1.98
		l10.561-0.09L655.244,502.941z M644.955,506.721l-0.15-1.621l10.439-0.568l-0.15,2.01L644.955,506.721z M648.914,509.721
		l0.181,7.799l2.249-0.029l0.061-7.74L648.914,509.721z M671.414,505.939l-0.091,1.441l-15.179,0.449l-0.18-2.07l2.159,0.031
		l0.63-4.291l-2.34,0.301l-0.12-2.221l2.79-0.119l0.54-3.75l-3.3-0.09l0.03-1.5l13.441-0.12l-0.03,1.951l-5.52-0.15l-0.57,3.449
		l6.03-0.27l0.18,6.93L671.414,505.939z M670.454,509.33l0.119,9.09l-13.439,0.27l-0.18-9.389L670.454,509.33z M665.624,516.859
		l-0.271-6.09l-3.27-0.059l-0.03,6.479L665.624,516.859z M662.594,505.85l3.03,0.031l-0.42-5.16l-1.8,0.209L662.594,505.85z"/>
	<path class="st2" d="M684.975,517.91c1.35-4.381,2.55-10.561,2.55-13.141c0-2.43-1.05-3.449-3.63-3.449
		c-0.78,5.369-1.44,10.891-1.86,15.539c-2.399-0.33-4.17-0.479-5.67-0.51c0.48-3.27,2.011-11.729,2.55-14.1
		c-1.499,0.541-3.09,1.17-4.68,1.861l-0.659-2.49c1.739-0.631,4.409-1.441,5.939-1.801c0.33-1.65,0.78-3.689,1.5-6.898
		c1.439,0.148,2.85,0.238,4.229,0.27c-0.42,1.529-0.81,3.719-1.05,5.85c0.39-0.061,0.75-0.09,1.229-0.09
		c4.86,0,7.47,2.969,7.47,8.488c0,2.762-0.63,6.271-2.01,10.98C687.464,518.09,686.654,518.029,684.975,517.91z M694.034,499.4
		c1.68-0.33,2.88-0.6,4.29-0.959c1.289,4.469,1.92,8.369,2.22,13.859c-1.62,0.119-3.061,0.27-4.92,0.51
		C695.054,505.58,694.694,502.551,694.034,499.4z"/>
	<path class="st2" d="M702.045,514.91c1.56-5.609,3.18-10.35,4.829-14.1c-0.72,0.029-2.01,0.18-3.3,0.391l-0.18-2.67
		c1.2-0.18,2.91-0.391,4.68-0.57c1.02-2.16,1.95-3.961,2.88-5.641c1.74,0.211,3.24,0.602,4.649,1.201
		c-0.869,1.979-1.289,3.029-1.619,4.049c1.409-0.09,5.819-0.18,8.999-0.18l0.21,2.881c-1.14-0.061-3.449-0.121-5.039-0.121
		c-1.591,0-3.36,0.061-5.221,0.15c-1.89,4.889-3.93,11.459-5.249,16.799C703.574,515.539,703.364,515.449,702.045,514.91z
		 M710.294,514.369c0-3.27,2.7-5.369,6.9-5.398c-0.091-2.461-0.301-5.1-0.511-6.33c4.08,0,8.52,0.09,10.35,0.209l-0.09,2.67
		c-2.04-0.33-3.6-0.539-5.399-0.809c0.09,0.99,0.18,2.699,0.27,5.068c1.86,0.57,3.78,1.711,5.76,3.391l-1.319,3.029
		c-1.74-1.648-3.15-2.789-4.351-3.479c0,1.529-0.12,3.539-0.39,5.908c-1.53,0.271-2.85,0.391-4.17,0.391
		C712.634,519.02,710.294,517.459,710.294,514.369z M717.224,511.52c-1.59,0-2.489,1.051-2.489,2.85c0,1.801,0.899,2.941,2.43,3.15
		L717.224,511.52z"/>
	<path class="st2" d="M747.913,508.371c2.49,2.039,5.399,4.26,8.729,6.6l-5.609,4.83c-2.28-1.771-4.77-4.08-7.2-6.602
		c-2.76,2.91-5.699,5.34-8.069,6.42l-5.37-3.658c3.39-1.441,6.99-3.75,10.17-6.391c-2.88-3.33-5.399-6.75-7.08-9.66l-3.42-0.059
		l0.12-2.25l10.74-0.182l-0.301-5.248l5.76,0.18l-0.27,4.979l10.709-0.18l0.12,3.15l-4.26-0.061
		C751.753,502.67,750.013,505.551,747.913,508.371z M739.424,500c1.38,1.771,3.149,3.631,5.31,5.611
		c1.71-1.83,3.12-3.691,4.08-5.461L739.424,500z"/>
	<path class="st2" d="M765.014,504.32l-5.189,0.029l0.33-7.979l10.409,0.029l-0.15-4.379l6.18,0.09l-0.149,4.289l10.409,0.031
		l0.33,8.129l-5.159-0.211l0.149-5.729l-17.339-0.27L765.014,504.32z M776.203,509.48l10.5,0.15l-0.21,2.068l-10.17,0.15
		c0.06,2.49,0.12,5.311,0.12,8.1l-11.279-1.17l0.18-1.92l4.949-0.059c0.091-1.17,0.15-2.91,0.24-4.861l-10.02,0.15l-0.18-2.82
		l10.289,0.15c0.03-1.049,0.03-2.1,0.061-3.119l1.109-0.061c0.99-1.08,2.221-2.609,2.82-3.57l-8.699,0.631l0.119-2.609h14.97
		l0.09,1.379c-0.689,1.199-2.489,3.24-4.979,5.609L776.203,509.48z"/>
	<path class="st1" d="M793.693,514.76c6.811-5.699,10.29-10.17,12.21-15.658c-4.92-0.031-11.37,0.479-16.289,1.318l-0.21-3.779
		c3.989-0.18,7.379-0.27,10.529-0.27c4.319,0,8.13,0.18,12.27,0.539c-1.32,8.25-5.19,15.57-11.46,21.75
		C798.434,517.67,796.063,516.35,793.693,514.76z"/>
	<path class="st1" d="M822.344,520.039c0-4.109-0.03-6.689-0.12-9.6c-1.38,3.51-3.42,6.6-6.149,9.211
		c-1.53-0.93-3.061-1.951-4.47-3.09c3.119-2.4,5.52-5.25,7.259-8.52c1.2,0.389,2.341,0.809,3.33,1.199l-0.12-2.76
		c-2.97,0.119-5.819,0.18-8.489,0.18h-1.5l0.18-2.459c2.91,0.24,6.45,0.359,8.58,0.359h1.14c-0.029-1.199-0.149-3.449-0.21-4.109
		c0.48-0.061,2.28-0.09,3.57-0.09h1.109c0.09,1.289,0.181,2.939,0.21,3.898c1.38-0.148,2.46-0.299,3.42-0.479l0.271,2.43
		c-1.5,0.09-2.61,0.15-3.63,0.15c0.06,1.68,0.09,3.51,0.09,5.338c0,3.09-0.09,6.15-0.24,8.371h-1.229
		C824.144,520.07,822.943,520.039,822.344,520.039z"/>
	<path class="st1" d="M829.574,496.041c3.66,0.119,7.44,0.51,10.23,1.049l-0.421,3.721c-1.56-0.061-3.209-0.061-4.919-0.061
		c-1.681,0-3.36,0-5.01,0.061L829.574,496.041z M830.805,512.9c7.29-4.32,13.169-8.971,17.549-13.83l3.03,2.34
		c-4.56,7.32-9.84,12.93-15.93,16.92C833.744,516.561,832.215,514.76,830.805,512.9z"/>
	<path class="st1" d="M852.884,494c2.52-0.119,5.1-0.209,7.05-0.238c0.18,2.729,0.3,6.209,0.359,10.139l1.891-2.129
		c3.06,1.619,5.609,3.359,7.47,5.1l-3.09,3.479c-1.53-1.439-4.32-3.539-6.271-4.68c0,3.6-0.029,7.199-0.09,12.99
		c-1.83,0-5.1-0.061-6.209-0.121C853.994,508.971,853.634,500.781,852.884,494z"/>
	<path class="st2" d="M40.863,561.25c1.98-5.369,2.94-10.83,2.91-16.35c1.83-0.119,4.65-0.18,5.4-0.15l0.06,5.041
		c1.44-1.951,2.79-4.26,4.05-6.93c-1.35-0.121-2.79-0.18-4.32-0.18c-4.44,0-9.36,0.51-13.83,1.439v-3.66
		c4.44-0.33,8.49-0.51,12.149-0.51c4.89,0,9.21,0.299,12.689,0.9c-1.02,4.02-2.729,8.189-5.04,12.418
		c-2.37-0.809-4.32-1.619-5.79-2.398c-0.24,3.988-0.72,7.889-1.41,11.52C45.842,562.27,43.563,561.881,40.863,561.25z"/>
	<path class="st2" d="M58.473,558.971c2.73-4.98,4.08-10.23,4.62-17.971l5.459,0.24c-0.27,7.68-1.17,14.221-2.7,19.439
		C63.752,560.471,61.292,559.9,58.473,558.971z M71.792,553.09c0-5.189-0.18-8.879-0.51-11.58l6.33-0.658
		c0.21,2.639,0.33,5.189,0.33,7.619c0,2.4-0.12,4.949-0.33,7.619c2.49-0.539,5.19-1.379,7.47-2.369l1.02,3.66
		c-4.83,1.289-9.12,1.979-14.399,2.309C71.762,557.381,71.792,555.189,71.792,553.09z"/>
	<path class="st2" d="M87.993,558.76c6.81-5.699,10.29-10.17,12.209-15.658c-4.92-0.031-11.37,0.479-16.29,1.318l-0.21-3.779
		c3.99-0.18,7.38-0.27,10.53-0.27c4.32,0,8.129,0.18,12.27,0.539c-1.32,8.25-5.19,15.57-11.46,21.75
		C92.732,561.67,90.362,560.35,87.993,558.76z"/>
	<path class="st2" d="M111.692,563.379c1.59-4.289,2.34-8.668,2.31-13.078c1.47-0.09,3.72-0.15,4.32-0.121l0.06,4.021
		c1.14-1.561,2.22-3.391,3.24-5.521c-1.08-0.119-2.22-0.148-3.45-0.148c-3.57,0-7.5,0.389-11.07,1.139v-2.91
		c3.54-0.27,6.78-0.42,9.72-0.42c3.9,0,7.38,0.24,10.14,0.721c-0.81,3.209-2.16,6.539-4.02,9.93c-1.89-0.631-3.45-1.291-4.62-1.92
		c-0.21,3.209-0.6,6.33-1.14,9.209C115.682,564.189,113.853,563.891,111.692,563.379z"/>
	<path class="st2" d="M137.582,548.17c-1.89,2.221-4.29,4.561-7.8,7.711l-2.52-3.361c2.4-1.59,9.12-7.078,11.46-9.359
		c4.56,3.391,10.29,7.109,16.979,11.07c-1.17,1.949-2.52,3.84-4.05,5.639C146.311,555.791,141.511,551.801,137.582,548.17z
		 M145.651,541l3.45-0.209c0.21,2.1,0.45,4.17,0.72,6.15l-3.54,0.18L145.651,541z M149.911,540.641l3.36-0.301
		c0.33,2.4,0.54,4.441,0.69,6.271l-3.27,0.299C150.511,545.35,150.301,543.521,149.911,540.641z"/>
	<path class="st2" d="M155.402,547.09c1.26-0.33,2.82-0.66,4.26-0.93c0.36,2.49,0.84,4.98,1.53,7.439
		c-1.17,0.24-2.49,0.602-3.69,1.051C156.692,552.4,156.032,549.971,155.402,547.09z M161.042,562.42
		c4.77-4.98,7.83-10.049,9.42-15.66c1.89,0.66,3.51,1.291,5.04,1.92c-3.06,7.891-6.6,13.051-11.189,16.32L161.042,562.42z
		 M162.182,545.17c1.32-0.148,2.88-0.209,4.38-0.18c0.06,1.65,0.09,5.641,0.09,7.35c-1.77,0.09-3,0.18-3.9,0.301
		C162.542,551.109,162.211,546.971,162.182,545.17z"/>
	<path class="st2" d="M177.002,538c2.52-0.119,5.1-0.209,7.05-0.238c0.18,2.729,0.3,6.209,0.36,10.139l1.89-2.129
		c3.06,1.619,5.609,3.359,7.469,5.1l-3.09,3.479c-1.53-1.439-4.32-3.539-6.27-4.68c0,3.6-0.03,7.199-0.09,12.99
		c-1.83,0-5.1-0.061-6.21-0.121C178.112,552.971,177.752,544.781,177.002,538z"/>
	<path class="st2" d="M195.452,555.971c0-2.041,0.75-3.75,2.76-6.51l-3.03,0.33c-0.51-3.361-0.81-7.291-0.81-11.16
		c1.62-0.301,3.57-0.48,6.03-0.57c-0.27,2.01-0.51,6.301-0.51,9.27c2.52-2.219,5.79-4.559,9.72-6.959c1.41,1.41,2.67,3,3.72,4.65
		c-9.33,4.828-13.349,8.398-13.349,11.818c0,1.949,1.29,3,3.69,3c2.16,0,6.149-0.811,9.179-1.891l0.69,2.91
		c-3.18,0.93-6.75,1.471-9.509,1.471C198.512,562.33,195.452,560.08,195.452,555.971z"/>
	<path class="st2" d="M224.461,541.961l4.32,0.09l-0.03,1.68l-13.589,0.061l-0.15-1.98l4.8,0.09l-0.45-4.889l5.49,0.029
		L224.461,541.961z M215.491,552.641l12.689-0.33l-0.54,10.619l-11.52,0.061L215.491,552.641z M215.791,549.25l12.12-0.539
		l-0.18,2.07l-11.76,0.18L215.791,549.25z M228.091,547.09l-12.12,0.391l-0.06-2.039l12.18-0.092V547.09z M220.081,561.369
		l3.42,0.15l-0.06-7.559l-3.15,0.119L220.081,561.369z M239.521,552.1l3,0.24l-0.03,10.289l-11.879,0.271
		c-0.51-2.49-0.84-8.641-0.84-15.27l7.41-0.27l-0.12-6.24l-7.98,0.061l0.21-2.34l13.379,0.809l-0.45,9.689h-7.62
		c0,4.02,0.51,9.029,1.26,11.76l2.34-0.359L239.521,552.1z"/>
	<path class="st2" d="M244.741,555.91c0-0.961,0.24-2.039,0.72-3.209l2.311,0.539c-0.09,1.92,1.83,3.029,5.25,3.029
		c2.699,0,6.119-0.689,9.629-1.949c0.45,1.471,0.811,3.09,1.141,5.129c-2.16,0.9-7.68,1.771-11.04,1.771
		C247.711,561.221,244.741,559.24,244.741,555.91z M256.561,544.42l0.48-2.818c-1.32-0.182-2.61-0.271-3.689-0.271
		c-1.891,0-4.26,0.271-7.471,0.871l-0.539-2.52c2.189-0.451,4.439-0.66,6.899-0.66c4.38,0,8.699,0.689,10.739,1.68
		c-0.84,2.01-1.65,3.479-2.52,4.559L256.561,544.42z M258.33,547.121l3.66-0.57c0.391,1.68,0.75,3.66,1.08,5.609l-3.689,0.57
		C259.171,551.17,258.841,549.461,258.33,547.121z M262.86,546.371l3.3-0.48c0.391,1.35,0.721,3.029,1.08,5.52l-3.359,0.541
		C263.61,550.27,263.16,547.811,262.86,546.371z"/>
	<path class="st2" d="M270.961,560.23c7.23-3.48,11.16-7.051,11.16-10.17c0-1.74-1.23-2.58-3.689-2.58
		c-2.221,0-5.521,0.689-10.08,2.07l-0.811-2.881c4.53-1.02,8.25-1.5,11.28-1.5c5.999,0,9.18,1.951,9.18,5.641
		c0,4.17-4.05,9.059-10.649,12.809C274.801,562.48,272.762,561.4,270.961,560.23z M273.332,539.951c1.35-1.68,2.189-2.58,3.449-3.6
		c2.699,1.049,6,3.209,7.59,4.949l-2.46,2.85C280.171,542.771,276.211,540.852,273.332,539.951z"/>
	<path class="st2" d="M298.921,561.609c2.19-5.068,3.899-10.738,3.899-12.959c0-1.891-1.199-3-3.299-3
		c-1.261,4.83-2.431,9.869-3.42,14.67c-2.221-0.48-4.021-0.811-5.58-1.02c0.81-3.09,3-10.41,3.959-13.26
		c-1.649,0.359-3.569,0.9-4.859,1.35l-0.42-2.43c2.04-0.51,5.07-1.08,6.119-1.17c0.75-2.371,1.351-4.17,2.16-6.449
		c1.23,0.27,2.4,0.449,4.17,0.658c-0.66,1.83-1.199,3.75-1.59,5.521c5.16,0.148,7.891,2.67,7.891,7.289
		c0,2.879-1.051,6.75-3.181,11.879L298.921,561.609z M304.201,537.91l3.449-0.27c0.24,1.5,0.42,3.541,0.51,5.699l-3.479,0.211
		C304.591,542.201,304.471,540.49,304.201,537.91z M308.67,537.551l3.631-0.24c0.27,2.1,0.449,4.02,0.539,5.699l-3.779,0.211
		C309.03,541.9,308.791,538.361,308.67,537.551z M310.11,551.891c0-3.029-0.09-5.311-0.3-7.08c1.109-0.061,3.029-0.301,4.35-0.539
		c0.63,3.539,0.9,6.479,0.9,9.93c0,1.139-0.03,2.279-0.09,3.568h-4.95C310.08,555.551,310.11,553.66,310.11,551.891z"/>
	<path class="st2" d="M316.561,562.18c0.181-3.959,0.541-7.77,1.08-11.43c2.101-0.029,3.811,0.09,5.28,0.391
		c-0.33,2.43-0.54,4.41-0.66,5.699c1.351,0.961,3.12,1.5,4.38,1.5c1.92,0,3-1.289,3-2.969c0-2.432-2.22-5.49-4.83-6.871
		c1.23-1.529,2.76-3.09,4.05-4.17c-1.079-1.109-2.669-2.129-4.919-3.148c1.02-1.441,2.309-2.611,3.779-3.57
		c3.42,2.309,4.71,3.689,6.42,6.629c-1.32,0.721-2.61,1.59-3.9,2.67c3.391,3.42,4.561,5.609,4.561,8.4c0,3.689-2.041,5.49-5.85,5.49
		c-2.131,0-4.711-0.57-6.9-1.441c-0.09,1.111-0.15,1.92-0.21,2.971C320.251,562.301,318.421,562.24,316.561,562.18z
		 M336.301,550.961c1.35-0.18,2.789-0.24,5.1-0.24c0.39,3.51,0.72,7.26,0.99,11.25c-1.53,0.209-3.45,0.33-5.461,0.33
		C336.9,558.43,336.69,554.65,336.301,550.961z"/>
	<path class="st2" d="M356.58,556.93c0-0.719,0.061-1.529,0.18-2.4c-2.31,0-3.39,1.41-6.449,8.521c-1.62-0.48-3.24-1.08-6.12-2.221
		c4.44-7.439,7.56-11.219,11.729-14.129c-3.689,0.24-7.289,0.75-10.739,1.529l-0.33-3.09c4.439-0.24,12.869-0.42,18.449-0.42
		l0.3,2.789c-2.25,0.42-4.68,2.07-7.32,4.98c1.471-0.029,3.541,0.09,4.801,0.301c0,3.809,1.08,5.398,3.689,5.398
		c0.6,0,1.65-0.059,2.55-0.148c0,1.469-0.12,3.748-0.239,4.949c-1.291,0.18-2.461,0.27-3.48,0.27
		C358.8,563.26,356.58,561.25,356.58,556.93z M353.04,536.23c0.899-0.119,3.271-0.209,5.46-0.209c0.359,2.25,0.6,4.74,0.66,7.139
		c-0.57,0-3.21,0.061-4.561,0.121C354.33,541.391,353.85,539.201,353.04,536.23z"/>
	<path class="st2" d="M374.19,552.281c0-4.17,1.89-7.74,5.7-10.74c-5.07,0.33-8.37,0.9-13.95,2.43l-0.42-3.24
		c6-0.93,10.71-1.35,15.509-1.35c2.851,0,5.91,0.15,8.19,0.391l-0.149,2.34c-5.641,0-9.45,2.969-9.45,7.35
		c0,2.789,1.53,5.398,5.61,9.6c-1.5,1.229-3.33,2.398-5.701,3.689C375.811,559.33,374.19,556.15,374.19,552.281z"/>
	<path class="st2" d="M391.62,555.791l2.909-1.83c1.86,1.709,3.511,3.898,5.01,6.568l-3.93,2.371
		C394.35,560.35,393.029,557.98,391.62,555.791z"/>
	<path class="st2" d="M417.84,561.91c1.35-4.381,2.55-10.561,2.55-13.141c0-2.43-1.05-3.449-3.63-3.449
		c-0.78,5.369-1.439,10.891-1.86,15.539c-2.399-0.33-4.169-0.479-5.669-0.51c0.479-3.27,2.01-11.729,2.549-14.1
		c-1.5,0.541-3.09,1.17-4.68,1.861l-0.66-2.49c1.74-0.631,4.41-1.441,5.94-1.801c0.33-1.65,0.78-3.689,1.5-6.898
		c1.44,0.148,2.85,0.238,4.229,0.27c-0.42,1.529-0.81,3.719-1.05,5.85c0.39-0.061,0.75-0.09,1.229-0.09
		c4.86,0,7.471,2.969,7.471,8.488c0,2.762-0.631,6.271-2.01,10.98C420.33,562.09,419.52,562.029,417.84,561.91z M426.899,543.4
		c1.68-0.33,2.88-0.6,4.29-0.959c1.289,4.469,1.92,8.369,2.219,13.859c-1.619,0.119-3.059,0.27-4.919,0.51
		C427.919,549.58,427.559,546.551,426.899,543.4z"/>
	<path class="st2" d="M446.34,551.051c-3.33,0-5.67,3.75-6.96,11.158c-1.771-0.09-3.479-0.238-5.069-0.479
		c1.619-8.609,4.619-17.85,7.92-24.24c2.43,0.33,4.739,0.93,6.749,1.771c-2.37,3.869-4.021,7.109-4.89,9.689
		c1.199-0.15,2.22-0.211,3.42-0.211c1.199,0,2.55,0.061,4.47,0.24c-0.181,1.98-0.271,3.66-0.271,5.01c0,4.5,0.99,6.029,3.84,6.029
		c1.051,0,2.43-0.209,3.961-0.6l0.299,2.34c-2.219,0.42-3.869,0.6-5.43,0.6C448.289,562.359,446.34,559.631,446.34,551.051z"/>
	<path class="st2" d="M467.22,548.32l-5.19,0.029l0.33-7.979l10.41,0.029l-0.15-4.379l6.18,0.09l-0.149,4.289l10.409,0.031
		l0.33,8.129l-5.16-0.211l0.15-5.729l-17.34-0.27L467.22,548.32z M478.409,553.48l10.499,0.15l-0.209,2.068l-10.17,0.15
		c0.061,2.49,0.12,5.311,0.12,8.1l-11.28-1.17l0.181-1.92l4.95-0.059c0.09-1.17,0.149-2.91,0.239-4.861l-10.02,0.15l-0.18-2.82
		l10.29,0.15c0.029-1.049,0.029-2.1,0.06-3.119l1.11-0.061c0.989-1.08,2.219-2.609,2.819-3.57l-8.7,0.631l0.121-2.609h14.969
		l0.09,1.379c-0.689,1.199-2.49,3.24-4.979,5.609L478.409,553.48z"/>
	<path class="st2" d="M496.439,552.551c-1.859,0.209-3.09,0.389-4.05,0.6l-0.39-2.85c1.23-0.211,2.609-0.391,4.38-0.57
		c0-1.289,0.03-2.641,0.09-4.109c-1.771,0.09-3.33,0.24-4.62,0.449l-0.24-2.939c1.381-0.15,2.791-0.27,4.98-0.42
		c0.15-2.1,0.3-3.93,0.48-5.82c1.949,0.061,3.869,0.18,6.148,0.42c-0.239,2.131-0.389,3.6-0.51,5.221c2.58,0,4.891,0.09,7.17,0.27
		l-0.119,2.879c-1.74-0.18-4.26-0.27-7.29-0.27c-0.12,1.08-0.21,2.4-0.271,3.9c2.46,0,5.79,0.119,7.26,0.27l-0.24,2.791
		c-1.35-0.182-3.629-0.301-5.549-0.301c-0.57,0-1.11,0-1.59,0.029c-0.031,0.66-0.061,1.26-0.061,1.83c0,4.59,0.99,6.689,3.061,6.689
		c2.219,0,5.609-2.369,7.829-5.459l2.43,2.58c-2.85,3.719-6.479,5.549-10.979,5.549C498.779,563.289,496.71,560.5,496.439,552.551z"
		/>
	<path class="st2" d="M520.08,553.871l-3.12-0.99l3.749-13.109l5.67,2.639L520.08,553.871z M540.689,553.99l-1.291-3.869
		c-2.729,5.969-8.279,10.979-15.329,13.318l-5.85-3.42c5.489-1.41,10.439-3.93,14.249-6.93l-7.319-1.26l0.06-1.709l3.48-0.211
		l-0.18-13.229l5.459-0.121l-0.39,15.6c1.979-1.709,3.569-3.57,4.68-5.459l-1.86-5.58l4.26-1.32l4.86,11.369L540.689,553.99z"/>
	<path class="st2" d="M547.74,550.121c0-3.061,0.239-6.781,0.719-11.221c1.17-0.119,4.41-0.24,6.33-0.24
		c-0.84,5.881-1.26,10.26-1.26,13.529c0,5.82,1.29,8.43,4.141,8.43c2.189,0,4.889-1.529,8.1-4.559l1.949,2.549
		c-3.6,3.18-7.14,4.65-11.25,4.65C550.109,563.26,547.74,559.721,547.74,550.121z"/>
	<path class="st2" d="M571.199,557.619c7.289-4.26,10.229-6.93,10.229-9.238c0-1.859-1.89-3.061-4.771-3.061
		c-2.85,0-7.859,1.17-14.249,3.359l-0.69-3.42c5.041-1.318,11.46-2.309,15.09-2.309c6.18,0,10.41,2.85,10.41,7.049
		c0,4.26-4.44,9.359-10.891,12.449C574.648,561.221,572.939,559.6,571.199,557.619z"/>
	<path class="st2" d="M599.818,561.91c1.351-4.381,2.551-10.561,2.551-13.141c0-2.43-1.051-3.449-3.63-3.449
		c-0.78,5.369-1.44,10.891-1.86,15.539c-2.399-0.33-4.17-0.479-5.67-0.51c0.48-3.27,2.01-11.729,2.551-14.1
		c-1.5,0.541-3.09,1.17-4.68,1.861l-0.66-2.49c1.739-0.631,4.409-1.441,5.939-1.801c0.33-1.65,0.779-3.689,1.5-6.898
		c1.439,0.148,2.85,0.238,4.229,0.27c-0.42,1.529-0.81,3.719-1.05,5.85c0.391-0.061,0.75-0.09,1.23-0.09
		c4.859,0,7.469,2.969,7.469,8.488c0,2.762-0.629,6.271-2.01,10.98C602.309,562.09,601.499,562.029,599.818,561.91z M608.879,543.4
		c1.68-0.33,2.88-0.6,4.289-0.959c1.291,4.469,1.92,8.369,2.221,13.859c-1.62,0.119-3.061,0.27-4.92,0.51
		C609.898,549.58,609.539,546.551,608.879,543.4z"/>
	<path class="st2" d="M629.279,556.93c0-0.719,0.06-1.529,0.18-2.4c-2.311,0-3.391,1.41-6.45,8.521
		c-1.62-0.48-3.239-1.08-6.12-2.221c4.44-7.439,7.561-11.219,11.73-14.129c-3.69,0.24-7.29,0.75-10.74,1.529l-0.33-3.09
		c4.44-0.24,12.869-0.42,18.449-0.42l0.301,2.789c-2.25,0.42-4.68,2.07-7.32,4.98c1.471-0.029,3.54,0.09,4.8,0.301
		c0,3.809,1.08,5.398,3.69,5.398c0.6,0,1.649-0.059,2.549-0.148c0,1.469-0.119,3.748-0.239,4.949c-1.29,0.18-2.46,0.27-3.479,0.27
		C631.498,563.26,629.279,561.25,629.279,556.93z M625.738,536.23c0.9-0.119,3.271-0.209,5.461-0.209
		c0.359,2.25,0.6,4.74,0.659,7.139c-0.569,0-3.21,0.061-4.56,0.121C627.029,541.391,626.549,539.201,625.738,536.23z"/>
	<path class="st2" d="M643.649,558.76c0-2.76,2.579-4.949,5.79-4.949c2.31,0,4.049,1.109,4.77,3c0.57-0.781,0.84-1.65,0.84-2.461
		c0-2.459-2.279-4.738-5.46-4.738c-2.34,0-4.05,1.229-5.88,4.199l-4.89-3c3.87-4.529,8.069-8.551,10.859-10.41
		c-2.22,0.301-4.35,0.66-6.989,1.17l-0.15-3.389c3.42-0.271,7.29-0.451,10.109-0.451c1.11,0,2.07,0.031,2.76,0.09l0.121,2.34
		c-2.4,1.41-5.221,4.141-7.26,7.08c1.049-0.27,2.069-0.391,3.06-0.391c4.77,0,8.489,3.031,8.489,7.471
		c0,4.799-4.32,8.309-10.26,8.309C645.779,562.629,643.649,561.221,643.649,558.76z M650.908,558.07c0-1.26-0.6-2.221-1.439-2.221
		c-0.869,0-1.529,1.02-1.529,2.49c0,1.23,0.689,2.221,1.56,2.221C650.339,560.561,650.908,559.57,650.908,558.07z"/>
	<path class="st2" d="M661.619,557.619c0-3.029,2.85-4.918,8.009-5.309c-0.3-5.25-0.96-10.199-1.979-14.879
		c1.56-0.42,3.689-0.631,6.12-0.631c0.27,1.98,0.51,4.32,0.75,7.379c1.649-0.299,4.8-0.658,6.689-0.779l0.18,2.881l-6.72,0.09
		c0.09,1.109,0.12,3.449,0.12,6.42c2.97,0.719,5.76,2.01,7.83,3.568l-1.83,3.15c-2.04-1.77-4.02-3.15-6.03-4.199
		c-0.06,2.639-0.3,5.699-0.54,7.139c-1.26,0.121-2.43,0.18-3.479,0.18C664.828,562.629,661.619,560.891,661.619,557.619z
		 M669.748,554.471c-2.25,0.18-3.449,1.139-3.449,2.76c0,1.83,1.5,3.209,3.39,3.15L669.748,554.471z"/>
	<path class="st2" d="M686.639,560.23c7.23-3.48,11.16-7.051,11.16-10.17c0-1.74-1.23-2.58-3.69-2.58
		c-2.22,0-5.52,0.689-10.079,2.07l-0.81-2.881c4.529-1.02,8.249-1.5,11.279-1.5c6,0,9.18,1.951,9.18,5.641
		c0,4.17-4.05,9.059-10.649,12.809C690.479,562.48,688.439,561.4,686.639,560.23z M689.009,539.951c1.351-1.68,2.19-2.58,3.45-3.6
		c2.7,1.049,6,3.209,7.59,4.949l-2.46,2.85C695.849,542.771,691.889,540.852,689.009,539.951z"/>
	<path class="st2" d="M706.079,553.451c0-5.041,0.66-10.41,1.86-15.18c2.43,0.33,4.379,0.689,5.999,1.109
		c-1.5,4.65-2.37,10.469-2.37,15.869c0,1.41,0.061,2.76,0.181,4.051l2.819-0.211l0.24,2.041c-2.13,0.75-4.71,1.229-7.77,1.439
		C706.409,560.109,706.079,556.99,706.079,553.451z M716.398,556.15c0-0.99,0.21-2.16,0.51-3.061c0.721,0.09,1.38,0.211,2.221,0.42
		c0,2.221,0.869,3.09,3.029,3.09c1.59,0,4.98-0.479,7.83-1.08c0.18,0.781,0.63,3.51,0.779,4.74c-2.55,0.811-4.859,1.199-7.049,1.199
		C718.919,561.459,716.398,559.631,716.398,556.15z M722.128,544.09c-1.859,0-3.659,0.24-5.399,0.721l-0.3-2.43
		c2.609-0.721,5.79-1.141,8.699-1.141c2.311,0,4.23,0.27,5.34,0.75c-0.239,0.961-0.54,1.801-1.05,3.15
		C726.718,544.42,724.378,544.09,722.128,544.09z"/>
	<path class="st2" d="M732.569,558.91c1.56-5.609,3.18-10.35,4.829-14.1c-0.72,0.029-2.01,0.18-3.3,0.391l-0.18-2.67
		c1.2-0.18,2.91-0.391,4.68-0.57c1.02-2.16,1.95-3.961,2.88-5.641c1.74,0.211,3.24,0.602,4.649,1.201
		c-0.869,1.979-1.289,3.029-1.619,4.049c1.409-0.09,5.819-0.18,8.999-0.18l0.21,2.881c-1.14-0.061-3.449-0.121-5.039-0.121
		c-1.591,0-3.36,0.061-5.221,0.15c-1.89,4.889-3.93,11.459-5.249,16.799C734.099,559.539,733.889,559.449,732.569,558.91z
		 M740.818,558.369c0-3.27,2.7-5.369,6.9-5.398c-0.091-2.461-0.301-5.1-0.511-6.33c4.08,0,8.52,0.09,10.35,0.209l-0.09,2.67
		c-2.04-0.33-3.6-0.539-5.399-0.809c0.09,0.99,0.18,2.699,0.27,5.068c1.86,0.57,3.78,1.711,5.76,3.391l-1.319,3.029
		c-1.74-1.648-3.15-2.789-4.351-3.479c0,1.529-0.119,3.539-0.39,5.908c-1.53,0.271-2.85,0.391-4.17,0.391
		C743.158,563.02,740.818,561.459,740.818,558.369z M747.748,555.52c-1.59,0-2.489,1.051-2.489,2.85c0,1.801,0.899,2.941,2.43,3.15
		L747.748,555.52z"/>
	<path class="st2" d="M760.528,545.051c0-2.791,0.3-5.221,0.96-7.561c1.409,0.18,2.52,0.361,5.489,0.9
		c-0.75,2.609-1.32,7.199-1.29,10.199l2.64-0.148l0.181,2.039c-1.83,0.209-3.9,0.391-7.2,0.629
		C760.768,549.49,760.528,547.541,760.528,545.051z M766.857,561.82c4.32-5.85,6.03-10.74,6.03-17.219
		c0-2.221-0.21-4.621-0.57-6.811c1.89-0.33,3.45-0.48,5.16-0.541c0.27,2.791,0.42,5.34,0.42,7.801c0,7.619-1.351,13.469-4.26,18.299
		C771.598,562.959,769.348,562.449,766.857,561.82z"/>
	<path class="st2" d="M780.747,557.68c0-3.51,3.75-5.82,9.15-5.639l-0.091-2.611c-2.579,0-5.489-0.029-8.549-0.09l-0.03-2.85
		c3.689,0.211,6.149,0.301,8.43,0.33c-0.03-0.721-0.181-2.549-0.24-2.939c-2.939,0-5.489-0.029-9.119-0.09l0.029-2.609
		c2.73,0.18,5.521,0.27,8.79,0.27c-0.18-1.08-0.48-2.91-0.57-3.75l6.39-0.301c0.09,0.721,0.21,2.311,0.3,3.93
		c2.94-0.119,5.07-0.299,6.78-0.568l0.12,2.699c-2.64,0.209-4.53,0.33-6.72,0.391l0.09,2.908c2.85-0.148,4.649-0.27,6.33-0.42
		l-0.061,2.67c-3.029,0.18-4.29,0.24-6.27,0.301c0,1.23-0.06,2.43-0.18,3.629c2.819,0.871,5.279,2.191,7.47,3.99l-2.16,3.24
		c-1.65-1.77-3.51-3.27-5.55-4.529c-0.18,2.219-0.54,4.439-1.021,6.6c-1.289,0.24-2.52,0.359-4.05,0.359
		C783.957,562.6,780.747,560.891,780.747,557.68z M789.927,554.02c-2.37,0-3.96,1.32-3.96,3.33c0,1.891,1.38,2.939,3.78,2.939
		C789.837,558.01,789.927,555.25,789.927,554.02z"/>
	<path class="st2" d="M804.298,550.121c0-3.061,0.24-6.781,0.72-11.221c1.17-0.119,4.41-0.24,6.33-0.24
		c-0.84,5.881-1.26,10.26-1.26,13.529c0,5.82,1.29,8.43,4.14,8.43c2.189,0,4.89-1.529,8.1-4.559l1.95,2.549
		c-3.601,3.18-7.14,4.65-11.25,4.65C806.668,563.26,804.298,559.721,804.298,550.121z"/>
	<path class="st2" d="M825.657,561.789c0.93-5.609,2.52-13.348,3.45-16.768c-1.2,0.27-3,0.779-4.92,1.439l-0.51-2.49
		c1.68-0.51,4.319-1.109,6.029-1.41c0.39-1.471,1.11-3.779,1.77-5.699c2.13,0,3.931,0.15,5.46,0.449c-0.66,2.16-1.02,3.451-1.29,4.5
		c3.391-0.33,7.41-0.51,11.16-0.48l-0.3,2.91c-2.551-0.299-4.2-0.42-5.94-0.42c-1.5,0-3.149,0.09-5.399,0.27
		c-0.87,3.631-1.95,10.17-3.03,18.33C829.857,562.209,827.697,562,825.657,561.789z M836.427,557.92c0-1.289,0.72-2.641,1.83-3.391
		l1.859,0.541c-0.239,0.51-0.359,0.93-0.359,1.289c0,1.051,1.05,1.531,3.27,1.531c1.26,0,2.79-0.15,4.95-0.451
		c0.24,1.051,0.359,2.281,0.42,4.08c-1.351,0.15-2.73,0.211-4.02,0.211C839.156,561.73,836.427,560.41,836.427,557.92z
		 M836.727,548.051c1.771-0.57,4.59-0.9,7.53-0.9c1.5,0,2.85,0.09,4.05,0.27c-0.301,1.141-0.57,1.891-1.051,2.941
		c-1.35-0.451-2.669-0.66-4.199-0.66c-1.47,0-3.24,0.209-5.61,0.689L836.727,548.051z"/>
	<path class="st2" d="M850.828,559.029c0-2.52,1.859-4.199,4.59-4.199c2.609,0,4.35,1.561,4.35,3.93c0,2.49-1.92,4.23-4.68,4.23
		C852.508,562.99,850.828,561.43,850.828,559.029z M856.527,558.82c0-1.529-0.39-2.371-1.14-2.371c-0.84,0-1.319,1.021-1.319,2.73
		c0,1.471,0.359,2.189,1.109,2.189C856.048,561.369,856.527,560.471,856.527,558.82z"/>
</g>
</svg>
